<?xml version="1.0" encoding="UTF-8" standalone="no"?>
<svg
   xmlns:dc="http://purl.org/dc/elements/1.1/"
   xmlns:cc="http://creativecommons.org/ns#"
   xmlns:rdf="http://www.w3.org/1999/02/22-rdf-syntax-ns#"
   xmlns:svg="http://www.w3.org/2000/svg"
   xmlns="http://www.w3.org/2000/svg"
   xmlns:sodipodi="http://sodipodi.sourceforge.net/DTD/sodipodi-0.dtd"
   xmlns:inkscape="http://www.inkscape.org/namespaces/inkscape"
   viewBox="0 0 45 45"
   style="enable-background:new 0 0 45 45;"
   xml:space="preserve"
   version="1.1"
   id="svg2"
   sodipodi:docname="1f47f.svg"
   inkscape:version="0.92.2 5c3e80d, 2017-08-06"><sodipodi:namedview
     pagecolor="#ffffff"
     bordercolor="#666666"
     borderopacity="1"
     objecttolerance="10"
     gridtolerance="10"
     guidetolerance="10"
     inkscape:pageopacity="0"
     inkscape:pageshadow="2"
     inkscape:window-width="1303"
     inkscape:window-height="1050"
     id="namedview18"
     showgrid="false"
     inkscape:zoom="3.7083822"
     inkscape:cx="46.387987"
     inkscape:cy="26.96507"
     inkscape:window-x="0"
     inkscape:window-y="28"
     inkscape:window-maximized="0"
     inkscape:current-layer="svg2" /><metadata
     id="metadata8"><rdf:RDF><cc:Work
         rdf:about=""><dc:format>image/svg+xml</dc:format><dc:type
           rdf:resource="http://purl.org/dc/dcmitype/StillImage" /></cc:Work></rdf:RDF></metadata><defs
     id="defs6"><clipPath
       id="clipPath16"
       clipPathUnits="userSpaceOnUse"><path
         id="path18"
         d="M 0,36 36,36 36,0 0,0 0,36 Z" /></clipPath></defs><path
     style="color:#000000;font-style:normal;font-variant:normal;font-weight:normal;font-stretch:normal;font-size:medium;line-height:normal;font-family:sans-serif;font-variant-ligatures:normal;font-variant-position:normal;font-variant-caps:normal;font-variant-numeric:normal;font-variant-alternates:normal;font-feature-settings:normal;text-indent:0;text-align:start;text-decoration:none;text-decoration-line:none;text-decoration-style:solid;text-decoration-color:#000000;letter-spacing:normal;word-spacing:normal;text-transform:none;writing-mode:lr-tb;direction:ltr;text-orientation:mixed;dominant-baseline:auto;baseline-shift:baseline;text-anchor:start;white-space:normal;shape-padding:0;clip-rule:nonzero;display:inline;overflow:visible;visibility:visible;opacity:1;isolation:auto;mix-blend-mode:normal;color-interpolation:sRGB;color-interpolation-filters:linearRGB;solid-color:#000000;solid-opacity:1;vector-effect:none;fill:#000000;fill-opacity:1;fill-rule:nonzero;stroke:none;stroke-width:2;stroke-linecap:butt;stroke-linejoin:miter;stroke-miterlimit:4;stroke-dasharray:none;stroke-dashoffset:0;stroke-opacity:1;color-rendering:auto;image-rendering:auto;shape-rendering:auto;text-rendering:auto;enable-background:accumulate"
     clip-path="none"
     d="M 22.5 0 C 17.60125 0 13.081719 1.5834375 9.3867188 4.2421875 C 7.1379688 3.2496875 5.0863281 1.5449219 4.2675781 0.73242188 C 3.5538281 0.017421875 2.4754688 -0.19609375 1.5429688 0.19140625 C 0.60796875 0.57890625 -1.4802974e-16 1.48875 0 2.5 C 0 5.0075 0.71390625 8.8060939 2.8476562 11.558594 C 1.0401562 14.798594 0 18.52625 0 22.5 C 0 34.9275 10.07375 45 22.5 45 C 34.92625 45 45 34.9275 45 22.5 C 45 18.52625 43.959844 14.798594 42.152344 11.558594 C 44.287344 8.8060939 45 5.0075 45 2.5 C 45 1.48875 44.390781 0.57890625 43.457031 0.19140625 C 42.519531 -0.19609375 41.447422 0.016171875 40.732422 0.73242188 C 39.969922 1.4949219 37.889375 3.2314844 35.609375 4.2402344 C 31.915625 1.5827344 27.3975 0 22.5 0 z M 22.5 1 C 27.182254 1 31.492753 2.5091946 35.025391 5.0507812 L 35.490234 5.3847656 L 36.013672 5.1542969 C 38.475741 4.0649932 40.569921 2.3089851 41.439453 1.4394531 C 41.871488 1.0066629 42.507469 0.88017033 43.076172 1.1152344 C 43.63789 1.3495784 44 1.8910304 44 2.5 C 44 4.8180683 43.291313 8.4596417 41.363281 10.945312 L 40.957031 11.46875 L 41.279297 12.044922 C 43.007276 15.142377 44 18.700728 44 22.5 C 44 34.387099 34.385862 44 22.5 44 C 10.614138 44 1 34.387099 1 22.5 C 1 18.700728 1.9927245 15.142377 3.7207031 12.044922 L 4.0429688 11.46875 L 3.6386719 10.945312 C 1.7116295 8.4594622 1 4.817736 1 2.5 C 1 1.8900685 1.3612051 1.3492165 1.9257812 1.1152344 L 1.9277344 1.1132812 C 2.4871227 0.88082586 3.1314953 1.0096501 3.5605469 1.4394531 L 3.5605469 1.4414062 L 3.5625 1.4433594 C 4.4775169 2.3513914 6.5521467 4.0855858 8.9824219 5.1582031 L 9.5058594 5.3886719 L 9.9707031 5.0546875 C 13.504694 2.5117924 17.816781 1 22.5 1 z "
     id="path22" /><path
     id="path26"
     style="fill:#000000;fill-opacity:1;fill-rule:nonzero;stroke:none;stroke-width:1.25"
     d="m 19.868125,17.76425 -7.5,-3.75 c -1.235,-0.6175 -2.73625,-0.11625 -3.355,1.11875 -0.61625,1.235 -0.11625,2.73625 1.11875,3.35375 l 5.265,2.63375 c -0.38375,0.665 -0.3975,1.38 -0.3975,1.38 v 2.50125 c 0,0 0,2.5 2.5,2.5 2.5,0 2.5,-2.5 2.5,-2.5 V 22.5005 c 0,0 -0.0025,-0.135 -0.03125,-0.32875 0.4225,-0.23625 0.785,-0.5875 1.01875,-1.0525 0.61625,-1.23625 0.11625,-2.7375 -1.11875,-3.355"
     inkscape:connector-curvature="0" /><path
     id="path30"
     style="fill:#000000;fill-opacity:1;fill-rule:nonzero;stroke:none;stroke-width:1.25"
     d="m 35.986375,15.1325 c -0.61625,-1.2325 -2.1175,-1.73875 -3.355,-1.11875 l -7.5,3.75 c -1.235,0.61875 -1.735,2.12 -1.1175,3.355 0.2325,0.46625 0.595,0.8175 1.0175,1.05375 -0.0275,0.1925 -0.03125,0.32875 -0.03125,0.32875 v 2.5 c 0,0 0,2.5 2.5,2.5 2.5,0 2.5,-2.5 2.5,-2.5 v -2.5 c 0,0 -0.01375,-0.715 -0.3975,-1.38125 l 5.265,-2.6325 c 1.23625,-0.61875 1.73625,-2.12 1.11875,-3.355"
     inkscape:connector-curvature="0" /><path
     id="path34"
     style="fill:#000000;fill-opacity:1;fill-rule:nonzero;stroke:none;stroke-width:1.25"
     d="m 30.35275,36.993375 c -0.04875,-0.20625 -1.23125,-4.81 -7.8525,-4.81 -6.61375,0 -7.80625,4.61375 -7.8525,4.81 -0.07875,0.325 0.05875,0.65625 0.34125,0.82625 0.28375,0.16875 0.64375,0.1225 0.87875,-0.115 0.01875,-0.01875 1.97875,-1.9025 6.6325,-1.9025 4.6525,0 6.61375,1.88375 6.63,1.9 0.13625,0.14125 0.32375,0.22 0.51625,0.22 0.12375,0 0.24875,-0.0325 0.36125,-0.09875 0.28125,-0.16625 0.4225,-0.5075 0.345,-0.83"
     inkscape:connector-curvature="0" /></svg>