<?xml version="1.0" encoding="UTF-8" standalone="no"?>
<svg
   xmlns:dc="http://purl.org/dc/elements/1.1/"
   xmlns:cc="http://creativecommons.org/ns#"
   xmlns:rdf="http://www.w3.org/1999/02/22-rdf-syntax-ns#"
   xmlns:svg="http://www.w3.org/2000/svg"
   xmlns="http://www.w3.org/2000/svg"
   xmlns:sodipodi="http://sodipodi.sourceforge.net/DTD/sodipodi-0.dtd"
   xmlns:inkscape="http://www.inkscape.org/namespaces/inkscape"
   viewBox="0 0 45 45"
   style="enable-background:new 0 0 45 45;"
   xml:space="preserve"
   version="1.1"
   id="svg2"
   sodipodi:docname="1f47e.svg"
   inkscape:version="0.92.2 5c3e80d, 2017-08-06"><sodipodi:namedview
     pagecolor="#ffffff"
     bordercolor="#666666"
     borderopacity="1"
     objecttolerance="10"
     gridtolerance="10"
     guidetolerance="10"
     inkscape:pageopacity="0"
     inkscape:pageshadow="2"
     inkscape:window-width="1303"
     inkscape:window-height="1050"
     id="namedview11"
     showgrid="false"
     inkscape:zoom="5.2444444"
     inkscape:cx="4.0042373"
     inkscape:cy="14.872881"
     inkscape:window-x="0"
     inkscape:window-y="28"
     inkscape:window-maximized="0"
     inkscape:current-layer="svg2" /><metadata
     id="metadata8"><rdf:RDF><cc:Work
         rdf:about=""><dc:format>image/svg+xml</dc:format><dc:type
           rdf:resource="http://purl.org/dc/dcmitype/StillImage" /></cc:Work></rdf:RDF></metadata><defs
     id="defs6" /><path
     style="fill:#000000;fill-opacity:1;fill-rule:nonzero;stroke:none;stroke-width:1.25"
     d="M 16.25 2.5 L 16.25 7.5 L 12.5 7.5 L 12.5 10 L 10 10 L 10 12.5 L 7.5 12.5 L 7.5 21.25 L 2.5 21.25 L 2.5 23.75 L 7.5 23.75 L 7.5 32.5 L 12.5 32.5 L 12.5 38.75 L 18.75 38.75 L 18.75 32.5 L 26.25 32.5 L 26.25 38.75 L 32.5 38.75 L 32.5 32.5 L 37.5 32.5 L 37.5 23.75 L 42.5 23.75 L 42.5 21.25 L 37.5 21.25 L 37.5 12.5 L 35 12.5 L 35 10 L 32.5 10 L 32.5 7.5 L 28.75 7.5 L 28.75 2.5 L 26.25 2.5 L 26.25 7.5 L 18.75 7.5 L 18.75 2.5 L 16.25 2.5 z M 42.5 21.25 L 45 21.25 L 45 7.5 L 42.5 7.5 L 42.5 21.25 z M 32.5 38.75 L 32.5 43.75 L 37.5 43.75 L 37.5 38.75 L 32.5 38.75 z M 12.5 38.75 L 7.5 38.75 L 7.5 43.75 L 12.5 43.75 L 12.5 38.75 z M 2.5 21.25 L 2.5 7.5 L 0 7.5 L 0 21.25 L 2.5 21.25 z M 15 16.25 L 20 16.25 L 20 26.25 L 15 26.25 L 15 16.25 z M 25 16.25 L 30 16.25 L 30 26.25 L 25 26.25 L 25 16.25 z "
     id="path12" /></svg>