<?xml version="1.0" encoding="UTF-8" standalone="no"?>
<svg
   xmlns:dc="http://purl.org/dc/elements/1.1/"
   xmlns:cc="http://creativecommons.org/ns#"
   xmlns:rdf="http://www.w3.org/1999/02/22-rdf-syntax-ns#"
   xmlns:svg="http://www.w3.org/2000/svg"
   xmlns="http://www.w3.org/2000/svg"
   xmlns:sodipodi="http://sodipodi.sourceforge.net/DTD/sodipodi-0.dtd"
   xmlns:inkscape="http://www.inkscape.org/namespaces/inkscape"
   viewBox="0 0 45 45"
   style="enable-background:new 0 0 45 45;"
   xml:space="preserve"
   version="1.1"
   id="svg2"
   sodipodi:docname="1f47b.svg"
   inkscape:version="0.92.2 5c3e80d, 2017-08-06"><sodipodi:namedview
     pagecolor="#ffffff"
     bordercolor="#666666"
     borderopacity="1"
     objecttolerance="10"
     gridtolerance="10"
     guidetolerance="10"
     inkscape:pageopacity="0"
     inkscape:pageshadow="2"
     inkscape:window-width="1361"
     inkscape:window-height="1050"
     id="namedview20"
     showgrid="false"
     inkscape:zoom="5.2444444"
     inkscape:cx="80.873486"
     inkscape:cy="55.249187"
     inkscape:window-x="0"
     inkscape:window-y="28"
     inkscape:window-maximized="0"
     inkscape:current-layer="svg2" /><metadata
     id="metadata8"><rdf:RDF><cc:Work
         rdf:about=""><dc:format>image/svg+xml</dc:format><dc:type
           rdf:resource="http://purl.org/dc/dcmitype/StillImage" /></cc:Work></rdf:RDF></metadata><defs
     id="defs6"><clipPath
       id="clipPath16"
       clipPathUnits="userSpaceOnUse"><path
         id="path18"
         d="M 0,36 36,36 36,0 0,0 0,36 Z" /></clipPath><clipPath
       clipPathUnits="userSpaceOnUse"
       id="clipPath878"><g
         id="g882"><path
           inkscape:connector-curvature="0"
           d="M 0,0 C 0,1.105 -0.895,2 -2,2 -3.104,2 -4,1.105 -4,0 -4,0 -4.011,-3.285 -7,-3.894 V -1 c 0,6.075 -4.925,11 -11,11 -6.075,0 -11,-4.925 -11,-11 v -3.237 c -5.222,-1.569 -7,-7.994 -7,-11.763 0,-1.104 0.896,-2 2,-2 1.104,0 2,0.896 2,2 0,0 0.002,3.54 3.336,3.958 C -28.162,-16.883 -27.046,-22 -25,-22 h 1 c 4,0 3,-2 7,-2 4,0 3,2 6,2 3,0 2.395,-2 6,-2 1.657,0 3,1.343 3,3 0,0.675 -2.274,4.994 -3.755,9.268 C -0.019,-10.348 0,-3.58 0,0"
           style="fill:#e1e8ed;fill-opacity:1;fill-rule:nonzero;stroke:none"
           id="path880" /></g></clipPath></defs><g
     id="g20"
     transform="matrix(1.25,0,0,-1.25,45,13.75)"
     style="fill:none;stroke:#000000;stroke-opacity:1;stroke-width:1.6;stroke-miterlimit:4;stroke-dasharray:none"
     clip-path="url(#clipPath878)"><path
       inkscape:connector-curvature="0"
       d="M 0,0 C 0,1.105 -0.895,2 -2,2 -3.104,2 -4,1.105 -4,0 -4,0 -4.011,-3.285 -7,-3.894 V -1 c 0,6.075 -4.925,11 -11,11 -6.075,0 -11,-4.925 -11,-11 v -3.237 c -5.222,-1.569 -7,-7.994 -7,-11.763 0,-1.104 0.896,-2 2,-2 1.104,0 2,0.896 2,2 0,0 0.002,3.54 3.336,3.958 C -28.162,-16.883 -27.046,-22 -25,-22 h 1 c 4,0 3,-2 7,-2 4,0 3,2 6,2 3,0 2.395,-2 6,-2 1.657,0 3,1.343 3,3 0,0.675 -2.274,4.994 -3.755,9.268 C -0.019,-10.348 0,-3.58 0,0"
       style="fill:none;fill-opacity:1;fill-rule:nonzero;stroke:#000000;stroke-opacity:1;stroke-width:1.6;stroke-miterlimit:4;stroke-dasharray:none"
       id="path22" /></g><g
     id="g24"
     transform="matrix(1.25,0,0,-1.25,18.75,15)"
     style="fill:#000000"><path
       inkscape:connector-curvature="0"
       d="m 0,0 c 0,-1.104 -0.895,-2 -2,-2 -1.104,0 -2,0.896 -2,2 0,1.105 0.896,2 2,2 1.105,0 2,-0.895 2,-2"
       style="fill:#000000;fill-opacity:1;fill-rule:nonzero;stroke:none"
       id="path26" /></g><g
     id="g28"
     transform="matrix(1.25,0,0,-1.25,33.75,15)"
     style="fill:#000000"><path
       inkscape:connector-curvature="0"
       d="m 0,0 c 0,-2.209 -1.791,-4 -4,-4 -2.209,0 -4,1.791 -4,4 0,2.209 1.791,4 4,4 2.209,0 4,-1.791 4,-4"
       style="fill:#000000;fill-opacity:1;fill-rule:nonzero;stroke:none"
       id="path30" /></g><g
     id="g32"
     transform="matrix(1.25,0,0,-1.25,31.25,16.25)"
     style="fill:#ffffff"><path
       inkscape:connector-curvature="0"
       d="m 0,0 c 0,-1.104 -0.895,-2 -2,-2 -1.104,0 -2,0.896 -2,2 0,1.105 0.896,2 2,2 1.105,0 2,-0.895 2,-2"
       style="fill:#ffffff;fill-opacity:1;fill-rule:nonzero;stroke:none"
       id="path34" /></g><g
     id="g36"
     transform="matrix(1.25,0,0,-1.25,27.7405,24.364)"
     style="fill:#000000"><path
       inkscape:connector-curvature="0"
       d="m 0,0 c 2.65,-1.987 3.591,-5.211 2.1,-7.199 -1.492,-1.989 -4.849,-1.989 -7.5,0 -2.651,1.987 -3.591,5.211 -2.1,7.199 1.491,1.989 4.849,1.988 7.5,0"
       style="fill:#000000;fill-opacity:1;fill-rule:nonzero;stroke:none"
       id="path38" /></g></svg>