<?xml version="1.0" encoding="UTF-8" standalone="no"?>
<svg
   xmlns:dc="http://purl.org/dc/elements/1.1/"
   xmlns:cc="http://creativecommons.org/ns#"
   xmlns:rdf="http://www.w3.org/1999/02/22-rdf-syntax-ns#"
   xmlns:svg="http://www.w3.org/2000/svg"
   xmlns="http://www.w3.org/2000/svg"
   xmlns:sodipodi="http://sodipodi.sourceforge.net/DTD/sodipodi-0.dtd"
   xmlns:inkscape="http://www.inkscape.org/namespaces/inkscape"
   viewBox="0 0 45 45"
   style="enable-background:new 0 0 45 45;"
   xml:space="preserve"
   version="1.1"
   id="svg2"
   sodipodi:docname="1f47d.svg"
   inkscape:version="0.92.2 5c3e80d, 2017-08-06"><sodipodi:namedview
     pagecolor="#ffffff"
     bordercolor="#666666"
     borderopacity="1"
     objecttolerance="10"
     gridtolerance="10"
     guidetolerance="10"
     inkscape:pageopacity="0"
     inkscape:pageshadow="2"
     inkscape:window-width="1303"
     inkscape:window-height="1050"
     id="namedview18"
     showgrid="false"
     inkscape:zoom="5.2444444"
     inkscape:cx="-0.71926628"
     inkscape:cy="10.489915"
     inkscape:window-x="0"
     inkscape:window-y="28"
     inkscape:window-maximized="0"
     inkscape:current-layer="svg2" /><metadata
     id="metadata8"><rdf:RDF><cc:Work
         rdf:about=""><dc:format>image/svg+xml</dc:format><dc:type
           rdf:resource="http://purl.org/dc/dcmitype/StillImage" /></cc:Work></rdf:RDF></metadata><defs
     id="defs6"><clipPath
       id="clipPath16"
       clipPathUnits="userSpaceOnUse"><path
         id="path18"
         d="M 0,36 36,36 36,0 0,0 0,36 Z" /></clipPath></defs><path
     style="color:#000000;font-style:normal;font-variant:normal;font-weight:normal;font-stretch:normal;font-size:medium;line-height:normal;font-family:sans-serif;font-variant-ligatures:normal;font-variant-position:normal;font-variant-caps:normal;font-variant-numeric:normal;font-variant-alternates:normal;font-feature-settings:normal;text-indent:0;text-align:start;text-decoration:none;text-decoration-line:none;text-decoration-style:solid;text-decoration-color:#000000;letter-spacing:normal;word-spacing:normal;text-transform:none;writing-mode:lr-tb;direction:ltr;text-orientation:mixed;dominant-baseline:auto;baseline-shift:baseline;text-anchor:start;white-space:normal;shape-padding:0;clip-rule:nonzero;display:inline;overflow:visible;visibility:visible;opacity:1;isolation:auto;mix-blend-mode:normal;color-interpolation:sRGB;color-interpolation-filters:linearRGB;solid-color:#000000;solid-opacity:1;vector-effect:none;fill:#000000;fill-opacity:1;fill-rule:nonzero;stroke:none;stroke-width:2;stroke-linecap:butt;stroke-linejoin:miter;stroke-miterlimit:4;stroke-dasharray:none;stroke-dashoffset:0;stroke-opacity:1;color-rendering:auto;image-rendering:auto;shape-rendering:auto;text-rendering:auto;enable-background:accumulate"
     clip-path="none"
     d="M 22.5 0 C 10.76375 0 1.25 9.51375 1.25 21.25 C 1.25 32.98625 17.7775 45 22.5 45 C 27.22125 45 43.75 32.98625 43.75 21.25 C 43.75 9.51375 34.23625 6.6014902e-17 22.5 0 z M 22.5 1 C 33.69583 1 42.75 10.05417 42.75 21.25 C 42.75 26.648675 38.81985 32.433996 34.207031 36.800781 C 31.900622 38.984174 29.442478 40.812095 27.302734 42.078125 C 25.162991 43.344155 23.25621 44 22.5 44 C 21.743365 44 19.837056 43.34415 17.697266 42.078125 C 15.557475 40.8121 13.097343 38.984169 10.791016 36.800781 C 6.1783599 32.434006 2.25 26.64871 2.25 21.25 C 2.25 10.05417 11.30417 1 22.5 1 z "
     id="path22" /><path
     id="path26"
     style="fill:#000000;fill-opacity:1;fill-rule:nonzero;stroke:none;stroke-width:1.25"
     d="m 16.878625,18.5565 c 3.905,3.905 5.4875,8.65375 3.535,10.60625 -1.95125,1.9525 -6.70125,0.37125 -10.60625,-3.535 -3.90625,-3.905 -5.48875,-8.65375 -3.535,-10.60625 1.9525,-1.9525 6.70125,-0.37 10.60625,3.535"
     inkscape:connector-curvature="0" /><path
     id="path30"
     style="fill:#000000;fill-opacity:1;fill-rule:nonzero;stroke:none;stroke-width:1.25"
     d="m 28.121375,18.555875 c -3.905,3.905 -5.4875,8.65375 -3.535,10.60625 1.95125,1.95375 6.70125,0.37125 10.60625,-3.535 3.90625,-3.90625 5.48875,-8.65375 3.535,-10.60625 -1.9525,-1.9525 -6.70125,-0.37 -10.60625,3.535"
     inkscape:connector-curvature="0" /><path
     id="path34"
     style="fill:#000000;fill-opacity:1;fill-rule:nonzero;stroke:none;stroke-width:1.25"
     d="m 22.5,38.75 c -2.93375,0 -4.46875,-1.45 -4.63375,-1.61625 -0.48875,-0.48875 -0.48875,-1.27875 0,-1.7675 0.48375,-0.48375 1.26625,-0.48875 1.755,-0.0125 0.065,0.05875 1.0075,0.89625 2.87875,0.89625 1.89875,0 2.84125,-0.86125 2.88125,-0.89875 0.4975,-0.4675 1.28375,-0.45375 1.76,0.0375 0.47375,0.49 0.475,1.2625 -0.0075,1.745 C 26.96875,37.3 25.43375,38.75 22.5,38.75"
     inkscape:connector-curvature="0" /></svg>