<?xml version="1.0" encoding="UTF-8" standalone="no"?>
<svg
   xmlns:dc="http://purl.org/dc/elements/1.1/"
   xmlns:cc="http://creativecommons.org/ns#"
   xmlns:rdf="http://www.w3.org/1999/02/22-rdf-syntax-ns#"
   xmlns:svg="http://www.w3.org/2000/svg"
   xmlns="http://www.w3.org/2000/svg"
   xmlns:sodipodi="http://sodipodi.sourceforge.net/DTD/sodipodi-0.dtd"
   xmlns:inkscape="http://www.inkscape.org/namespaces/inkscape"
   viewBox="0 0 45 45"
   style="enable-background:new 0 0 45 45;"
   xml:space="preserve"
   version="1.1"
   id="svg2"
   sodipodi:docname="1f47a.svg"
   inkscape:version="0.92.2 5c3e80d, 2017-08-06"><sodipodi:namedview
     pagecolor="#ffffff"
     bordercolor="#666666"
     borderopacity="1"
     objecttolerance="10"
     gridtolerance="10"
     guidetolerance="10"
     inkscape:pageopacity="0"
     inkscape:pageshadow="2"
     inkscape:window-width="1303"
     inkscape:window-height="1050"
     id="namedview32"
     showgrid="false"
     inkscape:zoom="10.488889"
     inkscape:cx="16.964123"
     inkscape:cy="25.990086"
     inkscape:window-x="0"
     inkscape:window-y="28"
     inkscape:window-maximized="0"
     inkscape:current-layer="svg2" /><metadata
     id="metadata8"><rdf:RDF><cc:Work
         rdf:about=""><dc:format>image/svg+xml</dc:format><dc:type
           rdf:resource="http://purl.org/dc/dcmitype/StillImage" /></cc:Work></rdf:RDF></metadata><defs
     id="defs6"><clipPath
       id="clipPath16"
       clipPathUnits="userSpaceOnUse"><path
         id="path18"
         d="M 0,36 36,36 36,0 0,0 0,36 Z" /></clipPath></defs><path
     style="color:#000000;font-style:normal;font-variant:normal;font-weight:normal;font-stretch:normal;font-size:medium;line-height:normal;font-family:sans-serif;font-variant-ligatures:normal;font-variant-position:normal;font-variant-caps:normal;font-variant-numeric:normal;font-variant-alternates:normal;font-feature-settings:normal;text-indent:0;text-align:start;text-decoration:none;text-decoration-line:none;text-decoration-style:solid;text-decoration-color:#000000;letter-spacing:normal;word-spacing:normal;text-transform:none;writing-mode:lr-tb;direction:ltr;text-orientation:mixed;dominant-baseline:auto;baseline-shift:baseline;text-anchor:start;white-space:normal;shape-padding:0;clip-rule:nonzero;display:inline;overflow:visible;visibility:visible;opacity:1;isolation:auto;mix-blend-mode:normal;color-interpolation:sRGB;color-interpolation-filters:linearRGB;solid-color:#000000;solid-opacity:1;vector-effect:none;fill:#000000;fill-opacity:1;fill-rule:nonzero;stroke:none;stroke-width:2;stroke-linecap:butt;stroke-linejoin:miter;stroke-miterlimit:4;stroke-dasharray:none;stroke-dashoffset:0;stroke-opacity:1;color-rendering:auto;image-rendering:auto;shape-rendering:auto;text-rendering:auto;enable-background:accumulate"
     d="M 7.5 0 C 4.73875 0 2.5 2.23875 2.5 5 L 2.5 26.25 C 2.5 29.01125 6.25 45 13.75 45 L 23.75 45 C 31.25 45 35 29.01125 35 26.25 L 35 5 C 35 2.23875 32.76125 0 30 0 L 7.5 0 z M 7.5 1 L 30 1 C 32.220734 1 34 2.7792661 34 5 L 34 26.25 C 34 26.713966 33.783499 28.262259 33.326172 30.103516 C 32.868845 31.944772 32.179163 34.15704 31.269531 36.263672 C 30.359899 38.370304 29.223846 40.370269 27.933594 41.785156 C 26.643342 43.200043 25.269694 44 23.75 44 L 13.75 44 C 12.230306 44 10.856658 43.200043 9.5664062 41.785156 C 8.2761544 40.370269 7.1401008 38.370304 6.2304688 36.263672 C 5.3208366 34.15704 4.6311553 31.944772 4.1738281 30.103516 C 3.7165009 28.262259 3.5 26.713966 3.5 26.25 L 3.5 5 C 3.5 2.7792661 5.2792661 1 7.5 1 z "
     id="path22" /><g
     id="g24"
     transform="matrix(1.25,0,0,-1.25,18.051125,11.46425)"
     style="fill:#ffffff;stroke:#000000;stroke-opacity:1;stroke-width:0.8;stroke-miterlimit:4;stroke-dasharray:none;fill-opacity:1"><path
       inkscape:connector-curvature="0"
       d="m 0,0 c 2.138,-2.343 2.715,-5.509 1.29,-7.071 -1.423,-1.562 -4.312,-0.928 -6.449,1.414 -2.136,2.343 -2.715,5.51 -1.289,7.071 C -5.024,2.976 -2.135,2.343 0,0"
       style="fill:#ffffff;fill-opacity:1;fill-rule:nonzero;stroke:#000000;stroke-opacity:1;stroke-width:0.8;stroke-miterlimit:4;stroke-dasharray:none"
       id="path26" /></g><g
     id="g28"
     transform="matrix(1.25,0,0,-1.25,19.917,15.883125)"
     style="fill:#000000"><path
       inkscape:connector-curvature="0"
       d="m 0,0 c 0.609,-0.781 0.609,-2.048 0,-2.829 -0.606,-0.781 -1.593,-0.781 -2.201,0 -0.609,0.781 -0.609,2.048 0,2.828 C -1.593,0.781 -0.606,0.781 0,0"
       style="fill:#000000;fill-opacity:1;fill-rule:nonzero;stroke:none"
       id="path30" /></g><g
     id="g32"
     transform="matrix(1.25,0,0,-1.25,27.15825,11.58875)"
     style="fill:#ffffff;stroke:#000000;stroke-opacity:1;stroke-width:0.8;stroke-miterlimit:4;stroke-dasharray:none;fill-opacity:1"><path
       inkscape:connector-curvature="0"
       d="m 0,0 c -1.826,-2.342 -2.318,-5.509 -1.1,-7.071 1.215,-1.562 3.68,-0.928 5.504,1.414 1.824,2.343 2.317,5.509 1.1,7.071 C 4.289,2.976 1.824,2.343 0,0"
       style="fill:#ffffff;fill-opacity:1;fill-rule:nonzero;stroke:#000000;stroke-opacity:1;stroke-width:0.8;stroke-miterlimit:4;stroke-dasharray:none"
       id="path34" /></g><g
     id="g36"
     transform="matrix(1.25,0,0,-1.25,26.46975,16.00825)"
     style="fill:#000000"><path
       inkscape:connector-curvature="0"
       d="m 0,0 c -0.609,-0.781 -0.609,-2.047 0,-2.828 0.607,-0.781 1.596,-0.781 2.201,0 0.612,0.781 0.612,2.047 0,2.828 C 1.596,0.781 0.607,0.781 0,0"
       style="fill:#000000;fill-opacity:1;fill-rule:nonzero;stroke:none"
       id="path38" /></g><g
     id="g40"
     transform="matrix(1.25,0,0,-1.25,26.1145,13.75)"
     style="fill:#000000"><path
       inkscape:connector-curvature="0"
       d="M 0,0 C -0.43,0 -0.862,0.138 -1.227,0.422 -2.099,1.1 -2.256,2.357 -1.577,3.229 l 4.67,6 C 3.771,10.101 5.026,10.257 5.899,9.578 6.77,8.9 6.928,7.643 6.249,6.771 l -4.67,-6 C 1.185,0.265 0.596,0 0,0"
       style="fill:#000000;fill-opacity:1;fill-rule:nonzero;stroke:none"
       id="path42" /></g><g
     id="g44"
     transform="matrix(1.25,0,0,-1.25,20.2765,13.75)"
     style="fill:#000000"><path
       inkscape:connector-curvature="0"
       d="m 0,0 c -0.596,0 -1.185,0.265 -1.58,0.771 l -4.672,6 c -0.679,0.872 -0.522,2.128 0.349,2.807 0.872,0.679 2.129,0.523 2.807,-0.349 l 4.673,-6 C 2.255,2.357 2.099,1.101 1.227,0.422 0.862,0.138 0.429,0 0,0"
       style="fill:#000000;fill-opacity:1;fill-rule:nonzero;stroke:none"
       id="path46" /></g><g
     id="g48"
     transform="matrix(1.25,0,0,-1.25,30,38.75125)"
     style="fill:#ffffff;fill-opacity:1;stroke:#000000;stroke-opacity:1"><path
       inkscape:connector-curvature="0"
       d="M 0,0 C -0.81,0 -1.571,0.496 -1.873,1.299 -1.977,1.558 -3.04,4.001 -6,4.001 c -2.96,0 -4.023,-2.443 -4.135,-2.722 -0.407,-1.017 -1.563,-1.527 -2.583,-1.133 -1.023,0.397 -1.539,1.531 -1.155,2.557 0.081,0.217 2.054,5.298 7.873,5.298 5.819,0 7.792,-5.081 7.873,-5.298 C 2.261,1.669 1.736,0.517 0.702,0.128 0.471,0.042 0.233,0 0,0"
       style="fill:#ffffff;fill-opacity:1;fill-rule:nonzero;stroke:#000000;stroke-opacity:1"
       id="path50" /></g><g
     id="g52"
     transform="matrix(1.25,0,0,-1.25,23.193375,27.5)"
     style="fill:#000000"><path
       inkscape:connector-curvature="0"
       d="M 0,0 C 0,0 4.482,0.553 7.05,-4 9.869,-9 9.869,1 9.164,2 8.46,3 7.713,0.614 6.344,1.1 3.523,2.1 0,0 0,0"
       style="fill:#000000;fill-opacity:1;fill-rule:nonzero;stroke:none"
       id="path54" /></g><g
     id="g56"
     transform="matrix(1.25,0,0,-1.25,23.193375,27.5)"
     style="fill:#000000"><path
       inkscape:connector-curvature="0"
       d="m 0,0 c 0,0 -5.888,0.553 -9.263,-4 -3.703,-5 -3.703,5 -2.778,6 0.927,1 1.908,-1.725 3.706,-1.239 C -4.63,1.761 0,0 0,0"
       style="fill:#000000;fill-opacity:1;fill-rule:nonzero;stroke:none"
       id="path58" /></g><g
     id="g60"
     transform="matrix(1.25,0,0,-1.25,40.327125,18.75)"
     style="stroke:#000000;stroke-opacity:1;fill:#ffffff;fill-opacity:1;stroke-width:0.8;stroke-miterlimit:4;stroke-dasharray:none"><path
       inkscape:connector-curvature="0"
       d="M 0,0 C -0.09,0 -0.174,-0.02 -0.262,-0.029 V 0 h -13.845 c -1.511,0 -2.735,-1.343 -2.735,-3 0,-1.657 1.224,-3 2.735,-3 h 13.845 v 0.029 C -0.174,-5.98 -0.09,-6 0,-6 c 1.513,0 2.738,1.343 2.738,3 0,1.656 -1.225,3 -2.738,3"
       style="fill:#ffffff;fill-opacity:1;fill-rule:nonzero;stroke:#000000;stroke-opacity:1;stroke-width:0.8;stroke-miterlimit:4;stroke-dasharray:none"
       id="path62" /></g></svg>