<?xml version="1.0" encoding="UTF-8" standalone="no"?>
<svg
   xmlns:dc="http://purl.org/dc/elements/1.1/"
   xmlns:cc="http://creativecommons.org/ns#"
   xmlns:rdf="http://www.w3.org/1999/02/22-rdf-syntax-ns#"
   xmlns:svg="http://www.w3.org/2000/svg"
   xmlns="http://www.w3.org/2000/svg"
   xmlns:sodipodi="http://sodipodi.sourceforge.net/DTD/sodipodi-0.dtd"
   xmlns:inkscape="http://www.inkscape.org/namespaces/inkscape"
   viewBox="0 0 45 45"
   style="enable-background:new 0 0 45 45;"
   xml:space="preserve"
   version="1.1"
   id="svg2"
   sodipodi:docname="1f479.svg"
   inkscape:version="0.92.2 5c3e80d, 2017-08-06"><sodipodi:namedview
     pagecolor="#ffffff"
     bordercolor="#666666"
     borderopacity="1"
     objecttolerance="10"
     gridtolerance="10"
     guidetolerance="10"
     inkscape:pageopacity="0"
     inkscape:pageshadow="2"
     inkscape:window-width="1303"
     inkscape:window-height="1050"
     id="namedview50"
     showgrid="false"
     inkscape:zoom="20.977778"
     inkscape:cx="22.246394"
     inkscape:cy="3.1994968"
     inkscape:window-x="0"
     inkscape:window-y="28"
     inkscape:window-maximized="0"
     inkscape:current-layer="svg2" /><metadata
     id="metadata8"><rdf:RDF><cc:Work
         rdf:about=""><dc:format>image/svg+xml</dc:format><dc:type
           rdf:resource="http://purl.org/dc/dcmitype/StillImage" /></cc:Work></rdf:RDF></metadata><defs
     id="defs6"><clipPath
       id="clipPath16"
       clipPathUnits="userSpaceOnUse"><path
         id="path18"
         d="M 0,36 36,36 36,0 0,0 0,36 Z" /></clipPath><clipPath
       clipPathUnits="userSpaceOnUse"
       id="clipPath1021"><path
         inkscape:connector-curvature="0"
         style="fill:#dd2e44;fill-opacity:1;fill-rule:nonzero;stroke:none;stroke-width:1.25"
         d="m 22.5,6.25 c -2.61125,0 -5,0 -8.75,2.5 -4.65125,3.10125 -5,11.25 -5,11.25 -1.25,0 -2.83875,2.86375 -2.5,6.25 0.36125,3.61125 2.5,5 2.5,5 0,5 3.75,8.75 3.75,8.75 0,2.5 0,3.75 5,3.75 h 5 4.953125 c 5.04625,0 5,-1.25 5,-3.75 0,0 3.75,-3.75 3.75,-8.75 0,0 2.13875,-1.38875 2.5,-5 0.33875,-3.38625 -1.25,-6.25 -2.5,-6.25 0,0 -0.326562,-8.14875 -4.976563,-11.25 C 27.476562,6.25 25,6.25 22.5,6.25 Z"
         id="path1023" /></clipPath><clipPath
       clipPathUnits="userSpaceOnUse"
       id="clipPath1043"><path
         id="path1045"
         style="fill:#f4900c;fill-opacity:1;fill-rule:nonzero;stroke:none;stroke-width:1.25"
         d="m 17.324875,11.861 c 0.035,-0.06125 0.06375,-0.12625 0.08875,-0.195 0.22875,-0.64 -0.05875,-1.35 -0.6925,-1.59375 -0.03375,-0.0125 -2.97125,-1.36625 -6.72125,-9.31 v -0.0025 -0.0025 c 0,-0.0725 -0.13625,-0.125 -0.17875,-0.18875 C 9.774875,0.49975 9.716125,0.42225 9.657375,0.3635 9.544875,0.25225 9.399875,0.16475 9.256125,0.10225 9.217375,0.086 9.162375,0.086 9.119875,0.0735 c -0.11,-0.035 -0.225,-0.06625 -0.3425,-0.06875 -0.00875,0 -0.0175,-0.005 -0.025,-0.005 -0.06125,0 -0.11375,0.02625 -0.1725,0.035 -0.08375,0.01 -0.16625,0.0075 -0.2475,0.03625 -0.0125,0.005 -0.02125,0.015 -0.03375,0.01875 -0.0725,0.02875 -0.1325,0.07625 -0.1975,0.1175 -0.07125,0.04375 -0.145,0.08125 -0.205,0.1375 -0.05,0.0475 -0.08375,0.1075 -0.12625,0.1625 -0.0525,0.07 -0.1075,0.13625 -0.145,0.21625 -0.02875,0.06 -0.03875,0.12625 -0.0575,0.1925 -0.025,0.08875 -0.05,0.17625 -0.055,0.27 -0.00125,0.0225 -0.0125,0.04125 -0.0125,0.06375 0,0.335 0.07875,8.25375 6.8575,12.32125 0.20125,0.12125 0.4225,0.17875 0.64125,0.17875 0.22,0 0.43625,-0.06125 0.62625,-0.17 0.0225,0.01125 0.04375,0.02625 0.06625,0.0375 0.17875,0.09 0.37,0.1325 0.5575,0.1325 0.45875,0 0.9,-0.2525 1.12,-0.69125 0.19625,-0.395 0.165,-0.84375 -0.04375,-1.1975"
         inkscape:connector-curvature="0" /></clipPath><clipPath
       clipPathUnits="userSpaceOnUse"
       id="clipPath1047"><path
         id="path1049"
         style="fill:#f4900c;fill-opacity:1;fill-rule:nonzero;stroke:none;stroke-width:1.25"
         d="m 37.48775,1.187125 c -0.005,-0.09375 -0.02875,-0.18125 -0.055,-0.27 -0.01875,-0.06625 -0.02875,-0.13375 -0.0575,-0.195 -0.03625,-0.0775 -0.09,-0.14 -0.14125,-0.20875 -0.0425,-0.0575 -0.07875,-0.12 -0.13125,-0.16875 -0.0575,-0.05375 -0.1275,-0.09 -0.195,-0.1325 -0.06875,-0.0425 -0.13,-0.0925 -0.20625,-0.12125 -0.0125,-0.005 -0.02125,-0.015 -0.0325,-0.02 -0.0825,-0.02875 -0.16375,-0.025 -0.2475,-0.03625 -0.05625,-0.00875 -0.1075,-0.035 -0.1675,-0.035 h -0.0037 c -0.0087,0 -0.015,0.005 -0.02375,0.005 -0.1275,0.0025 -0.25,0.035 -0.37125,0.075 -0.03,0.01125 -0.065,0.01 -0.09625,0.0225 -0.285,0.12125 -0.5275,0.34875 -0.6575,0.655 -3.4075,7.94875 -6.74,9.3025 -6.7475,9.30625 -0.65375,0.21875 -1.0075,0.92625 -0.78875,1.58125 0.02625,0.08125 0.06,0.15875 0.1025,0.23 -0.20375,0.35125 -0.23125,0.79375 -0.03625,1.18375 0.22,0.43875 0.66125,0.69125 1.12,0.69125 0.1875,0 0.3775,-0.0425 0.5575,-0.1325 0.02375,-0.01125 0.0425,-0.02625 0.06625,-0.0375 0.19,0.10875 0.40625,0.17 0.62625,0.17 0.21875,0 0.44,-0.05875 0.64125,-0.17875 6.77875,-4.0675 6.8575,-11.9875 6.8575,-12.3225 0,-0.02125 -0.01125,-0.04 -0.0125,-0.06125"
         inkscape:connector-curvature="0" /></clipPath></defs><path
     style="fill:#000000;fill-opacity:1;fill-rule:nonzero;stroke:none;stroke-width:1.25"
     d="M 17.5 0 C 15 0 15 6.25 15 6.25 C -1.25 2.41 6.25 10 6.25 10 C -3.75 16.24875 3.75 18.75 3.75 18.75 C -3.75 28.75 5 28.75 5 28.75 C 5 28.75 0 31.25 0 35 C 0 38.75 3.75 37.5 7.5 37.5 C -1.25 48.75 22.5 38.75 22.5 38.75 C 22.5 38.75 46.25 48.75 37.5 37.5 C 41.25 37.5 45 38.75 45 35 C 45 31.25 40 28.75 40 28.75 C 40 28.75 48.75 28.75 41.25 18.75 C 41.25 18.75 48.75 16.24875 38.75 10 C 38.75 10 46.25 2.4775 30 6.25 C 30 6.25 30 0 27.5 0 C 25 0 22.5 5 22.5 5 C 22.5 5 20 6.9388939e-17 17.5 0 z "
     id="path22" /><path
     style="fill:#ffffff;fill-opacity:1;fill-rule:nonzero;stroke:#000000;stroke-width:2;stroke-opacity:1;stroke-miterlimit:4;stroke-dasharray:none"
     d="M 22.5 6.25 C 19.88875 6.25 17.5 6.25 13.75 8.75 C 9.09875 11.85125 8.75 20 8.75 20 C 7.5 20 5.91125 22.86375 6.25 26.25 C 6.61125 29.86125 8.75 31.25 8.75 31.25 C 8.75 36.25 12.5 40 12.5 40 C 12.5 42.5 12.5 43.75 17.5 43.75 L 22.5 43.75 L 27.453125 43.75 C 32.499375 43.75 32.453125 42.5 32.453125 40 C 32.453125 40 36.203125 36.25 36.203125 31.25 C 36.203125 31.25 38.341875 29.86125 38.703125 26.25 C 39.041875 22.86375 37.453125 20 36.203125 20 C 36.203125 20 35.876563 11.85125 31.226562 8.75 C 27.476562 6.25 25 6.25 22.5 6.25 z "
     id="path30"
     clip-path="url(#clipPath1021)" /><path
     style="fill:#000000;fill-opacity:1;fill-rule:nonzero;stroke:none;stroke-width:1.25"
     d="M 12.521484 31.890625 C 11.764395 32.022754 11.171562 32.933516 11.421875 34.361328 C 11.874375 36.953828 12.988047 40.216719 15.654297 39.605469 C 15.838601 39.563342 16.096915 39.435104 16.402344 39.275391 L 16.005859 37.382812 C 15.898359 36.877812 16.241094 36.377734 16.746094 36.271484 C 16.872031 36.244609 16.999922 36.244355 17.123047 36.267578 C 17.492422 36.337246 17.816797 36.614375 17.896484 36.992188 L 18.144531 37.796875 C 18.592031 37.554375 20.55875 36.981875 22.5 36.984375 C 24.38125 36.988125 26.240938 37.559375 26.679688 37.796875 L 26.828125 36.992188 C 26.935625 36.488438 27.435703 36.163984 27.939453 36.271484 C 28.444453 36.377734 28.769609 36.877812 28.662109 37.382812 L 28.279297 39.181641 C 28.659203 39.392756 28.959797 39.554762 29.181641 39.605469 C 31.847891 40.216719 32.79625 36.953828 33.25 34.361328 C 33.58375 32.457578 32.527656 31.472344 31.472656 32.027344 C 31.380423 32.075916 31.232425 32.135115 31.091797 32.193359 C 31.10476 32.188006 31.131951 32.181064 31.144531 32.175781 L 32.152344 35.925781 C 32.329844 36.589531 31.933281 37.278281 31.269531 37.457031 C 30.605781 37.634531 29.923594 37.237969 29.746094 36.574219 L 28.974609 33.660156 C 27.884609 34.080156 25.20125 34.481328 22.5 34.486328 C 19.74 34.491328 16.962656 34.088906 15.847656 33.660156 L 14.912109 36.574219 C 14.734609 37.237969 14.046564 37.634531 13.382812 37.457031 C 12.717813 37.278281 12.320547 36.589531 12.498047 35.925781 L 13.517578 32.126953 C 13.540576 32.137201 13.594508 32.151545 13.619141 32.162109 C 13.511712 32.115948 13.383746 32.066921 13.308594 32.027344 C 13.044844 31.888594 12.773848 31.846582 12.521484 31.890625 z M 14.90625 32.621094 C 14.977195 32.642969 15.046925 32.661514 15.121094 32.683594 C 15.050156 32.662464 14.974241 32.642038 14.90625 32.621094 z M 29.853516 32.621094 C 29.50649 32.728265 29.085743 32.835163 28.671875 32.943359 C 29.094285 32.832902 29.500829 32.730423 29.853516 32.621094 z M 17.076172 33.189453 C 17.298986 33.239261 17.525285 33.28538 17.757812 33.332031 C 17.527616 33.285854 17.296879 33.238731 17.076172 33.189453 z M 27.628906 33.210938 C 27.419739 33.257699 27.204819 33.301894 26.988281 33.345703 C 27.207072 33.301386 27.417682 33.258268 27.628906 33.210938 z M 18.333984 33.445312 C 18.612908 33.495777 18.899 33.53871 19.185547 33.582031 C 18.899356 33.538766 18.612604 33.495704 18.333984 33.445312 z M 26.453125 33.451172 C 26.172542 33.502787 25.887776 33.547849 25.601562 33.591797 C 25.888434 33.547702 26.171976 33.502977 26.453125 33.451172 z M 19.689453 33.658203 C 20.023598 33.702441 20.358628 33.734763 20.695312 33.765625 C 20.35929 33.734808 20.022997 33.702343 19.689453 33.658203 z M 25.152344 33.660156 C 24.797013 33.70854 24.441681 33.745407 24.087891 33.777344 C 24.442216 33.745348 24.796592 33.708659 25.152344 33.660156 z M 21.105469 33.806641 C 21.574607 33.841041 22.042433 33.861328 22.5 33.861328 C 22.042159 33.861328 21.575031 33.841094 21.105469 33.806641 z M 22.5 33.861328 C 22.928766 33.861328 23.37217 33.8413 23.820312 33.806641 C 23.372068 33.841292 22.928612 33.861328 22.5 33.861328 z M 22.5 37.5 C 22.926628 37.5 23.324149 37.530811 23.707031 37.574219 C 23.324079 37.530809 22.926805 37.5 22.5 37.5 z M 22.5 37.5 C 22.064139 37.5 21.656012 37.530748 21.261719 37.576172 C 21.655948 37.530504 22.064879 37.5 22.5 37.5 z M 20.947266 37.623047 C 20.66371 37.664422 20.390164 37.71224 20.128906 37.771484 C 20.389506 37.712206 20.66479 37.66451 20.947266 37.623047 z M 24.058594 37.623047 C 24.329123 37.663295 24.589736 37.710646 24.837891 37.767578 C 24.589266 37.710528 24.329721 37.663342 24.058594 37.623047 z M 25.113281 37.832031 C 25.435182 37.915326 25.74383 38.005455 26.027344 38.107422 C 25.744232 38.005623 25.43471 37.915185 25.113281 37.832031 z M 19.820312 37.845703 C 19.552241 37.914846 19.298114 37.990302 19.054688 38.072266 C 19.297566 37.990406 19.553202 37.914811 19.820312 37.845703 z M 18.863281 38.134766 C 18.754082 38.17363 18.664598 38.213464 18.560547 38.253906 C 18.663136 38.214059 18.755742 38.173079 18.863281 38.134766 z M 27.128906 38.582031 C 27.554758 38.78854 27.943573 38.995408 28.253906 39.167969 C 27.94111 38.993819 27.558643 38.789939 27.128906 38.582031 z M 17.722656 38.615234 C 17.277742 38.824623 16.888731 39.020762 16.566406 39.191406 C 16.880951 39.024575 17.293356 38.817754 17.722656 38.615234 z "
     id="path38" /><path
     id="path54"
     style="fill:#000000;fill-opacity:1;fill-rule:nonzero;stroke:none;stroke-width:1.25"
     d="m 16.869625,18.73025 -2.975,-0.6325 c -2.045,-0.435 -4.07375,0.88375 -4.50875,2.92875 -0.435,2.045 0.88375,4.07375 2.92875,4.50875 l 2.975,0.63125 c 2.045,0.435 4.07375,-0.8825 4.5075,-2.9275 0.435,-2.045 -0.8825,-4.07375 -2.9275,-4.50875"
     inkscape:connector-curvature="0" /><path
     id="path58"
     style="fill:#000000;fill-opacity:1;fill-rule:nonzero;stroke:none;stroke-width:1.25"
     d="m 28.130375,18.4315 2.975,-0.6325 c 2.045,-0.435 4.07375,0.88375 4.50875,2.92875 0.435,2.045 -0.8825,4.07375 -2.92875,4.50875 l -2.97375,0.63125 c -2.04625,0.435 -4.075,-0.8825 -4.50875,-2.9275 -0.435,-2.045 0.8825,-4.07375 2.9275,-4.50875"
     inkscape:connector-curvature="0" /><path
     id="path62"
     style="fill:#ffffff;fill-opacity:1;fill-rule:nonzero;stroke:none;stroke-width:1.25"
     d="m 17.17125,19.338 -2.445,-0.52 c -1.68125,-0.3575 -3.35,0.72625 -3.70625,2.4075 -0.3575,1.68125 0.725,3.34875 2.40625,3.70625 l 2.445,0.52 c 1.68125,0.3575 3.35,-0.72625 3.7075,-2.4075 C 19.93625,21.363 18.8525,19.6955 17.17125,19.338"
     inkscape:connector-curvature="0" /><path
     id="path66"
     style="fill:#000000;fill-opacity:1;fill-rule:nonzero;stroke:none;stroke-width:1.25"
     d="m 17.798875,22.13475 c 0,1.03625 -0.84,1.875 -1.875,1.875 -1.03625,0 -1.875,-0.83875 -1.875,-1.875 0,-1.035 0.83875,-1.875 1.875,-1.875 1.035,0 1.875,0.84 1.875,1.875"
     inkscape:connector-curvature="0" /><path
     id="path70"
     style="fill:#ffffff;fill-opacity:1;fill-rule:nonzero;stroke:none;stroke-width:1.25"
     d="m 27.828875,19.338 2.445,-0.52 c 1.68125,-0.3575 3.35,0.72625 3.70625,2.4075 0.3575,1.68125 -0.725,3.34875 -2.40625,3.70625 l -2.445,0.52 c -1.68125,0.3575 -3.35,-0.72625 -3.7075,-2.4075 -0.3575,-1.68125 0.72625,-3.34875 2.4075,-3.70625"
     inkscape:connector-curvature="0" /><path
     id="path74"
     style="fill:#000000;fill-opacity:1;fill-rule:nonzero;stroke:none;stroke-width:1.25"
     d="m 27.201125,22.13475 c 0,1.03625 0.84,1.875 1.875,1.875 1.03625,0 1.875,-0.83875 1.875,-1.875 0,-1.035 -0.83875,-1.875 -1.875,-1.875 -1.035,0 -1.875,0.84 -1.875,1.875"
     inkscape:connector-curvature="0" /><path
     id="path78"
     style="fill:#000000;fill-opacity:1;fill-rule:nonzero;stroke:none;stroke-width:1.25"
     d="m 22.5,33.125 c -2.325,0 -3.30875,-1.25625 -3.62625,-2.31875 -0.67875,0.16 -1.68125,0.26125 -2.41125,-0.23375 -0.38125,-0.25875 -0.8375,-0.785 -0.8375,-1.8225 0,-0.345 0.28,-0.625 0.625,-0.625 0.345,0 0.625,0.28 0.625,0.625 0,0.5925 0.21625,0.73875 0.2875,0.7875 0.4675,0.3175 1.5375,0.0575 1.98125,-0.11875 0.19125,-0.075 0.41125,-0.0525 0.5825,0.065 C 19.89625,29.6 20,29.7925 20,30 c 0.0038,0.18625 0.10375,1.875 2.5,1.875 2.4725,0 2.5,-1.79875 2.5,-1.875 0,-0.2075 0.1025,-0.4 0.275,-0.51625 0.16875,-0.1175 0.385,-0.14125 0.58125,-0.065 0.445,0.1775 1.51375,0.4375 1.98125,0.11875 0.07,-0.04875 0.2875,-0.195 0.2875,-0.7875 0,-0.345 0.28,-0.625 0.625,-0.625 0.345,0 0.625,0.28 0.625,0.625 0,1.0375 -0.455,1.56375 -0.83875,1.8225 -0.73,0.495 -1.7325,0.39375 -2.41125,0.23375 C 25.81,31.86875 24.82375,33.125 22.5,33.125"
     inkscape:connector-curvature="0" /><path
     id="path82"
     style="fill:#000000;fill-opacity:1;fill-rule:nonzero;stroke:none;stroke-width:1.25"
     d="m 29.578875,42.618375 c -0.7875,0 -1.615,-0.34125 -2.46875,-1.02 -1.2,-0.95625 -2.33,-1.85625 -4.61,-1.85625 -2.28,0 -3.41125,0.9 -4.60875,1.85375 -1.4825,1.18125 -3.04875,1.18 -4.53125,0.0025 -0.26875,-0.215 -0.31375,-0.61 -0.09875,-0.88 0.21375,-0.26875 0.6075,-0.31375 0.8775,-0.1 1.0275,0.81875 1.945,0.81875 2.97125,0 1.255,-0.99625 2.67375,-2.12625 5.39,-2.12625 2.7175,0 4.135,1.13 5.38625,2.125 0.72375,0.575 1.37,0.81875 1.915,0.73375 0.595,-0.09375 0.91,-0.56125 0.9225,-0.58125 0.18875,-0.285 0.575,-0.36875 0.8625,-0.18375 0.2875,0.18625 0.375,0.565 0.19375,0.855 -0.06125,0.09625 -0.625,0.9475 -1.755,1.14 -0.1475,0.025 -0.29625,0.0375 -0.44625,0.0375"
     inkscape:connector-curvature="0" /><path
     id="path86"
     style="fill:#ffffff;fill-opacity:1;fill-rule:nonzero;stroke:#000000;stroke-width:2;stroke-miterlimit:4;stroke-dasharray:none;stroke-opacity:1"
     d="m 17.413625,11.666 c 0.22875,-0.64 -0.05875,-1.35 -0.6925,-1.59375 -0.03375,-0.0125 -2.97125,-1.36625 -6.72125,-9.31 v -0.0025 -0.0025 c 0,-0.0725 -0.13625,-0.125 -0.17875,-0.18875 C 9.774875,0.49975 9.716125,0.42225 9.657375,0.3635 9.544875,0.25225 9.399875,0.16475 9.256125,0.10225 9.217375,0.086 9.162375,0.086 9.119875,0.0735 c -0.11,-0.035 -0.225,-0.06625 -0.3425,-0.06875 -0.00875,0 -0.0175,-0.005 -0.025,-0.005 -0.06125,0 -0.11375,0.02625 -0.1725,0.035 -0.08375,0.01 -0.16625,0.0075 -0.2475,0.03625 -0.0125,0.005 -0.02125,0.015 -0.03375,0.01875 -0.0725,0.02875 -0.1325,0.07625 -0.1975,0.1175 -0.07125,0.04375 -0.145,0.08125 -0.205,0.1375 -0.05,0.0475 -0.08375,0.1075 -0.12625,0.1625 -0.0525,0.07 -0.1075,0.13625 -0.145,0.21625 -0.02875,0.06 -0.03875,0.12625 -0.0575,0.1925 -0.025,0.08875 -0.05,0.17625 -0.055,0.27 -0.00125,0.0225 -0.0125,0.04125 -0.0125,0.06375 0,0.335 0.07875,8.25375 6.8575,12.32125 0.20125,0.12125 0.4225,0.17875 0.64125,0.17875 0.22,0 0.43625,-0.06125 0.62625,-0.17 0.0225,0.01125 0.04375,0.02625 0.06625,0.0375 0.17875,0.09 0.37,0.1325 0.5575,0.1325 0.45875,0 0.9,-0.2525 1.12,-0.69125 0.19625,-0.395 0.165,-0.84375 -0.04375,-1.1975 0.035,-0.06125 0.06375,-0.12625 0.08875,-0.195 z"
     inkscape:connector-curvature="0"
     clip-path="url(#clipPath1043)"
     sodipodi:nodetypes="ccccscccccscccccccccscsccsccc" /><path
     id="path90"
     style="fill:#ffffff;fill-opacity:1;fill-rule:nonzero;stroke:#000000;stroke-width:2;stroke-opacity:1;stroke-miterlimit:4;stroke-dasharray:none"
     d="m 37.48775,1.187125 c -0.005,-0.09375 -0.02875,-0.18125 -0.055,-0.27 -0.01875,-0.06625 -0.02875,-0.13375 -0.0575,-0.195 -0.03625,-0.0775 -0.09,-0.14 -0.14125,-0.20875 -0.0425,-0.0575 -0.07875,-0.12 -0.13125,-0.16875 -0.0575,-0.05375 -0.1275,-0.09 -0.195,-0.1325 -0.06875,-0.0425 -0.13,-0.0925 -0.20625,-0.12125 -0.0125,-0.005 -0.02125,-0.015 -0.0325,-0.02 -0.0825,-0.02875 -0.16375,-0.025 -0.2475,-0.03625 -0.05625,-0.00875 -0.1075,-0.035 -0.1675,-0.035 h -0.0037 c -0.0087,0 -0.015,0.005 -0.02375,0.005 -0.1275,0.0025 -0.25,0.035 -0.37125,0.075 -0.03,0.01125 -0.065,0.01 -0.09625,0.0225 -0.285,0.12125 -0.5275,0.34875 -0.6575,0.655 -3.4075,7.94875 -6.74,9.3025 -6.7475,9.30625 -0.65375,0.21875 -1.0075,0.92625 -0.78875,1.58125 0.02625,0.08125 0.06,0.15875 0.1025,0.23 -0.20375,0.35125 -0.23125,0.79375 -0.03625,1.18375 0.22,0.43875 0.66125,0.69125 1.12,0.69125 0.1875,0 0.3775,-0.0425 0.5575,-0.1325 0.02375,-0.01125 0.0425,-0.02625 0.06625,-0.0375 0.19,0.10875 0.40625,0.17 0.62625,0.17 0.21875,0 0.44,-0.05875 0.64125,-0.17875 6.77875,-4.0675 6.8575,-11.9875 6.8575,-12.3225 0,-0.02125 -0.01125,-0.04 -0.0125,-0.06125"
     inkscape:connector-curvature="0"
     clip-path="url(#clipPath1047)" /><path
     id="path94"
     style="fill:#000000;fill-opacity:1;fill-rule:nonzero;stroke:none;stroke-width:1.25"
     d="M 18.75,20 C 13.4325,20 9.4725,17.4 9.30625,17.29 8.7325,16.9075 8.5775,16.13125 8.96,15.55625 9.3425,14.98375 10.1175,14.8275 10.69125,15.20875 10.72625,15.23125 14.215,17.5 18.75,17.5 19.44,17.5 20,18.06 20,18.75 20,19.44 19.44,20 18.75,20"
     inkscape:connector-curvature="0" /><path
     id="path98"
     style="fill:#000000;fill-opacity:1;fill-rule:nonzero;stroke:none;stroke-width:1.25"
     d="M 26.25,20 C 25.55875,20 25,19.44 25,18.75 c 0,-0.69 0.55875,-1.25 1.25,-1.25 4.56875,0 8.0225,-2.2675 8.05625,-2.29 0.575,-0.38375 1.35,-0.22875 1.73375,0.34625 0.38375,0.575 0.22875,1.35125 -0.34625,1.73375 C 35.5275,17.4 31.5675,20 26.25,20"
     inkscape:connector-curvature="0" /></svg>