<?xml version="1.0" encoding="UTF-8" standalone="no"?>
<svg
   xmlns:dc="http://purl.org/dc/elements/1.1/"
   xmlns:cc="http://creativecommons.org/ns#"
   xmlns:rdf="http://www.w3.org/1999/02/22-rdf-syntax-ns#"
   xmlns:svg="http://www.w3.org/2000/svg"
   xmlns="http://www.w3.org/2000/svg"
   xmlns:sodipodi="http://sodipodi.sourceforge.net/DTD/sodipodi-0.dtd"
   xmlns:inkscape="http://www.inkscape.org/namespaces/inkscape"
   viewBox="0 0 45 45"
   style="enable-background:new 0 0 45 45;"
   xml:space="preserve"
   version="1.1"
   id="svg2"
   sodipodi:docname="1f480.svg"
   inkscape:version="0.92.2 5c3e80d, 2017-08-06"><sodipodi:namedview
     pagecolor="#ffffff"
     bordercolor="#666666"
     borderopacity="1"
     objecttolerance="10"
     gridtolerance="10"
     guidetolerance="10"
     inkscape:pageopacity="0"
     inkscape:pageshadow="2"
     inkscape:window-width="1303"
     inkscape:window-height="1050"
     id="namedview18"
     showgrid="false"
     inkscape:zoom="3.7083822"
     inkscape:cx="-29.36186"
     inkscape:cy="3.2000909"
     inkscape:window-x="0"
     inkscape:window-y="28"
     inkscape:window-maximized="0"
     inkscape:current-layer="svg2" /><metadata
     id="metadata8"><rdf:RDF><cc:Work
         rdf:about=""><dc:format>image/svg+xml</dc:format><dc:type
           rdf:resource="http://purl.org/dc/dcmitype/StillImage" /></cc:Work></rdf:RDF></metadata><defs
     id="defs6"><clipPath
       id="clipPath16"
       clipPathUnits="userSpaceOnUse"><path
         id="path18"
         d="M 0,36 36,36 36,0 0,0 0,36 Z" /></clipPath></defs><path
     style="color:#000000;font-style:normal;font-variant:normal;font-weight:normal;font-stretch:normal;font-size:medium;line-height:normal;font-family:sans-serif;font-variant-ligatures:normal;font-variant-position:normal;font-variant-caps:normal;font-variant-numeric:normal;font-variant-alternates:normal;font-feature-settings:normal;text-indent:0;text-align:start;text-decoration:none;text-decoration-line:none;text-decoration-style:solid;text-decoration-color:#000000;letter-spacing:normal;word-spacing:normal;text-transform:none;writing-mode:lr-tb;direction:ltr;text-orientation:mixed;dominant-baseline:auto;baseline-shift:baseline;text-anchor:start;white-space:normal;shape-padding:0;clip-rule:nonzero;display:inline;overflow:visible;visibility:visible;opacity:1;isolation:auto;mix-blend-mode:normal;color-interpolation:sRGB;color-interpolation-filters:linearRGB;solid-color:#000000;solid-opacity:1;vector-effect:none;fill:#000000;fill-opacity:1;fill-rule:nonzero;stroke:none;stroke-width:2;stroke-linecap:butt;stroke-linejoin:miter;stroke-miterlimit:4;stroke-dasharray:none;stroke-dashoffset:0;stroke-opacity:1;color-rendering:auto;image-rendering:auto;shape-rendering:auto;text-rendering:auto;enable-background:accumulate"
     clip-path="none"
     d="M 22.5 0 C 11.455 0 2.5 7.5 2.5 20 C 2.5 26.9675 2.5025 32.985781 10 35.800781 L 10 41.25 C 10 43.32125 11.67875 45 13.75 45 C 15.82125 45 17.5 43.32125 17.5 41.25 L 17.5 37.306641 C 17.905 37.340391 18.32375 37.369531 18.75 37.394531 L 18.75 41.25 C 18.75 43.32125 20.42875 45 22.5 45 C 24.57125 45 26.25 43.32125 26.25 41.25 L 26.25 37.394531 C 26.6775 37.369531 27.095 37.340391 27.5 37.306641 L 27.5 41.25 C 27.5 43.32125 29.18 45 31.25 45 C 33.32125 45 35 43.32125 35 41.25 L 35 35.800781 C 42.4975 32.985781 42.5 26.9675 42.5 20 C 42.5 7.5 33.54625 0 22.5 0 z M 22.5 1 C 33.093608 1 41.5 7.9775333 41.5 20 C 41.5 23.48363 41.47374 26.63626 40.615234 29.132812 C 39.756732 31.629365 38.177705 33.538188 34.648438 34.863281 L 34 35.107422 L 34 41.25 C 34 42.780916 32.780916 44 31.25 44 C 29.72066 44 28.5 42.780514 28.5 41.25 L 28.5 36.21875 L 27.416016 36.310547 C 27.020858 36.343477 26.612181 36.369931 26.191406 36.394531 L 25.25 36.451172 L 25.25 41.25 C 25.25 42.780916 24.030916 44 22.5 44 C 20.969084 44 19.75 42.780916 19.75 41.25 L 19.75 36.451172 L 18.808594 36.394531 C 18.388863 36.369911 17.978972 36.343457 17.583984 36.310547 L 16.5 36.21875 L 16.5 41.25 C 16.5 42.780916 15.280916 44 13.75 44 C 12.219084 44 11 42.780916 11 41.25 L 11 35.107422 L 10.351562 34.863281 C 6.8222955 33.538188 5.2432685 31.629365 4.3847656 29.132812 C 3.5262628 26.63626 3.5 23.48363 3.5 20 C 3.5 7.9776 11.907694 1 22.5 1 z "
     id="path22" /><path
     id="path26"
     style="fill:#000000;fill-opacity:1;fill-rule:nonzero;stroke:none;stroke-width:1.25"
     d="m 20,17.499375 c 0,3.45125 0,6.25 -6.25,6.25 -6.25,0 -6.25,-2.79875 -6.25,-6.25 0,-3.45125 2.79875,-6.25 6.25,-6.25 3.45125,0 6.25,2.79875 6.25,6.25"
     inkscape:connector-curvature="0" /><path
     id="path30"
     style="fill:#000000;fill-opacity:1;fill-rule:nonzero;stroke:none;stroke-width:1.25"
     d="m 37.5,17.499375 c 0,3.45125 0,6.25 -6.25,6.25 -6.25,0 -6.25,-2.79875 -6.25,-6.25 0,-3.45125 2.7975,-6.25 6.25,-6.25 3.4525,0 6.25,2.79875 6.25,6.25"
     inkscape:connector-curvature="0" /><path
     id="path34"
     style="fill:#000000;fill-opacity:1;fill-rule:nonzero;stroke:none;stroke-width:1.25"
     d="m 24.879125,28.826875 c -0.315,-0.765 -1.25375,-1.32625 -2.37875,-1.32625 -1.125,0 -2.065,0.56125 -2.38,1.32625 -0.78875,0.22125 -1.37,0.93875 -1.37,1.79875 0,1.035 0.83875,1.875 1.875,1.875 0.8175,0 1.50625,-0.5275 1.7625,-1.25875 0.0375,0.0012 0.07375,0.0087 0.1125,0.0087 0.03875,0 0.07375,-0.0075 0.11125,-0.0087 0.2575,0.73125 0.945,1.25875 1.76375,1.25875 1.035,0 1.875,-0.84 1.875,-1.875 0,-0.86 -0.5825,-1.57625 -1.37125,-1.79875"
     inkscape:connector-curvature="0" /></svg>