<?xml version="1.0" encoding="UTF-8" standalone="no"?>
<svg
   xmlns:dc="http://purl.org/dc/elements/1.1/"
   xmlns:cc="http://creativecommons.org/ns#"
   xmlns:rdf="http://www.w3.org/1999/02/22-rdf-syntax-ns#"
   xmlns:svg="http://www.w3.org/2000/svg"
   xmlns="http://www.w3.org/2000/svg"
   xmlns:sodipodi="http://sodipodi.sourceforge.net/DTD/sodipodi-0.dtd"
   xmlns:inkscape="http://www.inkscape.org/namespaces/inkscape"
   viewBox="0 0 45 45"
   style="enable-background:new 0 0 45 45;"
   xml:space="preserve"
   version="1.1"
   id="svg2"
   sodipodi:docname="1f4a9.svg"
   inkscape:version="0.92.2 5c3e80d, 2017-08-06"><sodipodi:namedview
     pagecolor="#ffffff"
     bordercolor="#666666"
     borderopacity="1"
     objecttolerance="10"
     gridtolerance="10"
     guidetolerance="10"
     inkscape:pageopacity="0"
     inkscape:pageshadow="2"
     inkscape:window-width="1130"
     inkscape:window-height="1050"
     id="namedview24"
     showgrid="false"
     showguides="true"
     inkscape:zoom="7.4167645"
     inkscape:cx="25.157259"
     inkscape:cy="-4.0582091"
     inkscape:window-x="0"
     inkscape:window-y="28"
     inkscape:window-maximized="0"
     inkscape:current-layer="svg2" /><metadata
     id="metadata8"><rdf:RDF><cc:Work
         rdf:about=""><dc:format>image/svg+xml</dc:format><dc:type
           rdf:resource="http://purl.org/dc/dcmitype/StillImage" /></cc:Work></rdf:RDF></metadata><defs
     id="defs6"><clipPath
       id="clipPath16"
       clipPathUnits="userSpaceOnUse"><path
         id="path18"
         d="M 0,36 36,36 36,0 0,0 0,36 Z" /></clipPath></defs><path
     style="fill:#000000;fill-opacity:1;fill-rule:nonzero;stroke:none;stroke-width:2;stroke-opacity:1;stroke-miterlimit:4;stroke-dasharray:none"
     d="M 21.015625 0 C 17.966875 1.83 17.302969 4.549375 17.417969 6.859375 C 14.390469 7.374375 12.667969 8.0292969 12.667969 8.0292969 L 12.667969 8.03125 C 10.966719 8.72 9.765625 10.387187 9.765625 12.335938 C 9.765625 13.434688 10.162031 14.429609 10.800781 15.224609 L 9.9355469 15.548828 L 9.9375 15.552734 C 7.025 16.640234 4.96875 19.272812 4.96875 22.351562 C 4.96875 23.660312 5.3441406 24.885469 5.9941406 25.949219 C 2.4641406 27.534169 1.1842379e-15 30.97625 0 35 C 0 40.5225 4.6134375 45 10.304688 45 C 14.390937 45 18.50375 44.122422 22.21875 42.919922 C 25.0225 44.219922 29.337734 45 35.833984 45 C 40.896484 45 45 40.896484 45 35.833984 C 45 33.113984 43.808281 30.678047 41.925781 28.998047 C 42.380781 27.025547 42.229766 24.914453 41.353516 22.814453 C 40.506016 20.783203 39.045625 19.178359 37.265625 18.099609 C 37.664375 16.608359 37.558125 15.005156 36.859375 13.410156 C 35.809375 11.010156 33.535703 9.4082812 30.970703 8.9570312 C 31.281953 8.2420313 31.381875 7.3467969 31.015625 6.2480469 C 29.765625 2.4980469 24.765625 4.99875 21.015625 0 z M 20.919922 1.3457031 C 22.830662 3.4136438 25.018253 4.13947 26.710938 4.5625 C 27.661099 4.7999611 28.452588 4.9956625 28.986328 5.2773438 C 29.520068 5.559025 29.827693 5.8483126 30.066406 6.5644531 C 30.36387 7.4568456 30.273374 8.0517383 30.052734 8.5585938 L 29.546875 9.7226562 L 30.796875 9.9433594 C 33.06367 10.342147 35.040494 11.746855 35.943359 13.810547 C 36.558098 15.213778 36.64008 16.563626 36.298828 17.839844 L 36.105469 18.564453 L 36.746094 18.955078 C 38.357267 19.931513 39.669292 21.374009 40.431641 23.201172 C 41.231969 25.119219 41.360155 27.000426 40.951172 28.773438 L 40.818359 29.349609 L 41.259766 29.744141 C 42.9403 31.243902 44 33.405957 44 35.833984 C 44 40.356073 40.356073 44 35.833984 44 C 29.417909 44 25.22591 43.21133 22.638672 42.011719 L 22.283203 41.847656 L 21.910156 41.966797 C 18.265072 43.146666 14.247571 44 10.304688 44 C 5.1379263 44 1 39.965536 1 35 C 1 31.384451 3.2092802 28.295873 6.4042969 26.861328 L 7.4394531 26.396484 L 6.8476562 25.427734 C 6.2865324 24.509434 5.96875 23.469291 5.96875 22.351562 C 5.96875 19.718069 7.725547 17.446698 10.287109 16.490234 L 11.1875 16.154297 L 11.185547 16.148438 L 12.447266 15.677734 L 11.580078 14.599609 C 11.069942 13.964684 10.765625 13.193504 10.765625 12.335938 C 10.765625 10.798561 11.711744 9.4987204 13.044922 8.9589844 L 13.052734 8.9550781 C 13.073384 8.9471981 14.653856 8.3444718 17.585938 7.8457031 L 18.460938 7.6953125 L 18.417969 6.8085938 C 18.323929 4.9195934 18.804539 2.9265936 20.919922 1.3457031 z "
     id="path22" /></svg>