<?xml version="1.0" encoding="UTF-8" standalone="no"?>
<svg
   xmlns:dc="http://purl.org/dc/elements/1.1/"
   xmlns:cc="http://creativecommons.org/ns#"
   xmlns:rdf="http://www.w3.org/1999/02/22-rdf-syntax-ns#"
   xmlns:svg="http://www.w3.org/2000/svg"
   xmlns="http://www.w3.org/2000/svg"
   xmlns:sodipodi="http://sodipodi.sourceforge.net/DTD/sodipodi-0.dtd"
   xmlns:inkscape="http://www.inkscape.org/namespaces/inkscape"
   viewBox="0 0 45 45"
   style="enable-background:new 0 0 45 45;"
   xml:space="preserve"
   version="1.1"
   id="svg2"
   sodipodi:docname="1f4a9.svg"
   inkscape:version="0.92.2 5c3e80d, 2017-08-06"><sodipodi:namedview
     pagecolor="#ffffff"
     bordercolor="#666666"
     borderopacity="1"
     objecttolerance="10"
     gridtolerance="10"
     guidetolerance="10"
     inkscape:pageopacity="0"
     inkscape:pageshadow="2"
     inkscape:window-width="1303"
     inkscape:window-height="1050"
     id="namedview24"
     showgrid="false"
     inkscape:zoom="10.488889"
     inkscape:cx="16.421672"
     inkscape:cy="21.11091"
     inkscape:window-x="0"
     inkscape:window-y="28"
     inkscape:window-maximized="0"
     inkscape:current-layer="svg2" /><metadata
     id="metadata8"><rdf:RDF><cc:Work
         rdf:about=""><dc:format>image/svg+xml</dc:format><dc:type
           rdf:resource="http://purl.org/dc/dcmitype/StillImage" /></cc:Work></rdf:RDF></metadata><defs
     id="defs6"><clipPath
       id="clipPath16"
       clipPathUnits="userSpaceOnUse"><path
         id="path18"
         d="M 0,36 36,36 36,0 0,0 0,36 Z" /></clipPath></defs><path
     inkscape:connector-curvature="0"
     d="m 41.92625,28.99775 c 0.455,-1.9725 0.30375,-4.0825 -0.5725,-6.1825 C 40.50625,20.784 39.045,19.17775 37.265,18.099 c 0.39875,-1.49125 0.29375,-3.09375 -0.405,-4.68875 -1.05,-2.4 -3.325,-4.00125 -5.89,-4.4525 0.31125,-0.715 0.41125,-1.61 0.045,-2.70875 -1.25,-3.75 -6.25,-1.25 -10,-6.24875 -3.04875,1.83 -3.71125,4.54875 -3.59625,6.85875 -3.0275,0.515 -4.75,1.17 -4.75,1.17 V 8.0315 C 10.9675,8.72025 9.765,10.3865 9.765,12.33525 c 0,1.09875 0.3975,2.095 1.03625,2.89 l -0.865,0.32375 0.00125,0.0038 c -2.9125,1.0875 -4.96875,3.72 -4.96875,6.79875 0,1.30875 0.375,2.53375 1.025,3.5975 C 2.46375,27.534 0,30.9765 0,35.00025 c 0,5.5225 4.61375,10 10.305,10 4.08625,0 8.19875,-0.87875 11.91375,-2.08125 2.80375,1.3 7.11875,2.08125 13.615,2.08125 5.0625,0 9.16625,-4.10375 9.16625,-9.16625 0,-2.72 -1.19125,-5.15625 -3.07375,-6.83625"
     style="fill:#000000;fill-opacity:1;fill-rule:nonzero;stroke:none;stroke-width:1.25"
     id="path907" /></svg>