<?xml version="1.0" encoding="UTF-8" standalone="no"?>
<svg
   xmlns:dc="http://purl.org/dc/elements/1.1/"
   xmlns:cc="http://creativecommons.org/ns#"
   xmlns:rdf="http://www.w3.org/1999/02/22-rdf-syntax-ns#"
   xmlns:svg="http://www.w3.org/2000/svg"
   xmlns="http://www.w3.org/2000/svg"
   xmlns:sodipodi="http://sodipodi.sourceforge.net/DTD/sodipodi-0.dtd"
   xmlns:inkscape="http://www.inkscape.org/namespaces/inkscape"
   viewBox="0 0 45 45"
   style="enable-background:new 0 0 45 45;"
   xml:space="preserve"
   version="1.1"
   id="svg2"
   sodipodi:docname="1f60c.svg"
   inkscape:version="0.92.2 5c3e80d, 2017-08-06"><sodipodi:namedview
     pagecolor="#ffffff"
     bordercolor="#666666"
     borderopacity="1"
     objecttolerance="10"
     gridtolerance="10"
     guidetolerance="10"
     inkscape:pageopacity="0"
     inkscape:pageshadow="2"
     inkscape:window-width="1418"
     inkscape:window-height="1050"
     id="namedview22"
     showgrid="false"
     inkscape:zoom="7.4167645"
     inkscape:cx="19.863836"
     inkscape:cy="10.016146"
     inkscape:window-x="0"
     inkscape:window-y="28"
     inkscape:window-maximized="0"
     inkscape:current-layer="svg2" /><metadata
     id="metadata8"><rdf:RDF><cc:Work
         rdf:about=""><dc:format>image/svg+xml</dc:format><dc:type
           rdf:resource="http://purl.org/dc/dcmitype/StillImage" /></cc:Work></rdf:RDF></metadata><defs
     id="defs6"><clipPath
       id="clipPath16"
       clipPathUnits="userSpaceOnUse"><path
         id="path18"
         d="M 0,36 36,36 36,0 0,0 0,36 Z" /></clipPath></defs><path
     style="color:#000000;font-style:normal;font-variant:normal;font-weight:normal;font-stretch:normal;font-size:medium;line-height:normal;font-family:sans-serif;font-variant-ligatures:normal;font-variant-position:normal;font-variant-caps:normal;font-variant-numeric:normal;font-variant-alternates:normal;font-feature-settings:normal;text-indent:0;text-align:start;text-decoration:none;text-decoration-line:none;text-decoration-style:solid;text-decoration-color:#000000;letter-spacing:normal;word-spacing:normal;text-transform:none;writing-mode:lr-tb;direction:ltr;text-orientation:mixed;dominant-baseline:auto;baseline-shift:baseline;text-anchor:start;white-space:normal;shape-padding:0;clip-rule:nonzero;display:inline;overflow:visible;visibility:visible;opacity:1;isolation:auto;mix-blend-mode:normal;color-interpolation:sRGB;color-interpolation-filters:linearRGB;solid-color:#000000;solid-opacity:1;vector-effect:none;fill:#000000;fill-opacity:1;fill-rule:nonzero;stroke:none;stroke-width:2;stroke-linecap:butt;stroke-linejoin:miter;stroke-miterlimit:4;stroke-dasharray:none;stroke-dashoffset:0;stroke-opacity:1;color-rendering:auto;image-rendering:auto;shape-rendering:auto;text-rendering:auto;enable-background:accumulate"
     clip-path="none"
     d="M 22.5 0 C 10.07375 0 0 10.07375 0 22.5 C 0 34.92625 10.07375 45 22.5 45 C 34.92625 45 45 34.92625 45 22.5 C 45 10.07375 34.92625 0 22.5 0 z M 22.5 1 C 34.385795 1 44 10.614205 44 22.5 C 44 34.385795 34.385795 44 22.5 44 C 10.614205 44 1 34.385795 1 22.5 C 1 10.614205 10.614205 1 22.5 1 z "
     id="path22" /><path
     id="path26"
     style="fill:#000000;fill-opacity:1;fill-rule:nonzero;stroke:none;stroke-width:1.25"
     d="m 35.390625,19.51475 c -0.21875,-0.1775 -0.5325,-0.18375 -0.7625,-0.0175 -0.015,0.0125 -1.57625,1.1275 -4.6275,1.1275 -3.05125,0 -4.61375,-1.115 -4.62625,-1.125 -0.2275,-0.17125 -0.5425,-0.16625 -0.76375,0.01125 -0.2225,0.1775 -0.2975,0.4825 -0.1825,0.7425 0.075,0.16875 1.875,4.12125 5.5725,4.12125 3.6975,0 5.49625,-3.9525 5.57125,-4.12125 0.11375,-0.25875 0.04,-0.56125 -0.18125,-0.73875"
     inkscape:connector-curvature="0" /><path
     id="path30"
     style="fill:#000000;fill-opacity:1;fill-rule:nonzero;stroke:none;stroke-width:1.25"
     d="m 19.627625,19.497625 c -0.015,0.01125 -1.575,1.1275 -4.6275,1.1275 -3.05125,0 -4.6125,-1.11625 -4.625,-1.125 -0.22875,-0.17125 -0.5425,-0.16625 -0.765,0.01125 -0.2225,0.1775 -0.29625,0.4825 -0.18125,0.7425 0.075,0.16875 1.875,4.12125 5.57125,4.12125 3.6975,0 5.49625,-3.9525 5.57125,-4.12125 0.115,-0.25875 0.04,-0.56125 -0.18125,-0.73875 -0.22,-0.17875 -0.535,-0.18375 -0.7625,-0.0175"
     inkscape:connector-curvature="0" /><path
     id="path34"
     style="fill:#000000;fill-opacity:1;fill-rule:nonzero;stroke:none;stroke-width:1.25"
     d="M 36.25125,16.25 C 35.87,16.25 35.495,16.0775 35.25,15.75 c -3.24,-4.32 -8.70125,-3.285 -8.755,-3.275 -0.68375,0.135 -1.335,-0.30375 -1.47125,-0.98 -0.135,-0.67625 0.305,-1.335 0.98125,-1.47 0.2875,-0.06 7.07125,-1.34 11.245,4.225 0.415,0.5525 0.3025,1.33625 -0.25,1.75 -0.225,0.16875 -0.4875,0.25 -0.74875,0.25"
     inkscape:connector-curvature="0" /><path
     id="path38"
     style="fill:#000000;fill-opacity:1;fill-rule:nonzero;stroke:none;stroke-width:1.25"
     d="M 8.74875,16.25 C 8.48875,16.25 8.225,16.16875 8,16 7.4475,15.58625 7.33625,14.8025 7.75,14.25 11.925,8.6825 18.7075,9.9675 18.995,10.025 c 0.6775,0.135 1.11625,0.79375 0.98,1.47 -0.135,0.675 -0.7925,1.11375 -1.46625,0.98125 C 18.275,12.43375 12.9625,11.4675 9.75,15.75 c -0.24625,0.3275 -0.62125,0.5 -1.00125,0.5"
     inkscape:connector-curvature="0" /><path
     id="path42"
     style="fill:#000000;fill-opacity:1;fill-rule:nonzero;stroke:none;stroke-width:1.25"
     d="m 29.067375,29.471375 c -0.23375,-0.13875 -0.54,-0.1075 -0.74625,0.075 -0.01125,0.0087 -1.26625,1.07875 -5.82125,1.07875 -4.55125,0 -5.80625,-1.0675 -5.8075,-1.0675 -0.2,-0.2 -0.50625,-0.2375 -0.75125,-0.1025 -0.24375,0.14 -0.36625,0.42375 -0.2975,0.69625 0.01375,0.055 1.43125,5.47375 6.85625,5.47375 5.425,0 6.8425,-5.41875 6.85625,-5.47375 0.06625,-0.26625 -0.055,-0.53875 -0.28875,-0.68"
     inkscape:connector-curvature="0" /></svg>