<?xml version="1.0" encoding="UTF-8" standalone="no"?>
<svg
   xmlns:dc="http://purl.org/dc/elements/1.1/"
   xmlns:cc="http://creativecommons.org/ns#"
   xmlns:rdf="http://www.w3.org/1999/02/22-rdf-syntax-ns#"
   xmlns:svg="http://www.w3.org/2000/svg"
   xmlns="http://www.w3.org/2000/svg"
   xmlns:sodipodi="http://sodipodi.sourceforge.net/DTD/sodipodi-0.dtd"
   xmlns:inkscape="http://www.inkscape.org/namespaces/inkscape"
   viewBox="0 0 45 45"
   style="enable-background:new 0 0 45 45;"
   xml:space="preserve"
   version="1.1"
   id="svg2"
   sodipodi:docname="1f601.svg"
   inkscape:version="0.92.2 5c3e80d, 2017-08-06"><sodipodi:namedview
     pagecolor="#ffffff"
     bordercolor="#666666"
     borderopacity="1"
     objecttolerance="10"
     gridtolerance="10"
     guidetolerance="10"
     inkscape:pageopacity="0"
     inkscape:pageshadow="2"
     inkscape:window-width="1130"
     inkscape:window-height="1050"
     id="namedview22"
     showgrid="false"
     inkscape:zoom="20.977778"
     inkscape:cx="23.772737"
     inkscape:cy="34.577172"
     inkscape:window-x="0"
     inkscape:window-y="28"
     inkscape:window-maximized="0"
     inkscape:current-layer="svg2" /><metadata
     id="metadata8"><rdf:RDF><cc:Work
         rdf:about=""><dc:format>image/svg+xml</dc:format><dc:type
           rdf:resource="http://purl.org/dc/dcmitype/StillImage" /></cc:Work></rdf:RDF></metadata><defs
     id="defs6"><clipPath
       id="clipPath16"
       clipPathUnits="userSpaceOnUse"><path
         id="path18"
         d="M 0,36 36,36 36,0 0,0 0,36 Z" /></clipPath></defs><path
     style="color:#000000;font-style:normal;font-variant:normal;font-weight:normal;font-stretch:normal;font-size:medium;line-height:normal;font-family:sans-serif;font-variant-ligatures:normal;font-variant-position:normal;font-variant-caps:normal;font-variant-numeric:normal;font-variant-alternates:normal;font-feature-settings:normal;text-indent:0;text-align:start;text-decoration:none;text-decoration-line:none;text-decoration-style:solid;text-decoration-color:#000000;letter-spacing:normal;word-spacing:normal;text-transform:none;writing-mode:lr-tb;direction:ltr;text-orientation:mixed;dominant-baseline:auto;baseline-shift:baseline;text-anchor:start;white-space:normal;shape-padding:0;clip-rule:nonzero;display:inline;overflow:visible;visibility:visible;opacity:1;isolation:auto;mix-blend-mode:normal;color-interpolation:sRGB;color-interpolation-filters:linearRGB;solid-color:#000000;solid-opacity:1;vector-effect:none;fill:#000000;fill-opacity:1;fill-rule:nonzero;stroke:none;stroke-width:2;stroke-linecap:butt;stroke-linejoin:miter;stroke-miterlimit:4;stroke-dasharray:none;stroke-dashoffset:0;stroke-opacity:1;color-rendering:auto;image-rendering:auto;shape-rendering:auto;text-rendering:auto;enable-background:accumulate"
     clip-path="none"
     d="M 22.5 0 C 10.075 0 0 10.075 0 22.5 C 0 34.92625 10.075 45 22.5 45 C 34.92625 45 45 34.92625 45 22.5 C 45 10.075 34.92625 0 22.5 0 z M 22.5 1 C 34.385728 1 44 10.61551 44 22.5 C 44 34.385795 34.385795 44 22.5 44 C 10.61551 44 1 34.385728 1 22.5 C 1 10.615577 10.615577 1 22.5 1 z "
     id="path22-3" /><path
     id="path26"
     style="fill:#000000;fill-opacity:1;fill-rule:nonzero;stroke:none;stroke-width:1.25"
     d="m 20,22.5 c -0.52375,0 -1.01125,-0.33125 -1.18625,-0.855 C 18.56,20.89625 17.5425,18.75 16.25,18.75 c -1.3275,0 -2.36,2.28375 -2.56375,2.895 -0.21875,0.655 -0.92375,1.01 -1.58125,0.79 -0.655,-0.2175 -1.01,-0.925 -0.79125,-1.58 0.1575,-0.47125 1.63,-4.605 4.93625,-4.605 3.30625,0 4.77875,4.13375 4.93625,4.605 C 21.405,21.51 21.05,22.2175 20.395,22.435 20.26375,22.47875 20.13125,22.5 20,22.5"
     inkscape:connector-curvature="0" /><path
     id="path30"
     style="fill:#000000;fill-opacity:1;fill-rule:nonzero;stroke:none;stroke-width:1.25"
     d="m 32.5,22.5 c -0.52375,0 -1.01125,-0.33125 -1.185,-0.855 -0.25375,-0.74875 -1.27375,-2.895 -2.565,-2.895 -1.3275,0 -2.36125,2.28375 -2.565,2.895 -0.21875,0.655 -0.92,1.01 -1.58,0.79 -0.655,-0.2175 -1.00875,-0.925 -0.79,-1.58 0.15625,-0.47125 1.62875,-4.605 4.935,-4.605 3.30625,0 4.77875,4.13375 4.935,4.605 0.21875,0.655 -0.135,1.3625 -0.79,1.58 C 32.76375,22.47875 32.63125,22.5 32.5,22.5"
     inkscape:connector-curvature="0" /><path
     id="path34"
     style="fill:#000000;fill-opacity:1;fill-rule:nonzero;stroke:none;stroke-width:1.25"
     d="m 22.5,27.5 c -4.52875,0 -7.53375,-0.5275 -11.25,-1.25 -0.84875,-0.16375 -2.5,0 -2.5,2.5 0,5 5.74375,11.25 13.75,11.25 8.005,0 13.75,-6.25 13.75,-11.25 0,-2.5 -1.65125,-2.665 -2.5,-2.5 -3.71625,0.7225 -6.72125,1.25 -11.25,1.25"
     inkscape:connector-curvature="0" /><path
     id="path38"
     style="fill:#ffffff;fill-opacity:1;fill-rule:nonzero;stroke:none;stroke-width:1.25"
     d="m 11.25,28.75 c 0,0 3.75,1.25 11.25,1.25 7.5,0 11.25,-1.25 11.25,-1.25 0,0 -1.68,8.4375 -11.25,8.4375 -9.57,0 -11.25,-8.4375 -11.25,-8.4375"
     inkscape:connector-curvature="0" /><path
     id="path42"
     style="fill:#000000;fill-opacity:1;fill-rule:nonzero;stroke:none;stroke-width:1.25"
     d="m 22.5,34.49225 c -4.495,0 -7.84,-0.465 -9.92125,-0.93125 l -1.0325,-2.33875 c 1.03,0.38875 4.86125,1.12125 10.95375,1.12125 6.1925,0 10.04625,-0.77 11.08,-1.17125 l -0.87625,2.3025 C 30.6625,33.9485 27.18125,34.49225 22.5,34.49225"
     inkscape:connector-curvature="0" /></svg>