<?xml version="1.0" encoding="UTF-8" standalone="no"?>
<svg
   xmlns:dc="http://purl.org/dc/elements/1.1/"
   xmlns:cc="http://creativecommons.org/ns#"
   xmlns:rdf="http://www.w3.org/1999/02/22-rdf-syntax-ns#"
   xmlns:svg="http://www.w3.org/2000/svg"
   xmlns="http://www.w3.org/2000/svg"
   xmlns:sodipodi="http://sodipodi.sourceforge.net/DTD/sodipodi-0.dtd"
   xmlns:inkscape="http://www.inkscape.org/namespaces/inkscape"
   viewBox="0 0 45 45"
   style="enable-background:new 0 0 45 45;"
   xml:space="preserve"
   version="1.1"
   id="svg2"
   sodipodi:docname="1f60d.svg"
   inkscape:version="0.92.2 5c3e80d, 2017-08-06"><sodipodi:namedview
     pagecolor="#ffffff"
     bordercolor="#666666"
     borderopacity="1"
     objecttolerance="10"
     gridtolerance="10"
     guidetolerance="10"
     inkscape:pageopacity="0"
     inkscape:pageshadow="2"
     inkscape:window-width="1418"
     inkscape:window-height="1050"
     id="namedview18"
     showgrid="false"
     inkscape:zoom="2.6222222"
     inkscape:cx="14.591484"
     inkscape:cy="26.46044"
     inkscape:window-x="0"
     inkscape:window-y="28"
     inkscape:window-maximized="0"
     inkscape:current-layer="svg2" /><metadata
     id="metadata8"><rdf:RDF><cc:Work
         rdf:about=""><dc:format>image/svg+xml</dc:format><dc:type
           rdf:resource="http://purl.org/dc/dcmitype/StillImage" /></cc:Work></rdf:RDF></metadata><defs
     id="defs6"><clipPath
       id="clipPath16"
       clipPathUnits="userSpaceOnUse"><path
         id="path18"
         d="M 0,36 36,36 36,0 0,0 0,36 Z" /></clipPath><clipPath
       clipPathUnits="userSpaceOnUse"
       id="clipPath881"><g
         id="g885"><path
           inkscape:connector-curvature="0"
           d="m 0,0 c 0,-9.941 -8.059,-18 -18,-18 -9.941,0 -18,8.059 -18,18 0,9.941 8.059,18 18,18 C -8.059,18 0,9.941 0,0"
           style="fill:#ffcc4d;fill-opacity:1;fill-rule:nonzero;stroke:none"
           id="path883" /></g></clipPath></defs><path
     style="color:#000000;font-style:normal;font-variant:normal;font-weight:normal;font-stretch:normal;font-size:medium;line-height:normal;font-family:sans-serif;font-variant-ligatures:normal;font-variant-position:normal;font-variant-caps:normal;font-variant-numeric:normal;font-variant-alternates:normal;font-feature-settings:normal;text-indent:0;text-align:start;text-decoration:none;text-decoration-line:none;text-decoration-style:solid;text-decoration-color:#000000;letter-spacing:normal;word-spacing:normal;text-transform:none;writing-mode:lr-tb;direction:ltr;text-orientation:mixed;dominant-baseline:auto;baseline-shift:baseline;text-anchor:start;white-space:normal;shape-padding:0;clip-rule:nonzero;display:inline;overflow:visible;visibility:visible;opacity:1;isolation:auto;mix-blend-mode:normal;color-interpolation:sRGB;color-interpolation-filters:linearRGB;solid-color:#000000;solid-opacity:1;vector-effect:none;fill:#000000;fill-opacity:1;fill-rule:nonzero;stroke:none;stroke-width:2;stroke-linecap:butt;stroke-linejoin:miter;stroke-miterlimit:4;stroke-dasharray:none;stroke-dashoffset:0;stroke-opacity:1;color-rendering:auto;image-rendering:auto;shape-rendering:auto;text-rendering:auto;enable-background:accumulate"
     d="M 22.5 0 C 10.07375 0 0 10.07375 0 22.5 C 0 34.92625 10.07375 45 22.5 45 C 34.92625 45 45 34.92625 45 22.5 C 45 10.07375 34.92625 0 22.5 0 z M 22.5 1 C 34.385795 1 44 10.614205 44 22.5 C 44 34.385795 34.385795 44 22.5 44 C 10.614205 44 1 34.385795 1 22.5 C 1 10.614205 10.614205 1 22.5 1 z "
     id="path22" /><g
     id="g24"
     transform="matrix(1.25,0,0,-1.25,22.5,27.31075)"
     style="fill:#000000"><path
       inkscape:connector-curvature="0"
       d="m 0,0 c -2.966,0 -4.935,0.346 -7.369,0.819 -0.557,0.107 -1.638,0 -1.638,-1.637 0,-3.276 3.763,-7.37 9.007,-7.37 5.244,0 9.007,4.094 9.007,7.37 0,1.637 -1.082,1.745 -1.638,1.637 C 4.936,0.346 2.967,0 0,0"
       style="fill:#000000;fill-opacity:1;fill-rule:nonzero;stroke:none"
       id="path26" /></g><g
     id="g28"
     transform="matrix(1.25,0,0,-1.25,20.812375,4.101)"
     style="fill:#000000"><path
       inkscape:connector-curvature="0"
       d="m 0,0 c -0.859,2.431 -3.524,3.707 -5.956,2.85 -1.476,-0.521 -2.521,-1.711 -2.928,-3.105 -1.191,0.83 -2.751,1.1 -4.224,0.581 -2.431,-0.858 -3.708,-3.525 -2.85,-5.956 0.122,-0.345 0.284,-0.663 0.472,-0.958 1.951,-3.582 7.588,-6.1 11.002,-6.131 2.636,2.167 5.446,7.664 4.717,11.677 C 0.195,-0.694 0.12,-0.344 0,0"
       style="fill:#000000;fill-opacity:1;fill-rule:nonzero;stroke:none"
       id="path30" /></g><g
     id="g32"
     transform="matrix(1.25,0,0,-1.25,24.187,4.101)"
     style="fill:#000000"><path
       inkscape:connector-curvature="0"
       d="m 0,0 c 0.859,2.431 3.525,3.707 5.956,2.85 1.477,-0.521 2.521,-1.711 2.929,-3.105 1.191,0.83 2.751,1.1 4.224,0.581 2.43,-0.858 3.707,-3.525 2.85,-5.956 -0.123,-0.345 -0.284,-0.663 -0.473,-0.958 -1.951,-3.582 -7.588,-6.1 -11.002,-6.131 -2.636,2.167 -5.445,7.664 -4.716,11.677 C -0.194,-0.694 -0.119,-0.344 0,0"
       style="fill:#000000;fill-opacity:1;fill-rule:nonzero;stroke:none"
       id="path34" /></g></svg>