<?xml version="1.0" encoding="UTF-8" standalone="no"?>
<svg
   xmlns:dc="http://purl.org/dc/elements/1.1/"
   xmlns:cc="http://creativecommons.org/ns#"
   xmlns:rdf="http://www.w3.org/1999/02/22-rdf-syntax-ns#"
   xmlns:svg="http://www.w3.org/2000/svg"
   xmlns="http://www.w3.org/2000/svg"
   xmlns:sodipodi="http://sodipodi.sourceforge.net/DTD/sodipodi-0.dtd"
   xmlns:inkscape="http://www.inkscape.org/namespaces/inkscape"
   viewBox="0 0 45 45"
   style="enable-background:new 0 0 45 45;"
   xml:space="preserve"
   version="1.1"
   id="svg2"
   sodipodi:docname="1f606.svg"
   inkscape:version="0.92.2 5c3e80d, 2017-08-06"><sodipodi:namedview
     pagecolor="#ffffff"
     bordercolor="#666666"
     borderopacity="1"
     objecttolerance="10"
     gridtolerance="10"
     guidetolerance="10"
     inkscape:pageopacity="0"
     inkscape:pageshadow="2"
     inkscape:window-width="1418"
     inkscape:window-height="1050"
     id="namedview20"
     showgrid="false"
     inkscape:zoom="10.488889"
     inkscape:cx="16.759127"
     inkscape:cy="31.892367"
     inkscape:window-x="0"
     inkscape:window-y="28"
     inkscape:window-maximized="0"
     inkscape:current-layer="svg2" /><metadata
     id="metadata8"><rdf:RDF><cc:Work
         rdf:about=""><dc:format>image/svg+xml</dc:format><dc:type
           rdf:resource="http://purl.org/dc/dcmitype/StillImage" /></cc:Work></rdf:RDF></metadata><defs
     id="defs6"><clipPath
       id="clipPath16"
       clipPathUnits="userSpaceOnUse"><path
         id="path18"
         d="M 0,36 36,36 36,0 0,0 0,36 Z" /></clipPath><clipPath
       clipPathUnits="userSpaceOnUse"
       id="clipPath878"><g
         id="g882"
         style="fill:#000000;fill-opacity:1;stroke:none;stroke-width:1.60000002;stroke-miterlimit:4;stroke-dasharray:none;stroke-opacity:1"><path
           inkscape:connector-curvature="0"
           d="m 0,0 c 0,-9.941 -8.059,-18 -18,-18 -9.94,0 -18,8.059 -18,18 0,9.94 8.06,18 18,18 C -8.059,18 0,9.94 0,0"
           style="fill:#000000;fill-opacity:1;fill-rule:nonzero;stroke:none;stroke-width:1.60000002;stroke-miterlimit:4;stroke-dasharray:none;stroke-opacity:1"
           id="path880" /></g></clipPath></defs><path
     style="color:#000000;font-style:normal;font-variant:normal;font-weight:normal;font-stretch:normal;font-size:medium;line-height:normal;font-family:sans-serif;font-variant-ligatures:normal;font-variant-position:normal;font-variant-caps:normal;font-variant-numeric:normal;font-variant-alternates:normal;font-feature-settings:normal;text-indent:0;text-align:start;text-decoration:none;text-decoration-line:none;text-decoration-style:solid;text-decoration-color:#000000;letter-spacing:normal;word-spacing:normal;text-transform:none;writing-mode:lr-tb;direction:ltr;text-orientation:mixed;dominant-baseline:auto;baseline-shift:baseline;text-anchor:start;white-space:normal;shape-padding:0;clip-rule:nonzero;display:inline;overflow:visible;visibility:visible;opacity:1;isolation:auto;mix-blend-mode:normal;color-interpolation:sRGB;color-interpolation-filters:linearRGB;solid-color:#000000;solid-opacity:1;vector-effect:none;fill:#000000;fill-opacity:1;fill-rule:nonzero;stroke:none;stroke-width:2;stroke-linecap:butt;stroke-linejoin:miter;stroke-miterlimit:4;stroke-dasharray:none;stroke-dashoffset:0;stroke-opacity:1;color-rendering:auto;image-rendering:auto;shape-rendering:auto;text-rendering:auto;enable-background:accumulate"
     clip-path="none"
     d="M 22.5 0 C 10.075 0 0 10.075 0 22.5 C 0 34.92625 10.075 45 22.5 45 C 34.92625 45 45 34.92625 45 22.5 C 45 10.075 34.92625 0 22.5 0 z M 22.5 1 C 34.385728 1 44 10.61551 44 22.5 C 44 34.385795 34.385795 44 22.5 44 C 10.61551 44 1 34.385728 1 22.5 C 1 10.615577 10.615577 1 22.5 1 z "
     id="path22" /><g
     id="g24"
     transform="matrix(1.25,0,0,-1.25,22.5,27.5)"
     style="stroke:none;stroke-opacity:1;fill:#000000"><path
       inkscape:connector-curvature="0"
       d="m 0,0 c -3.623,0 -6.027,0.422 -9,1 -0.679,0.131 -2,0 -2,-2 0,-4 4.595,-9 11,-9 6.404,0 11,5 11,9 C 11,1 9.679,1.132 9,1 6.027,0.422 3.623,0 0,0"
       style="fill:#000000;fill-opacity:1;fill-rule:nonzero;stroke:none;stroke-opacity:1"
       id="path26" /></g><g
     id="g28"
     transform="matrix(1.25,0,0,-1.25,11.25,28.75)"><path
       inkscape:connector-curvature="0"
       d="m 0,0 c 0,0 3,-1 9,-1 6,0 9,1 9,1 0,0 -2,-4 -9,-4 -7,0 -9,4 -9,4"
       style="fill:#ffffff;fill-opacity:1;fill-rule:nonzero;stroke:none"
       id="path30" /></g><g
     id="g32"
     transform="matrix(1.25,0,0,-1.25,38.2495,22.75025)"
     style="stroke:none;stroke-opacity:1;fill:#000000"><path
       inkscape:connector-curvature="0"
       d="M 0,0 C -0.114,0.085 -1.931,1.426 -4.646,2.344 -4.619,2.459 -4.6,2.577 -4.6,2.7 -4.6,3.069 -4.738,3.403 -4.959,3.664 -3.156,4.185 -1.625,4.2 -1.598,4.2 -1.047,4.202 -0.6,4.65 -0.601,5.202 -0.602,5.753 -1.048,6.2 -1.6,6.2 -1.82,6.2 -7.051,6.163 -10.307,2.907 -10.593,2.621 -10.679,2.191 -10.523,1.817 -10.369,1.444 -10.004,1.2 -9.6,1.2 c 4.59,0 8.364,-2.772 8.402,-2.801 0.18,-0.133 0.389,-0.198 0.597,-0.198 0.305,0 0.606,0.139 0.802,0.401 C 0.531,-0.956 0.441,-0.331 0,0"
       style="fill:#000000;fill-opacity:1;fill-rule:nonzero;stroke:none;stroke-opacity:1"
       id="path34" /></g><g
     id="g36"
     transform="matrix(1.25,0,0,-1.25,19.63375,19.11625)"
     style="stroke:none;stroke-opacity:1;fill:#000000"><path
       inkscape:connector-curvature="0"
       d="m 0,0 c -3.255,3.255 -8.486,3.293 -8.707,3.293 -0.552,0 -0.999,-0.447 -0.999,-0.999 -0.001,-0.551 0.446,-1 0.998,-1.001 0.026,0 1.558,-0.016 3.36,-0.536 -0.22,-0.261 -0.359,-0.595 -0.359,-0.964 0,-0.123 0.019,-0.241 0.047,-0.356 -2.716,-0.918 -4.533,-2.259 -4.647,-2.344 -0.442,-0.331 -0.531,-0.958 -0.2,-1.4 0.196,-0.262 0.497,-0.4 0.801,-0.4 0.208,0 0.419,0.065 0.599,0.2 0.037,0.028 3.787,2.8 8.4,2.8 0.404,0 0.769,0.244 0.924,0.617 C 0.372,-0.716 0.286,-0.286 0,0"
       style="fill:#000000;fill-opacity:1;fill-rule:nonzero;stroke:none;stroke-opacity:1"
       id="path38" /></g></svg>