<?xml version="1.0" encoding="UTF-8" standalone="no"?>
<svg
   xmlns:dc="http://purl.org/dc/elements/1.1/"
   xmlns:cc="http://creativecommons.org/ns#"
   xmlns:rdf="http://www.w3.org/1999/02/22-rdf-syntax-ns#"
   xmlns:svg="http://www.w3.org/2000/svg"
   xmlns="http://www.w3.org/2000/svg"
   xmlns:sodipodi="http://sodipodi.sourceforge.net/DTD/sodipodi-0.dtd"
   xmlns:inkscape="http://www.inkscape.org/namespaces/inkscape"
   viewBox="0 0 45 45"
   style="enable-background:new 0 0 45 45;"
   xml:space="preserve"
   version="1.1"
   id="svg2"
   sodipodi:docname="1f609.svg"
   inkscape:version="0.92.2 5c3e80d, 2017-08-06"><sodipodi:namedview
     pagecolor="#ffffff"
     bordercolor="#666666"
     borderopacity="1"
     objecttolerance="10"
     gridtolerance="10"
     guidetolerance="10"
     inkscape:pageopacity="0"
     inkscape:pageshadow="2"
     inkscape:window-width="1418"
     inkscape:window-height="1050"
     id="namedview22"
     showgrid="false"
     inkscape:zoom="10.488889"
     inkscape:cx="16.451787"
     inkscape:cy="24.039573"
     inkscape:window-x="0"
     inkscape:window-y="28"
     inkscape:window-maximized="0"
     inkscape:current-layer="svg2" /><metadata
     id="metadata8"><rdf:RDF><cc:Work
         rdf:about=""><dc:format>image/svg+xml</dc:format><dc:type
           rdf:resource="http://purl.org/dc/dcmitype/StillImage" /></cc:Work></rdf:RDF></metadata><defs
     id="defs6"><clipPath
       id="clipPath16"
       clipPathUnits="userSpaceOnUse"><path
         id="path18"
         d="M 0,36 36,36 36,0 0,0 0,36 Z" /></clipPath></defs><path
     style="color:#000000;font-style:normal;font-variant:normal;font-weight:normal;font-stretch:normal;font-size:medium;line-height:normal;font-family:sans-serif;font-variant-ligatures:normal;font-variant-position:normal;font-variant-caps:normal;font-variant-numeric:normal;font-variant-alternates:normal;font-feature-settings:normal;text-indent:0;text-align:start;text-decoration:none;text-decoration-line:none;text-decoration-style:solid;text-decoration-color:#000000;letter-spacing:normal;word-spacing:normal;text-transform:none;writing-mode:lr-tb;direction:ltr;text-orientation:mixed;dominant-baseline:auto;baseline-shift:baseline;text-anchor:start;white-space:normal;shape-padding:0;clip-rule:nonzero;display:inline;overflow:visible;visibility:visible;opacity:1;isolation:auto;mix-blend-mode:normal;color-interpolation:sRGB;color-interpolation-filters:linearRGB;solid-color:#000000;solid-opacity:1;vector-effect:none;fill:#000000;fill-opacity:1;fill-rule:nonzero;stroke:none;stroke-width:2;stroke-linecap:butt;stroke-linejoin:miter;stroke-miterlimit:4;stroke-dasharray:none;stroke-dashoffset:0;stroke-opacity:1;color-rendering:auto;image-rendering:auto;shape-rendering:auto;text-rendering:auto;enable-background:accumulate"
     clip-path="none"
     d="M 22.5 0 C 10.075 0 0 10.075 0 22.5 C 0 34.92625 10.075 45 22.5 45 C 34.92625 45 45 34.92625 45 22.5 C 45 10.075 34.92625 0 22.5 0 z M 22.5 1 C 34.385728 1 44 10.61551 44 22.5 C 44 34.385795 34.385795 44 22.5 44 C 10.61551 44 1 34.385728 1 22.5 C 1 10.615577 10.615577 1 22.5 1 z "
     id="path22" /><path
     id="path26"
     style="fill:#000000;fill-opacity:1;fill-rule:nonzero;stroke:none;stroke-width:1.25"
     d="M 17.5,20.625 C 17.5,23.0425 16.10125,25 14.375,25 12.64875,25 11.25,23.0425 11.25,20.625 c 0,-2.41625 1.39875,-4.375 3.125,-4.375 1.72625,0 3.125,1.95875 3.125,4.375"
     inkscape:connector-curvature="0" /><path
     id="path30"
     style="fill:#000000;fill-opacity:1;fill-rule:nonzero;stroke:none;stroke-width:1.25"
     d="M 35.57125,22.246125 C 35.4975,22.077375 33.6975,18.124875 30,18.124875 c -3.69625,0 -5.49625,3.9525 -5.57125,4.12125 -0.115,0.25875 -0.04,0.56125 0.18,0.73875 0.21875,0.1775 0.5325,0.18375 0.76375,0.0175 0.015,-0.01125 1.5775,-1.1275 4.6275,-1.1275 3.0325,0 4.5925,1.10125 4.6275,1.12625 0.11,0.0825 0.2425,0.12375 0.3725,0.12375 0.1375,0 0.27625,-0.04625 0.39,-0.13625 0.22125,-0.1775 0.2975,-0.4825 0.18125,-0.7425"
     inkscape:connector-curvature="0" /><path
     id="path34"
     style="fill:#000000;fill-opacity:1;fill-rule:nonzero;stroke:none;stroke-width:1.25"
     d="m 7.49875,15.5725 c -0.26,0 -0.52375,-0.08125 -0.74875,-0.25 -0.5525,-0.41375 -0.66375,-1.1975 -0.25,-1.75 4.0775,-5.4375 9.52,-5.5 9.75,-5.5 0.69,0 1.25,0.56 1.25,1.25 0,0.68875 -0.55625,1.2475 -1.245,1.25 -0.19375,0.0025 -4.46125,0.1075 -7.755,4.5 -0.24625,0.3275 -0.62125,0.5 -1.00125,0.5"
     inkscape:connector-curvature="0" /><path
     id="path38"
     style="fill:#000000;fill-opacity:1;fill-rule:nonzero;stroke:none;stroke-width:1.25"
     d="m 36.25125,18.229375 c -0.38125,0 -0.75625,-0.1725 -1.00125,-0.5 -3.24,-4.32 -8.70125,-3.28375 -8.755,-3.275 -0.68375,0.135 -1.335,-0.30375 -1.47125,-0.98 -0.135,-0.67625 0.305,-1.335 0.98125,-1.47 0.2875,-0.05875 7.07125,-1.34 11.245,4.225 0.415,0.5525 0.3025,1.33625 -0.25,1.75 -0.225,0.16875 -0.4875,0.25 -0.74875,0.25"
     inkscape:connector-curvature="0" /><path
     id="path42"
     style="fill:#000000;fill-opacity:1;fill-rule:nonzero;stroke:none;stroke-width:1.25"
     d="m 29.067375,29.471375 c -0.23375,-0.1375 -0.54,-0.10875 -0.74625,0.075 -0.01125,0.0087 -1.26625,1.07875 -5.82125,1.07875 -4.55125,0 -5.80625,-1.0675 -5.8075,-1.0675 -0.2,-0.2 -0.50625,-0.2375 -0.75125,-0.1025 -0.24375,0.14 -0.36625,0.42375 -0.2975,0.69625 0.01375,0.055 1.43125,5.47375 6.85625,5.47375 5.425,0 6.8425,-5.41875 6.85625,-5.47375 0.06625,-0.26625 -0.055,-0.53875 -0.28875,-0.68"
     inkscape:connector-curvature="0" /></svg>