<?xml version="1.0" encoding="UTF-8" standalone="no"?>
<svg
   xmlns:dc="http://purl.org/dc/elements/1.1/"
   xmlns:cc="http://creativecommons.org/ns#"
   xmlns:rdf="http://www.w3.org/1999/02/22-rdf-syntax-ns#"
   xmlns:svg="http://www.w3.org/2000/svg"
   xmlns="http://www.w3.org/2000/svg"
   xmlns:sodipodi="http://sodipodi.sourceforge.net/DTD/sodipodi-0.dtd"
   xmlns:inkscape="http://www.inkscape.org/namespaces/inkscape"
   viewBox="0 0 45 45"
   style="enable-background:new 0 0 45 45;"
   xml:space="preserve"
   version="1.1"
   id="svg2"
   sodipodi:docname="1f602.svg"
   inkscape:version="0.92.2 5c3e80d, 2017-08-06"><sodipodi:namedview
     pagecolor="#ffffff"
     bordercolor="#666666"
     borderopacity="1"
     objecttolerance="10"
     gridtolerance="10"
     guidetolerance="10"
     inkscape:pageopacity="0"
     inkscape:pageshadow="2"
     inkscape:window-width="1418"
     inkscape:window-height="1050"
     id="namedview28"
     showgrid="false"
     inkscape:zoom="10.488889"
     inkscape:cx="30.219844"
     inkscape:cy="29.108815"
     inkscape:window-x="0"
     inkscape:window-y="28"
     inkscape:window-maximized="0"
     inkscape:current-layer="svg2" /><metadata
     id="metadata8"><rdf:RDF><cc:Work
         rdf:about=""><dc:format>image/svg+xml</dc:format><dc:type
           rdf:resource="http://purl.org/dc/dcmitype/StillImage" /></cc:Work></rdf:RDF></metadata><defs
     id="defs6"><clipPath
       id="clipPath16"
       clipPathUnits="userSpaceOnUse"><path
         id="path18"
         d="M 0,36 36,36 36,0 0,0 0,36 Z" /></clipPath></defs><path
     style="color:#000000;font-style:normal;font-variant:normal;font-weight:normal;font-stretch:normal;font-size:medium;line-height:normal;font-family:sans-serif;font-variant-ligatures:normal;font-variant-position:normal;font-variant-caps:normal;font-variant-numeric:normal;font-variant-alternates:normal;font-feature-settings:normal;text-indent:0;text-align:start;text-decoration:none;text-decoration-line:none;text-decoration-style:solid;text-decoration-color:#000000;letter-spacing:normal;word-spacing:normal;text-transform:none;writing-mode:lr-tb;direction:ltr;text-orientation:mixed;dominant-baseline:auto;baseline-shift:baseline;text-anchor:start;white-space:normal;shape-padding:0;clip-rule:nonzero;display:inline;overflow:visible;visibility:visible;opacity:1;isolation:auto;mix-blend-mode:normal;color-interpolation:sRGB;color-interpolation-filters:linearRGB;solid-color:#000000;solid-opacity:1;vector-effect:none;fill:#000000;fill-opacity:1;fill-rule:nonzero;stroke:none;stroke-width:2;stroke-linecap:butt;stroke-linejoin:miter;stroke-miterlimit:4;stroke-dasharray:none;stroke-dashoffset:0;stroke-opacity:1;color-rendering:auto;image-rendering:auto;shape-rendering:auto;text-rendering:auto;enable-background:accumulate"
     clip-path="none"
     d="M 22.5 0 C 10.075 0 0 10.075 0 22.5 C 0 34.92625 10.075 45 22.5 45 C 34.92625 45 45 34.92625 45 22.5 C 45 10.075 34.92625 0 22.5 0 z M 22.5 1 C 34.385728 1 44 10.61551 44 22.5 C 44 34.385795 34.385795 44 22.5 44 C 10.61551 44 1 34.385728 1 22.5 C 1 10.615577 10.615577 1 22.5 1 z "
     id="path22" /><path
     id="path26"
     style="fill:#000000;fill-opacity:1;fill-rule:nonzero;stroke:none;stroke-width:1.25"
     d="M 35.57125,22.246125 C 35.4975,22.077375 33.6975,18.124875 30,18.124875 c -3.69625,0 -5.49625,3.9525 -5.57125,4.12125 -0.115,0.25875 -0.04,0.56125 0.18,0.73875 0.21875,0.1775 0.5325,0.18375 0.76375,0.0175 0.015,-0.01125 1.5775,-1.1275 4.6275,-1.1275 3.0325,0 4.5925,1.10125 4.6275,1.12625 0.11,0.0825 0.2425,0.12375 0.3725,0.12375 0.1375,0 0.27625,-0.04625 0.39,-0.13625 0.22125,-0.1775 0.2975,-0.4825 0.18125,-0.7425"
     inkscape:connector-curvature="0" /><path
     id="path30"
     style="fill:#000000;fill-opacity:1;fill-rule:nonzero;stroke:none;stroke-width:1.25"
     d="m 20.57125,22.246125 c -0.075,-0.16875 -1.87375,-4.12125 -5.57125,-4.12125 -3.69625,0 -5.49625,3.9525 -5.57125,4.12125 -0.115,0.25875 -0.04,0.56125 0.18,0.73875 0.22,0.1775 0.53375,0.18375 0.7625,0.0175 0.01625,-0.01125 1.5775,-1.1275 4.62875,-1.1275 3.0325,0 4.5925,1.10125 4.6275,1.12625 0.11,0.0825 0.2425,0.12375 0.3725,0.12375 0.1375,0 0.27625,-0.04625 0.39,-0.13625 0.2225,-0.1775 0.29625,-0.4825 0.18125,-0.7425"
     inkscape:connector-curvature="0" /><path
     id="path34"
     style="fill:#000000;fill-opacity:1;fill-rule:nonzero;stroke:none;stroke-width:1.25"
     d="m 38.75,20.000625 c -0.495,0 -0.965,-0.2975 -1.16125,-0.78625 -2.2225,-5.55625 -7.7775,-6.72625 -7.83375,-6.73875 -0.67625,-0.135 -1.11625,-0.79375 -0.98,-1.47 0.135,-0.6775 0.7925,-1.11375 1.47,-0.98 0.2825,0.055 6.945,1.46 9.66625,8.26 0.25625,0.64125 -0.05625,1.36875 -0.6975,1.625 -0.15125,0.06125 -0.30875,0.09 -0.46375,0.09"
     inkscape:connector-curvature="0" /><path
     id="path38"
     style="fill:#000000;fill-opacity:1;fill-rule:nonzero;stroke:none;stroke-width:1.25"
     d="m 6.249375,20.000625 c -0.155,0 -0.31125,-0.02875 -0.46375,-0.09 -0.64125,-0.25625 -0.9525,-0.98375 -0.69625,-1.625 2.72,-6.8 9.38375,-8.205 9.665,-8.26 0.68,-0.13375 1.33625,0.3025 1.47125,0.98 0.135,0.675 -0.3025,1.3325 -0.97625,1.47 -0.23125,0.0475 -5.63375,1.225 -7.83875,6.73875 -0.19625,0.48875 -0.665,0.785 -1.16125,0.78625"
     inkscape:connector-curvature="0" /><path
     id="path42"
     style="fill:#000000;fill-opacity:1;fill-rule:nonzero;stroke:none;stroke-width:1.25"
     d="m 22.5,27.5 c -4.52875,0 -7.53375,-0.5275 -11.25,-1.25 -0.84875,-0.16375 -2.5,0 -2.5,2.5 0,5 5.74375,11.25 13.75,11.25 8.005,0 13.75,-6.25 13.75,-11.25 0,-2.5 -1.65125,-2.665 -2.5,-2.5 -3.71625,0.7225 -6.72125,1.25 -11.25,1.25"
     inkscape:connector-curvature="0" /><path
     id="path46"
     style="fill:#ffffff;fill-opacity:1;fill-rule:nonzero;stroke:none;stroke-width:1.25"
     d="m 11.25,28.75 c 0,0 3.75,1.25 11.25,1.25 7.5,0 11.25,-1.25 11.25,-1.25 0,0 -2.5,5 -11.25,5 -8.75,0 -11.25,-5 -11.25,-5"
     inkscape:connector-curvature="0" /><path
     id="path50"
     style="fill:#000000;fill-opacity:1;fill-rule:nonzero;stroke:none;stroke-width:1.25"
     d="m 13.559,35.286875 c -0.85,3.34625 -4.25,5.36875 -7.59625,4.51875 -3.345,-0.8475 -5.36875,-4.24875 -4.51875,-7.595 0.84875,-3.34625 7.92125,-10.885 9.13375,-10.5775 1.21,0.3075 3.83,10.3075 2.98125,13.65375"
     inkscape:connector-curvature="0" /><path
     id="path54"
     style="fill:#000000;fill-opacity:1;fill-rule:nonzero;stroke:none;stroke-width:1.25"
     d="m 31.416,35.286875 c 0.85,3.34625 4.25,5.36875 7.59625,4.51875 3.34625,-0.8475 5.37,-4.24875 4.52,-7.595 -0.84875,-3.34625 -7.9225,-10.885 -9.13375,-10.5775 -1.21125,0.3075 -3.83125,10.3075 -2.9825,13.65375"
     inkscape:connector-curvature="0" /></svg>