<?xml version="1.0" encoding="UTF-8" standalone="no"?>
<svg
   xmlns:dc="http://purl.org/dc/elements/1.1/"
   xmlns:cc="http://creativecommons.org/ns#"
   xmlns:rdf="http://www.w3.org/1999/02/22-rdf-syntax-ns#"
   xmlns:svg="http://www.w3.org/2000/svg"
   xmlns="http://www.w3.org/2000/svg"
   xmlns:sodipodi="http://sodipodi.sourceforge.net/DTD/sodipodi-0.dtd"
   xmlns:inkscape="http://www.inkscape.org/namespaces/inkscape"
   viewBox="0 0 45 45"
   style="enable-background:new 0 0 45 45;"
   xml:space="preserve"
   version="1.1"
   id="svg2"
   sodipodi:docname="1f60f.svg"
   inkscape:version="0.92.2 5c3e80d, 2017-08-06"><sodipodi:namedview
     pagecolor="#ffffff"
     bordercolor="#666666"
     borderopacity="1"
     objecttolerance="10"
     gridtolerance="10"
     guidetolerance="10"
     inkscape:pageopacity="0"
     inkscape:pageshadow="2"
     inkscape:window-width="1418"
     inkscape:window-height="1050"
     id="namedview22"
     showgrid="false"
     inkscape:zoom="5.2444444"
     inkscape:cx="23.115844"
     inkscape:cy="30.258349"
     inkscape:window-x="0"
     inkscape:window-y="28"
     inkscape:window-maximized="0"
     inkscape:current-layer="svg2" /><metadata
     id="metadata8"><rdf:RDF><cc:Work
         rdf:about=""><dc:format>image/svg+xml</dc:format><dc:type
           rdf:resource="http://purl.org/dc/dcmitype/StillImage" /></cc:Work></rdf:RDF></metadata><defs
     id="defs6"><clipPath
       id="clipPath16"
       clipPathUnits="userSpaceOnUse"><path
         id="path18"
         d="M 0,36 36,36 36,0 0,0 0,36 Z" /></clipPath></defs><path
     style="color:#000000;font-style:normal;font-variant:normal;font-weight:normal;font-stretch:normal;font-size:medium;line-height:normal;font-family:sans-serif;font-variant-ligatures:normal;font-variant-position:normal;font-variant-caps:normal;font-variant-numeric:normal;font-variant-alternates:normal;font-feature-settings:normal;text-indent:0;text-align:start;text-decoration:none;text-decoration-line:none;text-decoration-style:solid;text-decoration-color:#000000;letter-spacing:normal;word-spacing:normal;text-transform:none;writing-mode:lr-tb;direction:ltr;text-orientation:mixed;dominant-baseline:auto;baseline-shift:baseline;text-anchor:start;white-space:normal;shape-padding:0;clip-rule:nonzero;display:inline;overflow:visible;visibility:visible;opacity:1;isolation:auto;mix-blend-mode:normal;color-interpolation:sRGB;color-interpolation-filters:linearRGB;solid-color:#000000;solid-opacity:1;vector-effect:none;fill:#000000;fill-opacity:1;fill-rule:nonzero;stroke:none;stroke-width:2;stroke-linecap:butt;stroke-linejoin:miter;stroke-miterlimit:4;stroke-dasharray:none;stroke-dashoffset:0;stroke-opacity:1;color-rendering:auto;image-rendering:auto;shape-rendering:auto;text-rendering:auto;enable-background:accumulate"
     clip-path="none"
     d="M 22.5 0 C 10.07375 0 0 10.07375 0 22.5 C 0 34.92625 10.07375 45 22.5 45 C 34.92625 45 45 34.92625 45 22.5 C 45 10.07375 34.92625 0 22.5 0 z M 22.5 1 C 34.385795 1 44 10.614205 44 22.5 C 44 34.385795 34.385795 44 22.5 44 C 10.614205 44 1 34.385795 1 22.5 C 1 10.614205 10.614205 1 22.5 1 z "
     id="path22" /><path
     id="path26"
     style="fill:#000000;fill-opacity:1;fill-rule:nonzero;stroke:none;stroke-width:1.25"
     d="m 30.408875,29.527625 c -0.19125,-0.165 -0.46,-0.19875 -0.68875,-0.08625 l -5,2.5 c -2.33875,1.16875 -8.40875,1.18375 -8.47,1.18375 h -0.0012 c -0.345,0 -0.62375,0.28 -0.62375,0.625 0,0.23 0.125,0.43375 0.3125,0.54125 v 0 h 0.0012 v 0 l 0.0013,0.0012 c 0.08875,0.05125 0.19125,0.08 0.3,0.0825 h 0.01 8.75 c 3.3225,0 5.11125,-2.7325 5.5925,-4.1775 0.08,-0.24 0.0075,-0.50375 -0.18375,-0.67"
     inkscape:connector-curvature="0" /><path
     id="path30"
     style="fill:#000000;fill-opacity:1;fill-rule:nonzero;stroke:none;stroke-width:1.25"
     d="M 38.75125,20 C 38.37,20 37.995,19.8275 37.75,19.5 34.45,15.09875 30.17375,15.00125 29.9925,15 29.305,14.9925 28.75,14.43 28.75375,13.74375 28.7575,13.055 29.3125,12.5 30,12.5 c 0.23,0 5.67125,0.0625 9.75,5.5 0.415,0.5525 0.3025,1.33625 -0.25,1.75 C 39.275,19.91875 39.0125,20 38.75125,20"
     inkscape:connector-curvature="0" /><path
     id="path34"
     style="fill:#000000;fill-opacity:1;fill-rule:nonzero;stroke:none;stroke-width:1.25"
     d="M 6.24875,20 C 5.98875,20 5.725,19.91875 5.5,19.75 4.9475,19.33625 4.83625,18.5525 5.25,18 9.3275,12.5625 14.77,12.5 15,12.5 c 0.69,0 1.25,0.56 1.25,1.25 0,0.68875 -0.55625,1.2475 -1.245,1.25 -0.19375,0.0025 -4.46,0.1075 -7.755,4.5 C 7.00375,19.8275 6.62875,20 6.24875,20"
     inkscape:connector-curvature="0" /><path
     id="path38"
     style="fill:#000000;fill-opacity:1;fill-rule:nonzero;stroke:none;stroke-width:1.25"
     d="m 19.87125,21.745625 c 0.02875,-0.065 0.07375,-0.12 0.09125,-0.1925 0.1675,-0.67 -0.24,-1.34875 -0.90875,-1.51625 -0.22625,-0.05625 -5.585,-1.35 -9.7475,1.4225 -0.57375,0.38375 -0.72875,1.16 -0.34625,1.73375 0.24125,0.36125 0.6375,0.5575 1.04125,0.5575 0.2375,0 0.47875,-0.06875 0.6925,-0.21 1.365,-0.9125 2.9525,-1.24375 4.335,-1.3275 C 15.0175,22.309375 15,22.401875 15,22.500625 c 0,1.38 1.12,2.5 2.5,2.5 1.38125,0 2.5,-1.12 2.5,-2.5 0,-0.265 -0.0525,-0.51625 -0.12875,-0.755"
     inkscape:connector-curvature="0" /><path
     id="path42"
     style="fill:#000000;fill-opacity:1;fill-rule:nonzero;stroke:none;stroke-width:1.25"
     d="m 34.870625,21.74375 c 0.02875,-0.065 0.07375,-0.11875 0.09125,-0.19 0.16875,-0.67125 -0.23875,-1.34875 -0.90875,-1.51625 -0.225,-0.05625 -5.5825,-1.35 -9.74625,1.4225 -0.575,0.3825 -0.73,1.15875 -0.3475,1.73375 0.24125,0.36125 0.6375,0.55625 1.0425,0.55625 0.2375,0 0.4775,-0.06875 0.69125,-0.21 1.365,-0.91125 2.9525,-1.2425 4.33625,-1.325 -0.01125,0.095 -0.02875,0.1875 -0.02875,0.285 0,1.38 1.11875,2.5 2.5,2.5 1.38,0 2.5,-1.12 2.5,-2.5 0,-0.265 -0.0525,-0.51625 -0.13,-0.75625"
     inkscape:connector-curvature="0" /></svg>