<?xml version="1.0" encoding="UTF-8" standalone="no"?>
<svg
   xmlns:dc="http://purl.org/dc/elements/1.1/"
   xmlns:cc="http://creativecommons.org/ns#"
   xmlns:rdf="http://www.w3.org/1999/02/22-rdf-syntax-ns#"
   xmlns:svg="http://www.w3.org/2000/svg"
   xmlns="http://www.w3.org/2000/svg"
   xmlns:sodipodi="http://sodipodi.sourceforge.net/DTD/sodipodi-0.dtd"
   xmlns:inkscape="http://www.inkscape.org/namespaces/inkscape"
   viewBox="0 0 45 45"
   style="enable-background:new 0 0 45 45;"
   xml:space="preserve"
   version="1.1"
   id="svg2"
   sodipodi:docname="1f612.svg"
   inkscape:version="0.92.2 5c3e80d, 2017-08-06"><sodipodi:namedview
     pagecolor="#ffffff"
     bordercolor="#666666"
     borderopacity="1"
     objecttolerance="10"
     gridtolerance="10"
     guidetolerance="10"
     inkscape:pageopacity="0"
     inkscape:pageshadow="2"
     inkscape:window-width="1418"
     inkscape:window-height="1050"
     id="namedview22"
     showgrid="false"
     inkscape:zoom="3.7083822"
     inkscape:cx="-6.1671287"
     inkscape:cy="20.790821"
     inkscape:window-x="0"
     inkscape:window-y="28"
     inkscape:window-maximized="0"
     inkscape:current-layer="svg2" /><metadata
     id="metadata8"><rdf:RDF><cc:Work
         rdf:about=""><dc:format>image/svg+xml</dc:format><dc:type
           rdf:resource="http://purl.org/dc/dcmitype/StillImage" /></cc:Work></rdf:RDF></metadata><defs
     id="defs6"><clipPath
       id="clipPath16"
       clipPathUnits="userSpaceOnUse"><path
         id="path18"
         d="M 0,36 36,36 36,0 0,0 0,36 Z" /></clipPath></defs><path
     style="color:#000000;font-style:normal;font-variant:normal;font-weight:normal;font-stretch:normal;font-size:medium;line-height:normal;font-family:sans-serif;font-variant-ligatures:normal;font-variant-position:normal;font-variant-caps:normal;font-variant-numeric:normal;font-variant-alternates:normal;font-feature-settings:normal;text-indent:0;text-align:start;text-decoration:none;text-decoration-line:none;text-decoration-style:solid;text-decoration-color:#000000;letter-spacing:normal;word-spacing:normal;text-transform:none;writing-mode:lr-tb;direction:ltr;text-orientation:mixed;dominant-baseline:auto;baseline-shift:baseline;text-anchor:start;white-space:normal;shape-padding:0;clip-rule:nonzero;display:inline;overflow:visible;visibility:visible;opacity:1;isolation:auto;mix-blend-mode:normal;color-interpolation:sRGB;color-interpolation-filters:linearRGB;solid-color:#000000;solid-opacity:1;vector-effect:none;fill:#000000;fill-opacity:1;fill-rule:nonzero;stroke:none;stroke-width:2;stroke-linecap:butt;stroke-linejoin:miter;stroke-miterlimit:4;stroke-dasharray:none;stroke-dashoffset:0;stroke-opacity:1;color-rendering:auto;image-rendering:auto;shape-rendering:auto;text-rendering:auto;enable-background:accumulate"
     clip-path="none"
     d="M 22.5 0 C 10.075 0 0 10.075 0 22.5 C 0 34.92625 10.075 45 22.5 45 C 34.92625 45 45 34.92625 45 22.5 C 45 10.075 34.92625 0 22.5 0 z M 22.5 1 C 34.385728 1 44 10.61551 44 22.5 C 44 34.385795 34.385795 44 22.5 44 C 10.61551 44 1 34.385728 1 22.5 C 1 10.615577 10.615577 1 22.5 1 z "
     id="path22" /><path
     id="path26"
     style="fill:#000000;fill-opacity:1;fill-rule:nonzero;stroke:none;stroke-width:1.25"
     d="m 31.85675,34.848625 c -0.05625,-0.22375 -1.46,-5.47375 -9.35625,-5.47375 -7.8975,0 -9.30125,5.25 -9.35625,5.47375 -0.06875,0.27125 0.05375,0.5525 0.29625,0.6925 0.24375,0.13875 0.54875,0.0975 0.74875,-0.09625 0.02375,-0.02375 2.4425,-2.32 8.31125,-2.32 5.8675,0 8.2875,2.29625 8.31,2.32 0.12,0.1175 0.28,0.18 0.44,0.18 0.105,0 0.21125,-0.02625 0.3075,-0.08 0.245,-0.14 0.3675,-0.42375 0.29875,-0.69625"
     inkscape:connector-curvature="0" /><path
     id="path30"
     style="fill:#000000;fill-opacity:1;fill-rule:nonzero;stroke:none;stroke-width:1.25"
     d="M 36.25125,17.5 C 35.87,17.5 35.495,17.3275 35.25,17 c -3.03875,-4.055 -8.14125,-1.0575 -8.35625,-0.92875 -0.59375,0.35625 -1.36125,0.1625 -1.715,-0.4275 -0.35625,-0.5925 -0.16375,-1.36 0.4275,-1.715 C 28.10375,12.43 33.74875,10.8325 37.25,15.5 c 0.415,0.5525 0.3025,1.33625 -0.25,1.75 -0.225,0.16875 -0.4875,0.25 -0.74875,0.25"
     inkscape:connector-curvature="0" /><path
     id="path34"
     style="fill:#000000;fill-opacity:1;fill-rule:nonzero;stroke:none;stroke-width:1.25"
     d="M 8.74875,17.5 C 8.48875,17.5 8.225,17.41875 8,17.25 7.4475,16.83625 7.33625,16.0525 7.75,15.5 c 3.50125,-4.66875 9.1475,-3.07 11.64375,-1.57125 0.59125,0.355 0.78375,1.1225 0.4275,1.715 -0.35375,0.59125 -1.12,0.785 -1.7125,0.42875 C 17.88625,15.94 12.76625,12.97875 9.75,17 9.50375,17.3275 9.12875,17.5 8.74875,17.5"
     inkscape:connector-curvature="0" /><path
     id="path38"
     style="fill:#000000;fill-opacity:1;fill-rule:nonzero;stroke:none;stroke-width:1.25"
     d="m 36.25,20 c 0,-0.69 -0.55875,-1.25 -1.25,-1.25 H 26.25 C 25.55875,18.75 25,19.31 25,20 c 0,0.69 0.55875,1.25 1.25,1.25 h 6.365 c 0.25875,0.72625 0.945,1.25 1.76,1.25 1.035,0 1.875,-0.83875 1.875,-1.875 0,-0.1375 -0.0175,-0.27125 -0.045,-0.40125 0.015,-0.075 0.045,-0.145 0.045,-0.22375"
     inkscape:connector-curvature="0" /><path
     id="path42"
     style="fill:#000000;fill-opacity:1;fill-rule:nonzero;stroke:none;stroke-width:1.25"
     d="m 20,20 c 0,-0.69 -0.56,-1.25 -1.25,-1.25 H 10 c -0.69,0 -1.25,0.56 -1.25,1.25 0,0.69 0.56,1.25 1.25,1.25 h 6.365 c 0.25875,0.72625 0.945,1.25 1.76,1.25 C 19.16,22.5 20,21.66125 20,20.625 20,20.4875 19.9825,20.35375 19.955,20.22375 19.96875,20.14875 20,20.07875 20,20"
     inkscape:connector-curvature="0" /></svg>