<?xml version="1.0" encoding="UTF-8" standalone="no"?>
<svg
   xmlns:dc="http://purl.org/dc/elements/1.1/"
   xmlns:cc="http://creativecommons.org/ns#"
   xmlns:rdf="http://www.w3.org/1999/02/22-rdf-syntax-ns#"
   xmlns:svg="http://www.w3.org/2000/svg"
   xmlns="http://www.w3.org/2000/svg"
   xmlns:sodipodi="http://sodipodi.sourceforge.net/DTD/sodipodi-0.dtd"
   xmlns:inkscape="http://www.inkscape.org/namespaces/inkscape"
   viewBox="0 0 45 45"
   style="enable-background:new 0 0 45 45;"
   xml:space="preserve"
   version="1.1"
   id="svg2"
   sodipodi:docname="1f61d.svg"
   inkscape:version="0.92.2 5c3e80d, 2017-08-06"><sodipodi:namedview
     pagecolor="#ffffff"
     bordercolor="#666666"
     borderopacity="1"
     objecttolerance="10"
     gridtolerance="10"
     guidetolerance="10"
     inkscape:pageopacity="0"
     inkscape:pageshadow="2"
     inkscape:window-width="1418"
     inkscape:window-height="1050"
     id="namedview22"
     showgrid="false"
     inkscape:zoom="7.4167645"
     inkscape:cx="-12.820946"
     inkscape:cy="32.868693"
     inkscape:window-x="0"
     inkscape:window-y="28"
     inkscape:window-maximized="0"
     inkscape:current-layer="svg2" /><metadata
     id="metadata8"><rdf:RDF><cc:Work
         rdf:about=""><dc:format>image/svg+xml</dc:format><dc:type
           rdf:resource="http://purl.org/dc/dcmitype/StillImage" /></cc:Work></rdf:RDF></metadata><defs
     id="defs6"><clipPath
       id="clipPath16"
       clipPathUnits="userSpaceOnUse"><path
         id="path18"
         d="M 0,36 36,36 36,0 0,0 0,36 Z" /></clipPath><clipPath
       clipPathUnits="userSpaceOnUse"
       id="clipPath908"><path
         id="path910"
         style="fill:#e8596e;fill-opacity:1;fill-rule:nonzero;stroke:none;stroke-width:1.25"
         d="m 23.182375,29.504375 -1.36375,-0.0062 c -4.02125,-0.0925 -6.81875,-0.745 -6.81875,-0.745 v 8.70125 c 0,3.75 2.5,7.5 7.5,7.5 5,0 7.5,-3.75 7.5,-7.5 v -8.65 c -2.4025,0.49375 -4.73375,0.6775 -6.8175,0.7"
         inkscape:connector-curvature="0" /></clipPath></defs><path
     style="color:#000000;font-style:normal;font-variant:normal;font-weight:normal;font-stretch:normal;font-size:medium;line-height:normal;font-family:sans-serif;font-variant-ligatures:normal;font-variant-position:normal;font-variant-caps:normal;font-variant-numeric:normal;font-variant-alternates:normal;font-feature-settings:normal;text-indent:0;text-align:start;text-decoration:none;text-decoration-line:none;text-decoration-style:solid;text-decoration-color:#000000;letter-spacing:normal;word-spacing:normal;text-transform:none;writing-mode:lr-tb;direction:ltr;text-orientation:mixed;dominant-baseline:auto;baseline-shift:baseline;text-anchor:start;white-space:normal;shape-padding:0;clip-rule:nonzero;display:inline;overflow:visible;visibility:visible;opacity:1;isolation:auto;mix-blend-mode:normal;color-interpolation:sRGB;color-interpolation-filters:linearRGB;solid-color:#000000;solid-opacity:1;vector-effect:none;fill:#000000;fill-opacity:1;fill-rule:nonzero;stroke:none;stroke-width:2;stroke-linecap:butt;stroke-linejoin:miter;stroke-miterlimit:4;stroke-dasharray:none;stroke-dashoffset:0;stroke-opacity:1;color-rendering:auto;image-rendering:auto;shape-rendering:auto;text-rendering:auto;enable-background:accumulate"
     clip-path="none"
     d="M 22.5 0 C 10.075 0 0 10.075 0 22.5 C 0 34.92625 10.075 45 22.5 45 C 34.92625 45 45 34.92625 45 22.5 C 45 10.075 34.92625 0 22.5 0 z M 22.5 1 C 34.385728 1 44 10.61551 44 22.5 C 44 34.385795 34.385795 44 22.5 44 C 10.61551 44 1 34.385728 1 22.5 C 1 10.615577 10.615577 1 22.5 1 z "
     id="path22" /><path
     id="path26"
     style="fill:#000000;fill-opacity:1;fill-rule:nonzero;stroke:none;stroke-width:1.25"
     d="m 38.2495,22.75025 c -0.1425,-0.10625 -2.41375,-1.7825 -5.8075,-2.93 0.03375,-0.14375 0.0575,-0.29125 0.0575,-0.445 0,-0.46125 -0.1725,-0.87875 -0.44875,-1.205 2.25375,-0.65125 4.1675,-0.67 4.20125,-0.67 0.68875,-0.0025 1.2475,-0.5625 1.24625,-1.2525 -0.0012,-0.68875 -0.55875,-1.2475 -1.24875,-1.2475 -0.275,0 -6.81375,0.04625 -10.88375,4.11625 -0.3575,0.3575 -0.465,0.895 -0.27,1.3625 0.1925,0.46625 0.64875,0.77125 1.15375,0.77125 5.7375,0 10.455,3.465 10.5025,3.50125 0.22375,0.16625 0.48625,0.2475 0.74625,0.2475 0.38125,0 0.7575,-0.17375 1.0025,-0.5025 0.4125,-0.55125 0.3,-1.3325 -0.25125,-1.74625"
     inkscape:connector-curvature="0" /><path
     id="path30"
     style="fill:#000000;fill-opacity:1;fill-rule:nonzero;stroke:none;stroke-width:1.25"
     d="M 19.63375,19.11625 C 15.565,15.0475 9.02625,15 8.75,15 8.06,15 7.50125,15.55875 7.50125,16.24875 7.5,16.9375 8.05875,17.49875 8.74875,17.5 c 0.0325,0 1.9475,0.02 4.2,0.67 -0.275,0.32625 -0.44875,0.74375 -0.44875,1.205 0,0.15375 0.02375,0.30125 0.05875,0.445 C 9.16375,20.9675 6.8925,22.64375 6.75,22.75 6.1975,23.16375 6.08625,23.9475 6.5,24.50125 6.745,24.82625 7.12125,25 7.50125,25 7.76125,25 8.025,24.92 8.25,24.75 c 0.04625,-0.035 4.73375,-3.5 10.5,-3.5 0.505,0 0.96125,-0.305 1.155,-0.77125 0.19375,-0.4675 0.08625,-1.005 -0.27125,-1.3625"
     inkscape:connector-curvature="0" /><path
     id="path34"
     style="fill:#000000;fill-opacity:1;fill-rule:nonzero;stroke:none;stroke-width:1.25"
     d="m 8.75,26.578375 c 0,4.955 5.745,11.25 13.75,11.25 8.005,0 13.75,-6.25 13.75,-11.25 0,0 -12.91625,3.445 -27.5,0"
     inkscape:connector-curvature="0" /><path
     id="path38"
     style="fill:#ffffff;fill-opacity:1;fill-rule:nonzero;stroke:#000000;stroke-width:2;stroke-miterlimit:4;stroke-dasharray:none;stroke-opacity:1"
     d="m 23.182375,29.504375 -1.36375,-0.0062 c -4.02125,-0.0925 -6.81875,-0.745 -6.81875,-0.745 v 8.70125 c 0,3.75 2.5,7.5 7.5,7.5 5,0 7.5,-3.75 7.5,-7.5 v -8.65 c -2.4025,0.49375 -4.73375,0.6775 -6.8175,0.7"
     inkscape:connector-curvature="0"
     clip-path="url(#clipPath908)" /><path
     id="path42"
     style="fill:#000000;fill-opacity:1;fill-rule:nonzero;stroke:none;stroke-width:1.25"
     d="m 22.5,39.8035 c 0.37625,0 0.6825,-0.30375 0.6825,-0.68125 v -9.6175 l -1.36375,-0.0063 v 9.62375 c 0,0.3775 0.305,0.68125 0.68125,0.68125"
     inkscape:connector-curvature="0" /></svg>