<?xml version="1.0" encoding="UTF-8" standalone="no"?>
<svg
   xmlns:dc="http://purl.org/dc/elements/1.1/"
   xmlns:cc="http://creativecommons.org/ns#"
   xmlns:rdf="http://www.w3.org/1999/02/22-rdf-syntax-ns#"
   xmlns:svg="http://www.w3.org/2000/svg"
   xmlns="http://www.w3.org/2000/svg"
   xmlns:sodipodi="http://sodipodi.sourceforge.net/DTD/sodipodi-0.dtd"
   xmlns:inkscape="http://www.inkscape.org/namespaces/inkscape"
   viewBox="0 0 45 45"
   style="enable-background:new 0 0 45 45;"
   xml:space="preserve"
   version="1.1"
   id="svg2"
   sodipodi:docname="1f617.svg"
   inkscape:version="0.92.2 5c3e80d, 2017-08-06"><sodipodi:namedview
     pagecolor="#ffffff"
     bordercolor="#666666"
     borderopacity="1"
     objecttolerance="10"
     gridtolerance="10"
     guidetolerance="10"
     inkscape:pageopacity="0"
     inkscape:pageshadow="2"
     inkscape:window-width="1418"
     inkscape:window-height="1050"
     id="namedview18"
     showgrid="false"
     inkscape:zoom="20.977778"
     inkscape:cx="19.869572"
     inkscape:cy="36.001233"
     inkscape:window-x="0"
     inkscape:window-y="28"
     inkscape:window-maximized="0"
     inkscape:current-layer="svg2" /><metadata
     id="metadata8"><rdf:RDF><cc:Work
         rdf:about=""><dc:format>image/svg+xml</dc:format><dc:type
           rdf:resource="http://purl.org/dc/dcmitype/StillImage" /></cc:Work></rdf:RDF></metadata><defs
     id="defs6"><clipPath
       id="clipPath16"
       clipPathUnits="userSpaceOnUse"><path
         id="path18"
         d="M 0,36 36,36 36,0 0,0 0,36 Z" /></clipPath><clipPath
       clipPathUnits="userSpaceOnUse"
       id="clipPath873"><g
         id="g877"><path
           inkscape:connector-curvature="0"
           d="m 0,0 c 0,-9.941 -8.059,-18 -18,-18 -9.94,0 -18,8.059 -18,18 0,9.94 8.06,18 18,18 C -8.059,18 0,9.94 0,0"
           style="fill:#ffcc4d;fill-opacity:1;fill-rule:nonzero;stroke:none"
           id="path875" /></g></clipPath></defs><path
     style="color:#000000;font-style:normal;font-variant:normal;font-weight:normal;font-stretch:normal;font-size:medium;line-height:normal;font-family:sans-serif;font-variant-ligatures:normal;font-variant-position:normal;font-variant-caps:normal;font-variant-numeric:normal;font-variant-alternates:normal;font-feature-settings:normal;text-indent:0;text-align:start;text-decoration:none;text-decoration-line:none;text-decoration-style:solid;text-decoration-color:#000000;letter-spacing:normal;word-spacing:normal;text-transform:none;writing-mode:lr-tb;direction:ltr;text-orientation:mixed;dominant-baseline:auto;baseline-shift:baseline;text-anchor:start;white-space:normal;shape-padding:0;clip-rule:nonzero;display:inline;overflow:visible;visibility:visible;opacity:1;isolation:auto;mix-blend-mode:normal;color-interpolation:sRGB;color-interpolation-filters:linearRGB;solid-color:#000000;solid-opacity:1;vector-effect:none;fill:#000000;fill-opacity:1;fill-rule:nonzero;stroke:none;stroke-width:2;stroke-linecap:butt;stroke-linejoin:miter;stroke-miterlimit:4;stroke-dasharray:none;stroke-dashoffset:0;stroke-opacity:1;color-rendering:auto;image-rendering:auto;shape-rendering:auto;text-rendering:auto;enable-background:accumulate"
     d="M 22.5 0 C 10.075 0 0 10.075 0 22.5 C 0 34.92625 10.075 45 22.5 45 C 34.92625 45 45 34.92625 45 22.5 C 45 10.075 34.92625 0 22.5 0 z M 22.5 1 C 34.385728 1 44 10.61551 44 22.5 C 44 34.385795 34.385795 44 22.5 44 C 10.61551 44 1 34.385728 1 22.5 C 1 10.615577 10.615577 1 22.5 1 z "
     id="path22" /><g
     id="g24"
     transform="matrix(1.25,0,0,-1.25,18.75,19.375)"
     style="fill:#000000"><path
       inkscape:connector-curvature="0"
       d="M 0,0 C 0,-1.934 -1.119,-3.5 -2.5,-3.5 -3.881,-3.5 -5,-1.934 -5,0 -5,1.933 -3.881,3.5 -2.5,3.5 -1.119,3.5 0,1.933 0,0"
       style="fill:#000000;fill-opacity:1;fill-rule:nonzero;stroke:none"
       id="path26" /></g><g
     id="g28"
     transform="matrix(1.25,0,0,-1.25,32.5,19.375)"
     style="fill:#000000"><path
       inkscape:connector-curvature="0"
       d="M 0,0 C 0,-1.934 -1.119,-3.5 -2.5,-3.5 -3.881,-3.5 -5,-1.934 -5,0 -5,1.933 -3.881,3.5 -2.5,3.5 -1.119,3.5 0,1.933 0,0"
       style="fill:#000000;fill-opacity:1;fill-rule:nonzero;stroke:none"
       id="path30" /></g><g
     id="g32"
     transform="matrix(1.25,0,0,-1.25,26.088875,35)"
     style="fill:#000000"><path
       inkscape:connector-curvature="0"
       d="m 0,0 c 1.335,0.412 2.629,1.156 2.629,2.5 0,2.619 -4.912,2.968 -5.472,2.999 C -3.117,5.526 -3.352,5.306 -3.37,5.031 -3.387,4.758 -3.18,4.521 -2.906,4.501 -2.871,4.499 0.629,4.202 0.629,2.5 0.629,0.798 -2.871,0.501 -2.906,0.499 -2.919,0.498 -2.93,0.491 -2.942,0.489 -2.996,0.483 -3.045,0.472 -3.091,0.448 -3.097,0.445 -3.101,0.441 -3.106,0.439 -3.154,0.412 -3.197,0.381 -3.233,0.34 -3.247,0.325 -3.256,0.309 -3.268,0.293 -3.291,0.261 -3.313,0.229 -3.328,0.19 -3.34,0.161 -3.346,0.13 -3.352,0.099 -3.357,0.075 -3.369,0.055 -3.37,0.031 -3.371,0.021 -3.366,0.011 -3.366,0 c 0,-0.011 -0.005,-0.021 -0.004,-0.031 10e-4,-0.025 0.013,-0.045 0.018,-0.069 0.006,-0.031 0.011,-0.06 0.023,-0.089 0.013,-0.031 0.031,-0.057 0.049,-0.084 0.017,-0.025 0.032,-0.05 0.053,-0.072 0.022,-0.023 0.05,-0.041 0.077,-0.06 0.025,-0.017 0.046,-0.034 0.074,-0.047 0.032,-0.015 0.066,-0.021 0.1,-0.027 0.024,-0.006 0.045,-0.018 0.07,-0.02 0.035,-0.002 3.535,-0.299 3.535,-2.001 0,-1.702 -3.5,-1.999 -3.535,-2.001 -0.274,-0.02 -0.481,-0.257 -0.464,-0.53 0.017,-0.265 0.237,-0.469 0.498,-0.469 0.01,0 0.02,0 0.029,0.001 0.56,0.031 5.472,0.38 5.472,2.999 0,1.344 -1.294,2.088 -2.629,2.5"
       style="fill:#000000;fill-opacity:1;fill-rule:nonzero;stroke:none"
       id="path34" /></g></svg>