<?xml version="1.0" encoding="UTF-8" standalone="no"?>
<svg
   xmlns:dc="http://purl.org/dc/elements/1.1/"
   xmlns:cc="http://creativecommons.org/ns#"
   xmlns:rdf="http://www.w3.org/1999/02/22-rdf-syntax-ns#"
   xmlns:svg="http://www.w3.org/2000/svg"
   xmlns="http://www.w3.org/2000/svg"
   xmlns:sodipodi="http://sodipodi.sourceforge.net/DTD/sodipodi-0.dtd"
   xmlns:inkscape="http://www.inkscape.org/namespaces/inkscape"
   viewBox="0 0 45 45"
   style="enable-background:new 0 0 45 45;"
   xml:space="preserve"
   version="1.1"
   id="svg2"
   sodipodi:docname="1f616.svg"
   inkscape:version="0.92.2 5c3e80d, 2017-08-06"><sodipodi:namedview
     pagecolor="#ffffff"
     bordercolor="#666666"
     borderopacity="1"
     objecttolerance="10"
     gridtolerance="10"
     guidetolerance="10"
     inkscape:pageopacity="0"
     inkscape:pageshadow="2"
     inkscape:window-width="1418"
     inkscape:window-height="1050"
     id="namedview22"
     showgrid="false"
     inkscape:zoom="10.488889"
     inkscape:cx="20.310501"
     inkscape:cy="15.597498"
     inkscape:window-x="0"
     inkscape:window-y="28"
     inkscape:window-maximized="0"
     inkscape:current-layer="svg2" /><metadata
     id="metadata8"><rdf:RDF><cc:Work
         rdf:about=""><dc:format>image/svg+xml</dc:format><dc:type
           rdf:resource="http://purl.org/dc/dcmitype/StillImage" /></cc:Work></rdf:RDF></metadata><defs
     id="defs6"><clipPath
       id="clipPath16"
       clipPathUnits="userSpaceOnUse"><path
         id="path18"
         d="M 0,36 36,36 36,0 0,0 0,36 Z" /></clipPath></defs><path
     style="color:#000000;font-style:normal;font-variant:normal;font-weight:normal;font-stretch:normal;font-size:medium;line-height:normal;font-family:sans-serif;font-variant-ligatures:normal;font-variant-position:normal;font-variant-caps:normal;font-variant-numeric:normal;font-variant-alternates:normal;font-feature-settings:normal;text-indent:0;text-align:start;text-decoration:none;text-decoration-line:none;text-decoration-style:solid;text-decoration-color:#000000;letter-spacing:normal;word-spacing:normal;text-transform:none;writing-mode:lr-tb;direction:ltr;text-orientation:mixed;dominant-baseline:auto;baseline-shift:baseline;text-anchor:start;white-space:normal;shape-padding:0;clip-rule:nonzero;display:inline;overflow:visible;visibility:visible;opacity:1;isolation:auto;mix-blend-mode:normal;color-interpolation:sRGB;color-interpolation-filters:linearRGB;solid-color:#000000;solid-opacity:1;vector-effect:none;fill:#000000;fill-opacity:1;fill-rule:nonzero;stroke:none;stroke-width:2;stroke-linecap:butt;stroke-linejoin:miter;stroke-miterlimit:4;stroke-dasharray:none;stroke-dashoffset:0;stroke-opacity:1;color-rendering:auto;image-rendering:auto;shape-rendering:auto;text-rendering:auto;enable-background:accumulate"
     clip-path="none"
     d="M 22.5 0 C 10.075 0 0 10.075 0 22.5 C 0 34.92625 10.075 45 22.5 45 C 34.92625 45 45 34.92625 45 22.5 C 45 10.075 34.92625 0 22.5 0 z M 22.5 1 C 34.385728 1 44 10.61551 44 22.5 C 44 34.385795 34.385795 44 22.5 44 C 10.61551 44 1 34.385728 1 22.5 C 1 10.615577 10.615577 1 22.5 1 z "
     id="path22" /><path
     id="path26"
     style="fill:#000000;fill-opacity:1;fill-rule:nonzero;stroke:none;stroke-width:1.25"
     d="m 7.5,16.25 c -0.69,0 -1.25,-0.56 -1.25,-1.25 0,-0.68875 0.55625,-1.2475 1.245,-1.25 0.19375,-0.0025 4.46,-0.1075 7.755,-4.5 C 15.66375,8.7 16.4475,8.585 17,9 c 0.5525,0.41375 0.66375,1.1975 0.25,1.75 -4.0775,5.4375 -9.52,5.5 -9.75,5.5"
     inkscape:connector-curvature="0" /><path
     id="path30"
     style="fill:#000000;fill-opacity:1;fill-rule:nonzero;stroke:none;stroke-width:1.25"
     d="m 37.5,16.25 c -0.23,0 -5.67125,-0.0625 -9.75,-5.5 C 27.335,10.1975 27.4475,9.41375 28,9 c 0.5525,-0.41625 1.335,-0.3025 1.75,0.25 3.3,4.40125 7.57625,4.49875 7.7575,4.5 0.6875,0.0075 1.2425,0.57 1.23875,1.25625 C 38.7425,15.695 38.1875,16.25 37.5,16.25"
     inkscape:connector-curvature="0" /><path
     id="path34"
     style="fill:#000000;fill-opacity:1;fill-rule:nonzero;stroke:none;stroke-width:1.25"
     d="m 38.2495,25.25025 c -0.1425,-0.1075 -2.41375,-1.7825 -5.8075,-2.93 0.03375,-0.14375 0.0575,-0.29125 0.0575,-0.445 0,-0.46125 -0.1725,-0.87875 -0.44875,-1.205 2.25375,-0.65125 4.1675,-0.67 4.20125,-0.67 0.68875,-0.0025 1.2475,-0.5625 1.24625,-1.2525 -0.0012,-0.68875 -0.55875,-1.2475 -1.24875,-1.2475 -0.275,0 -6.81375,0.04625 -10.88375,4.11625 -0.3575,0.3575 -0.465,0.895 -0.27,1.3625 0.1925,0.4675 0.64875,0.77125 1.15375,0.77125 5.7375,0 10.455,3.465 10.5025,3.50125 0.225,0.16625 0.48625,0.2475 0.74625,0.2475 0.38125,0 0.7575,-0.17375 1.0025,-0.50125 0.4125,-0.5525 0.3,-1.33375 -0.25125,-1.7475"
     inkscape:connector-curvature="0" /><path
     id="path38"
     style="fill:#000000;fill-opacity:1;fill-rule:nonzero;stroke:none;stroke-width:1.25"
     d="M 19.63375,21.61625 C 15.565,17.5475 9.02625,17.5 8.75,17.5 8.06,17.5 7.50125,18.05875 7.50125,18.74875 7.5,19.4375 8.05875,19.99875 8.74875,20 c 0.0325,0 1.9475,0.02 4.2,0.67 -0.275,0.32625 -0.44875,0.74375 -0.44875,1.205 0,0.15375 0.02375,0.30125 0.05875,0.445 C 9.16375,23.4675 6.8925,25.1425 6.75,25.25 6.1975,25.66375 6.08625,26.4475 6.5,27 c 0.245,0.3275 0.62125,0.5 1.00125,0.5 0.26,0 0.52375,-0.08125 0.74875,-0.25 0.04625,-0.03375 4.73375,-3.5 10.5,-3.5 0.505,0 0.96125,-0.30375 1.155,-0.77125 0.19375,-0.4675 0.08625,-1.005 -0.27125,-1.3625"
     inkscape:connector-curvature="0" /><path
     id="path42"
     style="fill:#000000;fill-opacity:1;fill-rule:nonzero;stroke:none;stroke-width:1.25"
     d="m 22.5,37.5 c -0.38,0 -0.73875,-0.1725 -0.97625,-0.46875 l -3.9925,-4.99 L 14.75,35.75 c -0.2175,0.29 -0.55,0.47125 -0.91125,0.49625 -0.3625,0.0275 -0.7175,-0.10625 -0.9725,-0.3625 l -1.25,-1.25 c -0.48875,-0.48875 -0.48875,-1.27875 0,-1.7675 0.48875,-0.48875 1.27875,-0.48875 1.7675,0 l 0.23125,0.23 L 16.5,29.25 c 0.2325,-0.31 0.59375,-0.49375 0.98,-0.5 0.37,-0.0125 0.75375,0.16625 0.99625,0.46875 l 4.02375,5.03 4.02375,-5.03 C 26.765,28.9175 27.12875,28.75 27.52,28.75 c 0.38625,0.0063 0.7475,0.19 0.98,0.5 l 2.885,3.84625 0.23125,-0.23 c 0.48875,-0.48875 1.27875,-0.48875 1.7675,0 0.48875,0.48875 0.48875,1.27875 0,1.7675 l -1.25,1.25 c -0.25625,0.25625 -0.5975,0.3925 -0.9725,0.3625 C 30.8,36.22125 30.4675,36.04 30.25,35.75 l -2.78125,-3.70875 -3.9925,4.99 C 23.23875,37.3275 22.88,37.5 22.5,37.5"
     inkscape:connector-curvature="0" /></svg>