<?xml version="1.0" encoding="UTF-8" standalone="no"?>
<svg
   xmlns:dc="http://purl.org/dc/elements/1.1/"
   xmlns:cc="http://creativecommons.org/ns#"
   xmlns:rdf="http://www.w3.org/1999/02/22-rdf-syntax-ns#"
   xmlns:svg="http://www.w3.org/2000/svg"
   xmlns="http://www.w3.org/2000/svg"
   xmlns:sodipodi="http://sodipodi.sourceforge.net/DTD/sodipodi-0.dtd"
   xmlns:inkscape="http://www.inkscape.org/namespaces/inkscape"
   viewBox="0 0 45 45"
   style="enable-background:new 0 0 45 45;"
   xml:space="preserve"
   version="1.1"
   id="svg2"
   sodipodi:docname="1f61b.svg"
   inkscape:version="0.92.2 5c3e80d, 2017-08-06"><sodipodi:namedview
     pagecolor="#ffffff"
     bordercolor="#666666"
     borderopacity="1"
     objecttolerance="10"
     gridtolerance="10"
     guidetolerance="10"
     inkscape:pageopacity="0"
     inkscape:pageshadow="2"
     inkscape:window-width="1418"
     inkscape:window-height="1050"
     id="namedview22"
     showgrid="false"
     inkscape:zoom="5.2444444"
     inkscape:cx="-24.468574"
     inkscape:cy="46.1852"
     inkscape:window-x="0"
     inkscape:window-y="28"
     inkscape:window-maximized="0"
     inkscape:current-layer="svg2" /><metadata
     id="metadata8"><rdf:RDF><cc:Work
         rdf:about=""><dc:format>image/svg+xml</dc:format><dc:type
           rdf:resource="http://purl.org/dc/dcmitype/StillImage" /></cc:Work></rdf:RDF></metadata><defs
     id="defs6"><clipPath
       id="clipPath16"
       clipPathUnits="userSpaceOnUse"><path
         id="path18"
         d="M 0,36 36,36 36,0 0,0 0,36 Z" /></clipPath><clipPath
       clipPathUnits="userSpaceOnUse"
       id="clipPath908"><path
         id="path910"
         style="fill:#e8596e;fill-opacity:1;fill-rule:nonzero;stroke:none;stroke-width:1.25"
         d="m 23.182375,29.504375 -1.36375,-0.0062 c -4.02125,-0.0925 -6.81875,-0.745 -6.81875,-0.745 v 8.70125 c 0,3.75 2.5,7.5 7.5,7.5 5,0 7.5,-3.75 7.5,-7.5 v -8.65 c -2.4025,0.49375 -4.73375,0.6775 -6.8175,0.7"
         inkscape:connector-curvature="0" /></clipPath></defs><path
     style="color:#000000;font-style:normal;font-variant:normal;font-weight:normal;font-stretch:normal;font-size:medium;line-height:normal;font-family:sans-serif;font-variant-ligatures:normal;font-variant-position:normal;font-variant-caps:normal;font-variant-numeric:normal;font-variant-alternates:normal;font-feature-settings:normal;text-indent:0;text-align:start;text-decoration:none;text-decoration-line:none;text-decoration-style:solid;text-decoration-color:#000000;letter-spacing:normal;word-spacing:normal;text-transform:none;writing-mode:lr-tb;direction:ltr;text-orientation:mixed;dominant-baseline:auto;baseline-shift:baseline;text-anchor:start;white-space:normal;shape-padding:0;clip-rule:nonzero;display:inline;overflow:visible;visibility:visible;opacity:1;isolation:auto;mix-blend-mode:normal;color-interpolation:sRGB;color-interpolation-filters:linearRGB;solid-color:#000000;solid-opacity:1;vector-effect:none;fill:#000000;fill-opacity:1;fill-rule:nonzero;stroke:none;stroke-width:2;stroke-linecap:butt;stroke-linejoin:miter;stroke-miterlimit:4;stroke-dasharray:none;stroke-dashoffset:0;stroke-opacity:1;color-rendering:auto;image-rendering:auto;shape-rendering:auto;text-rendering:auto;enable-background:accumulate"
     clip-path="none"
     d="M 22.5 0 C 10.075 0 0 10.075 0 22.5 C 0 34.92625 10.075 45 22.5 45 C 34.92625 45 45 34.92625 45 22.5 C 45 10.075 34.92625 0 22.5 0 z M 22.5 1 C 34.385728 1 44 10.61551 44 22.5 C 44 34.385795 34.385795 44 22.5 44 C 10.61551 44 1 34.385728 1 22.5 C 1 10.615577 10.615577 1 22.5 1 z "
     id="path22" /><path
     id="path26"
     style="fill:#000000;fill-opacity:1;fill-rule:nonzero;stroke:none;stroke-width:1.25"
     d="m 17.5,18.125 c 0,2.4175 -1.39875,4.375 -3.125,4.375 -1.72625,0 -3.125,-1.9575 -3.125,-4.375 0,-2.41625 1.39875,-4.375 3.125,-4.375 1.72625,0 3.125,1.95875 3.125,4.375"
     inkscape:connector-curvature="0" /><path
     id="path30"
     style="fill:#000000;fill-opacity:1;fill-rule:nonzero;stroke:none;stroke-width:1.25"
     d="m 33.75,18.125 c 0,2.4175 -1.39875,4.375 -3.125,4.375 -1.72625,0 -3.125,-1.9575 -3.125,-4.375 0,-2.41625 1.39875,-4.375 3.125,-4.375 1.72625,0 3.125,1.95875 3.125,4.375"
     inkscape:connector-curvature="0" /><path
     id="path34"
     style="fill:#000000;fill-opacity:1;fill-rule:nonzero;stroke:none;stroke-width:1.25"
     d="m 8.75,26.578375 c 0,4.955 5.745,11.25 13.75,11.25 8.005,0 13.75,-6.25 13.75,-11.25 0,0 -12.91625,3.445 -27.5,0"
     inkscape:connector-curvature="0" /><path
     id="path38"
     style="fill:#ffffff;fill-opacity:1;fill-rule:nonzero;stroke:#000000;stroke-width:2;stroke-opacity:1;stroke-miterlimit:4;stroke-dasharray:none"
     d="m 23.182375,29.504375 -1.36375,-0.0062 c -4.02125,-0.0925 -6.81875,-0.745 -6.81875,-0.745 v 8.70125 c 0,3.75 2.5,7.5 7.5,7.5 5,0 7.5,-3.75 7.5,-7.5 v -8.65 c -2.4025,0.49375 -4.73375,0.6775 -6.8175,0.7"
     inkscape:connector-curvature="0"
     clip-path="url(#clipPath908)" /><path
     id="path42"
     style="fill:#000000;fill-opacity:1;fill-rule:nonzero;stroke:none;stroke-width:1.25"
     d="m 22.5,39.8035 c 0.37625,0 0.6825,-0.30375 0.6825,-0.68125 v -9.6175 l -1.36375,-0.0063 v 9.62375 c 0,0.3775 0.305,0.68125 0.68125,0.68125"
     inkscape:connector-curvature="0" /></svg>