<?xml version="1.0" encoding="UTF-8" standalone="no"?>
<svg
   xmlns:dc="http://purl.org/dc/elements/1.1/"
   xmlns:cc="http://creativecommons.org/ns#"
   xmlns:rdf="http://www.w3.org/1999/02/22-rdf-syntax-ns#"
   xmlns:svg="http://www.w3.org/2000/svg"
   xmlns="http://www.w3.org/2000/svg"
   xmlns:sodipodi="http://sodipodi.sourceforge.net/DTD/sodipodi-0.dtd"
   xmlns:inkscape="http://www.inkscape.org/namespaces/inkscape"
   viewBox="0 0 45 45"
   style="enable-background:new 0 0 45 45;"
   xml:space="preserve"
   version="1.1"
   id="svg2"
   sodipodi:docname="1f618.svg"
   inkscape:version="0.92.2 5c3e80d, 2017-08-06"><sodipodi:namedview
     pagecolor="#ffffff"
     bordercolor="#666666"
     borderopacity="1"
     objecttolerance="10"
     gridtolerance="10"
     guidetolerance="10"
     inkscape:pageopacity="0"
     inkscape:pageshadow="2"
     inkscape:window-width="1418"
     inkscape:window-height="1050"
     id="namedview24"
     showgrid="false"
     inkscape:zoom="5.2444444"
     inkscape:cx="2.7124957"
     inkscape:cy="35.627384"
     inkscape:window-x="0"
     inkscape:window-y="28"
     inkscape:window-maximized="0"
     inkscape:current-layer="svg2" /><metadata
     id="metadata8"><rdf:RDF><cc:Work
         rdf:about=""><dc:format>image/svg+xml</dc:format><dc:type
           rdf:resource="http://purl.org/dc/dcmitype/StillImage" /></cc:Work></rdf:RDF></metadata><defs
     id="defs6"><clipPath
       id="clipPath16"
       clipPathUnits="userSpaceOnUse"><path
         id="path18"
         d="M 0,36 36,36 36,0 0,0 0,36 Z" /></clipPath></defs><path
     style="color:#000000;font-style:normal;font-variant:normal;font-weight:normal;font-stretch:normal;font-size:medium;line-height:normal;font-family:sans-serif;font-variant-ligatures:normal;font-variant-position:normal;font-variant-caps:normal;font-variant-numeric:normal;font-variant-alternates:normal;font-feature-settings:normal;text-indent:0;text-align:start;text-decoration:none;text-decoration-line:none;text-decoration-style:solid;text-decoration-color:#000000;letter-spacing:normal;word-spacing:normal;text-transform:none;writing-mode:lr-tb;direction:ltr;text-orientation:mixed;dominant-baseline:auto;baseline-shift:baseline;text-anchor:start;white-space:normal;shape-padding:0;clip-rule:nonzero;display:inline;overflow:visible;visibility:visible;opacity:1;isolation:auto;mix-blend-mode:normal;color-interpolation:sRGB;color-interpolation-filters:linearRGB;solid-color:#000000;solid-opacity:1;vector-effect:none;fill:#000000;fill-opacity:1;fill-rule:nonzero;stroke:none;stroke-width:2;stroke-linecap:butt;stroke-linejoin:miter;stroke-miterlimit:4;stroke-dasharray:none;stroke-dashoffset:0;stroke-opacity:1;color-rendering:auto;image-rendering:auto;shape-rendering:auto;text-rendering:auto;enable-background:accumulate"
     clip-path="none"
     d="M 22.5 0 C 10.075 0 0 10.075 0 22.5 C 0 34.92625 10.075 45 22.5 45 C 34.92625 45 45 34.92625 45 22.5 C 45 10.075 34.92625 0 22.5 0 z M 22.5 1 C 34.385728 1 44 10.61551 44 22.5 C 44 34.385795 34.385795 44 22.5 44 C 10.61551 44 1 34.385728 1 22.5 C 1 10.615577 10.615577 1 22.5 1 z "
     id="path22" /><path
     id="path26"
     style="fill:#000000;fill-opacity:1;fill-rule:nonzero;stroke:none;stroke-width:1.25"
     d="m 17.5,19.375 c 0,2.4175 -1.39875,4.375 -3.125,4.375 -1.72625,0 -3.125,-1.9575 -3.125,-4.375 0,-2.41625 1.39875,-4.375 3.125,-4.375 1.72625,0 3.125,1.95875 3.125,4.375"
     inkscape:connector-curvature="0" /><path
     id="path30"
     style="fill:#000000;fill-opacity:1;fill-rule:nonzero;stroke:none;stroke-width:1.25"
     d="M 35.57125,22.246125 C 35.4975,22.077375 33.6975,18.124875 30,18.124875 c -3.69625,0 -5.49625,3.9525 -5.57125,4.12125 -0.115,0.25875 -0.04,0.56125 0.18,0.73875 0.21875,0.1775 0.5325,0.18375 0.76375,0.0175 0.015,-0.01125 1.5775,-1.1275 4.6275,-1.1275 3.0325,0 4.5925,1.10125 4.6275,1.12625 0.11,0.0825 0.2425,0.12375 0.3725,0.12375 0.1375,0 0.27625,-0.04625 0.39,-0.13625 0.22125,-0.1775 0.2975,-0.4825 0.18125,-0.7425"
     inkscape:connector-curvature="0" /><path
     id="path34"
     style="fill:#000000;fill-opacity:1;fill-rule:nonzero;stroke:none;stroke-width:1.25"
     d="M 7.49875,13.75 C 7.23875,13.75 6.975,13.66875 6.75,13.5 6.1975,13.08625 6.08625,12.3025 6.5,11.75 c 4.0775,-5.4375 9.52,-5.5 9.75,-5.5 0.69,0 1.25,0.56 1.25,1.25 0,0.68875 -0.55625,1.2475 -1.245,1.25 -0.19375,0.0025 -4.46125,0.1075 -7.755,4.5 -0.24625,0.3275 -0.62125,0.5 -1.00125,0.5"
     inkscape:connector-curvature="0" /><path
     id="path38"
     style="fill:#000000;fill-opacity:1;fill-rule:nonzero;stroke:none;stroke-width:1.25"
     d="M 36.25125,17.5 C 35.87,17.5 35.495,17.3275 35.25,17 c -3.24,-4.32 -8.70125,-3.285 -8.755,-3.275 -0.68375,0.13875 -1.335,-0.30375 -1.47125,-0.98 -0.135,-0.67625 0.305,-1.335 0.98125,-1.47 0.2875,-0.06 7.07125,-1.34 11.245,4.225 0.415,0.5525 0.3025,1.33625 -0.25,1.75 -0.225,0.16875 -0.4875,0.25 -0.74875,0.25"
     inkscape:connector-curvature="0" /><path
     id="path42"
     style="fill:#000000;fill-opacity:1;fill-rule:nonzero;stroke:none;stroke-width:1.25"
     d="m 26.088875,35 c 1.66875,-0.515 3.28625,-1.445 3.28625,-3.125 0,-3.27375 -6.14,-3.71 -6.84,-3.74875 -0.3425,-0.0325 -0.63625,0.24125 -0.65875,0.585 -0.02125,0.34125 0.2375,0.6375 0.58,0.6625 0.04375,0.0025 4.41875,0.37375 4.41875,2.50125 0,2.1275 -4.375,2.49875 -4.41875,2.50125 -0.0175,0.0012 -0.03125,0.01125 -0.04625,0.01375 -0.06625,0.0075 -0.12625,0.02125 -0.18375,0.05 -0.0087,0.0038 -0.015,0.01 -0.0225,0.01375 -0.05875,0.0325 -0.11125,0.07 -0.15625,0.12125 -0.0175,0.01875 -0.03,0.03875 -0.045,0.06 -0.0275,0.04 -0.055,0.07875 -0.07375,0.1275 -0.015,0.03625 -0.0225,0.075 -0.03,0.11375 -0.0063,0.03 -0.02125,0.055 -0.0225,0.085 -0.0012,0.0125 0.005,0.025 0.005,0.03875 0,0.01375 -0.0062,0.02625 -0.005,0.03875 0.0012,0.03125 0.01625,0.05625 0.0225,0.08625 0.0075,0.03875 0.01375,0.075 0.02875,0.11125 0.01625,0.03875 0.03875,0.07125 0.06125,0.105 0.02125,0.03125 0.04,0.0625 0.06625,0.09 0.0275,0.02875 0.0625,0.05125 0.09625,0.075 0.03125,0.02125 0.0575,0.0425 0.0925,0.05875 0.04,0.01875 0.0825,0.02625 0.125,0.03375 0.03,0.0075 0.05625,0.0225 0.0875,0.025 0.04375,0.0025 4.41875,0.37375 4.41875,2.50125 0,2.1275 -4.375,2.49875 -4.41875,2.50125 -0.3425,0.025 -0.60125,0.32125 -0.58,0.6625 0.02125,0.33125 0.29625,0.58625 0.6225,0.58625 0.0125,0 0.025,0 0.03625,-0.0012 0.7,-0.03875 6.84,-0.475 6.84,-3.74875 0,-1.68 -1.6175,-2.61 -3.28625,-3.125"
     inkscape:connector-curvature="0" /><path
     id="path46"
     style="fill:#000000;fill-opacity:1;fill-rule:nonzero;stroke:none;stroke-width:1.25"
     d="m 44.255375,34.027125 c 0.92375,-1.895 0.1375,-4.18375 -1.75625,-5.1075 -1.1525,-0.56125 -2.445,-0.48875 -3.49125,0.075 -0.2,-1.17125 -0.9375,-2.23625 -2.0875,-2.7975 -1.8975,-0.925 -4.185,-0.13625 -5.10875,1.75875 -0.1325,0.2675 -0.225,0.545 -0.28875,0.82375 -0.9675,3.19375 0.8,7.92625 2.74125,9.935 2.77875,0.2925 7.59625,-1.22375 9.51875,-3.95125 0.18125,-0.22375 0.34125,-0.4675 0.4725,-0.73625"
     inkscape:connector-curvature="0" /></svg>