<?xml version="1.0" encoding="UTF-8" standalone="no"?>
<svg
   xmlns:dc="http://purl.org/dc/elements/1.1/"
   xmlns:cc="http://creativecommons.org/ns#"
   xmlns:rdf="http://www.w3.org/1999/02/22-rdf-syntax-ns#"
   xmlns:svg="http://www.w3.org/2000/svg"
   xmlns="http://www.w3.org/2000/svg"
   xmlns:sodipodi="http://sodipodi.sourceforge.net/DTD/sodipodi-0.dtd"
   xmlns:inkscape="http://www.inkscape.org/namespaces/inkscape"
   viewBox="0 0 45 45"
   style="enable-background:new 0 0 45 45;"
   xml:space="preserve"
   version="1.1"
   id="svg2"
   sodipodi:docname="1f628.svg"
   inkscape:version="0.92.2 5c3e80d, 2017-08-06"><sodipodi:namedview
     pagecolor="#ffffff"
     bordercolor="#666666"
     borderopacity="1"
     objecttolerance="10"
     gridtolerance="10"
     guidetolerance="10"
     inkscape:pageopacity="0"
     inkscape:pageshadow="2"
     inkscape:window-width="1418"
     inkscape:window-height="1050"
     id="namedview24"
     showgrid="false"
     inkscape:zoom="10.488889"
     inkscape:cx="16.904506"
     inkscape:cy="16.79415"
     inkscape:window-x="0"
     inkscape:window-y="28"
     inkscape:window-maximized="0"
     inkscape:current-layer="svg2" /><metadata
     id="metadata8"><rdf:RDF><cc:Work
         rdf:about=""><dc:format>image/svg+xml</dc:format><dc:type
           rdf:resource="http://purl.org/dc/dcmitype/StillImage" /></cc:Work></rdf:RDF></metadata><defs
     id="defs6"><clipPath
       id="clipPath16"
       clipPathUnits="userSpaceOnUse"><path
         id="path18"
         d="M 0,36 36,36 36,0 0,0 0,36 Z" /></clipPath></defs><path
     style="color:#000000;font-style:normal;font-variant:normal;font-weight:normal;font-stretch:normal;font-size:medium;line-height:normal;font-family:sans-serif;font-variant-ligatures:normal;font-variant-position:normal;font-variant-caps:normal;font-variant-numeric:normal;font-variant-alternates:normal;font-feature-settings:normal;text-indent:0;text-align:start;text-decoration:none;text-decoration-line:none;text-decoration-style:solid;text-decoration-color:#000000;letter-spacing:normal;word-spacing:normal;text-transform:none;writing-mode:lr-tb;direction:ltr;text-orientation:mixed;dominant-baseline:auto;baseline-shift:baseline;text-anchor:start;white-space:normal;shape-padding:0;clip-rule:nonzero;display:inline;overflow:visible;visibility:visible;opacity:1;isolation:auto;mix-blend-mode:normal;color-interpolation:sRGB;color-interpolation-filters:linearRGB;solid-color:#000000;solid-opacity:1;vector-effect:none;fill:#000000;fill-opacity:1;fill-rule:nonzero;stroke:none;stroke-width:2;stroke-linecap:butt;stroke-linejoin:miter;stroke-miterlimit:4;stroke-dasharray:none;stroke-dashoffset:0;stroke-opacity:1;color-rendering:auto;image-rendering:auto;shape-rendering:auto;text-rendering:auto;enable-background:accumulate"
     d="M 22.5 0 C 10.075 0 0 10.075 0 22.5 C 0 34.92625 10.075 45 22.5 45 C 34.92625 45 45 34.92625 45 22.5 C 45 10.075 34.92625 0 22.5 0 z M 22.5 1 C 34.385728 1 44 10.61551 44 22.5 C 44 34.385795 34.385795 44 22.5 44 C 10.61551 44 1 34.385728 1 22.5 C 1 10.615577 10.615577 1 22.5 1 z "
     id="path22" /><path
     style="fill:#000000;fill-opacity:1;fill-rule:nonzero;stroke:none;stroke-width:1.25"
     d="M 22.5 0 C 22.332386 0 22.16674 0.0080707658 22 0.01171875 L 22 13.765625 C 22.167664 13.762961 22.331448 13.75 22.5 13.75 C 22.668571 13.75 22.832318 13.762961 23 13.765625 L 23 0.01171875 C 22.833244 0.0080707658 22.667631 0 22.5 0 z M 20 0.140625 C 19.664306 0.17775904 19.331079 0.22169504 19 0.2734375 L 19 13.957031 C 19.331209 13.919583 19.664155 13.88626 20 13.859375 L 20 0.140625 z M 25 0.140625 L 25 13.859375 C 25.335547 13.886229 25.669085 13.919635 26 13.957031 L 26 0.2734375 C 25.668941 0.22170356 25.335676 0.17775426 25 0.140625 z M 17 0.6796875 C 16.663123 0.76435403 16.330655 0.85736277 16 0.95703125 L 16 14.453125 C 16.330931 14.380979 16.662817 14.311285 17 14.25 L 17 0.6796875 z M 28 0.6796875 L 28 14.25 C 28.337144 14.31127 28.66911 14.380998 29 14.453125 L 29 0.95703125 C 28.669746 0.85751244 28.336464 0.76424245 28 0.6796875 z M 14 1.6660156 C 13.662308 1.8039613 13.329258 1.9498621 13 2.1035156 L 13 15.269531 C 13.326496 15.159413 13.665192 15.065751 14 14.966797 L 14 1.6660156 z M 31 1.6660156 L 31 14.966797 C 31.334647 15.065678 31.673658 15.157545 32 15.267578 L 32 2.1035156 C 31.670737 1.9498621 31.3377 1.8039613 31 1.6660156 z M 11 3.1621094 C 10.66129 3.3639996 10.326907 3.5740941 10 3.7929688 L 10 16.5 C 10.327866 16.341195 10.660231 16.187463 11 16.041016 L 11 3.1621094 z M 34 3.1621094 L 34 16.041016 C 34.339764 16.187463 34.672141 16.341195 35 16.5 L 35 3.7929688 C 34.672749 3.5738649 34.339081 3.3641925 34 3.1621094 z M 37 5.3007812 L 37 17.583984 C 37.343651 17.793733 37.674462 18.01424 38 18.238281 L 38 6.1992188 C 37.675181 5.8902558 37.342806 5.590081 37 5.3007812 z M 8 5.3027344 C 7.6578313 5.5915513 7.3242481 5.8908099 7 6.1992188 L 7 18.238281 C 7.3255539 18.01424 7.6563345 17.793733 8 17.583984 L 8 5.3027344 z M 5 8.3652344 C 4.6501424 8.7978033 4.3175743 9.2430189 4 9.7011719 L 4 20.775391 C 4.3164054 20.44472 4.6513984 20.124769 5 19.8125 L 5 8.3652344 z M 40 8.3652344 L 40 19.8125 C 40.348092 20.124315 40.68401 20.443272 41 20.773438 L 41 9.6992188 C 40.682861 9.2417716 40.349328 8.797171 40 8.3652344 z M 2 13.228516 C 1.6156825 14.076726 1.2782174 14.951148 1 15.851562 L 1 25.246094 C 1.2771045 24.591388 1.6155677 23.9585 2 23.341797 L 2 13.228516 z M 43 13.228516 L 43 23.341797 C 43.384404 23.9585 43.72291 24.591388 44 25.246094 L 44 15.851562 C 43.721809 14.951148 43.384286 14.076726 43 13.228516 z "
     id="path26" /><g
     id="g28"
     transform="matrix(1.25,0,0,-1.25,17.5,20.625)"
     style="fill:#000000"><path
       inkscape:connector-curvature="0"
       d="M 0,0 C 0,-1.934 -1.119,-3.5 -2.5,-3.5 -3.881,-3.5 -5,-1.934 -5,0 -5,1.933 -3.881,3.5 -2.5,3.5 -1.119,3.5 0,1.933 0,0"
       style="fill:#000000;fill-opacity:1;fill-rule:nonzero;stroke:none"
       id="path30" /></g><g
     id="g32"
     transform="matrix(1.25,0,0,-1.25,33.75,20.625)"
     style="fill:#000000"><path
       inkscape:connector-curvature="0"
       d="M 0,0 C 0,-1.934 -1.119,-3.5 -2.5,-3.5 -3.881,-3.5 -5,-1.934 -5,0 -5,1.933 -3.881,3.5 -2.5,3.5 -1.119,3.5 0,1.933 0,0"
       style="fill:#000000;fill-opacity:1;fill-rule:nonzero;stroke:none"
       id="path34" /></g><g
     id="g36"
     transform="matrix(1.25,0,0,-1.25,7.49875,15)"
     style="fill:#000000"><path
       inkscape:connector-curvature="0"
       d="m 0,0 c -0.208,0 -0.419,0.065 -0.599,0.2 -0.442,0.331 -0.531,0.958 -0.2,1.4 3.262,4.35 7.616,4.4 7.8,4.4 0.552,0 1,-0.448 1,-1 C 8.001,4.449 7.556,4.002 7.005,4 6.85,3.998 3.436,3.914 0.801,0.4 0.604,0.138 0.304,0 0,0"
       style="fill:#000000;fill-opacity:1;fill-rule:nonzero;stroke:none"
       id="path38" /></g><g
     id="g40"
     transform="matrix(1.25,0,0,-1.25,37.50125,15)"
     style="fill:#000000"><path
       inkscape:connector-curvature="0"
       d="M 0,0 C -0.305,0 -0.605,0.138 -0.801,0.4 -3.441,3.921 -6.862,3.999 -7.007,4 -7.557,4.006 -8.001,4.456 -7.998,5.005 -7.995,5.556 -7.551,6 -7.001,6 -6.817,6 -2.464,5.95 0.799,1.6 1.131,1.158 1.041,0.531 0.599,0.2 0.419,0.065 0.209,0 0,0"
       style="fill:#000000;fill-opacity:1;fill-rule:nonzero;stroke:none"
       id="path42" /></g><g
     id="g44"
     transform="matrix(1.25,0,0,-1.25,29.35675,34.848625)"
     style="fill:#000000"><path
       inkscape:connector-curvature="0"
       d="m 0,0 c -0.012,0.044 -1.146,4.379 -5.485,4.379 -4.34,0 -5.474,-4.335 -5.485,-4.379 -0.053,-0.213 0.044,-0.431 0.232,-0.544 0.187,-0.112 0.433,-0.086 0.596,0.06 0.01,0.007 1.014,0.863 4.657,0.863 3.589,0 4.617,-0.83 4.656,-0.863 0.095,-0.09 0.219,-0.137 0.344,-0.137 0.084,0 0.169,0.021 0.246,0.064 C -0.043,-0.445 0.055,-0.218 0,0"
       style="fill:#000000;fill-opacity:1;fill-rule:nonzero;stroke:none"
       id="path46" /></g></svg>