<?xml version="1.0" encoding="UTF-8" standalone="no"?>
<svg
   xmlns:dc="http://purl.org/dc/elements/1.1/"
   xmlns:cc="http://creativecommons.org/ns#"
   xmlns:rdf="http://www.w3.org/1999/02/22-rdf-syntax-ns#"
   xmlns:svg="http://www.w3.org/2000/svg"
   xmlns="http://www.w3.org/2000/svg"
   xmlns:sodipodi="http://sodipodi.sourceforge.net/DTD/sodipodi-0.dtd"
   xmlns:inkscape="http://www.inkscape.org/namespaces/inkscape"
   viewBox="0 0 45 45"
   style="enable-background:new 0 0 45 45;"
   xml:space="preserve"
   version="1.1"
   id="svg2"
   sodipodi:docname="1f62d.svg"
   inkscape:version="0.92.2 5c3e80d, 2017-08-06"><sodipodi:namedview
     pagecolor="#ffffff"
     bordercolor="#666666"
     borderopacity="1"
     objecttolerance="10"
     gridtolerance="10"
     guidetolerance="10"
     inkscape:pageopacity="0"
     inkscape:pageshadow="2"
     inkscape:window-width="1418"
     inkscape:window-height="1050"
     id="namedview28"
     showgrid="false"
     inkscape:zoom="7.4167645"
     inkscape:cx="-6.290797"
     inkscape:cy="18.933146"
     inkscape:window-x="0"
     inkscape:window-y="28"
     inkscape:window-maximized="0"
     inkscape:current-layer="svg2" /><metadata
     id="metadata8"><rdf:RDF><cc:Work
         rdf:about=""><dc:format>image/svg+xml</dc:format><dc:type
           rdf:resource="http://purl.org/dc/dcmitype/StillImage" /></cc:Work></rdf:RDF></metadata><defs
     id="defs6"><clipPath
       id="clipPath16"
       clipPathUnits="userSpaceOnUse"><path
         id="path18"
         d="M 0,36 36,36 36,0 0,0 0,36 Z" /></clipPath></defs><path
     style="color:#000000;font-style:normal;font-variant:normal;font-weight:normal;font-stretch:normal;font-size:medium;line-height:normal;font-family:sans-serif;font-variant-ligatures:normal;font-variant-position:normal;font-variant-caps:normal;font-variant-numeric:normal;font-variant-alternates:normal;font-feature-settings:normal;text-indent:0;text-align:start;text-decoration:none;text-decoration-line:none;text-decoration-style:solid;text-decoration-color:#000000;letter-spacing:normal;word-spacing:normal;text-transform:none;writing-mode:lr-tb;direction:ltr;text-orientation:mixed;dominant-baseline:auto;baseline-shift:baseline;text-anchor:start;white-space:normal;shape-padding:0;clip-rule:nonzero;display:inline;overflow:visible;visibility:visible;opacity:1;isolation:auto;mix-blend-mode:normal;color-interpolation:sRGB;color-interpolation-filters:linearRGB;solid-color:#000000;solid-opacity:1;vector-effect:none;fill:#000000;fill-opacity:1;fill-rule:nonzero;stroke:none;stroke-width:2;stroke-linecap:butt;stroke-linejoin:miter;stroke-miterlimit:4;stroke-dasharray:none;stroke-dashoffset:0;stroke-opacity:1;color-rendering:auto;image-rendering:auto;shape-rendering:auto;text-rendering:auto;enable-background:accumulate"
     clip-path="none"
     d="M 22.5 0 C 10.07375 0 0 10.07375 0 22.5 C 0 34.92625 10.07375 45 22.5 45 C 34.92625 45 45 34.92625 45 22.5 C 45 10.07375 34.92625 0 22.5 0 z M 22.5 1 C 34.385795 1 44 10.614205 44 22.5 C 44 34.385795 34.385795 44 22.5 44 C 10.614205 44 1 34.385795 1 22.5 C 1 10.614205 10.614205 1 22.5 1 z "
     id="path22" /><path
     id="path26"
     style="fill:#000000;fill-opacity:1;fill-rule:nonzero;stroke:none;stroke-width:1.25"
     d="m 27.5,33.75 c 0,3.45375 -2.23875,3.75 -5,3.75 -2.7625,0 -5,-0.29625 -5,-3.75 0,-3.45125 2.2375,-7.5 5,-7.5 2.76125,0 5,4.04875 5,7.5"
     inkscape:connector-curvature="0" /><path
     id="path30"
     style="fill:#000000;fill-opacity:1;fill-rule:nonzero;stroke:none;stroke-width:1.25"
     d="m 37.5,18.750625 c -0.155,0 -0.3125,-0.02875 -0.46375,-0.09 -6.53625,-2.61375 -9.215,-6.55 -9.32625,-6.7175 -0.38375,-0.57375 -0.22875,-1.35 0.34625,-1.73375 0.57375,-0.3825 1.3475,-0.22875 1.73125,0.3425 0.02375,0.035 2.4125,3.4825 8.17625,5.7875 0.64125,0.25625 0.95375,0.98375 0.6975,1.625 -0.195,0.48875 -0.66625,0.78625 -1.16125,0.78625"
     inkscape:connector-curvature="0" /><path
     id="path34"
     style="fill:#000000;fill-opacity:1;fill-rule:nonzero;stroke:none;stroke-width:1.25"
     d="m 7.500625,18.750625 c -0.49625,0 -0.965,-0.2975 -1.16125,-0.78625 -0.25625,-0.64125 0.055,-1.36875 0.69625,-1.625 5.765,-2.305 8.15375,-5.7525 8.1775,-5.7875 0.385,-0.57 1.16125,-0.72125 1.73375,-0.3375 0.57,0.385 0.725,1.15625 0.34375,1.72875 -0.11125,0.1675 -2.79125,4.10375 -9.32625,6.7175 -0.1525,0.06125 -0.30875,0.09 -0.46375,0.09"
     inkscape:connector-curvature="0" /><path
     id="path38"
     style="fill:#000000;fill-opacity:1;fill-rule:nonzero;stroke:none;stroke-width:1.25"
     d="m 10,43.75 5,-0.0575 V 20.00125 H 10 Z M 30,20 h 5 v 23.75 l -5,-0.0575 z"
     inkscape:connector-curvature="0" /><path
     id="path42"
     style="fill:#000000;fill-opacity:1;fill-rule:nonzero;stroke:none;stroke-width:1.25"
     d="m 18.74875,22.5 c -0.1875,0 -0.37875,-0.0425 -0.5575,-0.13125 -4.39,-2.19625 -8.83875,-0.02375 -8.8825,0 -0.61875,0.31 -1.3675,0.0575 -1.6775,-0.56 -0.30875,-0.6175 -0.0575,-1.36875 0.56,-1.6775 0.2275,-0.11125 5.6225,-2.745 11.1175,0 0.6175,0.30875 0.86875,1.06 0.56,1.6775 -0.22,0.43875 -0.66125,0.69125 -1.12,0.69125"
     inkscape:connector-curvature="0" /><path
     id="path46"
     style="fill:#000000;fill-opacity:1;fill-rule:nonzero;stroke:none;stroke-width:1.25"
     d="m 36.24875,22.5 c -0.1875,0 -0.37875,-0.0425 -0.5575,-0.13125 -4.39125,-2.195 -8.83875,-0.02375 -8.8825,0 -0.6175,0.30875 -1.3675,0.05875 -1.6775,-0.56 -0.30875,-0.6175 -0.0575,-1.36875 0.56,-1.6775 0.22625,-0.11125 5.62625,-2.745 11.1175,0 0.6175,0.30875 0.86875,1.06 0.55875,1.6775 C 37.14875,22.2475 36.7075,22.5 36.24875,22.5"
     inkscape:connector-curvature="0" /><path
     id="path50"
     style="fill:#000000;fill-opacity:1;fill-rule:nonzero;stroke:none;stroke-width:1.25"
     d="M 45,42.5 C 45,43.88 34.92625,45 22.5,45 10.07375,45 0,43.88 0,42.5 0,41.12 10.07375,40 22.5,40 34.92625,40 45,41.12 45,42.5"
     inkscape:connector-curvature="0" /><path
     id="path54"
     style="fill:#ffffff;fill-opacity:1;fill-rule:nonzero;stroke:none;stroke-width:1.25"
     d="m 26.25,33.75 c 0,2.07125 -1.67875,2.5 -3.75,2.5 -2.07125,0 -3.75,-0.42875 -3.75,-2.5 0,-2.07125 1.67875,-2.5 3.75,-2.5 2.07125,0 3.75,0.42875 3.75,2.5"
     inkscape:connector-curvature="0" /></svg>