<?xml version="1.0" encoding="UTF-8" standalone="no"?>
<svg
   xmlns:dc="http://purl.org/dc/elements/1.1/"
   xmlns:cc="http://creativecommons.org/ns#"
   xmlns:rdf="http://www.w3.org/1999/02/22-rdf-syntax-ns#"
   xmlns:svg="http://www.w3.org/2000/svg"
   xmlns="http://www.w3.org/2000/svg"
   xmlns:sodipodi="http://sodipodi.sourceforge.net/DTD/sodipodi-0.dtd"
   xmlns:inkscape="http://www.inkscape.org/namespaces/inkscape"
   viewBox="0 0 45 45"
   style="enable-background:new 0 0 45 45;"
   xml:space="preserve"
   version="1.1"
   id="svg2"
   sodipodi:docname="1f62a.svg"
   inkscape:version="0.92.2 5c3e80d, 2017-08-06"><sodipodi:namedview
     pagecolor="#ffffff"
     bordercolor="#666666"
     borderopacity="1"
     objecttolerance="10"
     gridtolerance="10"
     guidetolerance="10"
     inkscape:pageopacity="0"
     inkscape:pageshadow="2"
     inkscape:window-width="1418"
     inkscape:window-height="1050"
     id="namedview24"
     showgrid="false"
     inkscape:zoom="3.7083822"
     inkscape:cx="-5.2841497"
     inkscape:cy="48.19038"
     inkscape:window-x="0"
     inkscape:window-y="28"
     inkscape:window-maximized="0"
     inkscape:current-layer="svg2" /><metadata
     id="metadata8"><rdf:RDF><cc:Work
         rdf:about=""><dc:format>image/svg+xml</dc:format><dc:type
           rdf:resource="http://purl.org/dc/dcmitype/StillImage" /></cc:Work></rdf:RDF></metadata><defs
     id="defs6"><clipPath
       id="clipPath16"
       clipPathUnits="userSpaceOnUse"><path
         id="path18"
         d="M 0,36 36,36 36,0 0,0 0,36 Z" /></clipPath></defs><path
     style="color:#000000;font-style:normal;font-variant:normal;font-weight:normal;font-stretch:normal;font-size:medium;line-height:normal;font-family:sans-serif;font-variant-ligatures:normal;font-variant-position:normal;font-variant-caps:normal;font-variant-numeric:normal;font-variant-alternates:normal;font-feature-settings:normal;text-indent:0;text-align:start;text-decoration:none;text-decoration-line:none;text-decoration-style:solid;text-decoration-color:#000000;letter-spacing:normal;word-spacing:normal;text-transform:none;writing-mode:lr-tb;direction:ltr;text-orientation:mixed;dominant-baseline:auto;baseline-shift:baseline;text-anchor:start;white-space:normal;shape-padding:0;clip-rule:nonzero;display:inline;overflow:visible;visibility:visible;opacity:1;isolation:auto;mix-blend-mode:normal;color-interpolation:sRGB;color-interpolation-filters:linearRGB;solid-color:#000000;solid-opacity:1;vector-effect:none;fill:#000000;fill-opacity:1;fill-rule:nonzero;stroke:none;stroke-width:2;stroke-linecap:butt;stroke-linejoin:miter;stroke-miterlimit:4;stroke-dasharray:none;stroke-dashoffset:0;stroke-opacity:1;color-rendering:auto;image-rendering:auto;shape-rendering:auto;text-rendering:auto;enable-background:accumulate"
     clip-path="none"
     d="M 22.5 0 C 10.07375 0 0 10.07375 0 22.5 C 0 34.92625 10.07375 45 22.5 45 C 34.92625 45 45 34.92625 45 22.5 C 45 10.07375 34.92625 0 22.5 0 z M 22.5 1 C 34.385795 1 44 10.614205 44 22.5 C 44 34.385795 34.385795 44 22.5 44 C 10.614205 44 1 34.385795 1 22.5 C 1 10.614205 10.614205 1 22.5 1 z "
     id="path22" /><path
     id="path26"
     style="fill:#000000;fill-opacity:1;fill-rule:nonzero;stroke:none;stroke-width:1.25"
     d="m 29.35675,36.098625 c -0.015,-0.055 -1.4325,-5.47375 -6.85625,-5.47375 -5.42625,0 -6.84375,5.41875 -6.85625,5.47375 -0.06625,0.26625 0.05375,0.53875 0.28875,0.68 0.235,0.14 0.54125,0.1075 0.745,-0.075 0.0125,-0.0087 1.2675,-1.07875 5.8225,-1.07875 4.48625,0 5.77125,1.0375 5.82,1.07875 0.11875,0.1125 0.27375,0.17125 0.43,0.17125 0.105,0 0.21125,-0.02625 0.3075,-0.08 0.245,-0.14 0.3675,-0.42375 0.29875,-0.69625"
     inkscape:connector-curvature="0" /><path
     id="path30"
     style="fill:#000000;fill-opacity:1;fill-rule:nonzero;stroke:none;stroke-width:1.25"
     d="m 19.62825,21.997625 c -0.01625,0.01125 -1.5775,1.1275 -4.62875,1.1275 -3.0525,0 -4.6125,-1.11625 -4.62375,-1.125 -0.24375,-0.18125 -0.58375,-0.165 -0.805,0.04625 -0.22125,0.20875 -0.26,0.5475 -0.09125,0.8 0.07625,0.11375 1.89375,2.77875 5.52,2.77875 3.62625,0 5.445,-2.665 5.52,-2.77875 0.16875,-0.25125 0.13,-0.58625 -0.08875,-0.79625 -0.22,-0.2125 -0.56,-0.23125 -0.8025,-0.0525"
     inkscape:connector-curvature="0" /><path
     id="path34"
     style="fill:#000000;fill-opacity:1;fill-rule:nonzero;stroke:none;stroke-width:1.25"
     d="m 35.430875,22.0495 c -0.21875,-0.21125 -0.55875,-0.2325 -0.80375,-0.0525 -0.01375,0.0125 -1.57625,1.1275 -4.6275,1.1275 -3.05125,0 -4.6125,-1.115 -4.625,-1.125 -0.24125,-0.18125 -0.5825,-0.16375 -0.80375,0.04625 -0.22125,0.21 -0.25875,0.5475 -0.09125,0.80125 0.07625,0.11375 1.89375,2.7775 5.52,2.7775 3.62625,0 5.445,-2.66375 5.52,-2.7775 0.16875,-0.2525 0.13,-0.5875 -0.08875,-0.7975"
     inkscape:connector-curvature="0" /><path
     id="path38"
     style="fill:#000000;fill-opacity:1;fill-rule:nonzero;stroke:none;stroke-width:1.25"
     d="M 38.75125,20 C 38.37,20 37.995,19.8275 37.75,19.5 34.45,15.09875 30.17375,15.00125 29.9925,15 29.305,14.9925 28.75,14.43 28.75375,13.74375 28.7575,13.055 29.3125,12.5 30,12.5 c 0.23,0 5.67125,0.0625 9.75,5.5 0.415,0.5525 0.3025,1.33625 -0.25,1.75 C 39.275,19.91875 39.0125,20 38.75125,20"
     inkscape:connector-curvature="0" /><path
     id="path42"
     style="fill:#000000;fill-opacity:1;fill-rule:nonzero;stroke:none;stroke-width:1.25"
     d="M 6.24875,20 C 5.98875,20 5.725,19.91875 5.5,19.75 4.9475,19.33625 4.83625,18.5525 5.25,18 9.3275,12.5625 14.77,12.5 15,12.5 c 0.69,0 1.25,0.56 1.25,1.25 0,0.68875 -0.55625,1.2475 -1.245,1.25 -0.19375,0.0025 -4.46,0.1075 -7.755,4.5 C 7.00375,19.8275 6.62875,20 6.24875,20"
     inkscape:connector-curvature="0" /><path
     id="path46"
     style="fill:#000000;fill-opacity:1;fill-rule:nonzero;stroke:none;stroke-width:1.25"
     d="m 28.75,28.75 c 7.76375,0 16.25,5 16.25,11.25 0,5 -3.75,5 -3.75,5 -10,0 -1.25,-11.25 -12.5,-16.25"
     inkscape:connector-curvature="0" /></svg>