<?xml version="1.0" encoding="UTF-8" standalone="no"?>
<svg
   xmlns:dc="http://purl.org/dc/elements/1.1/"
   xmlns:cc="http://creativecommons.org/ns#"
   xmlns:rdf="http://www.w3.org/1999/02/22-rdf-syntax-ns#"
   xmlns:svg="http://www.w3.org/2000/svg"
   xmlns="http://www.w3.org/2000/svg"
   xmlns:sodipodi="http://sodipodi.sourceforge.net/DTD/sodipodi-0.dtd"
   xmlns:inkscape="http://www.inkscape.org/namespaces/inkscape"
   viewBox="0 0 45 45"
   style="enable-background:new 0 0 45 45;"
   xml:space="preserve"
   version="1.1"
   id="svg2"
   sodipodi:docname="1f624.svg"
   inkscape:version="0.92.2 5c3e80d, 2017-08-06"><sodipodi:namedview
     pagecolor="#ffffff"
     bordercolor="#666666"
     borderopacity="1"
     objecttolerance="10"
     gridtolerance="10"
     guidetolerance="10"
     inkscape:pageopacity="0"
     inkscape:pageshadow="2"
     inkscape:window-width="1418"
     inkscape:window-height="1050"
     id="namedview30"
     showgrid="false"
     inkscape:zoom="7.4167644"
     inkscape:cx="1.2592165"
     inkscape:cy="52.482624"
     inkscape:window-x="0"
     inkscape:window-y="28"
     inkscape:window-maximized="0"
     inkscape:current-layer="svg2" /><metadata
     id="metadata8"><rdf:RDF><cc:Work
         rdf:about=""><dc:format>image/svg+xml</dc:format><dc:type
           rdf:resource="http://purl.org/dc/dcmitype/StillImage" /></cc:Work></rdf:RDF></metadata><defs
     id="defs6"><clipPath
       id="clipPath16"
       clipPathUnits="userSpaceOnUse"><path
         id="path18"
         d="M 0,36 36,36 36,0 0,0 0,36 Z" /></clipPath><clipPath
       clipPathUnits="userSpaceOnUse"
       id="clipPath1009"><path
         id="path1011"
         style="fill:#f5f8fa;fill-opacity:1;fill-rule:nonzero;stroke:none;stroke-width:2;stroke-miterlimit:4;stroke-dasharray:none;stroke-opacity:1"
         d="m 19.238875,25.100125 c -0.56625,-0.24375 -1.22375,-0.03375 -1.54875,0.4875 l -6.25,10 c -0.24125,0.385 -0.25375,0.87125 -0.03375,1.2675 0.22125,0.39875 0.63875,0.645 1.09375,0.645 h 3.75 c 0.57375,0 1.07375,-0.39125 1.2125,-0.9475 l 2.5,-10 c 0.14875,-0.595 -0.1575,-1.2125 -0.72375,-1.4525"
         inkscape:connector-curvature="0" /></clipPath><clipPath
       clipPathUnits="userSpaceOnUse"
       id="clipPath1013"><path
         id="path1015"
         style="fill:#f5f8fa;fill-opacity:1;fill-rule:nonzero;stroke:none;stroke-width:2;stroke-miterlimit:4;stroke-dasharray:none;stroke-opacity:1"
         d="m 33.559625,35.587125 -6.25,-10 c -0.3275,-0.5225 -0.98375,-0.73 -1.5475,-0.4875 -0.56625,0.24125 -0.87375,0.8575 -0.72375,1.4525 l 2.5,10 c 0.13875,0.5575 0.6375,0.9475 1.21125,0.9475 h 3.75 c 0.455,0 0.8725,-0.24625 1.09375,-0.64375 0.22,-0.3975 0.2075,-0.8825 -0.03375,-1.26875"
         inkscape:connector-curvature="0" /></clipPath><clipPath
       clipPathUnits="userSpaceOnUse"
       id="clipPath1111"><path
         id="path1113"
         style="fill:#e1e8ed;fill-opacity:1;fill-rule:nonzero;stroke:none;stroke-width:1.25"
         d="m 13.75,35 c -0.6775,0 -1.32,0.1375 -1.90875,0.38125 C 11.165,34.3975 10.03375,33.75 8.75,33.75 6.68,33.75 5,35.43 5,37.5 5,37.57625 5.0175,37.6475 5.0225,37.7225 3.5575,38.2325 2.5,39.61 2.5,41.25 2.5,43.32125 4.17875,45 6.25,45 7.7525,45 9.03875,44.11125 9.63625,42.83625 10.54,44.14125 12.0425,45 13.75,45 c 2.76125,0 5,-2.23875 5,-5 0,-2.76125 -2.23875,-5 -5,-5"
         inkscape:connector-curvature="0" /></clipPath><clipPath
       clipPathUnits="userSpaceOnUse"
       id="clipPath1115"><path
         id="path1117"
         style="fill:#e1e8ed;fill-opacity:1;fill-rule:nonzero;stroke:none;stroke-width:1.25"
         d="m 39.978,37.722125 c 0.0037,-0.075 0.0225,-0.14625 0.0225,-0.2225 0,-2.07 -1.68,-3.75 -3.75,-3.75 -1.285,0 -2.415,0.6475 -3.09125,1.63125 -0.58875,-0.2425 -1.2325,-0.38125 -1.90875,-0.38125 -2.76125,0 -5,2.23875 -5,5 0,2.76125 2.23875,5 5,5 1.70625,0 3.21,-0.8575 4.1125,-2.16375 0.59875,1.275 1.88375,2.16375 3.3875,2.16375 2.07125,0 3.75,-1.67875 3.75,-3.75 0,-1.63875 -1.0575,-3.0175 -2.5225,-3.5275"
         inkscape:connector-curvature="0" /></clipPath></defs><path
     style="color:#000000;font-style:normal;font-variant:normal;font-weight:normal;font-stretch:normal;font-size:medium;line-height:normal;font-family:sans-serif;font-variant-ligatures:normal;font-variant-position:normal;font-variant-caps:normal;font-variant-numeric:normal;font-variant-alternates:normal;font-feature-settings:normal;text-indent:0;text-align:start;text-decoration:none;text-decoration-line:none;text-decoration-style:solid;text-decoration-color:#000000;letter-spacing:normal;word-spacing:normal;text-transform:none;writing-mode:lr-tb;direction:ltr;text-orientation:mixed;dominant-baseline:auto;baseline-shift:baseline;text-anchor:start;white-space:normal;shape-padding:0;clip-rule:nonzero;display:inline;overflow:visible;visibility:visible;opacity:1;isolation:auto;mix-blend-mode:normal;color-interpolation:sRGB;color-interpolation-filters:linearRGB;solid-color:#000000;solid-opacity:1;vector-effect:none;fill:#000000;fill-opacity:1;fill-rule:nonzero;stroke:none;stroke-width:2;stroke-linecap:butt;stroke-linejoin:miter;stroke-miterlimit:4;stroke-dasharray:none;stroke-dashoffset:0;stroke-opacity:1;color-rendering:auto;image-rendering:auto;shape-rendering:auto;text-rendering:auto;enable-background:accumulate"
     clip-path="none"
     d="M 22.5 0 C 10.07375 0 0 10.07375 0 22.5 C 0 34.92625 10.07375 45 22.5 45 C 34.92625 45 45 34.92625 45 22.5 C 45 10.07375 34.92625 0 22.5 0 z M 22.5 1 C 34.385795 1 44 10.614205 44 22.5 C 44 34.385795 34.385795 44 22.5 44 C 10.614205 44 1 34.385795 1 22.5 C 1 10.614205 10.614205 1 22.5 1 z "
     id="path22" /><path
     id="path26"
     style="fill:#000000;fill-opacity:1;fill-rule:nonzero;stroke:none;stroke-width:1.25"
     d="M 25.00125,16.25 C 24.9325,16.25 24.865,16.245 24.795,16.2325 24.11375,16.11875 23.65375,15.475 23.7675,14.79375 24.25875,11.83875 26.98,6.25 33.75,6.25 34.44125,6.25 35,6.81 35,7.5 c 0,0.69 -0.55875,1.25 -1.25,1.25 -6.36875,0 -7.47375,6.1925 -7.5175,6.45625 -0.10125,0.61 -0.63125,1.04375 -1.23125,1.04375"
     inkscape:connector-curvature="0" /><path
     id="path30"
     style="fill:#000000;fill-opacity:1;fill-rule:nonzero;stroke:none;stroke-width:1.25"
     d="M 19.99875,16.25 C 19.4,16.25 18.87125,15.81875 18.7675,15.20875 18.7225,14.945 17.57375,8.75 11.25,8.75 10.56,8.75 10,8.19 10,7.5 c 0,-0.69 0.56,-1.25 1.25,-1.25 6.77,0 9.49,5.58875 9.9825,8.54375 0.11375,0.68125 -0.34625,1.325 -1.02625,1.43875 -0.07,0.0125 -0.14,0.0175 -0.2075,0.0175"
     inkscape:connector-curvature="0" /><path
     id="path34"
     style="fill:#000000;fill-opacity:1;fill-rule:nonzero;stroke:none;stroke-width:1.25"
     d="m 14.262125,22.365125 c -2.91875,0 -4.8375,-1.24625 -4.955,-1.325 -0.575,-0.3825 -0.73,-1.15875 -0.3475,-1.73375 0.3825,-0.575 1.15875,-0.73125 1.73375,-0.34625 0.12375,0.08 3.2525,2.045 7.4975,-0.07875 0.61875,-0.30875 1.36875,-0.0575 1.6775,0.56 0.30875,0.6175 0.05875,1.3675 -0.55875,1.67625 -1.8675,0.93375 -3.58375,1.2475 -5.0475,1.2475"
     inkscape:connector-curvature="0" /><path
     id="path38"
     style="fill:#000000;fill-opacity:1;fill-rule:nonzero;stroke:none;stroke-width:1.25"
     d="m 30.7385,22.365125 c -1.465,0 -3.18125,-0.31375 -5.0475,-1.2475 -0.6175,-0.30875 -0.8675,-1.05875 -0.55875,-1.67625 0.31,-0.61875 1.05875,-0.86875 1.67625,-0.56 4.25125,2.125 7.375,0.1575 7.505,0.07375 0.575,-0.3725 1.35125,-0.2125 1.7275,0.36125 0.3775,0.57375 0.22375,1.3425 -0.3475,1.72375 -0.11875,0.07875 -2.0375,1.325 -4.955,1.325"
     inkscape:connector-curvature="0" /><path
     id="path42"
     style="fill:#000000;fill-opacity:1;fill-rule:nonzero;stroke:none;stroke-width:1.25"
     d="M 32.50125,33.75 C 32.12,33.75 31.745,33.5775 31.5,33.25 c -0.03125,-0.0425 -3.4775,-4.5 -9,-4.5 -5.5225,0 -8.9675,4.4575 -9.0025,4.5025 -0.41625,0.5475 -1.20125,0.6575 -1.75,0.24375 -0.55,-0.415 -0.66125,-1.195 -0.2475,-1.74625 0.16875,-0.22375 4.2025,-5.5 11,-5.5 6.79625,0 10.83125,5.27625 11,5.5 0.415,0.5525 0.3025,1.33625 -0.25,1.75 -0.225,0.16875 -0.4875,0.25 -0.74875,0.25"
     inkscape:connector-curvature="0" /><path
     id="path46"
     style="fill:#f5f8fa;fill-opacity:1;fill-rule:nonzero;stroke:#000000;stroke-width:2;stroke-opacity:1;stroke-miterlimit:4;stroke-dasharray:none"
     d="m 19.238875,25.100125 c -0.56625,-0.24375 -1.22375,-0.03375 -1.54875,0.4875 l -6.25,10 c -0.24125,0.385 -0.25375,0.87125 -0.03375,1.2675 0.22125,0.39875 0.63875,0.645 1.09375,0.645 h 3.75 c 0.57375,0 1.07375,-0.39125 1.2125,-0.9475 l 2.5,-10 c 0.14875,-0.595 -0.1575,-1.2125 -0.72375,-1.4525"
     inkscape:connector-curvature="0"
     clip-path="url(#clipPath1009)" /><path
     id="path50"
     style="fill:#f5f8fa;fill-opacity:1;fill-rule:nonzero;stroke:#000000;stroke-width:2;stroke-opacity:1;stroke-miterlimit:4;stroke-dasharray:none"
     d="m 33.559625,35.587125 -6.25,-10 c -0.3275,-0.5225 -0.98375,-0.73 -1.5475,-0.4875 -0.56625,0.24125 -0.87375,0.8575 -0.72375,1.4525 l 2.5,10 c 0.13875,0.5575 0.6375,0.9475 1.21125,0.9475 h 3.75 c 0.455,0 0.8725,-0.24625 1.09375,-0.64375 0.22,-0.3975 0.2075,-0.8825 -0.03375,-1.26875"
     inkscape:connector-curvature="0"
     clip-path="url(#clipPath1013)" /><path
     id="path54"
     style="fill:#ffffff;fill-opacity:1;fill-rule:nonzero;stroke:#000000;stroke-width:2;stroke-opacity:1;stroke-miterlimit:4;stroke-dasharray:none"
     d="m 40.0005,37.499625 c 0,-2.07 -1.68,-3.75 -3.75,-3.75 -1.285,0 -2.415,0.6475 -3.09125,1.63125 -0.58875,-0.2425 -1.2325,-0.38125 -1.90875,-0.38125 -2.76125,0 -5,2.23875 -5,5 0,2.76125 2.23875,5 5,5 1.70625,0 3.21,-0.8575 4.1125,-2.16375 0.59875,1.275 1.88375,2.16375 3.3875,2.16375 2.07125,0 3.75,-1.67875 3.75,-3.75 0,-1.63875 -1.0575,-3.0175 -2.5225,-3.5275 0.0037,-0.075 0.0225,-0.14625 0.0225,-0.2225 z"
     inkscape:connector-curvature="0"
     sodipodi:nodetypes="sscssscsscs"
     clip-path="url(#clipPath1115)" /><path
     id="path58"
     style="fill:#ffffff;fill-opacity:1;fill-rule:nonzero;stroke:#000000;stroke-width:2;stroke-opacity:1;stroke-miterlimit:4;stroke-dasharray:none"
     d="m 13.75,35 c -0.6775,0 -1.32,0.1375 -1.90875,0.38125 C 11.165,34.3975 10.03375,33.75 8.75,33.75 6.68,33.75 5,35.43 5,37.5 5,37.57625 5.0175,37.6475 5.0225,37.7225 3.5575,38.2325 2.5,39.61 2.5,41.25 2.5,43.32125 4.17875,45 6.25,45 7.7525,45 9.03875,44.11125 9.63625,42.83625 10.54,44.14125 12.0425,45 13.75,45 c 2.76125,0 5,-2.23875 5,-5 0,-2.76125 -2.23875,-5 -5,-5"
     inkscape:connector-curvature="0"
     clip-path="url(#clipPath1111)" /></svg>