<?xml version="1.0" encoding="UTF-8" standalone="no"?>
<svg
   xmlns:dc="http://purl.org/dc/elements/1.1/"
   xmlns:cc="http://creativecommons.org/ns#"
   xmlns:rdf="http://www.w3.org/1999/02/22-rdf-syntax-ns#"
   xmlns:svg="http://www.w3.org/2000/svg"
   xmlns="http://www.w3.org/2000/svg"
   xmlns:sodipodi="http://sodipodi.sourceforge.net/DTD/sodipodi-0.dtd"
   xmlns:inkscape="http://www.inkscape.org/namespaces/inkscape"
   viewBox="0 0 45 45"
   style="enable-background:new 0 0 45 45;"
   xml:space="preserve"
   version="1.1"
   id="svg2"
   sodipodi:docname="1f625.svg"
   inkscape:version="0.92.2 5c3e80d, 2017-08-06"><sodipodi:namedview
     pagecolor="#ffffff"
     bordercolor="#666666"
     borderopacity="1"
     objecttolerance="10"
     gridtolerance="10"
     guidetolerance="10"
     inkscape:pageopacity="0"
     inkscape:pageshadow="2"
     inkscape:window-width="1418"
     inkscape:window-height="1050"
     id="namedview24"
     showgrid="false"
     inkscape:zoom="5.2444444"
     inkscape:cx="-11.399173"
     inkscape:cy="17.473199"
     inkscape:window-x="0"
     inkscape:window-y="28"
     inkscape:window-maximized="0"
     inkscape:current-layer="svg2" /><metadata
     id="metadata8"><rdf:RDF><cc:Work
         rdf:about=""><dc:format>image/svg+xml</dc:format><dc:type
           rdf:resource="http://purl.org/dc/dcmitype/StillImage" /></cc:Work></rdf:RDF></metadata><defs
     id="defs6"><clipPath
       id="clipPath16"
       clipPathUnits="userSpaceOnUse"><path
         id="path18"
         d="M 0,36 36,36 36,0 0,0 0,36 Z" /></clipPath></defs><path
     style="color:#000000;font-style:normal;font-variant:normal;font-weight:normal;font-stretch:normal;font-size:medium;line-height:normal;font-family:sans-serif;font-variant-ligatures:normal;font-variant-position:normal;font-variant-caps:normal;font-variant-numeric:normal;font-variant-alternates:normal;font-feature-settings:normal;text-indent:0;text-align:start;text-decoration:none;text-decoration-line:none;text-decoration-style:solid;text-decoration-color:#000000;letter-spacing:normal;word-spacing:normal;text-transform:none;writing-mode:lr-tb;direction:ltr;text-orientation:mixed;dominant-baseline:auto;baseline-shift:baseline;text-anchor:start;white-space:normal;shape-padding:0;clip-rule:nonzero;display:inline;overflow:visible;visibility:visible;opacity:1;isolation:auto;mix-blend-mode:normal;color-interpolation:sRGB;color-interpolation-filters:linearRGB;solid-color:#000000;solid-opacity:1;vector-effect:none;fill:#000000;fill-opacity:1;fill-rule:nonzero;stroke:none;stroke-width:2;stroke-linecap:butt;stroke-linejoin:miter;stroke-miterlimit:4;stroke-dasharray:none;stroke-dashoffset:0;stroke-opacity:1;color-rendering:auto;image-rendering:auto;shape-rendering:auto;text-rendering:auto;enable-background:accumulate"
     clip-path="none"
     d="M 22.5 0 C 10.075 0 0 10.075 0 22.5 C 0 34.92625 10.075 45 22.5 45 C 34.92625 45 45 34.92625 45 22.5 C 45 10.075 34.92625 0 22.5 0 z M 22.5 1 C 34.385728 1 44 10.61551 44 22.5 C 44 34.385795 34.385795 44 22.5 44 C 10.61551 44 1 34.385728 1 22.5 C 1 10.615577 10.615577 1 22.5 1 z "
     id="path22" /><path
     id="path26"
     style="fill:#000000;fill-opacity:1;fill-rule:nonzero;stroke:none;stroke-width:1.25"
     d="m 17.5,20.6255 c 0,2.4175 -1.39875,4.375 -3.125,4.375 -1.72625,0 -3.125,-1.9575 -3.125,-4.375 0,-2.41625 1.39875,-4.375 3.125,-4.375 1.72625,0 3.125,1.95875 3.125,4.375"
     inkscape:connector-curvature="0" /><path
     id="path30"
     style="fill:#000000;fill-opacity:1;fill-rule:nonzero;stroke:none;stroke-width:1.25"
     d="m 33.75,20.6255 c 0,2.4175 -1.39875,4.375 -3.125,4.375 -1.72625,0 -3.125,-1.9575 -3.125,-4.375 0,-2.41625 1.39875,-4.375 3.125,-4.375 1.72625,0 3.125,1.95875 3.125,4.375"
     inkscape:connector-curvature="0" /><path
     id="path34"
     style="fill:#000000;fill-opacity:1;fill-rule:nonzero;stroke:none;stroke-width:1.25"
     d="m 29.35675,34.849125 c -0.015,-0.055 -1.4325,-5.47375 -6.85625,-5.47375 -5.42625,0 -6.84375,5.41875 -6.85625,5.47375 -0.06625,0.26625 0.05375,0.53875 0.28875,0.68 0.235,0.14 0.54125,0.1075 0.745,-0.075 0.0125,-0.0087 1.2675,-1.07875 5.8225,-1.07875 4.48625,0 5.77125,1.0375 5.82,1.07875 0.11875,0.1125 0.27375,0.17125 0.43,0.17125 0.105,0 0.21125,-0.02625 0.3075,-0.08 0.245,-0.14 0.3675,-0.42375 0.29875,-0.69625"
     inkscape:connector-curvature="0" /><path
     id="path38"
     style="fill:#000000;fill-opacity:1;fill-rule:nonzero;stroke:none;stroke-width:1.25"
     d="m 12.5,37.5 c 0,3.4525 -2.7975,6.25 -6.25,6.25 C 2.7975,43.75 0,40.9525 0,37.5 0,34.0475 5,25 6.25,25 7.5,25 12.5,34.0475 12.5,37.5"
     inkscape:connector-curvature="0" /><path
     id="path42"
     style="fill:#000000;fill-opacity:1;fill-rule:nonzero;stroke:none;stroke-width:1.25"
     d="m 37.5,16.2505 c -6.9425,0 -9.7525,-5.45875 -9.86875,-5.69125 -0.30875,-0.6175 -0.0575,-1.3675 0.56,-1.6775 0.615,-0.3075 1.365,-0.05875 1.675,0.555 0.0925,0.18125 2.275,4.31375 7.63375,4.31375 0.69125,0 1.25,0.56 1.25,1.25 0,0.69 -0.55875,1.25 -1.25,1.25"
     inkscape:connector-curvature="0" /><path
     id="path46"
     style="fill:#000000;fill-opacity:1;fill-rule:nonzero;stroke:none;stroke-width:1.25"
     d="m 7.5,16.2505 c -0.69,0 -1.25,-0.56 -1.25,-1.25 0,-0.69 0.56,-1.25 1.25,-1.25 6.35375,0 7.495,-3.9 7.54125,-4.06625 0.18125,-0.66 0.8625,-1.06 1.52375,-0.88625 0.6625,0.17375 1.06375,0.84125 0.8975,1.50625 C 17.40125,10.54675 15.88,16.2505 7.5,16.2505"
     inkscape:connector-curvature="0" /></svg>