<?xml version="1.0" encoding="UTF-8" standalone="no"?>
<svg
   xmlns:dc="http://purl.org/dc/elements/1.1/"
   xmlns:cc="http://creativecommons.org/ns#"
   xmlns:rdf="http://www.w3.org/1999/02/22-rdf-syntax-ns#"
   xmlns:svg="http://www.w3.org/2000/svg"
   xmlns="http://www.w3.org/2000/svg"
   xmlns:sodipodi="http://sodipodi.sourceforge.net/DTD/sodipodi-0.dtd"
   xmlns:inkscape="http://www.inkscape.org/namespaces/inkscape"
   viewBox="0 0 45 45"
   style="enable-background:new 0 0 45 45;"
   xml:space="preserve"
   version="1.1"
   id="svg2"
   sodipodi:docname="1f62b.svg"
   inkscape:version="0.92.2 5c3e80d, 2017-08-06"><sodipodi:namedview
     pagecolor="#ffffff"
     bordercolor="#666666"
     borderopacity="1"
     objecttolerance="10"
     gridtolerance="10"
     guidetolerance="10"
     inkscape:pageopacity="0"
     inkscape:pageshadow="2"
     inkscape:window-width="1418"
     inkscape:window-height="1050"
     id="namedview24"
     showgrid="false"
     inkscape:zoom="7.4167645"
     inkscape:cx="-8.2889083"
     inkscape:cy="45.748337"
     inkscape:window-x="0"
     inkscape:window-y="28"
     inkscape:window-maximized="0"
     inkscape:current-layer="svg2" /><metadata
     id="metadata8"><rdf:RDF><cc:Work
         rdf:about=""><dc:format>image/svg+xml</dc:format><dc:type
           rdf:resource="http://purl.org/dc/dcmitype/StillImage" /></cc:Work></rdf:RDF></metadata><defs
     id="defs6"><clipPath
       id="clipPath16"
       clipPathUnits="userSpaceOnUse"><path
         id="path18"
         d="M 0,36 36,36 36,0 0,0 0,36 Z" /></clipPath></defs><path
     style="color:#000000;font-style:normal;font-variant:normal;font-weight:normal;font-stretch:normal;font-size:medium;line-height:normal;font-family:sans-serif;font-variant-ligatures:normal;font-variant-position:normal;font-variant-caps:normal;font-variant-numeric:normal;font-variant-alternates:normal;font-feature-settings:normal;text-indent:0;text-align:start;text-decoration:none;text-decoration-line:none;text-decoration-style:solid;text-decoration-color:#000000;letter-spacing:normal;word-spacing:normal;text-transform:none;writing-mode:lr-tb;direction:ltr;text-orientation:mixed;dominant-baseline:auto;baseline-shift:baseline;text-anchor:start;white-space:normal;shape-padding:0;clip-rule:nonzero;display:inline;overflow:visible;visibility:visible;opacity:1;isolation:auto;mix-blend-mode:normal;color-interpolation:sRGB;color-interpolation-filters:linearRGB;solid-color:#000000;solid-opacity:1;vector-effect:none;fill:#000000;fill-opacity:1;fill-rule:nonzero;stroke:none;stroke-width:2;stroke-linecap:butt;stroke-linejoin:miter;stroke-miterlimit:4;stroke-dasharray:none;stroke-dashoffset:0;stroke-opacity:1;color-rendering:auto;image-rendering:auto;shape-rendering:auto;text-rendering:auto;enable-background:accumulate"
     clip-path="none"
     d="M 22.5 0 C 10.07375 0 0 10.07375 0 22.5 C 0 34.92625 10.07375 45 22.5 45 C 34.92625 45 45 34.92625 45 22.5 C 45 10.07375 34.92625 0 22.5 0 z M 22.5 1 C 34.385795 1 44 10.614205 44 22.5 C 44 34.385795 34.385795 44 22.5 44 C 10.614205 44 1 34.385795 1 22.5 C 1 10.614205 10.614205 1 22.5 1 z "
     id="path22" /><path
     id="path26"
     style="fill:#000000;fill-opacity:1;fill-rule:nonzero;stroke:none;stroke-width:1.25"
     d="M 22.5,26.875 C 10.83375,26.875 9.39375,37.3175 9.38,37.4225 9.3525,37.635 9.4375,37.84625 9.60375,37.98375 9.71625,38.07625 9.8575,38.125 10,38.125 c 0.06625,0 0.1325,-0.01125 0.1975,-0.03125 0.07375,-0.025 7.46,-2.46875 12.3025,-2.46875 6.99375,0 12.18125,2.41625 12.2325,2.44 0.20125,0.09625 0.44875,0.075 0.63375,-0.05875 C 35.55,37.8725 35.64875,37.64875 35.62,37.4225 35.60625,37.3175 34.16625,26.875 22.5,26.875"
     inkscape:connector-curvature="0" /><path
     id="path30"
     style="fill:#000000;fill-opacity:1;fill-rule:nonzero;stroke:none;stroke-width:1.25"
     d="m 36.25,12.5 c -6.9425,0 -9.7525,-5.45875 -9.86875,-5.69125 -0.30875,-0.6175 -0.0575,-1.36875 0.56,-1.6775 0.61625,-0.30625 1.365,-0.05875 1.675,0.555 C 28.70875,5.8675 30.89125,10 36.25,10 c 0.69125,0 1.25,0.56 1.25,1.25 0,0.69 -0.55875,1.25 -1.25,1.25"
     inkscape:connector-curvature="0" /><path
     id="path34"
     style="fill:#000000;fill-opacity:1;fill-rule:nonzero;stroke:none;stroke-width:1.25"
     d="M 8.75,12.5 C 8.06,12.5 7.5,11.94 7.5,11.25 7.5,10.56 8.06,10 8.75,10 c 6.35375,0 7.495,-3.9 7.54125,-4.06625 0.18125,-0.66 0.865,-1.06 1.52375,-0.88625 0.6625,0.17375 1.06375,0.84125 0.8975,1.50625 C 18.65125,6.79625 17.13,12.5 8.75,12.5"
     inkscape:connector-curvature="0" /><path
     id="path38"
     style="fill:#ffffff;fill-opacity:1;fill-rule:nonzero;stroke:none;stroke-width:1.25"
     d="m 22.5,28.75 c 5,0 7.5,2.5 7.5,2.5 H 15 c 0,0 2.5,-2.5 7.5,-2.5"
     inkscape:connector-curvature="0" /><path
     id="path42"
     style="fill:#000000;fill-opacity:1;fill-rule:nonzero;stroke:none;stroke-width:1.25"
     d="m 7.50125,23.75 c -0.38,0 -0.755,-0.1725 -1.00125,-0.5 C 6.08625,22.6975 6.1975,21.91375 6.75,21.5 6.92875,21.36625 10.43875,18.7725 15.32,17.835 12.22625,16.28375 8.7925,16.25 8.74875,16.25 8.05875,16.24875 7.5,15.6875 7.50125,14.99875 7.50125,14.30875 8.06,13.75 8.75,13.75 c 0.27625,0 6.815,0.0475 10.88375,4.11625 0.3575,0.3575 0.465,0.895 0.27125,1.3625 C 19.71125,19.695 19.255,20 18.75,20 12.98375,20 8.29625,23.465 8.25,23.5 8.025,23.66875 7.76125,23.75 7.50125,23.75"
     inkscape:connector-curvature="0" /><path
     id="path46"
     style="fill:#000000;fill-opacity:1;fill-rule:nonzero;stroke:none;stroke-width:1.25"
     d="m 37.49875,23.74875 c -0.26,0 -0.5225,-0.08 -0.7475,-0.2475 C 36.70375,23.465 31.9875,20 26.25,20 c -0.505,0 -0.9625,-0.305 -1.155,-0.77125 -0.19375,-0.4675 -0.08625,-1.005 0.27125,-1.3625 C 29.43625,13.7975 35.97375,13.75 36.25,13.75 c 0.69,0 1.2475,0.55875 1.24875,1.24875 0.0012,0.68875 -0.5575,1.25 -1.24625,1.25125 -0.045,0 -3.47875,0.03375 -6.5725,1.585 4.88125,0.9375 8.39125,3.53125 8.57,3.665 0.55125,0.41375 0.66375,1.195 0.25125,1.74875 -0.24625,0.32625 -0.62125,0.5 -1.0025,0.5"
     inkscape:connector-curvature="0" /></svg>