<?xml version="1.0" encoding="UTF-8" standalone="no"?>
<svg
   xmlns:dc="http://purl.org/dc/elements/1.1/"
   xmlns:cc="http://creativecommons.org/ns#"
   xmlns:rdf="http://www.w3.org/1999/02/22-rdf-syntax-ns#"
   xmlns:svg="http://www.w3.org/2000/svg"
   xmlns="http://www.w3.org/2000/svg"
   xmlns:sodipodi="http://sodipodi.sourceforge.net/DTD/sodipodi-0.dtd"
   xmlns:inkscape="http://www.inkscape.org/namespaces/inkscape"
   viewBox="0 0 45 45"
   style="enable-background:new 0 0 45 45;"
   xml:space="preserve"
   version="1.1"
   id="svg2"
   sodipodi:docname="1f631.svg"
   inkscape:version="0.92.2 5c3e80d, 2017-08-06"><sodipodi:namedview
     pagecolor="#ffffff"
     bordercolor="#666666"
     borderopacity="1"
     objecttolerance="10"
     gridtolerance="10"
     guidetolerance="10"
     inkscape:pageopacity="0"
     inkscape:pageshadow="2"
     inkscape:window-width="1418"
     inkscape:window-height="1050"
     id="namedview24"
     showgrid="false"
     inkscape:zoom="11.313708"
     inkscape:cx="11.899324"
     inkscape:cy="6.0867862"
     inkscape:window-x="0"
     inkscape:window-y="28"
     inkscape:window-maximized="0"
     inkscape:current-layer="svg2" /><metadata
     id="metadata8"><rdf:RDF><cc:Work
         rdf:about=""><dc:format>image/svg+xml</dc:format><dc:type
           rdf:resource="http://purl.org/dc/dcmitype/StillImage" /></cc:Work></rdf:RDF></metadata><defs
     id="defs6"><clipPath
       id="clipPath16"
       clipPathUnits="userSpaceOnUse"><path
         id="path18"
         d="M 0,36 36,36 36,0 0,0 0,36 Z" /></clipPath></defs><path
     style="color:#000000;font-style:normal;font-variant:normal;font-weight:normal;font-stretch:normal;font-size:medium;line-height:normal;font-family:sans-serif;font-variant-ligatures:normal;font-variant-position:normal;font-variant-caps:normal;font-variant-numeric:normal;font-variant-alternates:normal;font-feature-settings:normal;text-indent:0;text-align:start;text-decoration:none;text-decoration-line:none;text-decoration-style:solid;text-decoration-color:#000000;letter-spacing:normal;word-spacing:normal;text-transform:none;writing-mode:lr-tb;direction:ltr;text-orientation:mixed;dominant-baseline:auto;baseline-shift:baseline;text-anchor:start;white-space:normal;shape-padding:0;clip-rule:nonzero;display:inline;overflow:visible;visibility:visible;opacity:1;isolation:auto;mix-blend-mode:normal;color-interpolation:sRGB;color-interpolation-filters:linearRGB;solid-color:#000000;solid-opacity:1;vector-effect:none;fill:#000000;fill-opacity:1;fill-rule:nonzero;stroke:none;stroke-width:2;stroke-linecap:butt;stroke-linejoin:miter;stroke-miterlimit:4;stroke-dasharray:none;stroke-dashoffset:0;stroke-opacity:1;color-rendering:auto;image-rendering:auto;shape-rendering:auto;text-rendering:auto;enable-background:accumulate"
     clip-path="none"
     d="M 22.5 0 C 10.075 0 0 10.075 0 22.5 L 0.31445312 23.978516 C 0.69320312 23.032266 1.5145313 22.501953 3.0507812 22.501953 C 8.3882812 22.501953 11.382266 33.133125 10.666016 41.609375 C 14.107266 43.745625 18.1525 45 22.5 45 C 26.84875 45 30.895391 43.745625 34.337891 41.609375 C 33.616641 33.100625 36.609922 22.5 41.951172 22.5 C 43.492422 22.5 44.315156 23.032266 44.691406 23.978516 L 45 22.5 C 45 10.075 34.92625 0 22.5 0 z M 22.5 1 C 34.195632 1 43.642592 10.324165 43.943359 21.945312 C 43.356759 21.678714 42.718821 21.5 41.951172 21.5 C 40.2851 21.5 38.814945 22.348704 37.666016 23.617188 C 36.517087 24.88567 35.623109 26.585257 34.929688 28.527344 C 33.617559 32.202261 33.098451 36.750969 33.355469 40.962891 C 30.156788 42.849648 26.479073 44 22.5 44 C 18.521413 44 14.844126 42.849936 11.646484 40.962891 C 11.900966 36.764702 11.382475 32.218747 10.070312 28.541016 C 9.3767809 26.597181 8.4822086 24.895976 7.3339844 23.625 C 6.1857601 22.354024 4.7171626 21.501953 3.0507812 21.501953 C 2.2823973 21.501953 1.6418727 21.678873 1.0546875 21.947266 C 1.3543671 10.325168 10.804923 1 22.5 1 z "
     id="path22" /><path
     style="fill:#000000;fill-opacity:1;fill-rule:nonzero;stroke:none;stroke-width:1.25"
     d="M 22.5 0 C 22.347436 0 22.196763 0.0086950525 22.044922 0.01171875 L 22.044922 13.761719 C 22.197261 13.759516 22.346921 13.75 22.5 13.75 C 22.653101 13.75 22.802718 13.759517 22.955078 13.761719 L 22.955078 0.01171875 C 22.803222 0.0086950525 22.65258 0 22.5 0 z M 20.226562 0.11328125 C 19.921311 0.1439154 19.619892 0.18579931 19.318359 0.22851562 L 19.318359 13.912109 C 19.618009 13.881381 19.923196 13.863885 20.226562 13.841797 L 20.226562 0.11328125 z M 24.773438 0.11328125 L 24.773438 13.841797 C 25.076466 13.863843 25.382325 13.881447 25.681641 13.912109 L 25.681641 0.22851562 C 25.380087 0.18579931 25.078713 0.1439154 24.773438 0.11328125 z M 17.5 0.56445312 C 17.195175 0.63368012 16.891783 0.70759379 16.591797 0.7890625 L 16.591797 14.324219 C 16.892388 14.265073 17.194508 14.210398 17.5 14.160156 L 17.5 0.56445312 z M 27.5 0.56445312 L 27.5 14.160156 C 27.805508 14.210383 28.107602 14.26509 28.408203 14.324219 L 28.408203 0.7890625 C 28.108014 0.70754956 27.805037 0.63370886 27.5 0.56445312 z M 14.773438 1.3613281 C 14.466252 1.4736561 14.164037 1.5955301 13.863281 1.7207031 L 13.863281 15.003906 C 14.165319 14.912749 14.464869 14.818096 14.773438 14.736328 L 14.773438 1.3613281 z M 30.226562 1.3613281 L 30.226562 14.736328 C 30.534682 14.817955 30.835115 14.910966 31.136719 15.001953 L 31.136719 1.7207031 C 30.835951 1.5955278 30.533764 1.473658 30.226562 1.3613281 z M 12.044922 2.578125 C 11.737585 2.7397688 11.435459 2.9087429 11.136719 3.0839844 L 11.136719 15.988281 C 11.436626 15.860711 11.736306 15.732871 12.044922 15.615234 L 12.044922 2.578125 z M 32.955078 2.578125 L 32.955078 15.615234 C 33.263707 15.732852 33.563366 15.860729 33.863281 15.988281 L 33.863281 3.0839844 C 33.564861 2.9089514 33.262077 2.7395901 32.955078 2.578125 z M 9.3183594 4.2714844 C 9.0087122 4.4958071 8.7056959 4.727367 8.4082031 4.9667969 L 8.4082031 17.351562 C 8.7064775 17.177469 9.0078148 17.006836 9.3183594 16.84375 L 9.3183594 4.2714844 z M 35.681641 4.2714844 L 35.681641 16.841797 C 35.991952 17.00474 36.29374 17.175673 36.591797 17.349609 L 36.591797 4.9648438 C 36.294712 4.7257959 35.990846 4.4954678 35.681641 4.2714844 z M 6.5917969 6.5878906 C 6.2776404 6.9019705 5.97687 7.2284229 5.6816406 7.5605469 L 5.6816406 19.238281 C 5.9753129 18.998451 6.2793016 18.765952 6.5917969 18.539062 L 6.5917969 6.5878906 z M 38.408203 6.5878906 L 38.408203 18.537109 C 38.72091 18.764141 39.024502 18.998286 39.318359 19.238281 L 39.318359 7.5605469 C 39.023144 7.2284229 38.722348 6.9019705 38.408203 6.5878906 z M 41.136719 9.890625 L 41.136719 20.933594 C 41.458313 21.278365 41.759763 21.633264 42.044922 21.996094 L 42.044922 11.359375 C 41.758834 10.858605 41.459229 10.366348 41.136719 9.890625 z M 3.8632812 9.8925781 C 3.5408924 10.368215 3.2410622 10.86066 2.9550781 11.361328 L 2.9550781 21.996094 C 3.2400837 21.633503 3.5418782 21.280112 3.8632812 20.935547 L 3.8632812 9.8925781 z M 1.1367188 15.439453 C 0.72274259 16.692254 0.41546496 17.992662 0.2265625 19.332031 L 0.2265625 25.632812 C 0.28481217 26.043351 0.35065152 26.452063 0.4296875 26.855469 C 0.60646822 26.203495 0.85043597 25.569231 1.1367188 24.949219 L 1.1367188 23.794922 C 0.83289024 23.83243 0.55318772 23.889276 0.31445312 23.978516 C 0.48434828 23.553778 0.75565364 23.223171 1.1367188 22.982422 L 1.1367188 15.439453 z M 43.863281 15.439453 L 43.863281 22.978516 C 44.247654 23.219637 44.521433 23.551322 44.691406 23.978516 C 44.451924 23.888997 44.169225 23.832372 43.863281 23.794922 L 43.863281 24.947266 C 44.1496 25.567885 44.393349 26.202822 44.570312 26.855469 C 44.649706 26.452063 44.715152 26.043351 44.773438 25.632812 L 44.773438 19.332031 C 44.584556 17.992662 44.277218 16.692254 43.863281 15.439453 z "
     id="path26" /><path
     id="path30"
     style="fill:#ffffff;fill-opacity:1;fill-rule:nonzero;stroke:#000000;stroke-width:1;stroke-opacity:1;stroke-miterlimit:4;stroke-dasharray:none"
     d="m 9.184,14.88775 c -1.1825,3.97 0.13375,7.86625 2.94125,8.7025 2.8075,0.8375 6.0425,-1.7025 7.22375,-5.6725 C 20.5315,13.949 19.21525,10.0515 16.41025,9.21525 13.60275,8.379 10.36775,10.919 9.184,14.88775"
     inkscape:connector-curvature="0" /><path
     id="path34"
     style="fill:#ffffff;fill-opacity:1;fill-rule:nonzero;stroke:#000000;stroke-width:1;stroke-opacity:1;stroke-miterlimit:4;stroke-dasharray:none"
     d="m 35.815375,14.88775 c 1.1825,3.97 -0.13375,7.86625 -2.94,8.7025 -2.80875,0.8375 -6.0425,-1.7025 -7.225,-5.6725 -1.1825,-3.96875 0.13375,-7.86625 2.93875,-8.7025 2.8075,-0.83625 6.0425,1.70375 7.22625,5.6725"
     inkscape:connector-curvature="0" /><path
     id="path38"
     style="fill:#000000;fill-opacity:1;fill-rule:nonzero;stroke:none;stroke-width:1.25"
     d="m 22.5,22.5 c -3.44625,0 -6.25,2.80375 -6.25,6.25 v 7.5 c 0,3.44625 2.80375,6.25 6.25,6.25 3.44625,0 6.25,-2.80375 6.25,-6.25 v -7.5 c 0,-3.44625 -2.80375,-6.25 -6.25,-6.25"
     inkscape:connector-curvature="0" /><path
     id="path42"
     style="fill:#000000;fill-opacity:1;fill-rule:nonzero;stroke:none;stroke-width:1.25"
     d="m 1.755375,23.75 c -0.58,0 -1.05,0.0825 -1.44125,0.22875 0.09,-0.22375 0.20875,-0.42 0.35125,-0.59625 -2.3275,2.865 2.895,12.2925 0.3575,21.6175 h 8.07625 c 1.485,-8.7 -1.545,-21.25 -7.34375,-21.25"
     inkscape:connector-curvature="0" /><path
     id="path46"
     style="fill:#000000;fill-opacity:1;fill-rule:nonzero;stroke:none;stroke-width:1.25"
     d="m 44.691125,23.97825 c -0.39125,-0.145 -0.8625,-0.22875 -1.44625,-0.22875 -5.80125,0 -8.8325,12.5025 -7.34125,21.25 h 8.075 c -2.3825,-8.80625 2.07,-17.61 0.7125,-21.02125"
     inkscape:connector-curvature="0" /></svg>