<?xml version="1.0" encoding="UTF-8" standalone="no"?>
<svg
   xmlns:dc="http://purl.org/dc/elements/1.1/"
   xmlns:cc="http://creativecommons.org/ns#"
   xmlns:rdf="http://www.w3.org/1999/02/22-rdf-syntax-ns#"
   xmlns:svg="http://www.w3.org/2000/svg"
   xmlns="http://www.w3.org/2000/svg"
   xmlns:sodipodi="http://sodipodi.sourceforge.net/DTD/sodipodi-0.dtd"
   xmlns:inkscape="http://www.inkscape.org/namespaces/inkscape"
   viewBox="0 0 45 45"
   style="enable-background:new 0 0 45 45;"
   xml:space="preserve"
   version="1.1"
   id="svg2"
   sodipodi:docname="1f630.svg"
   inkscape:version="0.92.2 5c3e80d, 2017-08-06"><sodipodi:namedview
     pagecolor="#ffffff"
     bordercolor="#666666"
     borderopacity="1"
     objecttolerance="10"
     gridtolerance="10"
     guidetolerance="10"
     inkscape:pageopacity="0"
     inkscape:pageshadow="2"
     inkscape:window-width="1418"
     inkscape:window-height="1050"
     id="namedview26"
     showgrid="false"
     inkscape:zoom="14.833529"
     inkscape:cx="26.569847"
     inkscape:cy="24.465329"
     inkscape:window-x="0"
     inkscape:window-y="28"
     inkscape:window-maximized="0"
     inkscape:current-layer="svg2" /><metadata
     id="metadata8"><rdf:RDF><cc:Work
         rdf:about=""><dc:format>image/svg+xml</dc:format><dc:type
           rdf:resource="http://purl.org/dc/dcmitype/StillImage" /></cc:Work></rdf:RDF></metadata><defs
     id="defs6"><clipPath
       id="clipPath16"
       clipPathUnits="userSpaceOnUse"><path
         id="path18"
         d="M 0,36 36,36 36,0 0,0 0,36 Z" /></clipPath></defs><path
     style="color:#000000;font-style:normal;font-variant:normal;font-weight:normal;font-stretch:normal;font-size:medium;line-height:normal;font-family:sans-serif;font-variant-ligatures:normal;font-variant-position:normal;font-variant-caps:normal;font-variant-numeric:normal;font-variant-alternates:normal;font-feature-settings:normal;text-indent:0;text-align:start;text-decoration:none;text-decoration-line:none;text-decoration-style:solid;text-decoration-color:#000000;letter-spacing:normal;word-spacing:normal;text-transform:none;writing-mode:lr-tb;direction:ltr;text-orientation:mixed;dominant-baseline:auto;baseline-shift:baseline;text-anchor:start;white-space:normal;shape-padding:0;clip-rule:nonzero;display:inline;overflow:visible;visibility:visible;opacity:1;isolation:auto;mix-blend-mode:normal;color-interpolation:sRGB;color-interpolation-filters:linearRGB;solid-color:#000000;solid-opacity:1;vector-effect:none;fill:#000000;fill-opacity:1;fill-rule:nonzero;stroke:none;stroke-width:2;stroke-linecap:butt;stroke-linejoin:miter;stroke-miterlimit:4;stroke-dasharray:none;stroke-dashoffset:0;stroke-opacity:1;color-rendering:auto;image-rendering:auto;shape-rendering:auto;text-rendering:auto;enable-background:accumulate"
     d="M 22.5 0 C 10.075 0 0 10.075 0 22.5 C 0 34.92625 10.075 45 22.5 45 C 34.92625 45 45 34.92625 45 22.5 C 45 10.075 34.92625 0 22.5 0 z M 22.5 1 C 34.385728 1 44 10.61551 44 22.5 C 44 34.385795 34.385795 44 22.5 44 C 10.61551 44 1 34.385728 1 22.5 C 1 10.615577 10.615577 1 22.5 1 z "
     id="path22" /><g
     id="g24"
     transform="matrix(1.25,0,0,-1.25,17.5,20.625)"
     style="fill:#000000"><path
       inkscape:connector-curvature="0"
       d="M 0,0 C 0,-1.934 -1.119,-3.5 -2.5,-3.5 -3.881,-3.5 -5,-1.934 -5,0 -5,1.933 -3.881,3.5 -2.5,3.5 -1.119,3.5 0,1.933 0,0"
       style="fill:#000000;fill-opacity:1;fill-rule:nonzero;stroke:none"
       id="path26" /></g><g
     id="g28"
     transform="matrix(1.25,0,0,-1.25,33.75,20.625)"
     style="fill:#000000"><path
       inkscape:connector-curvature="0"
       d="M 0,0 C 0,-1.934 -1.119,-3.5 -2.5,-3.5 -3.881,-3.5 -5,-1.934 -5,0 -5,1.933 -3.881,3.5 -2.5,3.5 -1.119,3.5 0,1.933 0,0"
       style="fill:#000000;fill-opacity:1;fill-rule:nonzero;stroke:none"
       id="path30" /></g><g
     id="g32"
     transform="matrix(1.25,0,0,-1.25,29.35675,34.848625)"
     style="fill:#000000"><path
       inkscape:connector-curvature="0"
       d="m 0,0 c -0.012,0.044 -1.146,4.379 -5.485,4.379 -4.34,0 -5.474,-4.335 -5.485,-4.379 -0.053,-0.213 0.044,-0.431 0.232,-0.544 0.187,-0.112 0.433,-0.086 0.596,0.06 0.01,0.007 1.014,0.863 4.657,0.863 3.589,0 4.617,-0.83 4.656,-0.863 0.095,-0.09 0.219,-0.137 0.344,-0.137 0.084,0 0.169,0.021 0.246,0.064 C -0.043,-0.445 0.055,-0.218 0,0"
       style="fill:#000000;fill-opacity:1;fill-rule:nonzero;stroke:none"
       id="path34" /></g><g
     id="g36"
     transform="matrix(1.25,0,0,-1.25,12.5,37.5)"
     style="fill:#000000"><path
       inkscape:connector-curvature="0"
       d="m 0,0 c 0,-2.762 -2.238,-5 -5,-5 -2.762,0 -5,2.238 -5,5 0,2.762 4,10 5,10 1,0 5,-7.238 5,-10"
       style="fill:#000000;fill-opacity:1;fill-rule:nonzero;stroke:none"
       id="path38" /></g><path
     style="fill:#000000;fill-opacity:1;fill-rule:nonzero;stroke:none;stroke-width:1.25"
     d="M 22.5 0 C 22.347436 0 22.196763 0.0086950525 22.044922 0.01171875 L 22.044922 13.763672 C 22.19759 13.761464 22.346597 13.75 22.5 13.75 C 22.65342 13.75 22.802393 13.761464 22.955078 13.763672 L 22.955078 0.01171875 C 22.803222 0.0086950525 22.65258 0 22.5 0 z M 20.226562 0.11328125 C 19.921311 0.1439154 19.619892 0.18579931 19.318359 0.22851562 L 19.318359 13.925781 C 19.620512 13.894804 19.920661 13.860102 20.226562 13.837891 L 20.226562 0.11328125 z M 24.773438 0.11328125 L 24.773438 13.837891 C 25.079067 13.860078 25.379756 13.894845 25.681641 13.925781 L 25.681641 0.22851562 C 25.380087 0.18579931 25.078713 0.1439154 24.773438 0.11328125 z M 17.5 0.56445312 C 17.195175 0.63368012 16.891783 0.70759379 16.591797 0.7890625 L 16.591797 14.318359 C 16.889428 14.259975 17.197592 14.219599 17.5 14.169922 L 17.5 0.56445312 z M 27.5 0.56445312 L 27.5 14.167969 C 27.802835 14.217701 28.110161 14.259897 28.408203 14.318359 L 28.408203 0.7890625 C 28.108014 0.70754956 27.805037 0.63370886 27.5 0.56445312 z M 14.773438 1.3613281 C 14.466252 1.4736561 14.164037 1.5955301 13.863281 1.7207031 L 13.863281 15.007812 C 14.1663 14.916553 14.463872 14.81816 14.773438 14.736328 L 14.773438 1.3613281 z M 30.226562 1.3613281 L 30.226562 14.736328 C 30.536129 14.818136 30.833701 14.916577 31.136719 15.007812 L 31.136719 1.7207031 C 30.835951 1.5955278 30.533764 1.473658 30.226562 1.3613281 z M 12.044922 2.578125 C 11.737585 2.7397688 11.435459 2.9087429 11.136719 3.0839844 L 11.136719 15.978516 C 11.432554 15.853087 11.74064 15.74079 12.044922 15.625 L 12.044922 2.578125 z M 32.955078 2.578125 L 32.955078 15.625 C 33.259634 15.740883 33.56719 15.852977 33.863281 15.978516 L 33.863281 3.0839844 C 33.564861 2.9089514 33.262077 2.7395901 32.955078 2.578125 z M 9.3183594 4.2714844 C 9.0087122 4.4958071 8.7056959 4.727367 8.4082031 4.9667969 L 8.4082031 17.345703 C 8.7053621 17.172722 9.009045 17.005829 9.3183594 16.84375 L 9.3183594 4.2714844 z M 35.681641 4.2714844 L 35.681641 16.84375 C 35.990946 17.005829 36.294649 17.172722 36.591797 17.345703 L 36.591797 4.9648438 C 36.294712 4.7257959 35.990846 4.4954678 35.681641 4.2714844 z M 6.5917969 6.5878906 C 6.2776404 6.9019705 5.97687 7.2284229 5.6816406 7.5605469 L 5.6816406 19.224609 C 5.9769373 18.984146 6.2775022 18.748879 6.5917969 18.521484 L 6.5917969 6.5878906 z M 38.408203 6.5878906 L 38.408203 18.521484 C 38.722481 18.748879 39.02308 18.984146 39.318359 19.224609 L 39.318359 7.5605469 C 39.023144 7.2284229 38.722348 6.9019705 38.408203 6.5878906 z M 41.136719 9.890625 L 41.136719 20.923828 C 41.457225 21.26675 41.760619 21.617647 42.044922 21.978516 L 42.044922 11.359375 C 41.758834 10.858605 41.459229 10.366348 41.136719 9.890625 z M 3.8632812 9.8925781 C 3.5408924 10.368215 3.2410622 10.86066 2.9550781 11.361328 L 2.9550781 21.978516 C 3.23894 21.618234 3.5433298 21.268176 3.8632812 20.925781 L 3.8632812 9.8925781 z M 1.1367188 15.439453 C 0.72274259 16.692254 0.41546496 17.992662 0.2265625 19.332031 L 0.2265625 25.632812 C 0.28481217 26.043351 0.35065152 26.452063 0.4296875 26.855469 C 0.60646188 26.204682 0.85594571 25.573569 1.1367188 24.953125 L 1.1367188 15.439453 z M 43.863281 15.439453 L 43.863281 24.953125 C 44.144038 25.573569 44.393538 26.204682 44.570312 26.855469 C 44.649706 26.452063 44.715152 26.043351 44.773438 25.632812 L 44.773438 19.332031 C 44.584556 17.992662 44.277218 16.692254 43.863281 15.439453 z "
     id="path42" /><g
     id="g44"
     transform="matrix(1.25,0,0,-1.25,37.5,15)"
     style="fill:#000000"><path
       inkscape:connector-curvature="0"
       d="m 0,0 c -5.554,0 -7.802,4.367 -7.895,4.553 -0.247,0.494 -0.046,1.095 0.448,1.342 0.492,0.246 1.092,0.047 1.34,-0.444 C -6.033,5.306 -4.287,2 0,2 0.553,2 1,1.552 1,1 1,0.448 0.553,0 0,0"
       style="fill:#000000;fill-opacity:1;fill-rule:nonzero;stroke:none"
       id="path46" /></g><g
     id="g48"
     transform="matrix(1.25,0,0,-1.25,7.5,15)"
     style="fill:#000000"><path
       inkscape:connector-curvature="0"
       d="m 0,0 c -0.552,0 -1,0.448 -1,1 0,0.552 0.448,1 1,1 5.083,0 5.996,3.12 6.033,3.253 0.145,0.528 0.69,0.848 1.219,0.709 C 7.782,5.823 8.103,5.289 7.97,4.757 7.921,4.563 6.704,0 0,0"
       style="fill:#000000;fill-opacity:1;fill-rule:nonzero;stroke:none"
       id="path50" /></g><path
     style="opacity:1;vector-effect:none;fill:#000000;fill-opacity:1;stroke:none;stroke-width:0;stroke-linecap:butt;stroke-linejoin:miter;stroke-miterlimit:4;stroke-dasharray:none;stroke-dashoffset:0;stroke-opacity:1;paint-order:normal"
     d="m 33.329739,462.51357 v 34.99217 h 1 v -34.99217 z m 3,0 v 34.99217 h 0.999999 v -34.99217 z m 3,0 v 34.99217 h 1 v -34.99217 z m 3.000001,0 v 34.99217 h 1.000001 v -34.99217 z m 3,0 v 34.99217 h 1.000001 v -34.99217 z m 3,0 v 34.99217 h 0.999998 v -34.99217 z m 3,0 v 34.99217 h 0.999998 v -34.99217 z m 3,0 v 34.99217 h 0.999998 v -34.99217 z m 3,0 v 34.99217 h 0.999998 v -34.99217 z m 2.999996,0 v 34.99217 h 1.000001 v -34.99217 z m 3,0 v 34.99217 h 1.000001 v -34.99217 z m 3,0 v 34.99217 h 1.000001 v -34.99217 z m 3.000004,0 v 34.99217 h 0.999997 v -34.99217 z m 3,0 v 34.99217 h 0.999997 v -34.99217 z m 3,0 v 34.99217 h 0.999997 v -34.99217 z m 3,0 v 34.99217 h 0.999997 v -34.99217 z m 3,0 v 34.99217 h 0.999997 v -34.99217 z m 2.999999,0 v 34.99217 h 0.999998 v -34.99217 z m 3,0 v 34.99217 h 0.999998 v -34.99217 z m 3,0 v 34.99217 h 0.999998 v -34.99217 z m 3,0 v 34.99217 h 0.999998 v -34.99217 z m 2.999997,0 v 34.99217 h 1.000001 v -34.99217 z m 3,0 v 34.99217 h 1.000004 v -34.99217 z m 3.000004,0 v 34.99217 h 1 v -34.99217 z m 3,0 v 34.99217 h 1 v -34.99217 z"
     id="rect905-3"
     inkscape:connector-curvature="0" /></svg>