<?xml version="1.0" encoding="UTF-8" standalone="no"?>
<svg
   xmlns:dc="http://purl.org/dc/elements/1.1/"
   xmlns:cc="http://creativecommons.org/ns#"
   xmlns:rdf="http://www.w3.org/1999/02/22-rdf-syntax-ns#"
   xmlns:svg="http://www.w3.org/2000/svg"
   xmlns="http://www.w3.org/2000/svg"
   xmlns:sodipodi="http://sodipodi.sourceforge.net/DTD/sodipodi-0.dtd"
   xmlns:inkscape="http://www.inkscape.org/namespaces/inkscape"
   viewBox="0 0 45 45"
   style="enable-background:new 0 0 45 45;"
   xml:space="preserve"
   version="1.1"
   id="svg2"
   sodipodi:docname="1f634.svg"
   inkscape:version="0.92.2 5c3e80d, 2017-08-06"><sodipodi:namedview
     pagecolor="#ffffff"
     bordercolor="#666666"
     borderopacity="1"
     objecttolerance="10"
     gridtolerance="10"
     guidetolerance="10"
     inkscape:pageopacity="0"
     inkscape:pageshadow="2"
     inkscape:window-width="1418"
     inkscape:window-height="1050"
     id="namedview24"
     showgrid="false"
     inkscape:zoom="3.7083822"
     inkscape:cx="-19.700216"
     inkscape:cy="-12.045257"
     inkscape:window-x="0"
     inkscape:window-y="28"
     inkscape:window-maximized="0"
     inkscape:current-layer="svg2" /><metadata
     id="metadata8"><rdf:RDF><cc:Work
         rdf:about=""><dc:format>image/svg+xml</dc:format><dc:type
           rdf:resource="http://purl.org/dc/dcmitype/StillImage" /></cc:Work></rdf:RDF></metadata><defs
     id="defs6"><clipPath
       id="clipPath16"
       clipPathUnits="userSpaceOnUse"><path
         id="path18"
         d="M 0,36 36,36 36,0 0,0 0,36 Z" /></clipPath></defs><path
     style="color:#000000;font-style:normal;font-variant:normal;font-weight:normal;font-stretch:normal;font-size:medium;line-height:normal;font-family:sans-serif;font-variant-ligatures:normal;font-variant-position:normal;font-variant-caps:normal;font-variant-numeric:normal;font-variant-alternates:normal;font-feature-settings:normal;text-indent:0;text-align:start;text-decoration:none;text-decoration-line:none;text-decoration-style:solid;text-decoration-color:#000000;letter-spacing:normal;word-spacing:normal;text-transform:none;writing-mode:lr-tb;direction:ltr;text-orientation:mixed;dominant-baseline:auto;baseline-shift:baseline;text-anchor:start;white-space:normal;shape-padding:0;clip-rule:nonzero;display:inline;overflow:visible;visibility:visible;opacity:1;isolation:auto;mix-blend-mode:normal;color-interpolation:sRGB;color-interpolation-filters:linearRGB;solid-color:#000000;solid-opacity:1;vector-effect:none;fill:#000000;fill-opacity:1;fill-rule:nonzero;stroke:none;stroke-width:2;stroke-linecap:butt;stroke-linejoin:miter;stroke-miterlimit:4;stroke-dasharray:none;stroke-dashoffset:0;stroke-opacity:1;color-rendering:auto;image-rendering:auto;shape-rendering:auto;text-rendering:auto;enable-background:accumulate"
     clip-path="none"
     d="M 22.5 0 C 10.075 0 0 10.075 0 22.5 C 0 34.92625 10.075 45 22.5 45 C 34.92625 45 45 34.92625 45 22.5 C 45 10.075 34.92625 0 22.5 0 z M 22.5 1 C 34.385728 1 44 10.61551 44 22.5 C 44 34.385795 34.385795 44 22.5 44 C 10.61551 44 1 34.385728 1 22.5 C 1 10.615577 10.615577 1 22.5 1 z "
     id="path22" /><path
     id="path26"
     style="fill:#000000;fill-opacity:1;fill-rule:nonzero;stroke:none;stroke-width:1.25"
     d="m 26.25,32.5 c 0,2.07125 -1.67875,3.75 -3.75,3.75 -2.07125,0 -3.75,-1.67875 -3.75,-3.75 0,-2.07 1.67875,-3.75 3.75,-3.75 2.07125,0 3.75,1.68 3.75,3.75"
     inkscape:connector-curvature="0" /><path
     id="path30"
     style="fill:#000000;fill-opacity:1;fill-rule:nonzero;stroke:none;stroke-width:1.25"
     d="m 21.640625,20.76475 c -0.22,-0.17875 -0.53375,-0.18375 -0.7625,-0.0175 -0.01625,0.0125 -1.57625,1.1275 -4.6275,1.1275 -3.05125,0 -4.6125,-1.115 -4.62625,-1.125 -0.2275,-0.17 -0.5425,-0.16625 -0.76375,0.01125 -0.2225,0.1775 -0.2975,0.4825 -0.1825,0.7425 0.07625,0.16875 1.875,4.12125 5.5725,4.12125 3.6975,0 5.49625,-3.9525 5.57125,-4.12125 0.11375,-0.25875 0.03875,-0.56125 -0.18125,-0.73875"
     inkscape:connector-curvature="0" /><path
     id="path34"
     style="fill:#000000;fill-opacity:1;fill-rule:nonzero;stroke:none;stroke-width:1.25"
     d="m 34.140625,20.76475 c -0.22,-0.17875 -0.5325,-0.185 -0.7625,-0.0175 -0.015,0.0125 -1.57625,1.1275 -4.6275,1.1275 -3.05125,0 -4.61375,-1.115 -4.62625,-1.125 -0.2275,-0.17 -0.54125,-0.16625 -0.76375,0.01125 -0.2225,0.1775 -0.2975,0.4825 -0.1825,0.7425 0.075,0.16875 1.875,4.12125 5.5725,4.12125 3.6975,0 5.49625,-3.9525 5.57125,-4.12125 0.11375,-0.25875 0.04,-0.56125 -0.18125,-0.73875"
     inkscape:connector-curvature="0" /><path
     id="path38"
     style="fill:#000000;fill-opacity:1;fill-rule:nonzero;stroke:none;stroke-width:1.25"
     d="m 19.998125,6.413625 h -2.50375 c -0.54,0 -0.975,-0.345 -0.975,-0.945 0,-0.59875 0.435,-0.94375 0.975,-0.94375 h 4.9025 c 0.195,0 0.70375,0.08875 0.70375,0.67375 0,0.285 -0.05875,0.42 -0.22375,0.645 l -3.40375,4.7675 h 2.84875 c 0.54,0 0.97375,0.345 0.97375,0.945 0,0.59875 -0.43375,0.94375 -0.97375,0.94375 h -5.0225 c -0.48,0 -0.885,-0.24 -0.885,-0.735 0,-0.24 0.12,-0.46375 0.195,-0.585 z"
     inkscape:connector-curvature="0" /><path
     id="path42"
     style="fill:#000000;fill-opacity:1;fill-rule:nonzero;stroke:none;stroke-width:1.25"
     d="m 29.3775,2.89125 h -2.925 c -0.63,0 -1.1375,-0.4025 -1.1375,-1.1025 0,-0.70125 0.5075,-1.10375 1.1375,-1.10375 h 5.725 c 0.23,0 0.825,0.105 0.825,0.7875 0,0.3325 -0.07,0.49 -0.26375,0.75375 L 28.765,7.79375 h 3.3275 c 0.63,0 1.1375,0.4025 1.1375,1.10375 0,0.7 -0.5075,1.1025 -1.1375,1.1025 H 26.22625 C 25.665,10 25.1925,9.72 25.1925,9.14125 c 0,-0.28 0.14,-0.5425 0.2275,-0.68125 z"
     inkscape:connector-curvature="0" /><path
     id="path46"
     style="fill:#000000;fill-opacity:1;fill-rule:nonzero;stroke:none;stroke-width:1.25"
     d="m 39.3775,7.112375 h -3.76 c -0.81,0 -1.4625,-0.5175 -1.4625,-1.4175 0,-0.9 0.6525,-1.41875 1.4625,-1.41875 h 7.36125 c 0.2925,0 1.0575,0.135 1.0575,1.01375 0,0.42625 -0.09125,0.63 -0.3375,0.9675 l -5.11,7.1575 h 4.2775 c 0.80875,0 1.4625,0.5175 1.4625,1.4175 0,0.9 -0.65375,1.4175 -1.4625,1.4175 H 35.325 c -0.72,0 -1.3275,-0.36 -1.3275,-1.1025 0,-0.36 0.18,-0.6975 0.2925,-0.8775 z"
     inkscape:connector-curvature="0" /></svg>