<?xml version="1.0" encoding="UTF-8" standalone="no"?>
<svg
   xmlns:dc="http://purl.org/dc/elements/1.1/"
   xmlns:cc="http://creativecommons.org/ns#"
   xmlns:rdf="http://www.w3.org/1999/02/22-rdf-syntax-ns#"
   xmlns:svg="http://www.w3.org/2000/svg"
   xmlns="http://www.w3.org/2000/svg"
   xmlns:sodipodi="http://sodipodi.sourceforge.net/DTD/sodipodi-0.dtd"
   xmlns:inkscape="http://www.inkscape.org/namespaces/inkscape"
   viewBox="0 0 45 45"
   style="enable-background:new 0 0 45 45;"
   xml:space="preserve"
   version="1.1"
   id="svg2"
   sodipodi:docname="1f635.svg"
   inkscape:version="0.92.2 5c3e80d, 2017-08-06"><sodipodi:namedview
     pagecolor="#ffffff"
     bordercolor="#666666"
     borderopacity="1"
     objecttolerance="10"
     gridtolerance="10"
     guidetolerance="10"
     inkscape:pageopacity="0"
     inkscape:pageshadow="2"
     inkscape:window-width="1418"
     inkscape:window-height="1050"
     id="namedview22"
     showgrid="false"
     inkscape:zoom="7.4167645"
     inkscape:cx="17.038109"
     inkscape:cy="25.351846"
     inkscape:window-x="0"
     inkscape:window-y="28"
     inkscape:window-maximized="0"
     inkscape:current-layer="svg2" /><metadata
     id="metadata8"><rdf:RDF><cc:Work
         rdf:about=""><dc:format>image/svg+xml</dc:format><dc:type
           rdf:resource="http://purl.org/dc/dcmitype/StillImage" /></cc:Work></rdf:RDF></metadata><defs
     id="defs6"><clipPath
       id="clipPath16"
       clipPathUnits="userSpaceOnUse"><path
         id="path18"
         d="M 0,36 36,36 36,0 0,0 0,36 Z" /></clipPath></defs><path
     style="color:#000000;font-style:normal;font-variant:normal;font-weight:normal;font-stretch:normal;font-size:medium;line-height:normal;font-family:sans-serif;font-variant-ligatures:normal;font-variant-position:normal;font-variant-caps:normal;font-variant-numeric:normal;font-variant-alternates:normal;font-feature-settings:normal;text-indent:0;text-align:start;text-decoration:none;text-decoration-line:none;text-decoration-style:solid;text-decoration-color:#000000;letter-spacing:normal;word-spacing:normal;text-transform:none;writing-mode:lr-tb;direction:ltr;text-orientation:mixed;dominant-baseline:auto;baseline-shift:baseline;text-anchor:start;white-space:normal;shape-padding:0;clip-rule:nonzero;display:inline;overflow:visible;visibility:visible;opacity:1;isolation:auto;mix-blend-mode:normal;color-interpolation:sRGB;color-interpolation-filters:linearRGB;solid-color:#000000;solid-opacity:1;vector-effect:none;fill:#000000;fill-opacity:1;fill-rule:nonzero;stroke:none;stroke-width:2;stroke-linecap:butt;stroke-linejoin:miter;stroke-miterlimit:4;stroke-dasharray:none;stroke-dashoffset:0;stroke-opacity:1;color-rendering:auto;image-rendering:auto;shape-rendering:auto;text-rendering:auto;enable-background:accumulate"
     clip-path="none"
     d="M 22.5 0 C 10.075 0 0 10.075 0 22.5 C 0 34.92625 10.075 45 22.5 45 C 34.92625 45 45 34.92625 45 22.5 C 45 10.075 34.92625 0 22.5 0 z M 22.5 1 C 34.385728 1 44 10.61551 44 22.5 C 44 34.385795 34.385795 44 22.5 44 C 10.61551 44 1 34.385728 1 22.5 C 1 10.615577 10.615577 1 22.5 1 z "
     id="path22" /><path
     id="path26"
     style="fill:#000000;fill-opacity:1;fill-rule:nonzero;stroke:none;stroke-width:1.25"
     d="m 28.75,33.75 c 0,4.1425 -2.7975,7.5 -6.25,7.5 -3.4525,0 -6.25,-3.3575 -6.25,-7.5 0,-4.14125 2.7975,-7.5 6.25,-7.5 3.4525,0 6.25,3.35875 6.25,7.5"
     inkscape:connector-curvature="0" /><path
     id="path30"
     style="fill:#000000;fill-opacity:1;fill-rule:nonzero;stroke:none;stroke-width:1.25"
     d="M 7.49875,13.75 C 7.23875,13.75 6.975,13.66875 6.75,13.5 6.1975,13.08625 6.08625,12.3025 6.5,11.75 c 4.0775,-5.4375 9.52,-5.5 9.75,-5.5 0.69,0 1.25,0.56 1.25,1.25 0,0.68875 -0.55625,1.2475 -1.245,1.25 -0.19375,0.0025 -4.46125,0.1075 -7.755,4.5 -0.24625,0.3275 -0.62125,0.5 -1.00125,0.5"
     inkscape:connector-curvature="0" /><path
     id="path34"
     style="fill:#000000;fill-opacity:1;fill-rule:nonzero;stroke:none;stroke-width:1.25"
     d="M 37.50125,13.75 C 37.12,13.75 36.745,13.5775 36.5,13.25 33.2,8.84875 28.92375,8.75125 28.7425,8.75 28.055,8.7425 27.5,8.18 27.50375,7.49375 27.5075,6.805 28.0625,6.25 28.75,6.25 c 0.23,0 5.67125,0.0625 9.75,5.5 0.415,0.5525 0.3025,1.33625 -0.25,1.75 -0.225,0.16875 -0.4875,0.25 -0.74875,0.25"
     inkscape:connector-curvature="0" /><path
     id="path38"
     style="fill:#000000;fill-opacity:1;fill-rule:nonzero;stroke:none;stroke-width:1.25"
     d="m 17.392625,19.375 2.24125,-2.24125 c 0.48875,-0.48875 0.48875,-1.27875 0,-1.7675 -0.48875,-0.48875 -1.27875,-0.48875 -1.7675,0 l -2.24125,2.24125 -2.24125,-2.24125 c -0.48875,-0.48875 -1.27875,-0.48875 -1.7675,0 -0.48875,0.48875 -0.48875,1.27875 0,1.7675 l 2.24125,2.24125 -2.24125,2.24125 c -0.48875,0.48875 -0.48875,1.27875 0,1.7675 0.24375,0.24375 0.56375,0.36625 0.88375,0.36625 0.32,0 0.64,-0.1225 0.88375,-0.36625 l 2.24125,-2.24125 2.24125,2.24125 c 0.24375,0.24375 0.56375,0.36625 0.88375,0.36625 0.32,0 0.64,-0.1225 0.88375,-0.36625 0.48875,-0.48875 0.48875,-1.27875 0,-1.7675 z"
     inkscape:connector-curvature="0" /><path
     id="path42"
     style="fill:#000000;fill-opacity:1;fill-rule:nonzero;stroke:none;stroke-width:1.25"
     d="m 31.142625,19.375 2.24125,-2.24125 c 0.48875,-0.48875 0.48875,-1.27875 0,-1.7675 -0.48875,-0.48875 -1.28,-0.48875 -1.7675,0 l -2.24125,2.24125 -2.24125,-2.24125 c -0.48875,-0.48875 -1.28,-0.48875 -1.7675,0 -0.48875,0.48875 -0.48875,1.27875 0,1.7675 l 2.24125,2.24125 -2.24125,2.24125 c -0.48875,0.48875 -0.48875,1.27875 0,1.7675 0.24375,0.24375 0.56375,0.36625 0.88375,0.36625 0.32,0 0.64,-0.1225 0.88375,-0.36625 l 2.24125,-2.24125 2.24125,2.24125 c 0.24375,0.24375 0.56375,0.36625 0.88375,0.36625 0.32,0 0.64,-0.1225 0.88375,-0.36625 0.48875,-0.48875 0.48875,-1.27875 0,-1.7675 z"
     inkscape:connector-curvature="0" /></svg>