<?xml version="1.0" encoding="UTF-8" standalone="no"?>
<svg
   xmlns:dc="http://purl.org/dc/elements/1.1/"
   xmlns:cc="http://creativecommons.org/ns#"
   xmlns:rdf="http://www.w3.org/1999/02/22-rdf-syntax-ns#"
   xmlns:svg="http://www.w3.org/2000/svg"
   xmlns="http://www.w3.org/2000/svg"
   xmlns:sodipodi="http://sodipodi.sourceforge.net/DTD/sodipodi-0.dtd"
   xmlns:inkscape="http://www.inkscape.org/namespaces/inkscape"
   viewBox="0 0 45 45"
   style="enable-background:new 0 0 45 45;"
   xml:space="preserve"
   version="1.1"
   id="svg2"
   sodipodi:docname="1f633.svg"
   inkscape:version="0.92.2 5c3e80d, 2017-08-06"><sodipodi:namedview
     pagecolor="#ffffff"
     bordercolor="#666666"
     borderopacity="1"
     objecttolerance="10"
     gridtolerance="10"
     guidetolerance="10"
     inkscape:pageopacity="0"
     inkscape:pageshadow="2"
     inkscape:window-width="1418"
     inkscape:window-height="1050"
     id="namedview30"
     showgrid="false"
     inkscape:zoom="5.2444444"
     inkscape:cx="3.4763018"
     inkscape:cy="42.27829"
     inkscape:window-x="0"
     inkscape:window-y="28"
     inkscape:window-maximized="0"
     inkscape:current-layer="svg2" /><metadata
     id="metadata8"><rdf:RDF><cc:Work
         rdf:about=""><dc:format>image/svg+xml</dc:format><dc:type
           rdf:resource="http://purl.org/dc/dcmitype/StillImage" /></cc:Work></rdf:RDF></metadata><defs
     id="defs6"><clipPath
       id="clipPath16"
       clipPathUnits="userSpaceOnUse"><path
         id="path18"
         d="M 0,36 36,36 36,0 0,0 0,36 Z" /></clipPath></defs><path
     style="color:#000000;font-style:normal;font-variant:normal;font-weight:normal;font-stretch:normal;font-size:medium;line-height:normal;font-family:sans-serif;font-variant-ligatures:normal;font-variant-position:normal;font-variant-caps:normal;font-variant-numeric:normal;font-variant-alternates:normal;font-feature-settings:normal;text-indent:0;text-align:start;text-decoration:none;text-decoration-line:none;text-decoration-style:solid;text-decoration-color:#000000;letter-spacing:normal;word-spacing:normal;text-transform:none;writing-mode:lr-tb;direction:ltr;text-orientation:mixed;dominant-baseline:auto;baseline-shift:baseline;text-anchor:start;white-space:normal;shape-padding:0;clip-rule:nonzero;display:inline;overflow:visible;visibility:visible;opacity:1;isolation:auto;mix-blend-mode:normal;color-interpolation:sRGB;color-interpolation-filters:linearRGB;solid-color:#000000;solid-opacity:1;vector-effect:none;fill:#000000;fill-opacity:1;fill-rule:nonzero;stroke:none;stroke-width:2;stroke-linecap:butt;stroke-linejoin:miter;stroke-miterlimit:4;stroke-dasharray:none;stroke-dashoffset:0;stroke-opacity:1;color-rendering:auto;image-rendering:auto;shape-rendering:auto;text-rendering:auto;enable-background:accumulate"
     clip-path="none"
     d="M 22.5 0 C 10.075 0 0 10.075 0 22.5 C 0 34.92625 10.075 45 22.5 45 C 34.92625 45 45 34.92625 45 22.5 C 45 10.075 34.92625 0 22.5 0 z M 22.5 1 C 34.385728 1 44 10.61551 44 22.5 C 44 34.385795 34.385795 44 22.5 44 C 10.61551 44 1 34.385728 1 22.5 C 1 10.615577 10.615577 1 22.5 1 z "
     id="path22" /><path
     id="path26"
     style="fill:#000000;fill-opacity:1;fill-rule:nonzero;stroke:none;stroke-width:1.25"
     d="M 42.5,28.75 C 42.5,32.2025 39.7025,35 36.25,35 32.7975,35 30,32.2025 30,28.75 c 0,-3.4525 2.7975,-6.25 6.25,-6.25 3.4525,0 6.25,2.7975 6.25,6.25"
     inkscape:connector-curvature="0" /><path
     id="path30"
     style="fill:#000000;fill-opacity:1;fill-rule:nonzero;stroke:none;stroke-width:1.25"
     d="M 15,28.75 C 15,32.2025 12.2025,35 8.75,35 5.2975,35 2.5,32.2025 2.5,28.75 c 0,-3.4525 2.7975,-6.25 6.25,-6.25 3.4525,0 6.25,2.7975 6.25,6.25"
     inkscape:connector-curvature="0" /><path
     id="path34"
     style="fill:#ffffff;fill-opacity:1;fill-rule:nonzero;stroke:#000000;stroke-width:1;stroke-opacity:1;stroke-miterlimit:4;stroke-dasharray:none"
     d="m 37.5,20.625 c 0,3.79625 -3.07875,6.875 -6.875,6.875 -3.79625,0 -6.875,-3.07875 -6.875,-6.875 0,-3.79625 3.07875,-6.875 6.875,-6.875 3.79625,0 6.875,3.07875 6.875,6.875"
     inkscape:connector-curvature="0" /><path
     id="path38"
     style="fill:#ffffff;fill-opacity:1;fill-rule:nonzero;stroke:#000000;stroke-width:1;stroke-opacity:1;stroke-miterlimit:4;stroke-dasharray:none"
     d="m 21.25,20.625 c 0,3.79625 -3.07875,6.875 -6.875,6.875 -3.79625,0 -6.875,-3.07875 -6.875,-6.875 0,-3.79625 3.07875,-6.875 6.875,-6.875 3.79625,0 6.875,3.07875 6.875,6.875"
     inkscape:connector-curvature="0" /><path
     id="path42"
     style="fill:#000000;fill-opacity:1;fill-rule:nonzero;stroke:none;stroke-width:1.25"
     d="m 17.5,20.625 c 0,1.72625 -1.39875,3.125 -3.125,3.125 -1.72625,0 -3.125,-1.39875 -3.125,-3.125 0,-1.725 1.39875,-3.125 3.125,-3.125 1.72625,0 3.125,1.4 3.125,3.125"
     inkscape:connector-curvature="0" /><path
     id="path46"
     style="fill:#000000;fill-opacity:1;fill-rule:nonzero;stroke:none;stroke-width:1.25"
     d="m 33.75,20.625 c 0,1.72625 -1.39875,3.125 -3.125,3.125 -1.72625,0 -3.125,-1.39875 -3.125,-3.125 0,-1.725 1.39875,-3.125 3.125,-3.125 1.72625,0 3.125,1.4 3.125,3.125"
     inkscape:connector-curvature="0" /><path
     id="path50"
     style="fill:#000000;fill-opacity:1;fill-rule:nonzero;stroke:none;stroke-width:1.25"
     d="m 27.5,37.5 h -10 c -0.69,0 -1.25,-0.55875 -1.25,-1.25 0,-0.69125 0.56,-1.25 1.25,-1.25 h 10 c 0.69125,0 1.25,0.55875 1.25,1.25 0,0.69125 -0.55875,1.25 -1.25,1.25"
     inkscape:connector-curvature="0" /><path
     id="path54"
     style="fill:#000000;fill-opacity:1;fill-rule:nonzero;stroke:none;stroke-width:1.25"
     d="M 37.50125,13.75 C 37.12,13.75 36.745,13.5775 36.5,13.25 33.2,8.84875 28.92375,8.75125 28.7425,8.75 28.055,8.7425 27.5,8.18 27.50375,7.49375 27.5075,6.805 28.0625,6.25 28.75,6.25 c 0.23,0 5.67125,0.0625 9.75,5.5 0.415,0.5525 0.3025,1.33625 -0.25,1.75 -0.225,0.16875 -0.4875,0.25 -0.74875,0.25"
     inkscape:connector-curvature="0" /><path
     id="path58"
     style="fill:#000000;fill-opacity:1;fill-rule:nonzero;stroke:none;stroke-width:1.25"
     d="M 7.49875,13.75 C 7.23875,13.75 6.975,13.66875 6.75,13.5 6.1975,13.08625 6.08625,12.3025 6.5,11.75 c 4.0775,-5.4375 9.52,-5.5 9.75,-5.5 0.69,0 1.25,0.56 1.25,1.25 0,0.68875 -0.55625,1.2475 -1.245,1.25 -0.19375,0.0025 -4.46125,0.1075 -7.755,4.5 -0.24625,0.3275 -0.62125,0.5 -1.00125,0.5"
     inkscape:connector-curvature="0" /></svg>