<?xml version="1.0" encoding="UTF-8" standalone="no"?>
<svg
   xmlns:dc="http://purl.org/dc/elements/1.1/"
   xmlns:cc="http://creativecommons.org/ns#"
   xmlns:rdf="http://www.w3.org/1999/02/22-rdf-syntax-ns#"
   xmlns:svg="http://www.w3.org/2000/svg"
   xmlns="http://www.w3.org/2000/svg"
   xmlns:sodipodi="http://sodipodi.sourceforge.net/DTD/sodipodi-0.dtd"
   xmlns:inkscape="http://www.inkscape.org/namespaces/inkscape"
   viewBox="0 0 45 45"
   style="enable-background:new 0 0 45 45;"
   xml:space="preserve"
   version="1.1"
   id="svg2"
   sodipodi:docname="1f643.svg"
   inkscape:version="0.92.2 5c3e80d, 2017-08-06"><sodipodi:namedview
     pagecolor="#ffffff"
     bordercolor="#666666"
     borderopacity="1"
     objecttolerance="10"
     gridtolerance="10"
     guidetolerance="10"
     inkscape:pageopacity="0"
     inkscape:pageshadow="2"
     inkscape:window-width="1418"
     inkscape:window-height="1050"
     id="namedview18"
     showgrid="false"
     inkscape:zoom="3.7083822"
     inkscape:cx="0.025816308"
     inkscape:cy="34.844336"
     inkscape:window-x="0"
     inkscape:window-y="28"
     inkscape:window-maximized="0"
     inkscape:current-layer="svg2" /><metadata
     id="metadata8"><rdf:RDF><cc:Work
         rdf:about=""><dc:format>image/svg+xml</dc:format><dc:type
           rdf:resource="http://purl.org/dc/dcmitype/StillImage" /></cc:Work></rdf:RDF></metadata><defs
     id="defs6"><clipPath
       id="clipPath16"
       clipPathUnits="userSpaceOnUse"><path
         id="path18"
         d="M 0,36 36,36 36,0 0,0 0,36 Z" /></clipPath></defs><path
     style="color:#000000;font-style:normal;font-variant:normal;font-weight:normal;font-stretch:normal;font-size:medium;line-height:normal;font-family:sans-serif;font-variant-ligatures:normal;font-variant-position:normal;font-variant-caps:normal;font-variant-numeric:normal;font-variant-alternates:normal;font-feature-settings:normal;text-indent:0;text-align:start;text-decoration:none;text-decoration-line:none;text-decoration-style:solid;text-decoration-color:#000000;letter-spacing:normal;word-spacing:normal;text-transform:none;writing-mode:lr-tb;direction:ltr;text-orientation:mixed;dominant-baseline:auto;baseline-shift:baseline;text-anchor:start;white-space:normal;shape-padding:0;clip-rule:nonzero;display:inline;overflow:visible;visibility:visible;opacity:1;isolation:auto;mix-blend-mode:normal;color-interpolation:sRGB;color-interpolation-filters:linearRGB;solid-color:#000000;solid-opacity:1;vector-effect:none;fill:#000000;fill-opacity:1;fill-rule:nonzero;stroke:none;stroke-width:2;stroke-linecap:butt;stroke-linejoin:miter;stroke-miterlimit:4;stroke-dasharray:none;stroke-dashoffset:0;stroke-opacity:1;color-rendering:auto;image-rendering:auto;shape-rendering:auto;text-rendering:auto;enable-background:accumulate"
     clip-path="none"
     d="M 22.5 0 C 10.07375 0 0 10.07375 0 22.5 C 0 34.92625 10.07375 45 22.5 45 C 34.92625 45 45 34.92625 45 22.5 C 45 10.07375 34.92625 0 22.5 0 z M 22.5 1 C 34.385795 1 44 10.614205 44 22.5 C 44 34.385795 34.385795 44 22.5 44 C 10.614205 44 1 34.385795 1 22.5 C 1 10.614205 10.614205 1 22.5 1 z "
     id="path22" /><path
     id="path26"
     style="fill:#000000;fill-opacity:1;fill-rule:nonzero;stroke:none;stroke-width:1.25"
     d="m 10.83125,16.08925 c 0.2225,0.20125 0.555,0.21375 0.79375,0.03625 0.04875,-0.03625 4.9025,-3.625 10.875,-3.625 5.9575,0 10.8275,3.58875 10.875,3.625 0.23875,0.1775 0.57125,0.1625 0.79375,-0.03625 0.22125,-0.2 0.27125,-0.53 0.1175,-0.785 C 34.125,15.0355 30.265,8.7505 22.5,8.7505 c -7.765,0 -11.62625,6.285 -11.78625,6.55375 -0.15375,0.25625 -0.105,0.585 0.1175,0.785"
     inkscape:connector-curvature="0" /><path
     id="path30"
     style="fill:#000000;fill-opacity:1;fill-rule:nonzero;stroke:none;stroke-width:1.25"
     d="m 17.5,26.875 c 0,2.4175 -1.39875,4.375 -3.125,4.375 -1.72625,0 -3.125,-1.9575 -3.125,-4.375 0,-2.41625 1.39875,-4.375 3.125,-4.375 1.72625,0 3.125,1.95875 3.125,4.375"
     inkscape:connector-curvature="0" /><path
     id="path34"
     style="fill:#000000;fill-opacity:1;fill-rule:nonzero;stroke:none;stroke-width:1.25"
     d="m 33.75,26.875 c 0,2.4175 -1.39875,4.375 -3.125,4.375 -1.72625,0 -3.125,-1.9575 -3.125,-4.375 0,-2.41625 1.39875,-4.375 3.125,-4.375 1.72625,0 3.125,1.95875 3.125,4.375"
     inkscape:connector-curvature="0" /></svg>