<?xml version="1.0" encoding="UTF-8" standalone="no"?>
<svg
   xmlns:dc="http://purl.org/dc/elements/1.1/"
   xmlns:cc="http://creativecommons.org/ns#"
   xmlns:rdf="http://www.w3.org/1999/02/22-rdf-syntax-ns#"
   xmlns:svg="http://www.w3.org/2000/svg"
   xmlns="http://www.w3.org/2000/svg"
   xmlns:sodipodi="http://sodipodi.sourceforge.net/DTD/sodipodi-0.dtd"
   xmlns:inkscape="http://www.inkscape.org/namespaces/inkscape"
   viewBox="0 0 45 45"
   style="enable-background:new 0 0 45 45;"
   xml:space="preserve"
   version="1.1"
   id="svg2"
   sodipodi:docname="1f913.svg"
   inkscape:version="0.92.2 5c3e80d, 2017-08-06"><sodipodi:namedview
     pagecolor="#ffffff"
     bordercolor="#666666"
     borderopacity="1"
     objecttolerance="10"
     gridtolerance="10"
     guidetolerance="10"
     inkscape:pageopacity="0"
     inkscape:pageshadow="2"
     inkscape:window-width="1303"
     inkscape:window-height="1050"
     id="namedview44"
     showgrid="false"
     inkscape:zoom="10.488889"
     inkscape:cx="27.177157"
     inkscape:cy="10.652418"
     inkscape:window-x="0"
     inkscape:window-y="28"
     inkscape:window-maximized="0"
     inkscape:current-layer="svg2" /><metadata
     id="metadata8"><rdf:RDF><cc:Work
         rdf:about=""><dc:format>image/svg+xml</dc:format><dc:type
           rdf:resource="http://purl.org/dc/dcmitype/StillImage" /></cc:Work></rdf:RDF></metadata><defs
     id="defs6"><clipPath
       id="clipPath16"
       clipPathUnits="userSpaceOnUse"><path
         id="path18"
         d="M 0,36 36,36 36,0 0,0 0,36 Z" /></clipPath><clipPath
       clipPathUnits="userSpaceOnUse"
       id="clipPath1042"><path
         id="path1044"
         style="fill:#ffffff;fill-opacity:1;fill-rule:nonzero;stroke:none;stroke-width:2;stroke-miterlimit:4;stroke-dasharray:none;stroke-opacity:1"
         d="m 17.500125,32.5 c -0.02,-0.005 1.8125,0.4725 3.0575,0.6075 0.4575,0.0525 0.92125,0.09375 1.39625,0.11 v 5.64625 h -1.95375 c -1.375,0 -2.5,-1.125 -2.5,-2.5 v -1.5775 0 z"
         inkscape:connector-curvature="0" /></clipPath><clipPath
       clipPathUnits="userSpaceOnUse"
       id="clipPath1046"><path
         id="path1048"
         style="fill:#ffffff;fill-opacity:1;fill-rule:nonzero;stroke:none;stroke-width:2;stroke-miterlimit:4;stroke-dasharray:none;stroke-opacity:1"
         d="m 27.500125,32.5 c 0.02,-0.005 -1.8125,0.4725 -3.0575,0.6075 -0.4575,0.0525 -0.92125,0.09375 -1.39625,0.11 v 5.64625 h 1.95375 c 1.375,0 2.5,-1.125 2.5,-2.5 v -1.5775 0 z"
         inkscape:connector-curvature="0" /></clipPath></defs><path
     style="color:#000000;font-style:normal;font-variant:normal;font-weight:normal;font-stretch:normal;font-size:medium;line-height:normal;font-family:sans-serif;font-variant-ligatures:normal;font-variant-position:normal;font-variant-caps:normal;font-variant-numeric:normal;font-variant-alternates:normal;font-feature-settings:normal;text-indent:0;text-align:start;text-decoration:none;text-decoration-line:none;text-decoration-style:solid;text-decoration-color:#000000;letter-spacing:normal;word-spacing:normal;text-transform:none;writing-mode:lr-tb;direction:ltr;text-orientation:mixed;dominant-baseline:auto;baseline-shift:baseline;text-anchor:start;white-space:normal;shape-padding:0;clip-rule:nonzero;display:inline;overflow:visible;visibility:visible;opacity:1;isolation:auto;mix-blend-mode:normal;color-interpolation:sRGB;color-interpolation-filters:linearRGB;solid-color:#000000;solid-opacity:1;vector-effect:none;fill:#000000;fill-opacity:1;fill-rule:nonzero;stroke:none;stroke-width:2;stroke-linecap:butt;stroke-linejoin:miter;stroke-miterlimit:4;stroke-dasharray:none;stroke-dashoffset:0;stroke-opacity:1;color-rendering:auto;image-rendering:auto;shape-rendering:auto;text-rendering:auto;enable-background:accumulate"
     clip-path="none"
     d="M 22.5 0 C 10.07375 0 0 10.07375 0 22.5 C 0 34.92625 10.07375 45 22.5 45 C 34.92625 45 45 34.92625 45 22.5 C 45 10.07375 34.92625 0 22.5 0 z M 22.5 1 C 34.385795 1 44 10.614205 44 22.5 C 44 34.385795 34.385795 44 22.5 44 C 10.614205 44 1 34.385795 1 22.5 C 1 10.614205 10.614205 1 22.5 1 z "
     id="path22" /><path
     id="path26"
     style="fill:#000000;fill-opacity:1;fill-rule:evenodd;stroke:none;stroke-width:1.25"
     d="m 1.55025,13.772 c 0.3,0.29875 1.79625,1.1975 2.09625,2.09375 0.3,0.89625 0.9,5.98 2.6975,7.47625 1.855,1.54125 8.84625,0.9675 10.18625,0.3 2.99625,-1.49375 3.36375,-5.66375 3.89375,-7.77625 0.29875,-1.19625 2.09625,-1.19625 2.09625,-1.19625 0,0 1.79875,0 2.0975,1.195 0.53,2.11375 0.9,6.28375 3.89375,7.77625 1.34125,0.66875 8.3325,1.2425 10.19,-0.29875 1.79375,-1.49625 2.39375,-6.58 2.69375,-7.4775 0.2975,-0.89625 1.79625,-1.79375 2.09625,-2.0925 0.30125,-0.29875 0.30125,-1.495 0,-1.795 C 42.89275,11.3795 35.824,10.847 28.21275,11.67825 26.694,11.8445 26.1165,12.277 22.52025,12.277 18.9265,12.277 18.3465,11.8445 16.829,11.6795 9.22025,10.847 2.149,11.3795 1.55025,11.977 c -0.29875,0.3 -0.29875,1.49625 0,1.795"
     inkscape:connector-curvature="0" /><path
     id="path30"
     style="fill:#664500;fill-opacity:1;fill-rule:nonzero;stroke:none;stroke-width:1.25"
     d="m 34.16875,29.536125 c -0.2225,-0.20125 -0.555,-0.21375 -0.79375,-0.03625 -0.04875,0.03625 -4.9025,3.625 -10.875,3.625 -5.9575,0 -10.8275,-3.58875 -10.875,-3.625 -0.23875,-0.1775 -0.57125,-0.1625 -0.79375,0.03625 -0.22125,0.2 -0.27125,0.53 -0.1175,0.785 0.16125,0.26875 4.02125,6.55375 11.78625,6.55375 7.765,0 11.62625,-6.285 11.78625,-6.55375 0.15375,-0.25625 0.105,-0.585 -0.1175,-0.785"
     inkscape:connector-curvature="0" /><path
     id="path34"
     style="fill:#ffffff;fill-opacity:1;fill-rule:nonzero;stroke:none;stroke-width:1.25"
     d="m 17.832,18.75 c -0.18375,2.07125 -1.92875,3.75 -3.89875,3.75 h -3.565 C 7.4995,22.5 6.567,20.82125 6.277,18.75 L 6.102,17.5 c -0.29,-2.07125 0.1475,-3.75 3.7075,-3.75 h 4.2325 c 3.4575,0 4.08375,1.67875 3.9,3.75 z"
     inkscape:connector-curvature="0" /><path
     id="path38"
     style="fill:#ffffff;fill-opacity:1;fill-rule:nonzero;stroke:none;stroke-width:1.25"
     d="m 27.417,18.75 c 0.1825,2.07125 1.92875,3.75 3.89875,3.75 h 3.565 c 2.86875,0 3.80125,-1.67875 4.09125,-3.75 L 39.14825,17.5 C 39.437,15.42875 38.9995,13.75 35.4395,13.75 H 31.207 c -3.4575,0 -4.0825,1.67875 -3.9,3.75 z"
     inkscape:connector-curvature="0" /><path
     id="path42"
     style="fill:#000000;fill-opacity:1;fill-rule:nonzero;stroke:none;stroke-width:1.25"
     d="M 13.125,15 C 11.39875,15 10,16.95875 10,19.375 c 0,1.22625 0.3625,2.33125 0.9425,3.125 h 2.99125 c 0.5725,0 1.12125,-0.155 1.62375,-0.40875 C 15.98375,21.34375 16.25,20.4075 16.25,19.375 16.25,16.95875 14.85125,15 13.125,15"
     inkscape:connector-curvature="0" /><path
     id="path46"
     style="fill:#000000;fill-opacity:1;fill-rule:nonzero;stroke:none;stroke-width:1.25"
     d="m 34.057625,22.5 c 0.58,-0.79375 0.9425,-1.89875 0.9425,-3.125 0,-2.41625 -1.39875,-4.375 -3.125,-4.375 -1.72625,0 -3.125,1.95875 -3.125,4.375 0,0.93875 0.21625,1.805 0.57625,2.5175 0.59,0.38125 1.27375,0.6075 1.99,0.6075 z"
     inkscape:connector-curvature="0" /><path
     id="path50"
     style="fill:none;fill-opacity:1;fill-rule:nonzero;stroke:none;stroke-width:1.25"
     d="M 45,22.5 C 45,34.92625 34.92625,45 22.5,45 10.07375,45 0,34.92625 0,22.5 0,10.07375 10.07375,0 22.5,0 34.92625,0 45,10.07375 45,22.5"
     inkscape:connector-curvature="0" /><path
     id="path54"
     style="fill:#664500;fill-opacity:1;fill-rule:nonzero;stroke:none;stroke-width:1.25"
     d="m 34.16875,29.536125 c -0.2225,-0.20125 -0.555,-0.21375 -0.79375,-0.03625 -0.04875,0.03625 -4.9025,3.625 -10.875,3.625 -5.9575,0 -10.8275,-3.58875 -10.875,-3.625 -0.23875,-0.1775 -0.57125,-0.1625 -0.79375,0.03625 -0.22125,0.2 -0.27125,0.53 -0.1175,0.785 0.16125,0.26875 4.02125,6.55375 11.78625,6.55375 7.765,0 11.62625,-6.285 11.78625,-6.55375 0.15375,-0.25625 0.105,-0.585 -0.1175,-0.785"
     inkscape:connector-curvature="0" /><path
     id="path58"
     style="fill:#664500;fill-opacity:1;fill-rule:nonzero;stroke:none;stroke-width:1.25"
     d="m 34.16875,29.536125 c -0.2225,-0.20125 -0.555,-0.21375 -0.79375,-0.03625 -0.04875,0.03625 -4.9025,3.625 -10.875,3.625 -5.9575,0 -10.8275,-3.58875 -10.875,-3.625 -0.23875,-0.1775 -0.57125,-0.1625 -0.79375,0.03625 -0.22125,0.2 -0.27125,0.53 -0.1175,0.785 0.16125,0.26875 4.02125,6.55375 11.78625,6.55375 7.765,0 11.62625,-6.285 11.78625,-6.55375 0.15375,-0.25625 0.105,-0.585 -0.1175,-0.785"
     inkscape:connector-curvature="0" /><path
     id="path62"
     style="fill:#000000;fill-opacity:1;fill-rule:nonzero;stroke:none;stroke-width:1.25"
     d="m 22.500125,33.23875 c -0.185,0 -0.36375,-0.01375 -0.54625,-0.02 v 5.645 h 1.0925 V 33.2175 c -0.1825,0.0063 -0.36125,0.02125 -0.54625,0.02125"
     inkscape:connector-curvature="0" /><path
     id="path66"
     style="fill:#ffffff;fill-opacity:1;fill-rule:nonzero;stroke:#000000;stroke-width:2;stroke-miterlimit:4;stroke-dasharray:none;stroke-opacity:1"
     d="m 27.500125,32.5 c 0.02,-0.005 -1.8125,0.4725 -3.0575,0.6075 -0.4575,0.0525 -0.92125,0.09375 -1.39625,0.11 v 5.64625 h 1.95375 c 1.375,0 2.5,-1.125 2.5,-2.5 v -1.5775 0 z"
     inkscape:connector-curvature="0"
     clip-path="url(#clipPath1046)" /><path
     id="path70"
     style="fill:#ffffff;fill-opacity:1;fill-rule:nonzero;stroke:#000000;stroke-width:2;stroke-miterlimit:4;stroke-dasharray:none;stroke-opacity:1"
     d="m 17.500125,32.5 c -0.02,-0.005 1.8125,0.4725 3.0575,0.6075 0.4575,0.0525 0.92125,0.09375 1.39625,0.11 v 5.64625 h -1.95375 c -1.375,0 -2.5,-1.125 -2.5,-2.5 v -1.5775 0 z"
     inkscape:connector-curvature="0"
     clip-path="url(#clipPath1042)" /><path
     id="path74"
     style="fill:#000000;fill-opacity:1;fill-rule:nonzero;stroke:none;stroke-width:1.25"
     d="m 34.16875,29.536125 c -0.2225,-0.20125 -0.555,-0.21375 -0.79375,-0.03625 -0.03625,0.0275 -2.82375,2.085 -6.76375,3.0875 -0.55375,0.14 -2.33,0.5375 -4.1075,0.5375 -1.78,0 -3.56125,-0.3975 -4.115,-0.5375 -3.94,-1.0025 -6.72625,-3.06 -6.76375,-3.0875 -0.2375,-0.1775 -0.57125,-0.165 -0.79375,0.03625 -0.22125,0.2 -0.27125,0.52875 -0.11625,0.785 0.12,0.2025 2.355,3.83375 6.785,5.60125 v -2.28625 c -0.02,-0.005 1.8125,0.4725 3.0575,0.6075 0.4575,0.0525 0.92125,0.09375 1.39625,0.11 v 0.0012 c 0.1825,0.0063 0.36125,0.02 0.54625,0.02 0.185,0 0.36375,-0.01375 0.5475,-0.02 v -0.0012 c 0.47375,-0.01625 0.9375,-0.0575 1.395,-0.11 1.245,-0.135 3.0775,-0.6125 3.0575,-0.6075 v 2.28625 c 4.43,-1.7675 6.665,-5.39875 6.78625,-5.60125 0.15375,-0.25625 0.105,-0.585 -0.1175,-0.785"
     inkscape:connector-curvature="0" /><path
     id="path78"
     style="fill:#000000;fill-opacity:1;fill-rule:nonzero;stroke:none;stroke-width:1.25"
     d="m 33.2805,17.530125 c 0,2.1425 -1.1725,3.88 -2.62,3.88 -1.44625,0 -2.61875,-1.7375 -2.61875,-3.88 0,-2.1425 1.1725,-3.88 2.61875,-3.88 1.4475,0 2.62,1.7375 2.62,3.88"
     inkscape:connector-curvature="0" /><path
     id="path82"
     style="fill:#000000;fill-opacity:1;fill-rule:nonzero;stroke:none;stroke-width:1.25"
     d="m 38.6145,16.2805 c -0.14875,1.1925 -0.54375,4.39375 -1.58125,5.1675 -0.83,0.61875 -2.9525,1.0525 -4.48375,1.0525 h -0.0012 c -1.3825,0 -2.70375,-0.3525 -3.7175,-0.92875 -1.65375,-0.94125 -1.9,-3.5775 -1.99625,-4.95875 -0.05375,-0.76 -0.22,-2.3125 1.03625,-3.085 1.41875,-0.8725 4.3275,-0.9325 5.19375,-0.9325 1.89125,0 3.74,0.34625 5.065,0.7975 0.835,0.285 0.58,2.12875 0.485,2.8875 M 18.2683,16.59675 c -0.0975,1.38125 -0.3425,4.03375 -1.99625,4.975 -1.015,0.57625 -2.335,0.92875 -3.71875,0.92875 H 12.552 c -1.53125,0 -3.65375,-0.43375 -4.48375,-1.0525 C 7.03075,20.67425 6.637,17.48925 6.487,16.298 6.392,15.53925 6.13825,13.68425 6.972,13.39925 8.29825,12.948 10.14575,12.5955 12.037,12.5955 c 0.86625,0 3.77625,0.05375 5.19375,0.92625 1.25625,0.7725 1.09,2.315 1.0375,3.075 m 25.2425,-4.5625 c -0.21375,-0.20875 -1.58375,0.3425 -2.97,-0.36375 -2.86,-1.4575 -10.0875,-2.865 -14.7925,0.46875 -0.50375,0.3575 -2.60875,0.4175 -3.1975,0.39125 -0.5875,0.02625 -2.69375,-0.03375 -3.1975,-0.39125 C 14.6495,8.8055 7.42075,10.213 4.562,11.6705 c -1.3875,0.70625 -2.7575,0.155 -2.97,0.36375 -0.31,0.29875 -0.30875,1.495 0,1.79375 0.3075,0.29875 1.84625,0.64375 2.1525,1.54125 0.30875,0.8975 0.31125,6.1975 2.7675,8.02875 2.2975,1.715 7.66,2.23125 11.05875,0.29875 2.96625,-1.6875 2.86125,-5.2375 3.405,-7.35125 0.19375,-0.755 0.74,-1.135 1.575,-1.135 0.83625,0 1.38125,0.38 1.575,1.135 0.54375,2.11375 0.44,5.66375 3.405,7.35125 3.39875,1.9325 8.76125,1.41625 11.06,-0.29875 2.45625,-1.83125 2.45875,-7.13125 2.76625,-8.02875 0.30625,-0.8975 1.845,-1.2425 2.1525,-1.54125 0.31,-0.29875 0.31,-1.495 0.0012,-1.79375"
     inkscape:connector-curvature="0" /><path
     id="path86"
     style="fill:#000000;fill-opacity:1;fill-rule:nonzero;stroke:none;stroke-width:1.25"
     d="m 11.821375,17.530125 c 0,2.1425 1.1725,3.88 2.62,3.88 1.44625,0 2.61875,-1.7375 2.61875,-3.88 0,-2.1425 -1.1725,-3.88 -2.61875,-3.88 -1.4475,0 -2.62,1.7375 -2.62,3.88"
     inkscape:connector-curvature="0" /></svg>