<?xml version="1.0" encoding="UTF-8" standalone="no"?>
<svg
   xmlns:dc="http://purl.org/dc/elements/1.1/"
   xmlns:cc="http://creativecommons.org/ns#"
   xmlns:rdf="http://www.w3.org/1999/02/22-rdf-syntax-ns#"
   xmlns:svg="http://www.w3.org/2000/svg"
   xmlns="http://www.w3.org/2000/svg"
   xmlns:sodipodi="http://sodipodi.sourceforge.net/DTD/sodipodi-0.dtd"
   xmlns:inkscape="http://www.inkscape.org/namespaces/inkscape"
   viewBox="0 0 45 45"
   style="enable-background:new 0 0 45 45;"
   xml:space="preserve"
   version="1.1"
   id="svg2"
   sodipodi:docname="1f911.svg"
   inkscape:version="0.92.2 5c3e80d, 2017-08-06"><sodipodi:namedview
     pagecolor="#ffffff"
     bordercolor="#666666"
     borderopacity="1"
     objecttolerance="10"
     gridtolerance="10"
     guidetolerance="10"
     inkscape:pageopacity="0"
     inkscape:pageshadow="2"
     inkscape:window-width="1418"
     inkscape:window-height="1050"
     id="namedview22"
     showgrid="false"
     inkscape:zoom="7.4167645"
     inkscape:cx="7.0927301"
     inkscape:cy="5.3082022"
     inkscape:window-x="0"
     inkscape:window-y="28"
     inkscape:window-maximized="0"
     inkscape:current-layer="svg2" /><metadata
     id="metadata8"><rdf:RDF><cc:Work
         rdf:about=""><dc:format>image/svg+xml</dc:format><dc:type
           rdf:resource="http://purl.org/dc/dcmitype/StillImage" /></cc:Work></rdf:RDF></metadata><defs
     id="defs6"><clipPath
       id="clipPath16"
       clipPathUnits="userSpaceOnUse"><path
         id="path18"
         d="M 0,36 36,36 36,0 0,0 0,36 Z" /></clipPath><clipPath
       clipPathUnits="userSpaceOnUse"
       id="clipPath908"><path
         id="path910"
         style="fill:#5d9040;fill-opacity:1;fill-rule:nonzero;stroke:none;stroke-width:1.25"
         d="m 15,28.753625 v 8.70125 c 0,3.75 2.5,7.5 7.5,7.5 5,0 7.5,-3.75 7.5,-7.5 v -8.65 c -7.86375,1.615 -15,-0.05125 -15,-0.05125"
         inkscape:connector-curvature="0" /></clipPath></defs><path
     style="color:#000000;font-style:normal;font-variant:normal;font-weight:normal;font-stretch:normal;font-size:medium;line-height:normal;font-family:sans-serif;font-variant-ligatures:normal;font-variant-position:normal;font-variant-caps:normal;font-variant-numeric:normal;font-variant-alternates:normal;font-feature-settings:normal;text-indent:0;text-align:start;text-decoration:none;text-decoration-line:none;text-decoration-style:solid;text-decoration-color:#000000;letter-spacing:normal;word-spacing:normal;text-transform:none;writing-mode:lr-tb;direction:ltr;text-orientation:mixed;dominant-baseline:auto;baseline-shift:baseline;text-anchor:start;white-space:normal;shape-padding:0;clip-rule:nonzero;display:inline;overflow:visible;visibility:visible;opacity:1;isolation:auto;mix-blend-mode:normal;color-interpolation:sRGB;color-interpolation-filters:linearRGB;solid-color:#000000;solid-opacity:1;vector-effect:none;fill:#000000;fill-opacity:1;fill-rule:nonzero;stroke:none;stroke-width:2;stroke-linecap:butt;stroke-linejoin:miter;stroke-miterlimit:4;stroke-dasharray:none;stroke-dashoffset:0;stroke-opacity:1;color-rendering:auto;image-rendering:auto;shape-rendering:auto;text-rendering:auto;enable-background:accumulate"
     clip-path="none"
     d="M 22.5 0 C 10.075 0 0 10.075 0 22.5 C 0 34.92625 10.075 45 22.5 45 C 34.92625 45 45 34.92625 45 22.5 C 45 10.075 34.92625 0 22.5 0 z M 22.5 1 C 34.385728 1 44 10.61551 44 22.5 C 44 34.385795 34.385795 44 22.5 44 C 10.61551 44 1 34.385728 1 22.5 C 1 10.615577 10.615577 1 22.5 1 z "
     id="path22" /><path
     id="path26"
     style="fill:#000000;fill-opacity:1;fill-rule:nonzero;stroke:none;stroke-width:1.25"
     d="m 8.75,26.578375 c 0,4.955 5.745,11.25 13.75,11.25 8.005,0 13.75,-6.25 13.75,-11.25 0,0 -12.91625,3.445 -27.5,0"
     inkscape:connector-curvature="0" /><path
     id="path30"
     style="fill:#ffffff;fill-opacity:1;fill-rule:nonzero;stroke:#000000;stroke-width:2;stroke-opacity:1;stroke-miterlimit:4;stroke-dasharray:none"
     d="m 15,28.753625 v 8.70125 c 0,3.75 2.5,7.5 7.5,7.5 5,0 7.5,-3.75 7.5,-7.5 v -8.65 c -7.86375,1.615 -15,-0.05125 -15,-0.05125"
     inkscape:connector-curvature="0"
     clip-path="url(#clipPath908)" /><path
     id="path34"
     style="fill:#000000;fill-opacity:1;fill-rule:nonzero;stroke:none;stroke-width:1.25"
     d="m 15.35525,15.412625 c -0.945,-0.365 -1.83875,-0.71 -1.83875,-1.21 0,-0.82375 1.10625,-0.86625 1.3275,-0.86625 0.78125,0 1.16875,0.29375 1.51125,0.5525 0.26375,0.1975 0.53625,0.40375 0.91375,0.40375 0.70625,0 1.0275,-0.49625 1.0275,-0.9575 0,-0.92 -1.1275,-1.57 -2.32375,-1.84125 v -0.49375 c 0,-0.64625 -0.52625,-1.17375 -1.17375,-1.17375 -0.64625,0 -1.17375,0.5275 -1.17375,1.17375 v 0.5325 c -1.43,0.41625 -2.30625,1.4675 -2.30625,2.79375 0,1.63875 1.61625,2.31125 3.04125,2.90375 1.02125,0.425 1.98625,0.82625 1.98625,1.4525 0,0.4575 -0.57375,0.95125 -1.5025,0.95125 -0.9375,0 -1.475,-0.37375 -1.95,-0.705 -0.3275,-0.22875 -0.6375,-0.445 -1.00625,-0.445 -0.5375,0 -0.95875,0.4525 -0.95875,1.03 0,0.84875 1.16375,1.695 2.69625,1.9925 v 0.5875 c 0,0.6475 0.5275,1.17375 1.175,1.17375 0.64625,0 1.17375,-0.52625 1.17375,-1.17375 l -0.0062,-0.62125 c 1.62,-0.395 2.5775,-1.5275 2.5775,-3.07375 0,-1.755 -1.76875,-2.4375 -3.19,-2.98625"
     inkscape:connector-curvature="0" /><path
     id="path38"
     style="fill:#000000;fill-opacity:1;fill-rule:nonzero;stroke:none;stroke-width:1.25"
     d="m 33.367875,18.420375 c 0,-1.755 -1.76875,-2.4375 -3.19,-2.98625 -0.945,-0.365 -1.83625,-0.70875 -1.83625,-1.20875 0,-0.825 1.10375,-0.86625 1.325,-0.86625 0.78125,0 1.17,0.2925 1.5125,0.55125 0.26375,0.19875 0.535,0.40375 0.9125,0.40375 0.70625,0 1.02875,-0.49625 1.02875,-0.95625 0,-0.92125 -1.12875,-1.57125 -2.32375,-1.8425 v -0.4925 c 0,-0.6475 -0.5275,-1.17375 -1.17375,-1.17375 -0.64875,0 -1.17625,0.52625 -1.17625,1.17375 v 0.5325 c -1.42875,0.415 -2.305,1.4675 -2.305,2.79375 0,1.63875 1.61625,2.31 3.04125,2.90375 1.0225,0.42375 1.98625,0.825 1.98625,1.45125 0,0.4575 -0.57375,0.9525 -1.5025,0.9525 -0.9375,0 -1.475,-0.375 -1.94875,-0.70625 -0.3275,-0.22875 -0.6375,-0.445 -1.00625,-0.445 -0.53875,0 -0.96,0.4525 -0.96,1.03125 0,0.84875 1.16375,1.69375 2.695,1.99125 v 0.58875 c 0,0.64625 0.52875,1.1725 1.1775,1.1725 0.64625,0 1.1725,-0.52625 1.1725,-1.1725 l -0.0038,-0.6225 c 1.6175,-0.395 2.575,-1.52875 2.575,-3.07375"
     inkscape:connector-curvature="0" /><path
     id="path42"
     style="fill:#000000;fill-opacity:1;fill-rule:nonzero;stroke:none;stroke-width:1.25"
     d="m 26.212125,38.836625 c 0,-1.71 -1.72375,-2.37625 -3.10875,-2.91125 -0.9225,-0.355 -1.7925,-0.6925 -1.7925,-1.17875 0,-0.80375 1.0775,-0.84375 1.2925,-0.84375 0.7625,0 1.14,0.285 1.475,0.53625 0.25625,0.195 0.5225,0.395 0.89125,0.395 0.6875,0 1.00125,-0.485 1.00125,-0.93375 0,-0.89625 -1.09875,-1.53 -2.265,-1.79625 v -0.48 c 0,-0.63 -0.51375,-1.145 -1.145,-1.145 -0.63125,0 -1.145,0.515 -1.145,1.145 v 0.51875 c -1.39375,0.40625 -2.24875,1.43125 -2.24875,2.72375 0,1.59875 1.57625,2.25375 2.96625,2.83125 0.99625,0.41375 1.93625,0.80375 1.93625,1.415 0,0.44625 -0.56,0.92875 -1.46625,0.92875 -0.91375,0 -1.4375,-0.365 -1.89875,-0.68875 -0.32,-0.2225 -0.62125,-0.43375 -0.98125,-0.43375 -0.525,0 -0.935,0.4425 -0.935,1.005 0,0.82875 1.13375,1.6525 2.6275,1.9425 v 0.57375 c 0,0.63 0.51375,1.1425 1.14625,1.1425 0.63125,0 1.14375,-0.5125 1.14375,-1.1425 l -0.0038,-0.60875 c 1.5775,-0.38375 2.51,-1.48875 2.51,-2.995"
     inkscape:connector-curvature="0" /></svg>