<?xml version="1.0" encoding="UTF-8" standalone="no"?>
<svg
   xmlns:dc="http://purl.org/dc/elements/1.1/"
   xmlns:cc="http://creativecommons.org/ns#"
   xmlns:rdf="http://www.w3.org/1999/02/22-rdf-syntax-ns#"
   xmlns:svg="http://www.w3.org/2000/svg"
   xmlns="http://www.w3.org/2000/svg"
   xmlns:sodipodi="http://sodipodi.sourceforge.net/DTD/sodipodi-0.dtd"
   xmlns:inkscape="http://www.inkscape.org/namespaces/inkscape"
   viewBox="0 0 45 45"
   style="enable-background:new 0 0 45 45;"
   xml:space="preserve"
   version="1.1"
   id="svg2"
   sodipodi:docname="1f915.svg"
   inkscape:version="0.92.2 5c3e80d, 2017-08-06"><sodipodi:namedview
     pagecolor="#ffffff"
     bordercolor="#666666"
     borderopacity="1"
     objecttolerance="10"
     gridtolerance="10"
     guidetolerance="10"
     inkscape:pageopacity="0"
     inkscape:pageshadow="2"
     inkscape:window-width="1303"
     inkscape:window-height="1050"
     id="namedview40"
     showgrid="false"
     inkscape:zoom="7.4167645"
     inkscape:cx="12.530359"
     inkscape:cy="14.334345"
     inkscape:window-x="0"
     inkscape:window-y="28"
     inkscape:window-maximized="0"
     inkscape:current-layer="svg2" /><metadata
     id="metadata8"><rdf:RDF><cc:Work
         rdf:about=""><dc:format>image/svg+xml</dc:format><dc:type
           rdf:resource="http://purl.org/dc/dcmitype/StillImage" /></cc:Work></rdf:RDF></metadata><defs
     id="defs6"><clipPath
       id="clipPath16"
       clipPathUnits="userSpaceOnUse"><path
         id="path18"
         d="M 0,36 36,36 36,0 0,0 0,36 Z" /></clipPath><clipPath
       id="clipPath40"
       clipPathUnits="userSpaceOnUse"><path
         id="path42"
         d="M 18,36 C 8.059,36 0,27.941 0,18 l 0,0 C 0,8.059 8.059,0 18,0 l 0,0 c 9.941,0 18,8.059 18,18 l 0,0 c 0,9.941 -8.059,18 -18,18 z" /></clipPath></defs><g
     id="g24"
     transform="matrix(1.25,0,0,-1.25,36.19625,22.246125)"
     style="fill:#000000"><path
       inkscape:connector-curvature="0"
       d="m 0,0 c -0.059,0.135 -1.499,3.297 -4.457,3.297 -2.957,0 -4.397,-3.162 -4.457,-3.297 -0.092,-0.207 -0.032,-0.449 0.144,-0.592 0.175,-0.141 0.426,-0.146 0.611,-0.013 0.012,0.009 1.262,0.902 3.702,0.902 2.426,0 3.674,-0.881 3.702,-0.901 0.088,-0.066 0.194,-0.099 0.298,-0.099 0.11,0 0.221,0.037 0.312,0.109 C 0.032,-0.452 0.093,-0.208 0,0"
       style="fill:#000000;fill-opacity:1;fill-rule:nonzero;stroke:none"
       id="path26" /></g><g
     id="g28"
     transform="matrix(1.25,0,0,-1.25,19.94625,22.246125)"
     style="fill:#000000"><path
       inkscape:connector-curvature="0"
       d="m 0,0 c -0.06,0.135 -1.499,3.297 -4.457,3.297 -2.957,0 -4.397,-3.162 -4.457,-3.297 -0.092,-0.207 -0.032,-0.449 0.144,-0.592 0.176,-0.141 0.427,-0.146 0.61,-0.013 0.013,0.009 1.262,0.902 3.703,0.902 2.426,0 3.674,-0.881 3.702,-0.901 0.088,-0.066 0.194,-0.099 0.298,-0.099 0.11,0 0.221,0.037 0.311,0.109 C 0.033,-0.452 0.092,-0.208 0,0"
       style="fill:#000000;fill-opacity:1;fill-rule:nonzero;stroke:none"
       id="path30" /></g><g
     id="g32"
     transform="matrix(1.25,0,0,-1.25,16.25,35)"
     style="fill:#000000"><path
       inkscape:connector-curvature="0"
       d="M 0,0 C 0,0 1,4 5,4 9,4 10,0 10,0 10,0 9,1 5,1 1,1 0,0 0,0"
       style="fill:#000000;fill-opacity:1;fill-rule:nonzero;stroke:none"
       id="path34" /></g><g
     clip-path="url(#clipPath40)"
     id="g38"
     transform="matrix(1.25,0,0,-1.25,0,45)"><g
       transform="translate(43.4307,20.2417)"
       id="g44"><path
         id="path46"
         style="fill:#ffffff;fill-opacity:1;fill-rule:nonzero;stroke:none;stroke-width:0.8;stroke-miterlimit:4;stroke-dasharray:none"
         d="m 0,0 -45.835,8.342 0.379,2.083 45.835,-8.342 z"
         inkscape:connector-curvature="0" /></g><g
       transform="translate(43.8096,22.3252)"
       id="g48"><path
         id="path50"
         style="fill:#000000;fill-opacity:1;fill-rule:nonzero;stroke:none"
         d="M 0,0 -45.835,8.342 -45.646,9.384 0.189,1.042 Z"
         inkscape:connector-curvature="0" /></g><g
       transform="translate(43.999,23.3672)"
       id="g52"><path
         id="path54"
         style="fill:#ffffff;fill-opacity:1;fill-rule:nonzero;stroke:none;stroke-width:0.8;stroke-miterlimit:4;stroke-dasharray:none"
         d="m 0,0 -45.835,8.342 0.379,2.083 L 0.38,2.083 Z"
         inkscape:connector-curvature="0" /></g><g
       transform="translate(44.3789,25.4507)"
       id="g56"><path
         id="path58"
         style="fill:#000000;fill-opacity:1;fill-rule:nonzero;stroke:none"
         d="m 0,0 -45.836,8.342 0.19,1.041 45.834,-8.342 z"
         inkscape:connector-curvature="0" /></g><g
       transform="translate(44.5674,26.4922)"
       id="g60"><path
         id="path62"
         style="fill:#ffffff;fill-opacity:1;fill-rule:nonzero;stroke:none;stroke-width:0.8;stroke-miterlimit:4;stroke-dasharray:none"
         d="m 0,0 -45.834,8.342 0.378,2.083 L 0.38,2.083 Z"
         inkscape:connector-curvature="0" /></g><g
       transform="translate(-6.8877,23.3252)"
       id="g64"><path
         id="path66"
         style="fill:#000000;fill-opacity:1;fill-rule:nonzero;stroke:none"
         d="M 0,0 45.835,8.342 45.645,9.384 -0.189,1.042 Z"
         inkscape:connector-curvature="0" /></g><g
       transform="translate(-7.0771,24.3672)"
       id="g68"><path
         id="path70"
         style="fill:#ffffff;fill-opacity:1;fill-rule:nonzero;stroke:none;stroke-width:0.8;stroke-miterlimit:4;stroke-dasharray:none"
         d="M 0,0 45.835,8.342 45.456,10.425 -0.38,2.083 Z"
         inkscape:connector-curvature="0" /></g><g
       transform="translate(-7.457,26.4507)"
       id="g72"><path
         id="path74"
         style="fill:#000000;fill-opacity:1;fill-rule:nonzero;stroke:none"
         d="M 0,0 45.836,8.342 45.647,9.383 -0.188,1.042 Z"
         inkscape:connector-curvature="0" /></g><g
       transform="translate(-7.6455,27.4922)"
       id="g76"><path
         id="path78"
         style="fill:#ffffff;fill-opacity:1;fill-rule:nonzero;stroke:#000000;stroke-width:0.8;stroke-miterlimit:4;stroke-dasharray:none;stroke-opacity:1"
         d="M 0,0 45.835,8.342 45.456,10.425 -0.38,2.083 Z"
         inkscape:connector-curvature="0" /></g></g><path
     style="color:#000000;font-style:normal;font-variant:normal;font-weight:normal;font-stretch:normal;font-size:medium;line-height:normal;font-family:sans-serif;font-variant-ligatures:normal;font-variant-position:normal;font-variant-caps:normal;font-variant-numeric:normal;font-variant-alternates:normal;font-feature-settings:normal;text-indent:0;text-align:start;text-decoration:none;text-decoration-line:none;text-decoration-style:solid;text-decoration-color:#000000;letter-spacing:normal;word-spacing:normal;text-transform:none;writing-mode:lr-tb;direction:ltr;text-orientation:mixed;dominant-baseline:auto;baseline-shift:baseline;text-anchor:start;white-space:normal;shape-padding:0;clip-rule:nonzero;display:inline;overflow:visible;visibility:visible;opacity:1;isolation:auto;mix-blend-mode:normal;color-interpolation:sRGB;color-interpolation-filters:linearRGB;solid-color:#000000;solid-opacity:1;vector-effect:none;fill:#000000;fill-opacity:1;fill-rule:nonzero;stroke:none;stroke-width:2;stroke-linecap:butt;stroke-linejoin:miter;stroke-miterlimit:4;stroke-dasharray:none;stroke-dashoffset:0;stroke-opacity:1;color-rendering:auto;image-rendering:auto;shape-rendering:auto;text-rendering:auto;enable-background:accumulate"
     d="M 22.5 0 C 10.075 0 0 10.075 0 22.5 C 0 34.92625 10.075 45 22.5 45 C 34.92625 45 45 34.92625 45 22.5 C 45 10.075 34.92625 0 22.5 0 z M 22.5 1 C 34.385728 1 44 10.61551 44 22.5 C 44 34.385795 34.385795 44 22.5 44 C 10.61551 44 1 34.385728 1 22.5 C 1 10.615577 10.615577 1 22.5 1 z "
     id="path22" /></svg>