<?xml version="1.0" encoding="UTF-8" standalone="no"?>
<svg
   xmlns:dc="http://purl.org/dc/elements/1.1/"
   xmlns:cc="http://creativecommons.org/ns#"
   xmlns:rdf="http://www.w3.org/1999/02/22-rdf-syntax-ns#"
   xmlns:svg="http://www.w3.org/2000/svg"
   xmlns="http://www.w3.org/2000/svg"
   xmlns:sodipodi="http://sodipodi.sourceforge.net/DTD/sodipodi-0.dtd"
   xmlns:inkscape="http://www.inkscape.org/namespaces/inkscape"
   viewBox="0 0 45 45"
   style="enable-background:new 0 0 45 45;"
   xml:space="preserve"
   version="1.1"
   id="svg2"
   sodipodi:docname="1f916.svg"
   inkscape:version="0.92.2 5c3e80d, 2017-08-06"><sodipodi:namedview
     pagecolor="#ffffff"
     bordercolor="#666666"
     borderopacity="1"
     objecttolerance="10"
     gridtolerance="10"
     guidetolerance="10"
     inkscape:pageopacity="0"
     inkscape:pageshadow="2"
     inkscape:window-width="1303"
     inkscape:window-height="1050"
     id="namedview61"
     showgrid="false"
     inkscape:zoom="3.7083822"
     inkscape:cx="-11.878025"
     inkscape:cy="26.912556"
     inkscape:window-x="0"
     inkscape:window-y="28"
     inkscape:window-maximized="0"
     inkscape:current-layer="svg2" /><metadata
     id="metadata8"><rdf:RDF><cc:Work
         rdf:about=""><dc:format>image/svg+xml</dc:format><dc:type
           rdf:resource="http://purl.org/dc/dcmitype/StillImage" /></cc:Work></rdf:RDF></metadata><defs
     id="defs6"><clipPath
       id="clipPath16"
       clipPathUnits="userSpaceOnUse"><path
         id="path18"
         d="M 0,36 36,36 36,0 0,0 0,36 Z" /></clipPath><clipPath
       id="clipPath98"
       clipPathUnits="userSpaceOnUse"><path
         id="path100"
         d="M 9.5,13 C 8.119,13 7,11.881 7,10.5 l 0,0 C 7,9.119 8.119,8 9.5,8 l 0,0 17,0 c 1.381,0 2.5,1.119 2.5,2.5 l 0,0 c 0,1.381 -1.119,2.5 -2.5,2.5 l 0,0 -17,0 z" /></clipPath><clipPath
       id="clipPath110"
       clipPathUnits="userSpaceOnUse"><path
         id="path112"
         d="M 0,36 36,36 36,0 0,0 0,36 Z" /></clipPath></defs><path
     style="color:#000000;font-style:normal;font-variant:normal;font-weight:normal;font-stretch:normal;font-size:medium;line-height:normal;font-family:sans-serif;font-variant-ligatures:normal;font-variant-position:normal;font-variant-caps:normal;font-variant-numeric:normal;font-variant-alternates:normal;font-feature-settings:normal;text-indent:0;text-align:start;text-decoration:none;text-decoration-line:none;text-decoration-style:solid;text-decoration-color:#000000;letter-spacing:normal;word-spacing:normal;text-transform:none;writing-mode:lr-tb;direction:ltr;text-orientation:mixed;dominant-baseline:auto;baseline-shift:baseline;text-anchor:start;white-space:normal;shape-padding:0;clip-rule:nonzero;display:inline;overflow:visible;visibility:visible;opacity:1;isolation:auto;mix-blend-mode:normal;color-interpolation:sRGB;color-interpolation-filters:linearRGB;solid-color:#000000;solid-opacity:1;vector-effect:none;fill:#000000;fill-opacity:1;fill-rule:nonzero;stroke:none;stroke-width:2;stroke-linecap:butt;stroke-linejoin:miter;stroke-miterlimit:4;stroke-dasharray:none;stroke-dashoffset:0;stroke-opacity:1;color-rendering:auto;image-rendering:auto;shape-rendering:auto;text-rendering:auto;enable-background:accumulate"
     d="M 41.875 13.75 C 40.14875 13.75 38.75 15.70875 38.75 18.125 C 38.75 20.54125 40.14875 22.5 41.875 22.5 C 43.60125 22.5 45 20.54125 45 18.125 C 45 15.70875 43.60125 13.75 41.875 13.75 z M 41.875 14.75 C 42.359897 14.75 42.845858 15.017357 43.271484 15.613281 C 43.697111 16.209205 44 17.109839 44 18.125 C 44 19.140161 43.697111 20.040795 43.271484 20.636719 C 42.845858 21.232643 42.359897 21.5 41.875 21.5 C 41.390103 21.5 40.904142 21.232643 40.478516 20.636719 C 40.052889 20.040795 39.75 19.140161 39.75 18.125 C 39.75 17.109839 40.052889 16.209205 40.478516 15.613281 C 40.904142 15.017357 41.390103 14.75 41.875 14.75 z "
     id="path22" /><path
     style="color:#000000;font-style:normal;font-variant:normal;font-weight:normal;font-stretch:normal;font-size:medium;line-height:normal;font-family:sans-serif;font-variant-ligatures:normal;font-variant-position:normal;font-variant-caps:normal;font-variant-numeric:normal;font-variant-alternates:normal;font-feature-settings:normal;text-indent:0;text-align:start;text-decoration:none;text-decoration-line:none;text-decoration-style:solid;text-decoration-color:#000000;letter-spacing:normal;word-spacing:normal;text-transform:none;writing-mode:lr-tb;direction:ltr;text-orientation:mixed;dominant-baseline:auto;baseline-shift:baseline;text-anchor:start;white-space:normal;shape-padding:0;clip-rule:nonzero;display:inline;overflow:visible;visibility:visible;opacity:1;isolation:auto;mix-blend-mode:normal;color-interpolation:sRGB;color-interpolation-filters:linearRGB;solid-color:#000000;solid-opacity:1;vector-effect:none;fill:#000000;fill-opacity:1;fill-rule:nonzero;stroke:none;stroke-width:2;stroke-linecap:butt;stroke-linejoin:miter;stroke-miterlimit:4;stroke-dasharray:none;stroke-dashoffset:0;stroke-opacity:1;color-rendering:auto;image-rendering:auto;shape-rendering:auto;text-rendering:auto;enable-background:accumulate"
     d="M 3.125 13.75 C 1.39875 13.75 3.8823111e-17 15.70875 0 18.125 C 0 20.54125 1.39875 22.5 3.125 22.5 C 4.85125 22.5 6.25 20.54125 6.25 18.125 C 6.25 15.70875 4.85125 13.75 3.125 13.75 z M 3.125 14.75 C 3.6098967 14.75 4.0958579 15.017357 4.5214844 15.613281 C 4.9471109 16.209205 5.25 17.109839 5.25 18.125 C 5.25 19.140161 4.9471109 20.040795 4.5214844 20.636719 C 4.0958579 21.232643 3.6098967 21.5 3.125 21.5 C 2.6401033 21.5 2.1541421 21.232643 1.7285156 20.636719 C 1.3028891 20.040795 1 19.140161 1 18.125 C 1 17.109839 1.3028891 16.209205 1.7285156 15.613281 C 2.1541421 15.017357 2.6401033 14.75 3.125 14.75 z "
     id="path26" /><path
     id="path30"
     style="fill:#000000;fill-opacity:1;fill-rule:nonzero;stroke:none;stroke-width:1.25"
     d="M 42.5,23.75 C 42.5,24.44125 41.94125,25 41.25,25 H 37.5 c -0.69125,0 -1.25,-0.55875 -1.25,-1.25 V 12.5 c 0,-0.69 0.55875,-1.25 1.25,-1.25 h 3.75 c 0.69125,0 1.25,0.56 1.25,1.25 z"
     inkscape:connector-curvature="0" /><path
     id="path34"
     style="fill:#000000;fill-opacity:1;fill-rule:nonzero;stroke:none;stroke-width:1.25"
     d="M 8.75,23.75 C 8.75,24.44125 8.19,25 7.5,25 H 3.75 C 3.06,25 2.5,24.44125 2.5,23.75 V 12.5 c 0,-0.69 0.56,-1.25 1.25,-1.25 H 7.5 c 0.69,0 1.25,0.56 1.25,1.25 z"
     inkscape:connector-curvature="0" /><path
     style="color:#000000;font-style:normal;font-variant:normal;font-weight:normal;font-stretch:normal;font-size:medium;line-height:normal;font-family:sans-serif;font-variant-ligatures:normal;font-variant-position:normal;font-variant-caps:normal;font-variant-numeric:normal;font-variant-alternates:normal;font-feature-settings:normal;text-indent:0;text-align:start;text-decoration:none;text-decoration-line:none;text-decoration-style:solid;text-decoration-color:#000000;letter-spacing:normal;word-spacing:normal;text-transform:none;writing-mode:lr-tb;direction:ltr;text-orientation:mixed;dominant-baseline:auto;baseline-shift:baseline;text-anchor:start;white-space:normal;shape-padding:0;clip-rule:nonzero;display:inline;overflow:visible;visibility:visible;opacity:1;isolation:auto;mix-blend-mode:normal;color-interpolation:sRGB;color-interpolation-filters:linearRGB;solid-color:#000000;solid-opacity:1;vector-effect:none;fill:#000000;fill-opacity:1;fill-rule:nonzero;stroke:none;stroke-width:2;stroke-linecap:butt;stroke-linejoin:miter;stroke-miterlimit:4;stroke-dasharray:none;stroke-dashoffset:0;stroke-opacity:1;color-rendering:auto;image-rendering:auto;shape-rendering:auto;text-rendering:auto;enable-background:accumulate"
     d="M 22.5 0 C 15.59625 0 10 2.79875 10 6.25 C 10 9.70125 15.59625 11.25 22.5 11.25 C 29.40375 11.25 35 9.70125 35 6.25 C 35 2.79875 29.40375 0 22.5 0 z M 22.5 1 C 25.816743 1 28.812516 1.6845065 30.892578 2.7246094 C 32.97264 3.7647122 34 5.0648796 34 6.25 C 34 6.8425602 33.797039 7.2962841 33.3125 7.7792969 C 32.827961 8.2623096 32.037944 8.7271932 30.998047 9.1035156 C 28.918253 9.8561605 25.877097 10.25 22.5 10.25 C 19.122903 10.25 16.081747 9.8561605 14.001953 9.1035156 C 12.962056 8.7271932 12.172039 8.2623096 11.6875 7.7792969 C 11.202961 7.2962841 11 6.8425602 11 6.25 C 11 5.0648796 12.02736 3.7647122 14.107422 2.7246094 C 16.187484 1.6845065 19.183257 1 22.5 1 z "
     id="path38" /><path
     id="path42"
     style="fill:#000000;fill-opacity:1;fill-rule:nonzero;stroke:none;stroke-width:1.25"
     d="m 31.25,5.104375 c 0,2.01375 -3.91875,3.64625 -8.75,3.64625 -4.8325,0 -8.75,-1.6325 -8.75,-3.64625 0,-2.01375 3.9175,-3.64625 8.75,-3.64625 4.83125,0 8.75,1.6325 8.75,3.64625"
     inkscape:connector-curvature="0" /><path
     id="path46"
     style="fill:#000000;fill-opacity:1;fill-rule:nonzero;stroke:none;stroke-width:1.25"
     d="m 37.5,6.875 c 0,1.72625 -1.39875,1.875 -3.125,1.875 H 10.625 C 8.89875,8.75 7.5,8.60125 7.5,6.875 7.5,5.14875 8.89875,3.75 10.625,3.75 h 23.75 c 1.72625,0 3.125,1.39875 3.125,3.125"
     inkscape:connector-curvature="0" /><path
     inkscape:connector-curvature="0"
     d="M 40,37.5 C 40,38.88 38.88125,40 37.5,40 H 7.5 C 6.12,40 5,38.88 5,37.5 V 10 C 5,8.62 6.12,7.5 7.5,7.5 h 30 c 1.38125,0 2.5,1.12 2.5,2.5 z"
     style="fill:#ffffff;fill-opacity:1;fill-rule:nonzero;stroke:#000000;stroke-width:1;stroke-opacity:1;stroke-miterlimit:4;stroke-dasharray:none"
     id="path1099" /><path
     id="path54"
     style="fill:#000000;fill-opacity:1;fill-rule:nonzero;stroke:none;stroke-width:1.25"
     d="m 43.75,41.25 c 0,1.38125 0.13125,2.5 -1.25,2.5 h -40 c -1.38,0 -1.25,-1.11875 -1.25,-2.5 V 40 c 0,-1.38125 1.12,-2.5 2.5,-2.5 h 37.5 c 1.38125,0 2.5,1.11875 2.5,2.5 z"
     inkscape:connector-curvature="0" /><path
     id="path58"
     style="fill:#ffffff;fill-opacity:1;fill-rule:nonzero;stroke:none;stroke-width:1.25"
     d="m 23.38375,41.705375 c -0.48875,0.48875 -1.27875,0.48875 -1.7675,0 L 14.545,34.634125 c -0.4875,-0.48875 -0.48875,-1.28 0,-1.7675 l 7.07125,-5.8225 c 0.48875,-0.4875 1.27875,-0.4875 1.7675,0 l 7.07,5.8225 c 0.48875,0.4875 0.49,1.27875 0,1.7675 z"
     inkscape:connector-curvature="0" /><path
     id="path62"
     style="fill:none;fill-opacity:1;fill-rule:nonzero;stroke:#000000;stroke-width:1;stroke-miterlimit:4;stroke-dasharray:none;stroke-opacity:1"
     d="m 20,18.125 c 0,3.10625 -2.51875,5.625 -5.625,5.625 -3.10625,0 -5.625,-2.51875 -5.625,-5.625 0,-3.10625 2.51875,-5.625 5.625,-5.625 3.10625,0 5.625,2.51875 5.625,5.625"
     inkscape:connector-curvature="0" /><path
     id="path66"
     style="fill:none;fill-opacity:1;fill-rule:nonzero;stroke:#000000;stroke-width:1;stroke-miterlimit:4;stroke-dasharray:none;stroke-opacity:1"
     d="m 36.25,18.125 c 0,3.10625 -2.51875,5.625 -5.625,5.625 C 27.51875,23.75 25,21.23125 25,18.125 25,15.01875 27.51875,12.5 30.625,12.5 c 3.10625,0 5.625,2.51875 5.625,5.625"
     inkscape:connector-curvature="0" /><path
     id="path70"
     style="fill:#66757f;fill-opacity:1;fill-rule:nonzero;stroke:none;stroke-width:1.25"
     d="M 15,17.5 Z"
     inkscape:connector-curvature="0" /><path
     id="path74"
     style="fill:#66757f;fill-opacity:1;fill-rule:nonzero;stroke:none;stroke-width:1.25"
     d="M 15,17.5 Z"
     inkscape:connector-curvature="0" /><path
     id="path78"
     style="fill:#000000;fill-opacity:1;fill-rule:nonzero;stroke:none;stroke-width:1.25"
     d="m 32.5,21.25 c 0,0.69125 -0.55875,1.25 -1.25,1.25 H 30 c -0.69125,0 -1.25,-0.55875 -1.25,-1.25 V 15 c 0,-0.69 0.55875,-1.25 1.25,-1.25 h 1.25 c 0.69125,0 1.25,0.56 1.25,1.25 z"
     inkscape:connector-curvature="0" /><path
     id="path82"
     style="fill:#000000;fill-opacity:1;fill-rule:nonzero;stroke:none;stroke-width:1.25"
     d="m 16.25,21.25 c 0,0.69125 -0.56,1.25 -1.25,1.25 h -1.25 c -0.69,0 -1.25,-0.55875 -1.25,-1.25 V 15 c 0,-0.69 0.56,-1.25 1.25,-1.25 H 15 c 0.69,0 1.25,0.56 1.25,1.25 z"
     inkscape:connector-curvature="0" /><path
     id="path86"
     style="fill:none;fill-opacity:1;fill-rule:nonzero;stroke:#000000;stroke-width:1;stroke-miterlimit:4;stroke-dasharray:none;stroke-opacity:1"
     d="M 36.25,31.875 C 36.25,33.60125 34.85125,35 33.125,35 H 11.875 C 10.14875,35 8.75,33.60125 8.75,31.875 c 0,-1.72625 1.39875,-3.125 3.125,-3.125 h 21.25 c 1.72625,0 3.125,1.39875 3.125,3.125"
     inkscape:connector-curvature="0" /><path
     inkscape:connector-curvature="0"
     d="m 23.75,35 h -2.5 v -6.25 h 2.5 z"
     style="fill:#000000;fill-opacity:1;fill-rule:nonzero;stroke:none;stroke-width:1.25"
     id="path88" /><path
     inkscape:connector-curvature="0"
     d="M 17.5,35 H 15 v -6.25 h 2.5 z"
     style="fill:#000000;fill-opacity:1;fill-rule:nonzero;stroke:none;stroke-width:1.25"
     id="path90" /><path
     inkscape:connector-curvature="0"
     d="M 30,35 H 27.5 V 28.75 H 30 Z"
     style="fill:#000000;fill-opacity:1;fill-rule:nonzero;stroke:none;stroke-width:1.25"
     id="path92" /><path
     inkscape:connector-curvature="0"
     d="m 11.25,35 h -2.5 v -6.25 h 2.5 z"
     style="fill:#000000;fill-opacity:1;fill-rule:nonzero;stroke:none;stroke-width:1.25"
     id="path102" /><path
     inkscape:connector-curvature="0"
     d="m 36.25,35 h -2.5 v -6.25 h 2.5 z"
     style="fill:#000000;fill-opacity:1;fill-rule:nonzero;stroke:none;stroke-width:1.25"
     id="path104" /><path
     id="path116"
     style="fill:#55acee;fill-opacity:1;fill-rule:nonzero;stroke:none;stroke-width:1.25"
     d="M 37.5,41.25 Z"
     inkscape:connector-curvature="0" /><path
     id="path120"
     style="fill:#55acee;fill-opacity:1;fill-rule:nonzero;stroke:none;stroke-width:1.25"
     d="M 37.5,41.25 Z"
     inkscape:connector-curvature="0" /></svg>