<?xml version="1.0" encoding="UTF-8" standalone="no"?>
<svg
   xmlns:dc="http://purl.org/dc/elements/1.1/"
   xmlns:cc="http://creativecommons.org/ns#"
   xmlns:rdf="http://www.w3.org/1999/02/22-rdf-syntax-ns#"
   xmlns:svg="http://www.w3.org/2000/svg"
   xmlns="http://www.w3.org/2000/svg"
   xmlns:sodipodi="http://sodipodi.sourceforge.net/DTD/sodipodi-0.dtd"
   xmlns:inkscape="http://www.inkscape.org/namespaces/inkscape"
   viewBox="0 0 45 45"
   style="enable-background:new 0 0 45 45;"
   xml:space="preserve"
   version="1.1"
   id="svg2"
   sodipodi:docname="1f912.svg"
   inkscape:version="0.92.2 5c3e80d, 2017-08-06"><sodipodi:namedview
     pagecolor="#ffffff"
     bordercolor="#666666"
     borderopacity="1"
     objecttolerance="10"
     gridtolerance="10"
     guidetolerance="10"
     inkscape:pageopacity="0"
     inkscape:pageshadow="2"
     inkscape:window-width="1303"
     inkscape:window-height="1050"
     id="namedview42"
     showgrid="false"
     inkscape:zoom="10.488889"
     inkscape:cx="13.601175"
     inkscape:cy="29.211458"
     inkscape:window-x="0"
     inkscape:window-y="28"
     inkscape:window-maximized="0"
     inkscape:current-layer="svg2"
     showguides="true" /><metadata
     id="metadata8"><rdf:RDF><cc:Work
         rdf:about=""><dc:format>image/svg+xml</dc:format><dc:type
           rdf:resource="http://purl.org/dc/dcmitype/StillImage" /></cc:Work></rdf:RDF></metadata><defs
     id="defs6"><clipPath
       id="clipPath16"
       clipPathUnits="userSpaceOnUse"><path
         id="path18"
         d="M 0,36 36,36 36,0 0,0 0,36 Z" /></clipPath><clipPath
       id="clipPath48"
       clipPathUnits="userSpaceOnUse"><path
         id="path50"
         d="m 13.657,7.344 c 0.705,0.439 2.113,1.057 4.465,1.073 l 0,0 C 21.712,8.44 23.091,6.98 23.091,6.98 l 0,0 L 36,16.522 36,20.5 34,23 C 34,23 16.999,9.903 13.657,7.344 M 13.091,6.915 c -0.016,-0.015 0.187,0.14 0.566,0.429 l 0,0 C 13.27,7.104 13.095,6.918 13.091,6.915" /></clipPath></defs><path
     style="color:#000000;font-style:normal;font-variant:normal;font-weight:normal;font-stretch:normal;font-size:medium;line-height:normal;font-family:sans-serif;font-variant-ligatures:normal;font-variant-position:normal;font-variant-caps:normal;font-variant-numeric:normal;font-variant-alternates:normal;font-feature-settings:normal;text-indent:0;text-align:start;text-decoration:none;text-decoration-line:none;text-decoration-style:solid;text-decoration-color:#000000;letter-spacing:normal;word-spacing:normal;text-transform:none;writing-mode:lr-tb;direction:ltr;text-orientation:mixed;dominant-baseline:auto;baseline-shift:baseline;text-anchor:start;white-space:normal;shape-padding:0;clip-rule:nonzero;display:inline;overflow:visible;visibility:visible;opacity:1;isolation:auto;mix-blend-mode:normal;color-interpolation:sRGB;color-interpolation-filters:linearRGB;solid-color:#000000;solid-opacity:1;vector-effect:none;fill:#000000;fill-opacity:1;fill-rule:nonzero;stroke:none;stroke-width:2;stroke-linecap:butt;stroke-linejoin:miter;stroke-miterlimit:4;stroke-dasharray:none;stroke-dashoffset:0;stroke-opacity:1;color-rendering:auto;image-rendering:auto;shape-rendering:auto;text-rendering:auto;enable-background:accumulate"
     d="M 22.5 0 C 10.075 0 0 10.075 0 22.5 C 0 34.92625 10.075 45 22.5 45 C 34.92625 45 45 34.92625 45 22.5 C 45 10.075 34.92625 0 22.5 0 z M 22.5 1 C 34.385728 1 44 10.61551 44 22.5 C 44 34.385795 34.385795 44 22.5 44 C 10.61551 44 1 34.385728 1 22.5 C 1 10.615577 10.615577 1 22.5 1 z "
     id="path22" /><g
     id="g24"
     transform="matrix(1.25,0,0,-1.25,18.75,20.625)"
     style="fill:#000000"><path
       inkscape:connector-curvature="0"
       d="M 0,0 C 0,-1.934 -1.119,-3.5 -2.5,-3.5 -3.881,-3.5 -5,-1.934 -5,0 -5,1.933 -3.881,3.5 -2.5,3.5 -1.119,3.5 0,1.933 0,0"
       style="fill:#000000;fill-opacity:1;fill-rule:nonzero;stroke:none"
       id="path26" /></g><g
     id="g28"
     transform="matrix(1.25,0,0,-1.25,32.5,20.625)"
     style="fill:#000000"><path
       inkscape:connector-curvature="0"
       d="M 0,0 C 0,-1.934 -1.119,-3.5 -2.5,-3.5 -3.881,-3.5 -5,-1.934 -5,0 -5,1.933 -3.881,3.5 -2.5,3.5 -1.119,3.5 0,1.933 0,0"
       style="fill:#000000;fill-opacity:1;fill-rule:nonzero;stroke:none"
       id="path30" /></g><g
     id="g32"
     transform="matrix(1.25,0,0,-1.25,29.35675,36.723625)"
     style="fill:#000000"><path
       inkscape:connector-curvature="0"
       d="m 0,0 c -0.012,0.044 -1.146,2.879 -5.485,2.879 -4.341,0 -5.475,-2.835 -5.485,-2.879 -0.053,-0.213 0.043,-0.431 0.231,-0.544 0.188,-0.112 0.433,-0.086 0.596,0.06 0.01,0.007 1.014,0.863 4.658,0.863 3.589,0 4.617,-0.83 4.656,-0.863 0.095,-0.09 0.219,-0.137 0.344,-0.137 0.084,0 0.169,0.021 0.246,0.064 C -0.043,-0.445 0.055,-0.218 0,0"
       style="fill:#000000;fill-opacity:1;fill-rule:nonzero;stroke:none"
       id="path34" /></g><g
     id="g36"
     transform="matrix(1.25,0,0,-1.25,36.25,15.000625)"
     style="fill:#000000"><path
       inkscape:connector-curvature="0"
       d="m 0,0 c -5.554,0 -7.802,4.367 -7.895,4.553 -0.247,0.494 -0.046,1.095 0.448,1.342 0.492,0.246 1.092,0.047 1.34,-0.444 C -6.033,5.306 -4.287,2 0,2 0.553,2 1,1.552 1,1 1,0.448 0.553,0 0,0"
       style="fill:#000000;fill-opacity:1;fill-rule:nonzero;stroke:none"
       id="path38" /></g><g
     id="g40"
     transform="matrix(1.25,0,0,-1.25,8.75,14.992625)"
     style="fill:#000000"><path
       inkscape:connector-curvature="0"
       d="M 0,0 C -0.552,0 -1,0.448 -1,1 -1,1.552 -0.552,2 0,2 5.083,2 5.996,5.12 6.033,5.253 6.178,5.781 6.723,6.1 7.252,5.962 7.782,5.823 8.103,5.289 7.97,4.757 7.921,4.563 6.704,0 0,0"
       style="fill:#000000;fill-opacity:1;fill-rule:nonzero;stroke:none"
       id="path42" /></g><g
     clip-path="url(#clipPath48)"
     id="g46"
     transform="matrix(1.25,0,0,-1.25,0,45)"
     style="stroke-width:0.8;stroke-miterlimit:4;stroke-dasharray:none"><g
       transform="translate(12.1307,5.9045)"
       id="g52"
       style="stroke-width:0.8;stroke-miterlimit:4;stroke-dasharray:none"><path
         id="path54"
         style="fill:#ffffff;fill-opacity:1;fill-rule:nonzero;stroke:#000000;stroke-width:0.8;stroke-miterlimit:4;stroke-dasharray:none;stroke-opacity:1"
         d="m 0,0 19.802,14.854 c 1.104,0.829 2.671,0.605 3.5,-0.499 0.829,-1.105 0.605,-2.672 -0.499,-3.499 L 7.125,-0.905 Z"
         inkscape:connector-curvature="0" /></g><g
       transform="translate(16.1438,4.1016)"
       id="g56"
       style="stroke-width:0.8;stroke-miterlimit:4;stroke-dasharray:none"><path
         id="path58"
         style="fill:#000000;fill-opacity:1;fill-rule:nonzero;stroke:none;stroke-width:0.8;stroke-miterlimit:4;stroke-dasharray:none"
         d="m 0,0 c -0.596,-0.446 -1.442,-0.326 -1.889,0.27 -0.447,0.597 -0.326,1.442 0.27,1.889 l 12.737,9.555 c 0.596,0.447 0.935,-0.101 1.383,-0.698 0.447,-0.596 0.832,-1.014 0.236,-1.461 z"
         inkscape:connector-curvature="0" /></g><g
       transform="translate(18.5986,10.7718)"
       id="g60"
       style="stroke-width:0.8;stroke-miterlimit:4;stroke-dasharray:none"><path
         id="path62"
         style="fill:#000000;fill-opacity:1;fill-rule:nonzero;stroke:none;stroke-width:0.8;stroke-miterlimit:4;stroke-dasharray:none"
         d="m 0,0 1.235,-1.598 0.74,0.595 -1.196,1.587 z"
         inkscape:connector-curvature="0" /></g><g
       transform="translate(20.8223,12.4327)"
       id="g64"
       style="stroke-width:0.8;stroke-miterlimit:4;stroke-dasharray:none"><path
         id="path66"
         style="fill:#000000;fill-opacity:1;fill-rule:nonzero;stroke:none;stroke-width:0.8;stroke-miterlimit:4;stroke-dasharray:none"
         d="m 0,0 1.235,-1.598 0.74,0.595 -1.196,1.587 z"
         inkscape:connector-curvature="0" /></g><g
       transform="translate(23.0055,14.0518)"
       id="g68"
       style="stroke-width:0.8;stroke-miterlimit:4;stroke-dasharray:none"><path
         id="path70"
         style="fill:#000000;fill-opacity:1;fill-rule:nonzero;stroke:none;stroke-width:0.8;stroke-miterlimit:4;stroke-dasharray:none"
         d="m 0,0 1.235,-1.598 0.74,0.595 -1.196,1.587 z"
         inkscape:connector-curvature="0" /></g><g
       transform="translate(25.1872,15.7121)"
       id="g72"
       style="stroke-width:0.8;stroke-miterlimit:4;stroke-dasharray:none"><path
         id="path74"
         style="fill:#000000;fill-opacity:1;fill-rule:nonzero;stroke:none;stroke-width:0.8;stroke-miterlimit:4;stroke-dasharray:none"
         d="m 0,0 1.235,-1.598 0.74,0.595 -1.196,1.587 z"
         inkscape:connector-curvature="0" /></g><g
       transform="translate(27.4248,17.3527)"
       id="g76"
       style="stroke-width:0.8;stroke-miterlimit:4;stroke-dasharray:none"><path
         id="path78"
         style="fill:#000000;fill-opacity:1;fill-rule:nonzero;stroke:none;stroke-width:0.8;stroke-miterlimit:4;stroke-dasharray:none"
         d="m 0,0 1.235,-1.598 0.74,0.595 -1.196,1.587 z"
         inkscape:connector-curvature="0" /></g><g
       transform="translate(29.5651,18.9707)"
       id="g80"
       style="stroke-width:0.8;stroke-miterlimit:4;stroke-dasharray:none"><path
         id="path82"
         style="fill:#000000;fill-opacity:1;fill-rule:nonzero;stroke:none;stroke-width:0.8;stroke-miterlimit:4;stroke-dasharray:none"
         d="m 0,0 1.235,-1.598 0.74,0.595 -1.196,1.587 z"
         inkscape:connector-curvature="0" /></g></g></svg>