<?xml version="1.0" encoding="UTF-8" standalone="no"?>
<svg
   xmlns:dc="http://purl.org/dc/elements/1.1/"
   xmlns:cc="http://creativecommons.org/ns#"
   xmlns:rdf="http://www.w3.org/1999/02/22-rdf-syntax-ns#"
   xmlns:svg="http://www.w3.org/2000/svg"
   xmlns="http://www.w3.org/2000/svg"
   xmlns:sodipodi="http://sodipodi.sourceforge.net/DTD/sodipodi-0.dtd"
   xmlns:inkscape="http://www.inkscape.org/namespaces/inkscape"
   viewBox="0 0 45 45"
   style="enable-background:new 0 0 45 45;"
   xml:space="preserve"
   version="1.1"
   id="svg2"
   sodipodi:docname="1f914.svg"
   inkscape:version="0.92.2 5c3e80d, 2017-08-06"><sodipodi:namedview
     pagecolor="#ffffff"
     bordercolor="#666666"
     borderopacity="1"
     objecttolerance="10"
     gridtolerance="10"
     guidetolerance="10"
     inkscape:pageopacity="0"
     inkscape:pageshadow="2"
     inkscape:window-width="1418"
     inkscape:window-height="1050"
     id="namedview24"
     showgrid="false"
     inkscape:zoom="10.488889"
     inkscape:cx="13.850205"
     inkscape:cy="27.626058"
     inkscape:window-x="0"
     inkscape:window-y="28"
     inkscape:window-maximized="0"
     inkscape:current-layer="svg2" /><metadata
     id="metadata8"><rdf:RDF><cc:Work
         rdf:about=""><dc:format>image/svg+xml</dc:format><dc:type
           rdf:resource="http://purl.org/dc/dcmitype/StillImage" /></cc:Work></rdf:RDF></metadata><defs
     id="defs6"><clipPath
       id="clipPath16"
       clipPathUnits="userSpaceOnUse"><path
         id="path18"
         d="M 0,36 36,36 36,0 0,0 0,36 Z" /></clipPath></defs><path
     style="color:#000000;font-style:normal;font-variant:normal;font-weight:normal;font-stretch:normal;font-size:medium;line-height:normal;font-family:sans-serif;font-variant-ligatures:normal;font-variant-position:normal;font-variant-caps:normal;font-variant-numeric:normal;font-variant-alternates:normal;font-feature-settings:normal;text-indent:0;text-align:start;text-decoration:none;text-decoration-line:none;text-decoration-style:solid;text-decoration-color:#000000;letter-spacing:normal;word-spacing:normal;text-transform:none;writing-mode:lr-tb;direction:ltr;text-orientation:mixed;dominant-baseline:auto;baseline-shift:baseline;text-anchor:start;white-space:normal;shape-padding:0;clip-rule:nonzero;display:inline;overflow:visible;visibility:visible;opacity:1;isolation:auto;mix-blend-mode:normal;color-interpolation:sRGB;color-interpolation-filters:linearRGB;solid-color:#000000;solid-opacity:1;vector-effect:none;fill:#000000;fill-opacity:1;fill-rule:nonzero;stroke:none;stroke-width:2;stroke-linecap:butt;stroke-linejoin:miter;stroke-miterlimit:4;stroke-dasharray:none;stroke-dashoffset:0;stroke-opacity:1;color-rendering:auto;image-rendering:auto;shape-rendering:auto;text-rendering:auto;enable-background:accumulate"
     d="M 22.5 0.021484375 C 10.76375 0.021484375 1.25 9.5352344 1.25 21.271484 C 1.25 33.008984 10.76375 42.521484 22.5 42.521484 C 34.2375 42.521484 43.75 33.008984 43.75 21.271484 C 43.75 9.5352344 34.2375 0.021484375 22.5 0.021484375 z M 22.5 1.0214844 C 33.697138 1.0214844 42.75 10.075583 42.75 21.271484 C 42.75 32.468693 33.697209 41.521484 22.5 41.521484 C 11.304099 41.521484 2.25 32.468622 2.25 21.271484 C 2.25 10.075654 11.30417 1.0214844 22.5 1.0214844 z "
     id="path22" /><g
     id="g24"
     transform="matrix(1.25,0,0,-1.25,18.154875,26.295125)"
     style="fill:#000000"><path
       inkscape:connector-curvature="0"
       d="M 0,0 C -0.145,0.116 -0.258,0.274 -0.312,0.464 -0.446,0.924 -0.183,1.383 0.277,1.485 4.806,2.507 7.854,0.123 7.983,0.021 8.367,-0.285 8.443,-0.824 8.157,-1.185 7.871,-1.543 7.329,-1.586 6.946,-1.281 6.835,-1.198 4.422,0.642 0.764,-0.184 0.49,-0.245 0.21,-0.168 0,0"
       style="fill:#000000;fill-opacity:1;fill-rule:nonzero;stroke:none"
       id="path26" /></g><g
     id="g28"
     transform="matrix(1.25,0,0,-1.25,19.055125,13.96725)"
     style="fill:#000000"><path
       inkscape:connector-curvature="0"
       d="m 0,0 c 0,-1.468 -0.952,-2.656 -2.125,-2.656 -1.173,0 -2.125,1.188 -2.125,2.656 0,1.467 0.952,2.656 2.125,2.656 C -0.952,2.656 0,1.467 0,0"
       style="fill:#000000;fill-opacity:1;fill-rule:nonzero;stroke:none"
       id="path30" /></g><g
     id="g32"
     transform="matrix(1.25,0,0,-1.25,33.125,15.295375)"
     style="fill:#000000"><path
       inkscape:connector-curvature="0"
       d="m 0,0 c 0,-1.468 -0.95,-2.656 -2.125,-2.656 -1.173,0 -2.125,1.188 -2.125,2.656 0,1.467 0.952,2.656 2.125,2.656 C -0.95,2.656 0,1.467 0,0"
       style="fill:#000000;fill-opacity:1;fill-rule:nonzero;stroke:none"
       id="path34" /></g><g
     id="g36"
     transform="matrix(1.25,0,0,-1.25,21.5955,43.93675)"
     style="fill:#000000"><path
       inkscape:connector-curvature="0"
       d="m 0,0 c 0,0 1.265,0.411 1.429,1.352 0.173,0.971 -0.624,1.167 -0.624,1.167 0,0 1.041,0.208 1.172,1.376 0.123,1.1 -0.862,1.363 -0.862,1.363 0,0 0.97,0.4 1.016,1.539 0.038,0.959 -0.995,1.428 -0.995,1.428 0,0 5.038,1.22 5.555,1.34 0.516,0.121 1.321,0.616 1.07,1.695 -0.249,1.08 -1.204,1.118 -1.698,1.003 -0.494,-0.116 -6.744,-1.567 -8.9,-2.069 -0.23,-0.053 -1.308,-0.302 -1.439,-0.334 -0.54,-0.127 -0.785,0.111 -0.405,0.512 0.509,0.536 0.833,1.129 0.947,2.113 0.119,1.036 -0.232,2.314 -0.433,2.809 -0.374,0.921 -1.005,1.649 -1.734,1.899 -1.138,0.39 -1.946,-0.321 -1.542,-1.561 0.604,-1.855 0.209,-3.375 -0.833,-4.293 -2.449,-2.157 -3.589,-3.695 -2.83,-6.973 0.827,-3.575 4.377,-5.876 7.952,-5.048 C -2.965,-0.64 0,0 0,0"
       style="fill:#000000;fill-opacity:1;fill-rule:nonzero;stroke:none"
       id="path38" /></g><g
     id="g40"
     transform="matrix(1.25,0,0,-1.25,11.619875,7.93825)"
     style="fill:#000000"><path
       inkscape:connector-curvature="0"
       d="M 0,0 C -0.164,0.087 -0.303,0.223 -0.391,0.398 -0.607,0.827 -0.431,1.325 0.002,1.511 4.268,3.341 7.701,1.554 7.845,1.477 8.278,1.246 8.453,0.729 8.236,0.323 8.02,-0.082 7.496,-0.223 7.063,0.005 6.94,0.069 4.231,1.437 0.785,-0.042 0.528,-0.151 0.238,-0.127 0,0"
       style="fill:#000000;fill-opacity:1;fill-rule:nonzero;stroke:none"
       id="path42" /></g><g
     id="g44"
     transform="matrix(1.25,0,0,-1.25,26.788375,12.62575)"
     style="fill:#000000"><path
       inkscape:connector-curvature="0"
       d="M 0,0 C -0.156,0.098 -0.286,0.243 -0.362,0.424 -0.549,0.866 -0.339,1.352 0.105,1.508 4.486,3.044 7.79,1.028 7.929,0.941 8.344,0.681 8.483,0.154 8.24,-0.237 7.998,-0.626 7.464,-0.731 7.049,-0.475 6.929,-0.402 4.321,1.146 0.782,-0.095 0.518,-0.187 0.23,-0.143 0,0"
       style="fill:#000000;fill-opacity:1;fill-rule:nonzero;stroke:none"
       id="path46" /></g></svg>