<?xml version="1.0" encoding="UTF-8" standalone="no"?>
<svg
   xmlns:dc="http://purl.org/dc/elements/1.1/"
   xmlns:cc="http://creativecommons.org/ns#"
   xmlns:rdf="http://www.w3.org/1999/02/22-rdf-syntax-ns#"
   xmlns:svg="http://www.w3.org/2000/svg"
   xmlns="http://www.w3.org/2000/svg"
   xmlns:sodipodi="http://sodipodi.sourceforge.net/DTD/sodipodi-0.dtd"
   xmlns:inkscape="http://www.inkscape.org/namespaces/inkscape"
   viewBox="0 0 45 45"
   style="enable-background:new 0 0 45 45;"
   xml:space="preserve"
   version="1.1"
   id="svg2"
   sodipodi:docname="1f910.svg"
   inkscape:version="0.92.2 5c3e80d, 2017-08-06"><sodipodi:namedview
     pagecolor="#ffffff"
     bordercolor="#666666"
     borderopacity="1"
     objecttolerance="10"
     gridtolerance="10"
     guidetolerance="10"
     inkscape:pageopacity="0"
     inkscape:pageshadow="2"
     inkscape:window-width="1418"
     inkscape:window-height="1050"
     id="namedview29"
     showgrid="false"
     inkscape:zoom="7.4167644"
     inkscape:cx="28.078237"
     inkscape:cy="8.9824696"
     inkscape:window-x="0"
     inkscape:window-y="28"
     inkscape:window-maximized="0"
     inkscape:current-layer="svg2" /><metadata
     id="metadata8"><rdf:RDF><cc:Work
         rdf:about=""><dc:format>image/svg+xml</dc:format><dc:type
           rdf:resource="http://purl.org/dc/dcmitype/StillImage" /></cc:Work></rdf:RDF></metadata><defs
     id="defs6"><clipPath
       id="clipPath16"
       clipPathUnits="userSpaceOnUse"><path
         id="path18"
         d="M 0,0 36,0 36,36 0,36 0,0 Z" /></clipPath></defs><path
     style="color:#000000;font-style:normal;font-variant:normal;font-weight:normal;font-stretch:normal;font-size:medium;line-height:normal;font-family:sans-serif;font-variant-ligatures:normal;font-variant-position:normal;font-variant-caps:normal;font-variant-numeric:normal;font-variant-alternates:normal;font-feature-settings:normal;text-indent:0;text-align:start;text-decoration:none;text-decoration-line:none;text-decoration-style:solid;text-decoration-color:#000000;letter-spacing:normal;word-spacing:normal;text-transform:none;writing-mode:lr-tb;direction:ltr;text-orientation:mixed;dominant-baseline:auto;baseline-shift:baseline;text-anchor:start;white-space:normal;shape-padding:0;clip-rule:nonzero;display:inline;overflow:visible;visibility:visible;opacity:1;isolation:auto;mix-blend-mode:normal;color-interpolation:sRGB;color-interpolation-filters:linearRGB;solid-color:#000000;solid-opacity:1;vector-effect:none;fill:#000000;fill-opacity:1;fill-rule:nonzero;stroke:none;stroke-width:2;stroke-linecap:butt;stroke-linejoin:miter;stroke-miterlimit:4;stroke-dasharray:none;stroke-dashoffset:0;stroke-opacity:1;color-rendering:auto;image-rendering:auto;shape-rendering:auto;text-rendering:auto;enable-background:accumulate"
     d="M 22.5 0 C 10.075 0 0 10.075 0 22.5 C 0 34.92625 10.075 45 22.5 45 C 34.92625 45 45 34.92625 45 22.5 C 45 10.075 34.92625 0 22.5 0 z M 22.5 1 C 34.385728 1 44 10.61551 44 22.5 C 44 34.385795 34.385795 44 22.5 44 C 10.61551 44 1 34.385728 1 22.5 C 1 10.615577 10.615577 1 22.5 1 z "
     id="path22" /><g
     id="g24"
     transform="matrix(1.25,0,0,-1.25,17.54275,18.12375)"
     style="fill:#000000"><path
       inkscape:connector-curvature="0"
       d="M 0,0 C 0,-1.934 -1.119,-3.5 -2.5,-3.5 -3.881,-3.5 -5,-1.934 -5,0 -5,1.933 -3.881,3.5 -2.5,3.5 -1.119,3.5 0,1.933 0,0"
       style="fill:#000000;fill-opacity:1;fill-rule:nonzero;stroke:none"
       id="path26" /></g><g
     id="g28"
     transform="matrix(1.25,0,0,-1.25,33.79275,18.12375)"
     style="fill:#000000"><path
       inkscape:connector-curvature="0"
       d="M 0,0 C 0,-1.934 -1.119,-3.5 -2.5,-3.5 -3.881,-3.5 -5,-1.934 -5,0 -5,1.933 -3.881,3.5 -2.5,3.5 -1.119,3.5 0,1.933 0,0"
       style="fill:#000000;fill-opacity:1;fill-rule:nonzero;stroke:none"
       id="path30" /></g><g
     id="g32"
     transform="matrix(1.25,0,0,-1.25,31.25125,33.754875)"
     style="fill:#000000"><path
       inkscape:connector-curvature="0"
       d="m 0,0 h -15.001 c -1,0 -1,1 -1,1 v 1 c 0,0 0,1.003 1,1.003 C -14.001,3.003 0,3 0,3 Z"
       style="fill:#000000;fill-opacity:1;fill-rule:nonzero;stroke:none"
       id="path34" /></g><path
     inkscape:connector-curvature="0"
     d="M 17.5,35.00125 H 15 v -3.75 h 2.5 z"
     style="fill:#040505;fill-opacity:1;fill-rule:nonzero;stroke:none;stroke-width:1.25"
     id="path36" /><path
     inkscape:connector-curvature="0"
     d="m 20,28.75125 h -2.5 v 3.75 H 20 Z"
     style="fill:#040505;fill-opacity:1;fill-rule:nonzero;stroke:none;stroke-width:1.25"
     id="path38" /><path
     inkscape:connector-curvature="0"
     d="m 15,28.75125 h -2.5 v 3.75 H 15 Z"
     style="fill:#040505;fill-opacity:1;fill-rule:nonzero;stroke:none;stroke-width:1.25"
     id="path40" /><path
     inkscape:connector-curvature="0"
     d="m 22.49875,35.00125 h -2.5 v -3.75 h 2.5 z"
     style="fill:#040505;fill-opacity:1;fill-rule:nonzero;stroke:none;stroke-width:1.25"
     id="path42" /><path
     inkscape:connector-curvature="0"
     d="m 25,28.75125 h -2.50125 v 3.75 H 25 Z"
     style="fill:#040505;fill-opacity:1;fill-rule:nonzero;stroke:none;stroke-width:1.25"
     id="path44" /><path
     inkscape:connector-curvature="0"
     d="M 27.5,35.00125 H 25 v -3.75 h 2.5 z"
     style="fill:#040505;fill-opacity:1;fill-rule:nonzero;stroke:none;stroke-width:1.25"
     id="path46" /><path
     inkscape:connector-curvature="0"
     d="m 30,28.75125 h -2.5 v 3.75 H 30 Z"
     style="fill:#040505;fill-opacity:1;fill-rule:nonzero;stroke:none;stroke-width:1.25"
     id="path48" /><path
     style="fill:#040505;fill-opacity:1;fill-rule:nonzero;stroke:none;stroke-width:1.25"
     d="M 30.914062 29.658203 L 28.830078 34.015625 L 30.888672 35.001953 L 30.765625 35.259766 C 30.765625 35.259766 30.456172 36.181016 31.232422 36.853516 C 32.008672 37.524766 37.837891 42.773438 37.837891 42.773438 C 37.837891 42.773438 38.962578 43.856797 40.048828 42.873047 C 40.971328 42.035547 44.610156 35.347578 44.941406 34.142578 C 45.272656 32.936328 44.068359 32.605469 44.068359 32.605469 L 34.427734 29.955078 C 33.528644 29.708433 33.117308 30.311545 32.964844 30.636719 L 30.914062 29.658203 z M 38.066406 33.548828 L 42.238281 34.960938 L 39.353516 40.193359 L 36.048828 37.384766 L 38.066406 33.548828 z "
     id="path52" /></svg>