<?xml version="1.0" encoding="UTF-8" standalone="no"?>
<svg
   xmlns:dc="http://purl.org/dc/elements/1.1/"
   xmlns:cc="http://creativecommons.org/ns#"
   xmlns:rdf="http://www.w3.org/1999/02/22-rdf-syntax-ns#"
   xmlns:svg="http://www.w3.org/2000/svg"
   xmlns="http://www.w3.org/2000/svg"
   xmlns:sodipodi="http://sodipodi.sourceforge.net/DTD/sodipodi-0.dtd"
   xmlns:inkscape="http://www.inkscape.org/namespaces/inkscape"
   viewBox="0 0 45 45"
   style="enable-background:new 0 0 45 45;"
   xml:space="preserve"
   version="1.1"
   id="svg2"
   sodipodi:docname="1f917.svg"
   inkscape:version="0.92.2 5c3e80d, 2017-08-06"><sodipodi:namedview
     pagecolor="#ffffff"
     bordercolor="#666666"
     borderopacity="1"
     objecttolerance="10"
     gridtolerance="10"
     guidetolerance="10"
     inkscape:pageopacity="0"
     inkscape:pageshadow="2"
     inkscape:window-width="1418"
     inkscape:window-height="1050"
     id="namedview26"
     showgrid="false"
     inkscape:zoom="7.4167645"
     inkscape:cx="2.259724"
     inkscape:cy="28.058002"
     inkscape:window-x="0"
     inkscape:window-y="28"
     inkscape:window-maximized="0"
     inkscape:current-layer="svg2" /><metadata
     id="metadata8"><rdf:RDF><cc:Work
         rdf:about=""><dc:format>image/svg+xml</dc:format><dc:type
           rdf:resource="http://purl.org/dc/dcmitype/StillImage" /></cc:Work></rdf:RDF></metadata><defs
     id="defs6"><clipPath
       id="clipPath16"
       clipPathUnits="userSpaceOnUse"><path
         id="path18"
         d="M 0,36 36,36 36,0 0,0 0,36 Z" /></clipPath></defs><path
     style="color:#000000;font-style:normal;font-variant:normal;font-weight:normal;font-stretch:normal;font-size:medium;line-height:normal;font-family:sans-serif;font-variant-ligatures:normal;font-variant-position:normal;font-variant-caps:normal;font-variant-numeric:normal;font-variant-alternates:normal;font-feature-settings:normal;text-indent:0;text-align:start;text-decoration:none;text-decoration-line:none;text-decoration-style:solid;text-decoration-color:#000000;letter-spacing:normal;word-spacing:normal;text-transform:none;writing-mode:lr-tb;direction:ltr;text-orientation:mixed;dominant-baseline:auto;baseline-shift:baseline;text-anchor:start;white-space:normal;shape-padding:0;clip-rule:nonzero;display:inline;overflow:visible;visibility:visible;opacity:1;isolation:auto;mix-blend-mode:normal;color-interpolation:sRGB;color-interpolation-filters:linearRGB;solid-color:#000000;solid-opacity:1;vector-effect:none;fill:#000000;fill-opacity:1;fill-rule:nonzero;stroke:none;stroke-width:2;stroke-linecap:butt;stroke-linejoin:miter;stroke-miterlimit:4;stroke-dasharray:none;stroke-dashoffset:0;stroke-opacity:1;color-rendering:auto;image-rendering:auto;shape-rendering:auto;text-rendering:auto;enable-background:accumulate"
     d="M 22.5 0 C 11.455 0 2.5 8.955 2.5 20 C 2.5 31.0425 11.455 40 22.5 40 C 33.5425 40 42.5 31.0425 42.5 20 C 42.5 8.955 33.5425 0 22.5 0 z M 22.5 1 C 33.001862 1 41.5 9.495667 41.5 20 C 41.5 30.501711 33.001711 39 22.5 39 C 11.995667 39 3.5 30.501862 3.5 20 C 3.5 9.4955161 11.995516 1 22.5 1 z "
     id="path22" /><g
     id="g24"
     transform="matrix(1.25,0,0,-1.25,32.326625,20.161125)"
     style="fill:#000000"><path
       inkscape:connector-curvature="0"
       d="m 0,0 c -0.15,0.161 -0.374,0.171 -0.535,0.029 -0.033,-0.029 -3.303,-2.9 -7.326,-2.9 -4.013,0 -7.294,2.871 -7.327,2.9 -0.161,0.142 -0.385,0.13 -0.535,-0.029 -0.149,-0.16 -0.181,-0.424 -0.079,-0.628 0.109,-0.215 2.71,-5.243 7.941,-5.243 5.23,0 7.833,5.028 7.94,5.243 C 0.182,-0.423 0.148,-0.16 0,0"
       style="fill:#000000;fill-opacity:1;fill-rule:nonzero;stroke:none"
       id="path26" /></g><g
     id="g28"
     transform="matrix(1.25,0,0,-1.25,16.74075,28.942875)"
     style="fill:#000000"><path
       inkscape:connector-curvature="0"
       d="m 0,0 -1.539,2.219 c 0,0 -0.542,0.867 -1.411,0.325 C -3.816,2.003 -3.274,1.135 -3.274,1.135 l 1.758,-3.38 c 0,0 0.144,-0.768 -0.918,0.091 -0.463,0.374 -0.197,0.163 -0.197,0.163 l -0.44,0.361 -5.491,4.508 c 0,0 -0.709,0.748 -1.359,-0.042 -0.648,-0.791 0.222,-1.341 0.222,-1.341 l 5.194,-4.266 c -0.121,-0.12 -0.483,-0.534 -0.6,-0.663 l -5.557,4.56 c 0,0 -0.71,0.749 -1.359,-0.041 -0.649,-0.791 0.223,-1.341 0.223,-1.341 l 5.555,-4.562 c -0.102,-0.14 -0.363,-0.476 -0.459,-0.615 l -4.792,3.934 c 0,0 -0.71,0.748 -1.358,-0.042 -0.65,-0.791 0.223,-1.342 0.223,-1.342 l 5.093,-4.183 C -7.6,-7.244 -7.899,-7.713 -7.946,-7.887 l -3.672,3.012 c 0,0 -0.709,0.752 -1.357,-0.041 -0.65,-0.791 0.223,-1.341 0.223,-1.341 l 5.93,-4.868 c 0,0 0.257,-0.213 0.395,-0.326 2.619,-2.152 6.489,-1.772 8.64,0.848 1.971,2.404 1.817,5.853 -0.24,8.07 C 1.244,-1.75 0.612,-0.879 0,0"
       style="fill:#000000;fill-opacity:1;fill-rule:nonzero;stroke:none"
       id="path30" /></g><g
     id="g32"
     transform="matrix(1.25,0,0,-1.25,44.47875,35.087875)"
     style="fill:#000000"><path
       inkscape:connector-curvature="0"
       d="m 0,0 c -0.648,0.793 -1.357,0.041 -1.357,0.041 l -3.672,-3.012 c -0.047,0.174 -0.346,0.643 -0.41,0.821 l 5.093,4.183 c 0,0 0.873,0.551 0.223,1.342 -0.648,0.79 -1.358,0.042 -1.358,0.042 l -4.792,-3.934 c -0.096,0.139 -0.357,0.475 -0.459,0.615 l 5.554,4.562 c 0,0 0.873,0.55 0.223,1.341 -0.649,0.79 -1.358,0.041 -1.358,0.041 L -7.87,1.482 c -0.117,0.129 -0.48,0.543 -0.6,0.664 l 5.194,4.265 c 0,0 0.87,0.55 0.222,1.341 -0.65,0.79 -1.359,0.042 -1.359,0.042 l -5.491,-4.508 -0.44,-0.361 c 0,0 0.99,0.841 -0.197,-0.163 -1.188,-1.004 -0.918,-0.091 -0.918,-0.091 l 1.758,3.38 c 0,0 0.543,0.868 -0.324,1.409 -0.87,0.542 -1.412,-0.325 -1.412,-0.325 l -1.538,-2.219 c -0.613,-0.879 -1.244,-1.75 -1.973,-2.533 -2.058,-2.217 -2.212,-5.666 -0.24,-8.07 2.151,-2.62 6.02,-3 8.64,-0.848 0.138,0.113 0.396,0.326 0.396,0.326 l 5.929,4.868 c 0,0 0.872,0.55 0.223,1.341"
       style="fill:#000000;fill-opacity:1;fill-rule:nonzero;stroke:none"
       id="path34" /></g><g
     id="g36"
     transform="matrix(1.25,0,0,-1.25,34.596,13.728625)"
     style="fill:#000000"><path
       inkscape:connector-curvature="0"
       d="m 0,0 c -0.051,0.122 -1.285,2.983 -3.82,2.983 -2.535,0 -3.769,-2.861 -3.82,-2.983 -0.08,-0.187 -0.028,-0.406 0.123,-0.536 0.15,-0.128 0.366,-0.132 0.524,-0.012 0.01,0.009 1.081,0.816 3.173,0.816 2.079,0 3.149,-0.796 3.174,-0.815 0.075,-0.059 0.164,-0.089 0.254,-0.089 0.095,0 0.19,0.033 0.267,0.099 C 0.028,-0.409 0.08,-0.188 0,0"
       style="fill:#000000;fill-opacity:1;fill-rule:nonzero;stroke:none"
       id="path38" /></g><g
     id="g40"
     transform="matrix(1.25,0,0,-1.25,20.846,13.728625)"
     style="fill:#000000"><path
       inkscape:connector-curvature="0"
       d="m 0,0 c -0.052,0.122 -1.285,2.983 -3.82,2.983 -2.535,0 -3.769,-2.861 -3.82,-2.983 -0.079,-0.187 -0.028,-0.406 0.123,-0.536 0.151,-0.128 0.366,-0.132 0.523,-0.012 0.011,0.009 1.081,0.816 3.174,0.816 2.079,0 3.149,-0.796 3.173,-0.815 0.076,-0.059 0.165,-0.089 0.255,-0.089 0.095,0 0.19,0.033 0.268,0.099 C 0.028,-0.409 0.079,-0.188 0,0"
       style="fill:#000000;fill-opacity:1;fill-rule:nonzero;stroke:none"
       id="path42" /></g><g
     id="g44"
     transform="matrix(1.25,0,0,-1.25,13.977625,31.846875)"
     style="fill:#f9f9f9"><path
       inkscape:connector-curvature="0"
       d="m 0,0 c 0,0 -2.593,-3.314 0.484,-7.46 0.212,-0.285 0.75,-0.146 0.521,0.187 -0.25,0.365 -2.75,3.896 -0.4,7.057 0,0 -0.381,0.047 -0.605,0.216"
       style="fill:#f9f9f9;fill-opacity:1;fill-rule:nonzero;stroke:none"
       id="path46" /></g><g
     id="g48"
     transform="matrix(1.25,0,0,-1.25,30.95575,31.97025)"
     style="fill:#f9f9f9"><path
       inkscape:connector-curvature="0"
       d="m 0,0 c 0,0 2.594,-3.314 -0.484,-7.46 -0.212,-0.285 -0.75,-0.146 -0.522,0.188 0.25,0.364 2.75,3.895 0.401,7.056 0,0 0.381,0.047 0.605,0.216"
       style="fill:#f9f9f9;fill-opacity:1;fill-rule:nonzero;stroke:none"
       id="path50" /></g></svg>