<?xml version="1.0" encoding="UTF-8" standalone="no"?>
<svg
   xmlns:dc="http://purl.org/dc/elements/1.1/"
   xmlns:cc="http://creativecommons.org/ns#"
   xmlns:rdf="http://www.w3.org/1999/02/22-rdf-syntax-ns#"
   xmlns:svg="http://www.w3.org/2000/svg"
   xmlns="http://www.w3.org/2000/svg"
   xmlns:sodipodi="http://sodipodi.sourceforge.net/DTD/sodipodi-0.dtd"
   xmlns:inkscape="http://www.inkscape.org/namespaces/inkscape"
   viewBox="0 0 45 45"
   style="enable-background:new 0 0 45 45;"
   xml:space="preserve"
   version="1.1"
   id="svg2"
   sodipodi:docname="1f923.svg"
   inkscape:version="0.92.2 5c3e80d, 2017-08-06"><sodipodi:namedview
     pagecolor="#ffffff"
     bordercolor="#666666"
     borderopacity="1"
     objecttolerance="10"
     gridtolerance="10"
     guidetolerance="10"
     inkscape:pageopacity="0"
     inkscape:pageshadow="2"
     inkscape:window-width="1418"
     inkscape:window-height="1050"
     id="namedview24"
     showgrid="false"
     inkscape:zoom="10.488889"
     inkscape:cx="15.274942"
     inkscape:cy="17.562248"
     inkscape:window-x="0"
     inkscape:window-y="28"
     inkscape:window-maximized="0"
     inkscape:current-layer="svg2" /><metadata
     id="metadata8"><rdf:RDF><cc:Work
         rdf:about=""><dc:format>image/svg+xml</dc:format><dc:type
           rdf:resource="http://purl.org/dc/dcmitype/StillImage" /></cc:Work></rdf:RDF></metadata><defs
     id="defs6"><clipPath
       id="clipPath16"
       clipPathUnits="userSpaceOnUse"><path
         id="path18"
         d="M 0,36 36,36 36,0 0,0 0,36 Z" /></clipPath></defs><path
     style="color:#000000;font-style:normal;font-variant:normal;font-weight:normal;font-stretch:normal;font-size:medium;line-height:normal;font-family:sans-serif;font-variant-ligatures:normal;font-variant-position:normal;font-variant-caps:normal;font-variant-numeric:normal;font-variant-alternates:normal;font-feature-settings:normal;text-indent:0;text-align:start;text-decoration:none;text-decoration-line:none;text-decoration-style:solid;text-decoration-color:#000000;letter-spacing:normal;word-spacing:normal;text-transform:none;writing-mode:lr-tb;direction:ltr;text-orientation:mixed;dominant-baseline:auto;baseline-shift:baseline;text-anchor:start;white-space:normal;shape-padding:0;clip-rule:nonzero;display:inline;overflow:visible;visibility:visible;opacity:1;isolation:auto;mix-blend-mode:normal;color-interpolation:sRGB;color-interpolation-filters:linearRGB;solid-color:#000000;solid-opacity:1;vector-effect:none;fill:#000000;fill-opacity:1;fill-rule:nonzero;stroke:none;stroke-width:2;stroke-linecap:butt;stroke-linejoin:miter;stroke-miterlimit:4;stroke-dasharray:none;stroke-dashoffset:0;stroke-opacity:1;color-rendering:auto;image-rendering:auto;shape-rendering:auto;text-rendering:auto;enable-background:accumulate"
     clip-path="none"
     d="M 22.5 0 C 16.741719 5.9211895e-16 10.983594 2.1967187 6.5898438 6.5898438 C -2.1964062 15.376094 -2.1964063 29.624609 6.5898438 38.412109 C 15.377345 47.197108 29.623904 47.197108 38.410156 38.412109 C 47.197656 29.624609 47.197656 15.376094 38.410156 6.5898438 C 34.017031 2.1967188 28.258281 -5.9211895e-16 22.5 0 z M 22.5 0.99414062 C 28.00028 0.99413825 33.501087 3.0948368 37.703125 7.296875 C 46.108026 15.700581 46.107379 29.297692 37.703125 37.703125 C 29.299076 46.105979 15.702201 46.10606 7.296875 37.703125 C -1.1061559 29.297719 -1.1068033 15.700553 7.296875 7.296875 C 11.499552 3.0947961 16.99972 0.99414301 22.5 0.99414062 z "
     id="path22" /><path
     id="path26"
     style="fill:#000000;fill-opacity:1;fill-rule:nonzero;stroke:none;stroke-width:1.25"
     d="m 24.099125,24.100375 c -4.3675,4.36625 -7.77375,6.75375 -12.05625,9.64125 -0.975,0.66125 -2.41,2.4125 0.0012,4.82375 4.82125,4.82125 16.38875,5.3075 24.11,-2.41125 7.72,-7.72125 7.235,-19.2875 2.41,-24.11 -2.41,-2.4125 -4.16125,-0.9775 -4.82125,-0.0012 -2.88625,4.28125 -5.275,7.68875 -9.64375,12.0575"
     inkscape:connector-curvature="0" /><path
     id="path30"
     style="fill:#ffffff;fill-opacity:1;fill-rule:nonzero;stroke:none;stroke-width:1.25"
     d="m 14.455,36.153625 c 0,0 4.8225,-2.4125 12.05625,-9.645 7.2325,-7.23125 9.64375,-12.05375 9.64375,-12.05375 0,0 2.41,7.23375 -6.0275,15.6725 -8.43875,8.43875 -15.6725,6.02625 -15.6725,6.02625"
     inkscape:connector-curvature="0" /><path
     id="path34"
     style="fill:#000000;fill-opacity:1;fill-rule:nonzero;stroke:none;stroke-width:1.25"
     d="m 30.3735,8.319125 c -0.1775,0.025 -2.9675,0.44625 -6.17875,2.035 -0.0775,-0.12625 -0.165,-0.2475 -0.27375,-0.35625 -0.32625,-0.32625 -0.74375,-0.49875 -1.17,-0.53375 1.13375,-2.055 2.47375,-3.42125 2.4975,-3.445 0.485,-0.48875 0.485,-1.28 -0.005,-1.76625 -0.4875,-0.4875 -1.27625,-0.48875 -1.765,0 -0.195,0.195 -4.785,4.85125 -4.785,10.60625 0,0.50625 0.30375,0.96125 0.77125,1.155 0.46625,0.19375 1.005,0.08625 1.3625,-0.27125 4.05625,-4.05625 9.8425,-4.94125 9.90125,-4.95 0.2775,-0.04125 0.52,-0.16875 0.70375,-0.35375 0.26875,-0.26875 0.4125,-0.6575 0.355,-1.0625 -0.09875,-0.6825 -0.73125,-1.155 -1.41375,-1.0575"
     inkscape:connector-curvature="0" /><path
     id="path38"
     style="fill:#000000;fill-opacity:1;fill-rule:nonzero;stroke:none;stroke-width:1.25"
     d="m 14.6405,18.912375 c -5.755,0 -10.41125,4.59 -10.60625,4.78625 -0.4875,0.4875 -0.4875,1.2775 -0.00125,1.765 0.4875,0.48875 1.27875,0.49 1.7675,0.0038 0.0225,-0.02375 1.39125,-1.36375 3.44375,-2.4975 0.03625,0.42625 0.20875,0.84375 0.535,1.17 0.10875,0.10875 0.22875,0.19625 0.35625,0.2725 -1.58875,3.21375 -2.01125,6.00375 -2.03625,6.18 -0.0975,0.68375 0.3775,1.31625 1.06125,1.41375 0.405,0.0575 0.7925,-0.085 1.06125,-0.355 0.18375,-0.18375 0.3125,-0.42625 0.3525,-0.705 0.0088,-0.0575 0.8725,-5.8225 4.95,-9.9 0.3575,-0.3575 0.46375,-0.895 0.27125,-1.36125 -0.19375,-0.4675 -0.65,-0.7725 -1.155,-0.7725"
     inkscape:connector-curvature="0" /><path
     id="path42"
     style="fill:#000000;fill-opacity:1;fill-rule:nonzero;stroke:none;stroke-width:1.25"
     d="m 37.627,15.068375 c 3.42625,0.4175 6.54125,-2.0225 6.9575,-5.45 0.41875,-3.42625 -2.02125,-6.5425 -5.4475,-6.95875 -3.42625,-0.4175 -13.0125,3.4525 -13.1625,4.69375 -0.15125,1.24 8.22625,7.2975 11.6525,7.715"
     inkscape:connector-curvature="0" /><path
     id="path46"
     style="fill:#000000;fill-opacity:1;fill-rule:nonzero;stroke:none;stroke-width:1.25"
     d="m 15.195875,37.49875 c 0.41625,3.4275 -2.02375,6.5425 -5.45,6.95875 -3.42625,0.41875 -6.5425,-2.02125 -6.96,-5.4475 -0.41625,-3.42625 3.45375,-13.0125 4.695,-13.16375 1.24,-0.15 7.2975,8.22625 7.715,11.6525"
     inkscape:connector-curvature="0" /></svg>