<?xml version="1.0" encoding="UTF-8" standalone="no"?>
<svg
   xmlns:dc="http://purl.org/dc/elements/1.1/"
   xmlns:cc="http://creativecommons.org/ns#"
   xmlns:rdf="http://www.w3.org/1999/02/22-rdf-syntax-ns#"
   xmlns:svg="http://www.w3.org/2000/svg"
   xmlns="http://www.w3.org/2000/svg"
   xmlns:sodipodi="http://sodipodi.sourceforge.net/DTD/sodipodi-0.dtd"
   xmlns:inkscape="http://www.inkscape.org/namespaces/inkscape"
   viewBox="0 0 45 45"
   style="enable-background:new 0 0 45 45;"
   xml:space="preserve"
   version="1.1"
   id="svg2"
   sodipodi:docname="1f922.svg"
   inkscape:version="0.92.2 5c3e80d, 2017-08-06"><sodipodi:namedview
     pagecolor="#ffffff"
     bordercolor="#666666"
     borderopacity="1"
     objecttolerance="10"
     gridtolerance="10"
     guidetolerance="10"
     inkscape:pageopacity="0"
     inkscape:pageshadow="2"
     inkscape:window-width="1303"
     inkscape:window-height="1050"
     id="namedview22"
     showgrid="false"
     inkscape:zoom="3.7083822"
     inkscape:cx="4.5343006"
     inkscape:cy="10.87082"
     inkscape:window-x="0"
     inkscape:window-y="28"
     inkscape:window-maximized="0"
     inkscape:current-layer="svg2" /><metadata
     id="metadata8"><rdf:RDF><cc:Work
         rdf:about=""><dc:format>image/svg+xml</dc:format><dc:type
           rdf:resource="http://purl.org/dc/dcmitype/StillImage" /></cc:Work></rdf:RDF></metadata><defs
     id="defs6"><clipPath
       id="clipPath16"
       clipPathUnits="userSpaceOnUse"><path
         id="path18"
         d="M 0,36 36,36 36,0 0,0 0,36 Z" /></clipPath></defs><path
     style="color:#000000;font-style:normal;font-variant:normal;font-weight:normal;font-stretch:normal;font-size:medium;line-height:normal;font-family:sans-serif;font-variant-ligatures:normal;font-variant-position:normal;font-variant-caps:normal;font-variant-numeric:normal;font-variant-alternates:normal;font-feature-settings:normal;text-indent:0;text-align:start;text-decoration:none;text-decoration-line:none;text-decoration-style:solid;text-decoration-color:#000000;letter-spacing:normal;word-spacing:normal;text-transform:none;writing-mode:lr-tb;direction:ltr;text-orientation:mixed;dominant-baseline:auto;baseline-shift:baseline;text-anchor:start;white-space:normal;shape-padding:0;clip-rule:nonzero;display:inline;overflow:visible;visibility:visible;opacity:1;isolation:auto;mix-blend-mode:normal;color-interpolation:sRGB;color-interpolation-filters:linearRGB;solid-color:#000000;solid-opacity:1;vector-effect:none;fill:#000000;fill-opacity:1;fill-rule:nonzero;stroke:none;stroke-width:2;stroke-linecap:butt;stroke-linejoin:miter;stroke-miterlimit:4;stroke-dasharray:none;stroke-dashoffset:0;stroke-opacity:1;color-rendering:auto;image-rendering:auto;shape-rendering:auto;text-rendering:auto;enable-background:accumulate"
     clip-path="none"
     d="M 22.486328 0 C 10.061328 0 -0.013671875 10.075 -0.013671875 22.5 C -0.013671875 34.92625 10.061328 45 22.486328 45 C 34.912578 45 44.986328 34.92625 44.986328 22.5 C 44.986328 10.075 34.912578 0 22.486328 0 z M 22.486328 1 C 34.372056 1 43.986328 10.61551 43.986328 22.5 C 43.986328 34.385795 34.372123 44 22.486328 44 C 10.601838 44 0.98632812 34.385728 0.98632812 22.5 C 0.98632812 10.615577 10.601905 1 22.486328 1 z "
     id="path22" /><path
     id="path26"
     style="fill:#000000;stroke:#000000;stroke-width:3.4375;stroke-linecap:butt;stroke-linejoin:miter;stroke-miterlimit:10;stroke-dasharray:none;stroke-opacity:1"
     d="m 18.2585,31.21775 c 1.12875,-0.74375 2.58,-1.19125 4.16375,-1.19125 1.5725,0 3.01375,0.44 4.13875,1.17375"
     inkscape:connector-curvature="0" /><path
     id="path30"
     style="fill:#000000;fill-opacity:1;fill-rule:nonzero;stroke:none;stroke-width:1.25"
     d="m 35.035375,16.295125 c -0.305,-0.375 -8.46375,-1.8775 -8.5325,-1.8775 -0.1475,0 -0.31375,0.11 -0.345,0.255 -0.27125,1.28375 -0.06375,2.58875 0.5825,3.67625 0.6525,1.095 1.67125,1.8375 2.87,2.09125 0.29125,0.06125 0.58875,0.0925 0.88375,0.0925 2.1825,0 4.12,-1.67 4.6075,-3.9725 0.0175,-0.09125 -0.0063,-0.1925 -0.06625,-0.265"
     inkscape:connector-curvature="0" /><path
     id="path34"
     style="fill:#000000;fill-opacity:1;fill-rule:nonzero;stroke:none;stroke-width:1.25"
     d="m 18.445375,14.417125 c -0.07,0 -8.22875,1.5025 -8.53375,1.8775 -0.06,0.07375 -0.085,0.175 -0.065,0.2675 0.48625,2.3 2.425,3.97 4.6075,3.97 0.295,0 0.5925,-0.03125 0.88375,-0.0925 2.465,-0.52 4.01375,-3.1075 3.4525,-5.76625 -0.03,-0.145 -0.19625,-0.25625 -0.345,-0.25625"
     inkscape:connector-curvature="0" /><path
     id="path38"
     style="fill:#000000;fill-opacity:1;fill-rule:nonzero;stroke:none;stroke-width:1.25"
     d="m 14.558875,37.058875 c -0.555,0 -1.07125,-0.35 -1.25625,-0.905 -0.23125,-0.69375 0.14375,-1.44375 0.8375,-1.67375 0.11875,-0.04125 3.06625,-1.09625 3.06625,-4.03875 0,-2.94375 -2.9475,-3.9975 -3.07375,-4.04 -0.6875,-0.24 -1.0575,-0.98875 -0.8225,-1.67875 0.23375,-0.69 0.975,-1.065 1.6675,-0.83 0.19875,0.065 4.875,1.68 4.875,6.54875 0,4.86875 -4.67625,6.4825 -4.875,6.54875 -0.13875,0.04625 -0.28,0.06875 -0.41875,0.06875"
     inkscape:connector-curvature="0" /><path
     id="path42"
     style="fill:#000000;fill-opacity:1;fill-rule:nonzero;stroke:none;stroke-width:1.25"
     d="m 30.439875,37.058875 c -0.13875,0 -0.27875,-0.0225 -0.4175,-0.06875 -0.19875,-0.06625 -4.875,-1.68 -4.875,-6.54875 0,-4.86875 4.67625,-6.48375 4.875,-6.54875 0.69875,-0.23375 1.4425,0.1425 1.67375,0.83625 0.23125,0.69125 -0.14125,1.4375 -0.83,1.6725 -0.125,0.0425 -3.0725,1.09625 -3.0725,4.04 0,2.9425 2.9475,3.9975 3.0725,4.04 0.68875,0.23875 1.05875,0.98875 0.825,1.6775 -0.1875,0.5525 -0.70125,0.9 -1.25125,0.9"
     inkscape:connector-curvature="0" /></svg>