<?xml version="1.0" encoding="UTF-8" standalone="no"?>
<svg
   xmlns:dc="http://purl.org/dc/elements/1.1/"
   xmlns:cc="http://creativecommons.org/ns#"
   xmlns:rdf="http://www.w3.org/1999/02/22-rdf-syntax-ns#"
   xmlns:svg="http://www.w3.org/2000/svg"
   xmlns="http://www.w3.org/2000/svg"
   xmlns:sodipodi="http://sodipodi.sourceforge.net/DTD/sodipodi-0.dtd"
   xmlns:inkscape="http://www.inkscape.org/namespaces/inkscape"
   viewBox="0 0 45 45"
   style="enable-background:new 0 0 45 45;"
   xml:space="preserve"
   version="1.1"
   id="svg2"
   sodipodi:docname="1f92c.svg"
   inkscape:version="0.92.2 5c3e80d, 2017-08-06"><sodipodi:namedview
     pagecolor="#ffffff"
     bordercolor="#666666"
     borderopacity="1"
     objecttolerance="10"
     gridtolerance="10"
     guidetolerance="10"
     inkscape:pageopacity="0"
     inkscape:pageshadow="2"
     inkscape:window-width="1418"
     inkscape:window-height="1050"
     id="namedview28"
     showgrid="false"
     inkscape:zoom="5.2444445"
     inkscape:cx="49.925555"
     inkscape:cy="45.732148"
     inkscape:window-x="0"
     inkscape:window-y="28"
     inkscape:window-maximized="0"
     inkscape:current-layer="svg2" /><metadata
     id="metadata8"><rdf:RDF><cc:Work
         rdf:about=""><dc:format>image/svg+xml</dc:format><dc:type
           rdf:resource="http://purl.org/dc/dcmitype/StillImage" /></cc:Work></rdf:RDF></metadata><defs
     id="defs6"><clipPath
       id="clipPath16"
       clipPathUnits="userSpaceOnUse"><path
         id="path18"
         d="M 0,36 36,36 36,0 0,0 0,36 Z" /></clipPath></defs><path
     style="color:#000000;font-style:normal;font-variant:normal;font-weight:normal;font-stretch:normal;font-size:medium;line-height:normal;font-family:sans-serif;font-variant-ligatures:normal;font-variant-position:normal;font-variant-caps:normal;font-variant-numeric:normal;font-variant-alternates:normal;font-feature-settings:normal;text-indent:0;text-align:start;text-decoration:none;text-decoration-line:none;text-decoration-style:solid;text-decoration-color:#000000;letter-spacing:normal;word-spacing:normal;text-transform:none;writing-mode:lr-tb;direction:ltr;text-orientation:mixed;dominant-baseline:auto;baseline-shift:baseline;text-anchor:start;white-space:normal;shape-padding:0;clip-rule:nonzero;display:inline;overflow:visible;visibility:visible;opacity:1;isolation:auto;mix-blend-mode:normal;color-interpolation:sRGB;color-interpolation-filters:linearRGB;solid-color:#000000;solid-opacity:1;vector-effect:none;fill:#000000;fill-opacity:1;fill-rule:nonzero;stroke:none;stroke-width:2;stroke-linecap:butt;stroke-linejoin:miter;stroke-miterlimit:4;stroke-dasharray:none;stroke-dashoffset:0;stroke-opacity:1;color-rendering:auto;image-rendering:auto;shape-rendering:auto;text-rendering:auto;enable-background:accumulate"
     d="M 22.5 0 C 10.075 0 0 10.075 0 22.5 C 0 34.92625 10.075 45 22.5 45 C 34.92625 45 45 34.92625 45 22.5 C 45 10.075 34.92625 0 22.5 0 z M 22.5 1 C 34.385728 1 44 10.61551 44 22.5 C 44 34.385795 34.385795 44 22.5 44 C 10.61551 44 1 34.385728 1 22.5 C 1 10.615577 10.615577 1 22.5 1 z "
     id="path22" /><g
     id="g24"
     transform="matrix(1.25,0,0,-1.25,31.85675,37.348625)"><path
       inkscape:connector-curvature="0"
       d="m 0,0 c -0.045,0.179 -1.168,4.379 -7.485,4.379 -6.318,0 -7.441,-4.2 -7.485,-4.379 -0.055,-0.217 0.043,-0.442 0.237,-0.554 0.195,-0.109 0.439,-0.079 0.599,0.077 0.019,0.019 1.954,1.856 6.649,1.856 4.694,0 6.63,-1.837 6.648,-1.856 0.096,-0.094 0.224,-0.144 0.352,-0.144 0.084,0 0.169,0.021 0.246,0.064 C -0.043,-0.445 0.055,-0.218 0,0"
       style="fill:#292f33;fill-opacity:1;fill-rule:nonzero;stroke:none"
       id="path26" /></g><g
     id="g28"
     transform="matrix(1.25,0,0,-1.25,19.63375,19.11625)"
     style="fill:#000000"><path
       inkscape:connector-curvature="0"
       d="m 0,0 c -3.255,3.255 -8.486,3.293 -8.707,3.293 -0.552,0 -0.999,-0.447 -0.999,-0.999 -0.001,-0.551 0.446,-1 0.998,-1.001 0.029,0 1.925,-0.022 3.983,-0.737 -0.593,-0.64 -0.982,-1.634 -0.982,-2.763 0,-1.934 1.119,-3.5 2.5,-3.5 1.381,0 2.5,1.566 2.5,3.5 0,0.174 -0.019,0.34 -0.037,0.507 0.013,0 0.025,-0.007 0.037,-0.007 0.256,0 0.512,0.098 0.707,0.293 0.391,0.391 0.391,1.023 0,1.414"
       style="fill:#000000;fill-opacity:1;fill-rule:nonzero;stroke:none"
       id="path30" /></g><g
     id="g32"
     transform="matrix(1.25,0,0,-1.25,36.25,15)"
     style="fill:#000000"><path
       inkscape:connector-curvature="0"
       d="m 0,0 c -0.221,0 -5.451,-0.038 -8.707,-3.293 -0.391,-0.391 -0.391,-1.023 0,-1.414 C -8.512,-4.902 -8.256,-5 -8,-5 c 0.013,0 0.024,0.007 0.036,0.007 C -7.98,-5.16 -8,-5.326 -8,-5.5 -8,-7.434 -6.881,-9 -5.5,-9 c 1.381,0 2.5,1.566 2.5,3.5 0,1.129 -0.389,2.123 -0.982,2.763 C -1.924,-2.022 -0.028,-2 0.002,-2 0.553,-1.999 1,-1.55 0.999,-0.999 0.998,-0.447 0.552,0 0,0"
       style="fill:#000000;fill-opacity:1;fill-rule:nonzero;stroke:none"
       id="path34" /></g><path
     style="opacity:1;vector-effect:none;fill:#000000;fill-opacity:1;stroke:none;stroke-width:0;stroke-linecap:butt;stroke-linejoin:miter;stroke-miterlimit:4;stroke-dasharray:none;stroke-dashoffset:0;stroke-opacity:1;paint-order:normal"
     d="M 15.851562 1 C 14.951148 1.2782174 14.076726 1.6156825 13.228516 2 L 31.771484 2 C 30.923281 1.6156924 30.050817 1.2782131 29.150391 1 L 15.851562 1 z M 9.7011719 4 C 9.2430189 4.3175743 8.7978033 4.6501424 8.3652344 5 L 36.636719 5 C 36.204469 4.6503927 35.758583 4.3173709 35.300781 4 L 9.7011719 4 z M 6.1992188 7 C 5.8908099 7.3242481 5.5915513 7.6578313 5.3027344 8 L 39.697266 8 C 39.408463 7.6578313 39.109177 7.3242481 38.800781 7 L 6.1992188 7 z M 3.7929688 10 C 3.5740941 10.326907 3.3639996 10.66129 3.1621094 11 L 41.837891 11 C 41.636057 10.661367 41.427795 10.326835 41.208984 10 L 3.7929688 10 z M 2.1035156 13 C 1.9498621 13.329258 1.8039613 13.662308 1.6660156 14 L 43.333984 14 C 43.196051 13.662308 43.050125 13.329258 42.896484 13 L 2.1035156 13 z M 0.95703125 16 C 0.85736277 16.330655 0.76435403 16.663123 0.6796875 17 L 44.320312 17 C 44.235655 16.663123 44.142628 16.330655 44.042969 16 L 0.95703125 16 z M 0.2734375 19 C 0.22169504 19.331079 0.17775904 19.664306 0.140625 20 L 44.859375 20 C 44.822245 19.664306 44.778299 19.331079 44.726562 19 L 0.2734375 19 z M 0.01171875 22 C 0.0080707658 22.16674 0 22.332386 0 22.5 C 0 22.667631 0.0080707658 22.833244 0.01171875 23 L 44.988281 23 C 44.991929 22.833244 45 22.667631 45 22.5 C 45 22.332386 44.991929 22.16674 44.988281 22 L 0.01171875 22 z M 0.140625 25 C 0.17775426 25.335676 0.22170356 25.668941 0.2734375 26 L 44.726562 26 C 44.778291 25.668941 44.82225 25.335676 44.859375 25 L 0.140625 25 z M 0.6796875 28 C 0.76424245 28.336464 0.85751244 28.669746 0.95703125 29 L 44.042969 29 C 44.142478 28.669746 44.235766 28.336464 44.320312 28 L 0.6796875 28 z M 1.6660156 31 C 1.8039613 31.3377 1.9498621 31.670737 2.1035156 32 L 42.896484 32 C 43.050125 31.670737 43.196051 31.3377 43.333984 31 L 1.6660156 31 z M 3.1621094 34 C 3.3641925 34.339081 3.5738649 34.672749 3.7929688 35 L 41.208984 35 C 41.428024 34.672822 41.635865 34.339003 41.837891 34 L 3.1621094 34 z M 5.3007812 37 C 5.590081 37.342806 5.8902558 37.675181 6.1992188 38 L 38.800781 38 C 39.109731 37.675181 39.409933 37.342806 39.699219 37 L 5.3007812 37 z M 8.3652344 40 C 8.797171 40.349328 9.2417716 40.682861 9.6992188 41 L 35.302734 41 C 35.759832 40.683064 36.2051 40.349079 36.636719 40 L 8.3652344 40 z M 13.228516 43 C 14.076726 43.384286 14.951148 43.721809 15.851562 44 L 29.150391 44 C 30.050817 43.721814 30.923281 43.384276 31.771484 43 L 13.228516 43 z "
     id="rect905-3" /><g
     id="g36"
     transform="matrix(1.25,0,0,-1.25,37.173625,41.25)"
     style="fill:#000000"><path
       inkscape:connector-curvature="0"
       d="m 0,0 h -23.478 c -1.243,0 -2.261,1.017 -2.261,2.261 V 8 c 0,1.244 1.018,2.261 2.261,2.261 H 0 C 1.244,10.261 2.261,9.244 2.261,8 V 2.261 C 2.261,1.017 1.244,0 0,0"
       style="fill:#000000;fill-opacity:1;fill-rule:nonzero;stroke:none"
       id="path38" /></g><g
     id="g40"
     transform="matrix(1.25,0,0,-1.25,10.7635,35.390625)"><path
       inkscape:connector-curvature="0"
       d="M 0,0 H 0.903 L 1.055,1.083 H 0.152 Z m -0.77,1.083 h -0.817 c -0.314,0 -0.457,0.229 -0.457,0.457 0,0.228 0.143,0.456 0.457,0.456 h 0.95 l 0.209,1.53 c 0.048,0.342 0.19,0.456 0.475,0.456 0.228,0 0.438,-0.151 0.438,-0.38 0,-0.142 0,-0.076 -0.019,-0.228 L 0.275,1.996 h 0.913 l 0.209,1.53 c 0.048,0.342 0.19,0.456 0.476,0.456 0.228,0 0.437,-0.151 0.437,-0.38 0,-0.142 0,-0.076 -0.019,-0.228 L 2.101,1.996 H 2.918 C 3.232,1.996 3.375,1.768 3.375,1.54 3.375,1.312 3.232,1.083 2.918,1.083 H 1.968 L 1.815,0 h 0.818 c 0.314,0 0.456,-0.229 0.456,-0.457 0,-0.228 -0.142,-0.456 -0.456,-0.456 H 1.683 L 1.474,-2.443 C 1.426,-2.786 1.283,-2.899 0.998,-2.899 c -0.228,0 -0.437,0.151 -0.437,0.379 0,0.143 0,0.077 0.019,0.229 l 0.19,1.378 h -0.913 l -0.209,-1.53 c -0.047,-0.343 -0.19,-0.456 -0.475,-0.456 -0.228,0 -0.438,0.151 -0.438,0.379 0,0.143 0,0.077 0.019,0.229 l 0.191,1.378 h -0.818 c -0.314,0 -0.456,0.228 -0.456,0.456 0,0.228 0.142,0.457 0.456,0.457 h 0.951 z"
       style="fill:#ffffff;fill-opacity:1;fill-rule:nonzero;stroke:none"
       id="path42" /></g><g
     id="g44"
     transform="matrix(1.25,0,0,-1.25,23.164125,37.174125)"><path
       inkscape:connector-curvature="0"
       d="m 0,0 c 0,0.305 -0.181,0.57 -0.495,0.57 -0.314,0 -0.494,-0.265 -0.494,-0.57 0,-0.304 0.18,-0.561 0.494,-0.561 C -0.181,-0.561 0,-0.304 0,0 m -1.958,0 c 0,0.827 0.617,1.54 1.463,1.54 0.847,0 1.465,-0.713 1.465,-1.54 0,-0.826 -0.618,-1.53 -1.465,-1.53 -0.846,0 -1.463,0.704 -1.463,1.53 m 0.921,5.22 c 0.124,0.237 0.219,0.303 0.438,0.303 0.294,0 0.56,-0.237 0.56,-0.532 0,-0.076 0,-0.142 -0.076,-0.285 l -3.194,-5.979 c -0.142,-0.2 -0.199,-0.314 -0.427,-0.314 -0.247,0 -0.542,0.237 -0.542,0.523 0,0.142 0.057,0.275 0.095,0.351 z m -2.31,-1.293 c 0,0.303 -0.18,0.57 -0.494,0.57 -0.314,0 -0.494,-0.267 -0.494,-0.57 0,-0.305 0.18,-0.562 0.494,-0.562 0.314,0 0.494,0.257 0.494,0.562 m -1.958,0 c 0,0.827 0.618,1.54 1.464,1.54 0.846,0 1.464,-0.713 1.464,-1.54 0,-0.827 -0.618,-1.531 -1.464,-1.531 -0.846,0 -1.464,0.704 -1.464,1.531"
       style="fill:#ffffff;fill-opacity:1;fill-rule:nonzero;stroke:none"
       id="path46" /></g><g
     id="g48"
     transform="matrix(1.25,0,0,-1.25,26.34275,31.148625)"><path
       inkscape:connector-curvature="0"
       d="M 0,0 C 0,0.399 0.294,0.646 0.684,0.646 1.064,0.646 1.368,0.39 1.368,0 V -3.66 C 1.368,-4.05 1.064,-4.307 0.684,-4.307 0.294,-4.307 0,-4.06 0,-3.66 Z m -0.058,-5.609 c 0,0.409 0.333,0.742 0.742,0.742 0.409,0 0.742,-0.333 0.742,-0.742 0,-0.409 -0.333,-0.742 -0.742,-0.742 -0.409,0 -0.742,0.333 -0.742,0.742"
       style="fill:#ffffff;fill-opacity:1;fill-rule:nonzero;stroke:none"
       id="path50" /></g><g
     id="g52"
     transform="matrix(1.25,0,0,-1.25,32.97,31.4265)"><path
       inkscape:connector-curvature="0"
       d="m 0,0 c -0.28,0 -0.67,-0.229 -0.67,-0.602 0,-0.348 0.171,-0.559 0.534,-0.929 l 0.051,-0.052 0.064,0.032 c 0.497,0.261 0.748,0.553 0.748,0.87 C 0.727,-0.212 0.351,0 0,0 m -0.671,-2.711 c -0.428,-0.287 -0.864,-0.665 -0.864,-1.291 0,-0.656 0.427,-1.079 1.089,-1.079 0.551,0 0.909,0.242 1.275,0.606 l 0.071,0.069 -1.5,1.743 z m 3.447,-3.474 c -0.186,0 -0.303,0.053 -0.43,0.196 L 1.622,-5.199 1.55,-5.266 C 0.848,-5.91 0.242,-6.185 -0.475,-6.185 c -1.109,0 -2.229,0.632 -2.229,2.044 0,1.107 0.867,1.769 1.384,2.065 l 0.117,0.068 -0.095,0.098 c -0.425,0.445 -0.598,0.813 -0.598,1.269 0,1.076 0.983,1.566 1.896,1.566 0.764,0 1.84,-0.452 1.84,-1.457 0,-0.951 -0.883,-1.501 -1.154,-1.647 l -0.115,-0.062 1.161,-1.341 0.445,0.536 c 0.247,0.297 0.39,0.422 0.646,0.422 0.205,0 0.424,-0.184 0.424,-0.523 0,-0.255 -0.252,-0.585 -0.499,-0.876 L 2.451,-4.358 3.157,-5.195 c 0.131,-0.156 0.185,-0.239 0.185,-0.428 0,-0.294 -0.27,-0.562 -0.566,-0.562"
       style="fill:#ffffff;fill-opacity:1;fill-rule:nonzero;stroke:none"
       id="path54" /></g></svg>