<?xml version="1.0" encoding="UTF-8" standalone="no"?>
<svg
   xmlns:dc="http://purl.org/dc/elements/1.1/"
   xmlns:cc="http://creativecommons.org/ns#"
   xmlns:rdf="http://www.w3.org/1999/02/22-rdf-syntax-ns#"
   xmlns:svg="http://www.w3.org/2000/svg"
   xmlns="http://www.w3.org/2000/svg"
   xmlns:sodipodi="http://sodipodi.sourceforge.net/DTD/sodipodi-0.dtd"
   xmlns:inkscape="http://www.inkscape.org/namespaces/inkscape"
   viewBox="0 0 45 45"
   style="enable-background:new 0 0 45 45;"
   xml:space="preserve"
   version="1.1"
   id="svg2"
   sodipodi:docname="1f929.svg"
   inkscape:version="0.92.2 5c3e80d, 2017-08-06"><sodipodi:namedview
     pagecolor="#ffffff"
     bordercolor="#666666"
     borderopacity="1"
     objecttolerance="10"
     gridtolerance="10"
     guidetolerance="10"
     inkscape:pageopacity="0"
     inkscape:pageshadow="2"
     inkscape:window-width="1418"
     inkscape:window-height="1050"
     id="namedview20"
     showgrid="false"
     inkscape:zoom="7.4167645"
     inkscape:cx="-5.4768283"
     inkscape:cy="30.50271"
     inkscape:window-x="0"
     inkscape:window-y="28"
     inkscape:window-maximized="0"
     inkscape:current-layer="svg2" /><metadata
     id="metadata8"><rdf:RDF><cc:Work
         rdf:about=""><dc:format>image/svg+xml</dc:format><dc:type
           rdf:resource="http://purl.org/dc/dcmitype/StillImage" /></cc:Work></rdf:RDF></metadata><defs
     id="defs6"><clipPath
       id="clipPath16"
       clipPathUnits="userSpaceOnUse"><path
         id="path18"
         d="M 0,36 36,36 36,0 0,0 0,36 Z" /></clipPath></defs><path
     style="color:#000000;font-style:normal;font-variant:normal;font-weight:normal;font-stretch:normal;font-size:medium;line-height:normal;font-family:sans-serif;font-variant-ligatures:normal;font-variant-position:normal;font-variant-caps:normal;font-variant-numeric:normal;font-variant-alternates:normal;font-feature-settings:normal;text-indent:0;text-align:start;text-decoration:none;text-decoration-line:none;text-decoration-style:solid;text-decoration-color:#000000;letter-spacing:normal;word-spacing:normal;text-transform:none;writing-mode:lr-tb;direction:ltr;text-orientation:mixed;dominant-baseline:auto;baseline-shift:baseline;text-anchor:start;white-space:normal;shape-padding:0;clip-rule:nonzero;display:inline;overflow:visible;visibility:visible;opacity:1;isolation:auto;mix-blend-mode:normal;color-interpolation:sRGB;color-interpolation-filters:linearRGB;solid-color:#000000;solid-opacity:1;vector-effect:none;fill:#000000;fill-opacity:1;fill-rule:nonzero;stroke:none;stroke-width:2;stroke-linecap:butt;stroke-linejoin:miter;stroke-miterlimit:4;stroke-dasharray:none;stroke-dashoffset:0;stroke-opacity:1;color-rendering:auto;image-rendering:auto;shape-rendering:auto;text-rendering:auto;enable-background:accumulate"
     clip-path="none"
     d="M 22.5 0 C 10.07375 0 0 10.07375 0 22.5 C 0 34.92625 10.07375 45 22.5 45 C 34.92625 45 45 34.92625 45 22.5 C 45 10.07375 34.92625 0 22.5 0 z M 22.5 1 C 34.385795 1 44 10.614205 44 22.5 C 44 34.385795 34.385795 44 22.5 44 C 10.614205 44 1 34.385795 1 22.5 C 1 10.614205 10.614205 1 22.5 1 z "
     id="path22" /><path
     id="path26"
     style="fill:#000000;fill-opacity:1;fill-rule:nonzero;stroke:none;stroke-width:1.25"
     d="M 43.522,8.71275 37.8445,7.7115 36.91325,1.71525 c -0.1025,-0.66 -0.61375,-1.1825 -1.27375,-1.29875 -0.66,-0.1175 -1.3175,0.2 -1.63875,0.785 L 31.0745,6.51775 25.397,5.5165 C 24.7245,5.39775 24.057,5.72775 23.74325,6.329 23.427,6.93025 23.53575,7.669 24.0145,8.15275 l 3.95375,4.00875 -2.935,5.335 c -0.3275,0.59375 -0.235,1.33 0.23125,1.82375 0.46625,0.495 1.19375,0.63 1.8075,0.34125 l 5.6475,-2.68125 4.39125,4.45125 c 0.3,0.30375 0.70375,0.465 1.1125,0.465 0.23875,0 0.48,-0.055 0.70125,-0.16625 C 39.532,21.424 39.87075,20.764 39.767,20.094 l -0.93375,-6.01625 5.0875,-2.415 c 0.615,-0.29125 0.97,-0.94625 0.8775,-1.62125 C 44.70825,9.36775 44.192,8.83025 43.522,8.71275"
     inkscape:connector-curvature="0" /><path
     id="path30"
     style="fill:#000000;fill-opacity:1;fill-rule:nonzero;stroke:none;stroke-width:1.25"
     d="m 19.602875,5.516375 -5.6775,1.00125 -2.92625,-5.31625 c -0.3225,-0.58625 -0.98375,-0.89875 -1.64,-0.785 -0.65875,0.11625 -1.17,0.63875 -1.2725,1.29875 l -0.93125,5.99625 -5.6775,1.00125 c -0.67,0.1175 -1.18625,0.65625 -1.27625,1.33 -0.09125,0.67375 0.26375,1.32875 0.8775,1.62 l 5.0875,2.41625 -0.93375,6.015 c -0.10375,0.67 0.23625,1.33125 0.84125,1.63625 0.22375,0.1125 0.46375,0.16625 0.7025,0.16625 0.40875,0 0.8125,-0.16 1.1125,-0.465 l 4.39125,-4.45125 5.6475,2.68125 c 0.61125,0.29 1.34125,0.15375 1.8075,-0.34125 0.465,-0.4925 0.5575,-1.23 0.23125,-1.82375 l -2.935,-5.33375 3.955,-4.01 c 0.4775,-0.48375 0.5875,-1.22125 0.27125,-1.82375 -0.31625,-0.6025 -0.99,-0.92875 -1.655,-0.8125"
     inkscape:connector-curvature="0" /><path
     id="path34"
     style="fill:#000000;fill-opacity:1;fill-rule:nonzero;stroke:none;stroke-width:1.25"
     d="m 22.5,26.25 c -4.52875,0 -7.53375,-0.5275 -11.25,-1.25 -0.84875,-0.16375 -2.5,0 -2.5,2.5 0,5 5.74375,11.25 13.75,11.25 8.005,0 13.75,-6.25 13.75,-11.25 0,-2.5 -1.65125,-2.665 -2.5,-2.5 -3.71625,0.7225 -6.72125,1.25 -11.25,1.25"
     inkscape:connector-curvature="0" /><path
     id="path38"
     style="fill:#ffffff;fill-opacity:1;fill-rule:nonzero;stroke:none;stroke-width:1.25"
     d="m 11.25,27.5 c 0,0 3.75,1.25 11.25,1.25 7.5,0 11.25,-1.25 11.25,-1.25 0,0 -2.5,5 -11.25,5 -8.75,0 -11.25,-5 -11.25,-5"
     inkscape:connector-curvature="0" /></svg>