<?xml version="1.0" encoding="UTF-8" standalone="no"?>
<svg
   xmlns:dc="http://purl.org/dc/elements/1.1/"
   xmlns:cc="http://creativecommons.org/ns#"
   xmlns:rdf="http://www.w3.org/1999/02/22-rdf-syntax-ns#"
   xmlns:svg="http://www.w3.org/2000/svg"
   xmlns="http://www.w3.org/2000/svg"
   xmlns:sodipodi="http://sodipodi.sourceforge.net/DTD/sodipodi-0.dtd"
   xmlns:inkscape="http://www.inkscape.org/namespaces/inkscape"
   viewBox="0 0 45 45"
   style="enable-background:new 0 0 45 45;"
   xml:space="preserve"
   version="1.1"
   id="svg2"
   sodipodi:docname="1f92d.svg"
   inkscape:version="0.92.2 5c3e80d, 2017-08-06"><sodipodi:namedview
     pagecolor="#ffffff"
     bordercolor="#666666"
     borderopacity="1"
     objecttolerance="10"
     gridtolerance="10"
     guidetolerance="10"
     inkscape:pageopacity="0"
     inkscape:pageshadow="2"
     inkscape:window-width="1303"
     inkscape:window-height="1050"
     id="namedview18"
     showgrid="false"
     inkscape:zoom="7.4167645"
     inkscape:cx="7.6701453"
     inkscape:cy="37.165062"
     inkscape:window-x="0"
     inkscape:window-y="28"
     inkscape:window-maximized="0"
     inkscape:current-layer="svg2" /><metadata
     id="metadata8"><rdf:RDF><cc:Work
         rdf:about=""><dc:format>image/svg+xml</dc:format><dc:type
           rdf:resource="http://purl.org/dc/dcmitype/StillImage" /></cc:Work></rdf:RDF></metadata><defs
     id="defs6"><clipPath
       id="clipPath16"
       clipPathUnits="userSpaceOnUse"><path
         id="path18"
         d="M 0,36 36,36 36,0 0,0 0,36 Z" /></clipPath></defs><path
     style="color:#000000;font-style:normal;font-variant:normal;font-weight:normal;font-stretch:normal;font-size:medium;line-height:normal;font-family:sans-serif;font-variant-ligatures:normal;font-variant-position:normal;font-variant-caps:normal;font-variant-numeric:normal;font-variant-alternates:normal;font-feature-settings:normal;text-indent:0;text-align:start;text-decoration:none;text-decoration-line:none;text-decoration-style:solid;text-decoration-color:#000000;letter-spacing:normal;word-spacing:normal;text-transform:none;writing-mode:lr-tb;direction:ltr;text-orientation:mixed;dominant-baseline:auto;baseline-shift:baseline;text-anchor:start;white-space:normal;shape-padding:0;clip-rule:nonzero;display:inline;overflow:visible;visibility:visible;opacity:1;isolation:auto;mix-blend-mode:normal;color-interpolation:sRGB;color-interpolation-filters:linearRGB;solid-color:#000000;solid-opacity:1;vector-effect:none;fill:#000000;fill-opacity:1;fill-rule:nonzero;stroke:none;stroke-width:2;stroke-linecap:butt;stroke-linejoin:miter;stroke-miterlimit:4;stroke-dasharray:none;stroke-dashoffset:0;stroke-opacity:1;color-rendering:auto;image-rendering:auto;shape-rendering:auto;text-rendering:auto;enable-background:accumulate"
     clip-path="none"
     d="M 22.5 0 C 10.765 0 1.25 9.515 1.25 21.25 C 1.25 32.98625 10.765 42.5 22.5 42.5 C 34.23625 42.5 43.75 32.98625 43.75 21.25 C 43.75 9.515 34.23625 6.6023575e-17 22.5 0 z M 22.5 1 C 33.695759 1 42.75 10.055477 42.75 21.25 C 42.75 32.44583 33.69583 41.5 22.5 41.5 C 11.305477 41.5 2.25 32.445759 2.25 21.25 C 2.25 10.055548 11.305548 1 22.5 1 z "
     id="path22" /><path
     id="path26"
     style="fill:#000000;fill-opacity:1;fill-rule:nonzero;stroke:none;stroke-width:1.25"
     d="M 35.57125,17.871125 C 35.4975,17.702375 33.6975,13.749875 30,13.749875 c -3.69625,0 -5.49625,3.9525 -5.57125,4.12125 -0.115,0.25875 -0.04,0.56125 0.18,0.73875 0.21875,0.1775 0.5325,0.18375 0.76375,0.0175 0.015,-0.01125 1.5775,-1.1275 4.6275,-1.1275 3.0325,0 4.5925,1.10125 4.6275,1.12625 0.11,0.0825 0.2425,0.12375 0.3725,0.12375 0.1375,0 0.27625,-0.04625 0.39,-0.13625 0.22125,-0.1775 0.2975,-0.4825 0.18125,-0.7425"
     inkscape:connector-curvature="0" /><path
     id="path30"
     style="fill:#000000;fill-opacity:1;fill-rule:nonzero;stroke:none;stroke-width:1.25"
     d="m 20.57125,17.871125 c -0.075,-0.16875 -1.87375,-4.12125 -5.57125,-4.12125 -3.69625,0 -5.49625,3.9525 -5.57125,4.12125 -0.115,0.25875 -0.04,0.56125 0.18,0.73875 0.22,0.1775 0.53375,0.18375 0.7625,0.0175 0.01625,-0.01125 1.5775,-1.1275 4.62875,-1.1275 3.0325,0 4.5925,1.10125 4.6275,1.12625 0.11,0.0825 0.2425,0.12375 0.3725,0.12375 0.1375,0 0.27625,-0.04625 0.39,-0.13625 0.2225,-0.1775 0.29625,-0.4825 0.18125,-0.7425"
     inkscape:connector-curvature="0" /><path
     id="path34"
     style="fill:#000000;fill-opacity:1;fill-rule:nonzero;stroke:none;stroke-width:1.25"
     d="m 33.129375,34.213375 c 0,0 1.2475,-0.90125 0.20625,-2.0175 -1.04,-1.11625 -2.02625,0.065 -2.02625,0.065 l -5.185,4.8325 c -0.085,-0.25625 -0.57375,-0.92875 -0.6875,-1.18375 l 7.19375,-6.70875 c 0,0 1.2475,-0.90125 0.20625,-2.0175 -1.04,-1.11625 -2.0275,0.06375 -2.0275,0.06375 l -6.76625,6.3075 c -0.155,-0.1975 -0.57625,-0.675 -0.74125,-0.8725 l 7.845,-7.3125 c 0,0 1.24625,-0.9025 0.205,-2.0175 -1.04,-1.1175 -2.02625,0.06375 -2.02625,0.06375 l -7.8475,7.31 c -0.18625,-0.18125 -0.765,-0.76125 -0.95375,-0.93125 l 7.3325,-6.83625 c 0,0 1.245,-0.90125 0.205,-2.0175 -1.04125,-1.11625 -2.0275,0.06375 -2.0275,0.06375 l -7.75375,7.22625 -0.62125,0.58 -0.2775,0.26 c 0,0 -0.6725,0.92875 -1.35875,0.2225 l 2.3025,-5.1975 c 0,0 0.725,-1.3425 -0.61625,-2.06875 -1.345,-0.72625 -2.07,0.6175 -2.07,0.6175 l -2.085,3.4475 c -0.82875,1.36625 -1.68625,2.72125 -2.69875,3.95875 -2.855,3.49125 -2.76375,8.6425 0.3975,12.03625 3.44875,3.69875 9.245,3.9025 12.94375,0.455 0.19625,-0.18375 0.55875,-0.5225 0.55875,-0.5225 z"
     inkscape:connector-curvature="0" /></svg>