<?xml version="1.0" encoding="UTF-8" standalone="no"?>
<svg
   xmlns:dc="http://purl.org/dc/elements/1.1/"
   xmlns:cc="http://creativecommons.org/ns#"
   xmlns:rdf="http://www.w3.org/1999/02/22-rdf-syntax-ns#"
   xmlns:svg="http://www.w3.org/2000/svg"
   xmlns="http://www.w3.org/2000/svg"
   xmlns:sodipodi="http://sodipodi.sourceforge.net/DTD/sodipodi-0.dtd"
   xmlns:inkscape="http://www.inkscape.org/namespaces/inkscape"
   viewBox="0 0 45 45"
   style="enable-background:new 0 0 45 45;"
   xml:space="preserve"
   version="1.1"
   id="svg2"
   sodipodi:docname="1f92e.svg"
   inkscape:version="0.92.2 5c3e80d, 2017-08-06"><sodipodi:namedview
     pagecolor="#ffffff"
     bordercolor="#666666"
     borderopacity="1"
     objecttolerance="10"
     gridtolerance="10"
     guidetolerance="10"
     inkscape:pageopacity="0"
     inkscape:pageshadow="2"
     inkscape:window-width="1303"
     inkscape:window-height="1050"
     id="namedview28"
     showgrid="false"
     inkscape:zoom="7.4167645"
     inkscape:cx="15.213846"
     inkscape:cy="29.938161"
     inkscape:window-x="0"
     inkscape:window-y="28"
     inkscape:window-maximized="0"
     inkscape:current-layer="svg2" /><metadata
     id="metadata8"><rdf:RDF><cc:Work
         rdf:about=""><dc:format>image/svg+xml</dc:format><dc:type
           rdf:resource="http://purl.org/dc/dcmitype/StillImage" /></cc:Work></rdf:RDF></metadata><defs
     id="defs6"><clipPath
       id="clipPath16"
       clipPathUnits="userSpaceOnUse"><path
         id="path18"
         d="M 0,36 36,36 36,0 0,0 0,36 Z" /></clipPath></defs><path
     style="color:#000000;font-style:normal;font-variant:normal;font-weight:normal;font-stretch:normal;font-size:medium;line-height:normal;font-family:sans-serif;font-variant-ligatures:normal;font-variant-position:normal;font-variant-caps:normal;font-variant-numeric:normal;font-variant-alternates:normal;font-feature-settings:normal;text-indent:0;text-align:start;text-decoration:none;text-decoration-line:none;text-decoration-style:solid;text-decoration-color:#000000;letter-spacing:normal;word-spacing:normal;text-transform:none;writing-mode:lr-tb;direction:ltr;text-orientation:mixed;dominant-baseline:auto;baseline-shift:baseline;text-anchor:start;white-space:normal;shape-padding:0;clip-rule:nonzero;display:inline;overflow:visible;visibility:visible;opacity:1;isolation:auto;mix-blend-mode:normal;color-interpolation:sRGB;color-interpolation-filters:linearRGB;solid-color:#000000;solid-opacity:1;vector-effect:none;fill:#000000;fill-opacity:1;fill-rule:nonzero;stroke:none;stroke-width:2;stroke-linecap:butt;stroke-linejoin:miter;stroke-miterlimit:4;stroke-dasharray:none;stroke-dashoffset:0;stroke-opacity:1;color-rendering:auto;image-rendering:auto;shape-rendering:auto;text-rendering:auto;enable-background:accumulate"
     clip-path="none"
     d="M 22.5 0 C 10.765 0 1.25 9.515 1.25 21.25 C 1.25 32.98625 10.765 42.5 22.5 42.5 C 34.23625 42.5 43.75 32.98625 43.75 21.25 C 43.75 9.515 34.23625 6.6023575e-17 22.5 0 z M 22.5 1 C 33.695759 1 42.75 10.055477 42.75 21.25 C 42.75 32.44583 33.69583 41.5 22.5 41.5 C 11.305477 41.5 2.25 32.445759 2.25 21.25 C 2.25 10.055548 11.305548 1 22.5 1 z "
     id="path22" /><path
     id="path26"
     style="fill:#000000;fill-opacity:1;fill-rule:nonzero;stroke:none;stroke-width:1.25"
     d="m 22.5,33.919625 c 4.16875,0 6.935,0.48625 10.355,1.15125 0.78125,0.15 2.30125,0 2.30125,-2.3025 0,-4.6025 -5.28625,-10.355 -12.65625,-10.355 -7.36875,0 -12.65625,5.7525 -12.65625,10.355 0,2.3025 1.52,2.45375 2.30125,2.3025 3.42,-0.665 6.18625,-1.15125 10.355,-1.15125"
     inkscape:connector-curvature="0" /><path
     id="path30"
     style="fill:#000000;fill-opacity:1;fill-rule:nonzero;stroke:none;stroke-width:1.25"
     d="m 37.37425,21.48625 c -0.13375,-0.10125 -2.27875,-1.68375 -5.485,-2.7675 0.0325,-0.135 0.055,-0.275 0.055,-0.42 0,-0.435 -0.16375,-0.83 -0.425,-1.1375 2.13,-0.615 3.9375,-0.63375 3.96875,-0.63375 0.65125,-0.0012 1.17875,-0.53125 1.1775,-1.1825 -0.0012,-0.65125 -0.5275,-1.1775 -1.18,-1.1775 -0.26,0 -6.435,0.04375 -10.2775,3.88625 -0.33875,0.3375 -0.44,0.84625 -0.25625,1.2875 0.18125,0.44 0.6125,0.72875 1.09,0.72875 5.41875,0 9.87375,3.2725 9.9175,3.30625 0.2125,0.1575 0.46,0.23375 0.70625,0.23375 0.36,0 0.715,-0.16375 0.94625,-0.4725 0.39,-0.5225 0.28375,-1.26125 -0.2375,-1.65125"
     inkscape:connector-curvature="0" /><path
     id="path34"
     style="fill:#000000;fill-opacity:1;fill-rule:nonzero;stroke:none;stroke-width:1.25"
     d="m 19.793125,18.05425 c -3.84375,-3.84375 -10.01875,-3.8875 -10.27875,-3.8875 -0.6525,0 -1.18,0.5275 -1.18,1.17875 -0.00125,0.65125 0.52625,1.18 1.1775,1.1825 0.03125,0 1.84,0.0175 3.9675,0.6325 -0.26,0.30875 -0.42375,0.7025 -0.42375,1.1375 0,0.14625 0.0225,0.285 0.055,0.42125 -3.20625,1.08375 -5.35125,2.66625 -5.485,2.7675 -0.5225,0.39 -0.6275,1.13 -0.23625,1.65125 0.23125,0.31 0.58625,0.4725 0.945,0.4725 0.24625,0 0.495,-0.07625 0.7075,-0.23625 0.04375,-0.0325 4.47,-3.305 9.91625,-3.305 0.4775,0 0.90875,-0.2875 1.09125,-0.72875 0.1825,-0.44125 0.08125,-0.94875 -0.25625,-1.28625"
     inkscape:connector-curvature="0" /><path
     id="path38"
     style="fill:#000000;fill-opacity:1;fill-rule:nonzero;stroke:none;stroke-width:1.25"
     d="m 32.139875,40.357625 v -8.87625 c 0,-3.24 -4.8625,-6.48125 -9.7225,-6.48125 -4.86125,0 -9.7225,3.24125 -9.7225,6.48125 v 8.87625 c -5.50375,0.43875 -9.19875,1.23125 -9.19875,2.1425 0,1.38 8.47125,2.5 18.92125,2.5 10.45,0 18.92,-1.12 18.92,-2.5 0,-0.91125 -3.69375,-1.70375 -9.1975,-2.1425"
     inkscape:connector-curvature="0" /><path
     id="path42"
     style="fill:#ffffff;fill-opacity:1;fill-rule:nonzero;stroke:none;stroke-width:1.25"
     d="m 21.388,29.034375 c 0,0.85375 -0.69125,1.54375 -1.54375,1.54375 -0.8525,0 -1.545,-0.69 -1.545,-1.54375 0,-0.8525 0.6925,-1.54375 1.545,-1.54375 0.8525,0 1.54375,0.69125 1.54375,1.54375"
     inkscape:connector-curvature="0" /><path
     id="path46"
     style="fill:#ffffff;fill-opacity:1;fill-rule:nonzero;stroke:none;stroke-width:1.25"
     d="m 27.417,32.0495 c 0,0.85375 -0.69125,1.54375 -1.54375,1.54375 -0.8525,0 -1.545,-0.69 -1.545,-1.54375 0,-0.85375 0.6925,-1.54375 1.545,-1.54375 0.8525,0 1.54375,0.69 1.54375,1.54375"
     inkscape:connector-curvature="0" /><path
     id="path50"
     style="fill:#ffffff;fill-opacity:1;fill-rule:nonzero;stroke:none;stroke-width:1.25"
     d="m 28.0835,38.14325 c 0,0.85375 -0.69125,1.54375 -1.54375,1.54375 -0.8525,0 -1.545,-0.69 -1.545,-1.54375 0,-0.85375 0.6925,-1.54375 1.545,-1.54375 0.8525,0 1.54375,0.69 1.54375,1.54375"
     inkscape:connector-curvature="0" /><path
     id="path54"
     style="fill:#ffffff;fill-opacity:1;fill-rule:nonzero;stroke:none;stroke-width:1.25"
     d="m 21.088875,40.684875 c 0,1.21875 -0.9875,2.20625 -2.20625,2.20625 -1.2175,0 -2.205,-0.9875 -2.205,-2.20625 0,-1.21875 0.9875,-2.20625 2.205,-2.20625 1.21875,0 2.20625,0.9875 2.20625,2.20625"
     inkscape:connector-curvature="0" /></svg>