<?xml version="1.0" encoding="UTF-8" standalone="no"?>
<svg
   xmlns:dc="http://purl.org/dc/elements/1.1/"
   xmlns:cc="http://creativecommons.org/ns#"
   xmlns:rdf="http://www.w3.org/1999/02/22-rdf-syntax-ns#"
   xmlns:svg="http://www.w3.org/2000/svg"
   xmlns="http://www.w3.org/2000/svg"
   xmlns:sodipodi="http://sodipodi.sourceforge.net/DTD/sodipodi-0.dtd"
   xmlns:inkscape="http://www.inkscape.org/namespaces/inkscape"
   viewBox="0 0 45 45"
   style="enable-background:new 0 0 45 45;"
   xml:space="preserve"
   version="1.1"
   id="svg2"
   sodipodi:docname="1f92f.svg"
   inkscape:version="0.92.2 5c3e80d, 2017-08-06"><sodipodi:namedview
     pagecolor="#ffffff"
     bordercolor="#666666"
     borderopacity="1"
     objecttolerance="10"
     gridtolerance="10"
     guidetolerance="10"
     inkscape:pageopacity="0"
     inkscape:pageshadow="2"
     inkscape:window-width="1418"
     inkscape:window-height="1050"
     id="namedview32"
     showgrid="false"
     inkscape:zoom="7.4167644"
     inkscape:cx="4.9559996"
     inkscape:cy="9.3945721"
     inkscape:window-x="0"
     inkscape:window-y="28"
     inkscape:window-maximized="0"
     inkscape:current-layer="svg2" /><metadata
     id="metadata8"><rdf:RDF><cc:Work
         rdf:about=""><dc:format>image/svg+xml</dc:format><dc:type
           rdf:resource="http://purl.org/dc/dcmitype/StillImage" /></cc:Work></rdf:RDF></metadata><defs
     id="defs6"><clipPath
       id="clipPath16"
       clipPathUnits="userSpaceOnUse"><path
         id="path18"
         d="M 0,36 36,36 36,0 0,0 0,36 Z" /></clipPath></defs><path
     style="color:#000000;font-style:normal;font-variant:normal;font-weight:normal;font-stretch:normal;font-size:medium;line-height:normal;font-family:sans-serif;font-variant-ligatures:normal;font-variant-position:normal;font-variant-caps:normal;font-variant-numeric:normal;font-variant-alternates:normal;font-feature-settings:normal;text-indent:0;text-align:start;text-decoration:none;text-decoration-line:none;text-decoration-style:solid;text-decoration-color:#000000;letter-spacing:normal;word-spacing:normal;text-transform:none;writing-mode:lr-tb;direction:ltr;text-orientation:mixed;dominant-baseline:auto;baseline-shift:baseline;text-anchor:start;white-space:normal;shape-padding:0;clip-rule:nonzero;display:inline;overflow:visible;visibility:visible;opacity:1;isolation:auto;mix-blend-mode:normal;color-interpolation:sRGB;color-interpolation-filters:linearRGB;solid-color:#000000;solid-opacity:1;vector-effect:none;fill:#000000;fill-opacity:1;fill-rule:nonzero;stroke:none;stroke-width:2;stroke-linecap:butt;stroke-linejoin:miter;stroke-miterlimit:4;stroke-dasharray:none;stroke-dashoffset:0;stroke-opacity:1;color-rendering:auto;image-rendering:auto;shape-rendering:auto;text-rendering:auto;enable-background:accumulate"
     clip-path="none"
     d="M 35.164062 14.6875 C 33.939062 14.6875 31.722656 15.408203 31.722656 15.408203 L 15.314453 17.138672 C 15.314453 17.138672 11.919688 15.164062 9.8359375 15.164062 C 5.0934375 15.164062 1.25 19.0075 1.25 23.75 C 1.25 24.04625 1.2649219 24.339453 1.2949219 24.626953 C 1.7574219 35.954453 11.06125 45 22.5 45 C 34.23625 45 43.75 35.48625 43.75 23.75 C 43.75 23.685 43.736875 23.622344 43.734375 23.558594 C 43.738175 23.463594 43.75 23.369688 43.75 23.273438 C 43.75 18.530938 39.906563 14.6875 35.164062 14.6875 z M 35.164062 15.6875 C 39.366236 15.6875 42.75 19.071264 42.75 23.273438 C 42.75 23.292108 42.742198 23.372378 42.736328 23.519531 L 42.734375 23.558594 L 42.736328 23.597656 C 42.742938 23.766257 42.75 23.813205 42.75 23.75 C 42.75 34.94583 33.69583 44 22.5 44 C 11.588406 44 2.7360061 35.388922 2.2949219 24.585938 L 2.2929688 24.554688 L 2.2890625 24.523438 C 2.2627894 24.271648 2.25 24.012495 2.25 23.75 C 2.25 19.547827 5.6337643 16.164062 9.8359375 16.164062 C 10.561876 16.164062 11.895087 16.594355 12.951172 17.064453 C 14.007256 17.534551 14.8125 18.003906 14.8125 18.003906 L 15.095703 18.167969 L 31.931641 16.392578 L 32.03125 16.359375 C 32.03125 16.359375 32.556769 16.189352 33.230469 16.017578 C 33.904169 15.845804 34.747822 15.6875 35.164062 15.6875 z "
     id="path22" /><path
     id="path26"
     style="fill:#000000;fill-opacity:1;fill-rule:nonzero;stroke:none;stroke-width:1.25"
     d="m 27.915,35.797125 c 0,3.41875 -2.42625,6.1875 -5.415,6.1875 -2.99125,0 -5.415,-2.76875 -5.415,-6.1875 0,-3.41625 2.42375,-6.1875 5.415,-6.1875 2.98875,0 5.415,2.77125 5.415,6.1875"
     inkscape:connector-curvature="0" /><path
     id="path30"
     style="fill:#000000;fill-opacity:1;fill-rule:nonzero;stroke:none;stroke-width:1.25"
     d="m 17.5,25.756875 c 0,1.84125 -1.12,3.33375 -2.5,3.33375 -1.38125,0 -2.5,-1.4925 -2.5,-3.33375 0,-1.84125 1.11875,-3.33375 2.5,-3.33375 1.38,0 2.5,1.4925 2.5,3.33375"
     inkscape:connector-curvature="0" /><path
     id="path34"
     style="fill:#000000;fill-opacity:1;fill-rule:nonzero;stroke:none;stroke-width:1.25"
     d="m 32.5,25.756875 c 0,1.84125 -1.12,3.33375 -2.5,3.33375 -1.38,0 -2.5,-1.4925 -2.5,-3.33375 0,-1.84125 1.12,-3.33375 2.5,-3.33375 1.38,0 2.5,1.4925 2.5,3.33375"
     inkscape:connector-curvature="0" /><path
     id="path38"
     style="fill:#000000;fill-opacity:1;fill-rule:nonzero;stroke:none;stroke-width:1.25"
     d="m 7.832,17.109375 c 0.3125,-0.23375 1.39125,-0.64 2.145,0.06375 1.2725,1.18625 1.58125,-1.80625 5.59625,0.37875 1.83625,1 11.23625,1.19875 12.12375,0.75875 3.365,-1.67 5.95875,-2.74625 6.965,-2.17875 0.78,0.44125 -1.2175,1.19375 0.2425,1.365 1.49125,0.175 1.5775,-0.6125 2.7525,-0.30875 2.07,0.53625 -1.36625,2.90625 -1.36625,2.90625 -5.44625,4.46875 -24.28625,1.13 -27.61125,-0.97 -1.3725,-0.86625 -1.33,-1.6525 -0.8475,-2.015"
     inkscape:connector-curvature="0" /><path
     style="fill:#000000;fill-opacity:1;fill-rule:nonzero;stroke:none;stroke-width:1.25"
     d="M 22.5 9.765625 L 7.421875 11.392578 C 10.754261 14.73499 12.433408 18.443673 13.105469 20.21875 C 14.642002 20.270951 14.853369 19.382996 17.021484 19.324219 C 18.441484 19.287969 19.250781 20.285625 20.300781 20.859375 C 22.177031 21.886875 23.511719 19.947266 24.949219 19.947266 C 26.011719 19.947266 27.723672 21.455391 28.919922 20.900391 C 30.660381 20.093836 30.966066 19.407283 32.005859 19.269531 C 32.991429 16.846058 34.646835 13.571475 37.109375 11.392578 L 22.5 9.765625 z "
     id="path42" /><path
     id="path46"
     style="fill:#000000;fill-opacity:1;fill-rule:nonzero;stroke:none;stroke-width:1.25"
     d="m 36.632125,11.793875 c 1.60125,-1.5775 -5.9675,-2.275 -11.98375,-2.275 -6.015,0 -10.44875,1.31375 -10.44875,1.31375 0,0 -6.36625,0.98125 -5.49375,1.9475 1.235,1.3675 2.75,3.94 2.75,3.94 0,0 5.94625,3.00625 10.43875,-0.7825 3.125,1.875 7.5,1.21125 9.4525,-2.01125 0,0 1.52125,0.56625 3.065,0.66375 0,0 1.19125,-1.78125 2.22,-2.79625"
     inkscape:connector-curvature="0" /><path
     id="path54"
     style="fill:#000000;fill-opacity:1;fill-rule:nonzero;stroke:none;stroke-width:1.25"
     d="m 38.90625,4.656375 c -0.29875,0 -0.58375,0.05625 -0.8575,0.13625 C 37.19,3.736375 35.895,3.046375 34.4275,3.046375 c -0.11,0 -0.2125,0.025 -0.32,0.0325 -0.9175,-1.03375 -2.2425,-1.69875 -3.7325,-1.69875 -1.88125,0 -3.50125,1.04875 -4.3575,2.5825 -0.43125,-0.99875 -1.42375,-1.6975 -2.58,-1.6975 -0.8975,0 -1.68625,0.42875 -2.20125,1.0825 -0.635,-1.8375 -2.36,-3.165 -4.41375,-3.165 -1.6525,0 -3.09875,0.86 -3.93375,2.15375 -0.23125,-0.035 -0.46125,-0.07125 -0.70125,-0.07125 -1.79,0 -3.32625,1.015 -4.11625,2.49 -0.25375,-0.0475 -0.5125,-0.07875 -0.78,-0.07875 -2.33,0 -4.21875,1.88875 -4.21875,4.21875 0,2.32875 1.88875,4.2175 4.21875,4.2175 0.735,0 1.4175,-0.19875 2.0175,-0.53125 0.47,0.35375 1.0475,0.57 1.68125,0.57 0.18125,0 0.35625,-0.02125 0.5275,-0.05375 1.0675,1.72375 2.95875,2.87875 5.13625,2.87875 2.13625,0 4.00625,-1.10625 5.09125,-2.77125 0.9,1.1025 2.2525,1.82125 3.78625,1.82125 2.2675,0 4.15875,-1.5475 4.72,-3.63875 0.04125,0.0013 0.08125,0.0125 0.12375,0.0125 0.35375,0 0.6975,-0.03875 1.03125,-0.10875 0.8175,0.695 1.86375,1.13 3.02125,1.13 1.4675,0 2.7625,-0.68875 3.62125,-1.745 0.27375,0.08 0.55875,0.13625 0.8575,0.13625 1.7,0 3.07875,-1.37875 3.07875,-3.07875 0,-1.69875 -1.37875,-3.0775 -3.07875,-3.0775"
     inkscape:connector-curvature="0" /><path
     id="path58"
     style="fill:#ffffff;fill-opacity:1;fill-rule:nonzero;stroke:none;stroke-width:1.25"
     d="m 37.39625,7.208875 c 0,1.46375 -1.1875,2.6525 -2.6525,2.6525 -1.46375,0 -2.65125,-1.18875 -2.65125,-2.6525 0,-1.46375 1.1875,-2.65125 2.65125,-2.65125 1.465,0 2.6525,1.1875 2.6525,2.65125"
     inkscape:connector-curvature="0" /><path
     id="path62"
     style="fill:#ffffff;fill-opacity:1;fill-rule:nonzero;stroke:none;stroke-width:1.25"
     d="m 24.845,7.3785 c 0,-1.49125 -1.20875,-2.7 -2.70125,-2.7 -0.46,0 -0.88625,0.125 -1.26625,0.32875 -0.31375,-0.75125 -1.055,-1.28 -1.92,-1.28 -0.71,0 -1.335,0.35625 -1.71,0.8975 -0.8375,-0.77875 -1.95125,-1.265 -3.185,-1.265 -2.1925,0 -4.02,1.5125 -4.53125,3.54625 C 9.075,6.446 8.44375,6.161 7.745,6.161 c -1.38875,0 -2.51375,1.12625 -2.51375,2.515 0,1.38875 1.125,2.515 2.51375,2.515 0.87875,0 1.65,-0.45125 2.1,-1.13375 0.645,1.3525 1.91,2.34125 3.435,2.59875 0.4875,0.8375 1.38375,1.40625 2.42375,1.40625 1.34125,0 2.46,-0.9425 2.74,-2.2 0.405,0.225 0.86375,0.36375 1.36,0.36375 1.3375,0 2.45125,-0.935 2.73625,-2.18625 1.3025,-0.19375 2.305,-1.305 2.305,-2.66125"
     inkscape:connector-curvature="0" /></svg>