<?xml version="1.0" encoding="UTF-8" standalone="no"?>
<svg
   xmlns:dc="http://purl.org/dc/elements/1.1/"
   xmlns:cc="http://creativecommons.org/ns#"
   xmlns:rdf="http://www.w3.org/1999/02/22-rdf-syntax-ns#"
   xmlns:svg="http://www.w3.org/2000/svg"
   xmlns="http://www.w3.org/2000/svg"
   xmlns:sodipodi="http://sodipodi.sourceforge.net/DTD/sodipodi-0.dtd"
   xmlns:inkscape="http://www.inkscape.org/namespaces/inkscape"
   viewBox="0 0 45 45"
   style="enable-background:new 0 0 45 45;"
   xml:space="preserve"
   version="1.1"
   id="svg2"
   sodipodi:docname="1f924.svg"
   inkscape:version="0.92.2 5c3e80d, 2017-08-06"><sodipodi:namedview
     pagecolor="#ffffff"
     bordercolor="#666666"
     borderopacity="1"
     objecttolerance="10"
     gridtolerance="10"
     guidetolerance="10"
     inkscape:pageopacity="0"
     inkscape:pageshadow="2"
     inkscape:window-width="1418"
     inkscape:window-height="1050"
     id="namedview24"
     showgrid="false"
     inkscape:zoom="7.4167645"
     inkscape:cx="0.65650353"
     inkscape:cy="24.336577"
     inkscape:window-x="0"
     inkscape:window-y="28"
     inkscape:window-maximized="0"
     inkscape:current-layer="svg2" /><metadata
     id="metadata8"><rdf:RDF><cc:Work
         rdf:about=""><dc:format>image/svg+xml</dc:format><dc:type
           rdf:resource="http://purl.org/dc/dcmitype/StillImage" /></cc:Work></rdf:RDF></metadata><defs
     id="defs6"><clipPath
       id="clipPath16"
       clipPathUnits="userSpaceOnUse"><path
         id="path18"
         d="M 0,36 36,36 36,0 0,0 0,36 Z" /></clipPath></defs><path
     style="color:#000000;font-style:normal;font-variant:normal;font-weight:normal;font-stretch:normal;font-size:medium;line-height:normal;font-family:sans-serif;font-variant-ligatures:normal;font-variant-position:normal;font-variant-caps:normal;font-variant-numeric:normal;font-variant-alternates:normal;font-feature-settings:normal;text-indent:0;text-align:start;text-decoration:none;text-decoration-line:none;text-decoration-style:solid;text-decoration-color:#000000;letter-spacing:normal;word-spacing:normal;text-transform:none;writing-mode:lr-tb;direction:ltr;text-orientation:mixed;dominant-baseline:auto;baseline-shift:baseline;text-anchor:start;white-space:normal;shape-padding:0;clip-rule:nonzero;display:inline;overflow:visible;visibility:visible;opacity:1;isolation:auto;mix-blend-mode:normal;color-interpolation:sRGB;color-interpolation-filters:linearRGB;solid-color:#000000;solid-opacity:1;vector-effect:none;fill:#000000;fill-opacity:1;fill-rule:nonzero;stroke:none;stroke-width:2;stroke-linecap:butt;stroke-linejoin:miter;stroke-miterlimit:4;stroke-dasharray:none;stroke-dashoffset:0;stroke-opacity:1;color-rendering:auto;image-rendering:auto;shape-rendering:auto;text-rendering:auto;enable-background:accumulate"
     clip-path="none"
     d="M 22.5 0 C 10.075 0 0 10.075 0 22.5 C 0 34.92625 10.075 45 22.5 45 C 34.92625 45 45 34.92625 45 22.5 C 45 10.075 34.92625 0 22.5 0 z M 22.5 1 C 34.385728 1 44 10.61551 44 22.5 C 44 34.385795 34.385795 44 22.5 44 C 10.61551 44 1 34.385728 1 22.5 C 1 10.615577 10.615577 1 22.5 1 z "
     id="path22" /><path
     id="path26"
     style="fill:#000000;fill-opacity:1;fill-rule:nonzero;stroke:none;stroke-width:1.25"
     d="M 28.125,31.25 H 22.5 c -7,0 -8.75,-1.25 -8.75,-1.25 0,0 1.58375,4.4925 7.72375,4.95375 C 21.60375,34.9825 21.7375,35 21.875,35 H 27.5 c 1.03125,0 2.5,-1.46875 2.5,-2.5 0,-1.03125 -0.84375,-1.25 -1.875,-1.25"
     inkscape:connector-curvature="0" /><path
     id="path30"
     style="fill:#000000;fill-opacity:1;fill-rule:nonzero;stroke:none;stroke-width:1.25"
     d="m 19.766,22.360125 c -0.22,0.17875 -0.53375,0.18375 -0.7625,0.0175 -0.01625,-0.0125 -1.57625,-1.1275 -4.6275,-1.1275 -3.05125,0 -4.6125,1.115 -4.62625,1.125 -0.2275,0.17 -0.5425,0.16625 -0.76375,-0.01125 -0.2225,-0.1775 -0.2975,-0.4825 -0.1825,-0.7425 0.07625,-0.16875 1.875,-4.12125 5.5725,-4.12125 3.6975,0 5.49625,3.9525 5.57125,4.12125 0.11375,0.25875 0.03875,0.56125 -0.18125,0.73875"
     inkscape:connector-curvature="0" /><path
     id="path34"
     style="fill:#000000;fill-opacity:1;fill-rule:nonzero;stroke:none;stroke-width:1.25"
     d="m 36.015625,22.360125 c -0.22,0.17875 -0.5325,0.185 -0.7625,0.0175 -0.015,-0.0125 -1.57625,-1.1275 -4.6275,-1.1275 -3.05125,0 -4.61375,1.115 -4.62625,1.125 -0.2275,0.17 -0.54125,0.16625 -0.76375,-0.01125 -0.2225,-0.1775 -0.2975,-0.4825 -0.1825,-0.7425 0.075,-0.16875 1.875,-4.12125 5.5725,-4.12125 3.69625,0 5.49625,3.9525 5.57125,4.12125 0.11375,0.25875 0.04,0.56125 -0.18125,0.73875"
     inkscape:connector-curvature="0" /><path
     id="path38"
     style="fill:#000000;fill-opacity:1;fill-rule:nonzero;stroke:none;stroke-width:1.25"
     d="m 16.392,7.502 c 0.69,0.02625 1.2275,0.6075 1.20125,1.2975 -0.0275,0.6875 -0.605,1.225 -1.2925,1.20125 C 16.10575,9.99575 11.83825,9.9345 8.377,14.197 7.942,14.7295 7.1545,14.8145 6.61825,14.37825 6.082,13.94325 6.00075,13.15575 6.437,12.6195 10.722,7.3445 16.16325,7.49325 16.392,7.502"
     inkscape:connector-curvature="0" /><path
     id="path42"
     style="fill:#000000;fill-opacity:1;fill-rule:nonzero;stroke:none;stroke-width:1.25"
     d="M 28.14575,9.59275 C 28.372,9.5515 33.737,8.639 38.722,13.259 c 0.5075,0.47 0.5375,1.26125 0.0675,1.76625 -0.46875,0.50875 -1.25875,0.5375 -1.76625,0.0675 -4.035,-3.73875 -8.25875,-3.07 -8.4375,-3.03875 -0.6775,0.115 -1.325,-0.33875 -1.44375,-1.015 -0.12,-0.6775 0.3275,-1.32375 1.00375,-1.44625"
     inkscape:connector-curvature="0" /><path
     id="path46"
     style="fill:#000000;fill-opacity:1;fill-rule:nonzero;stroke:none;stroke-width:1.25;stroke-opacity:1"
     d="M 28.75,32.5 H 25 c -0.6875,0 -1.25,0.5625 -1.25,1.25 v 5 c 0,0.6875 0.5625,1.25 1.25,1.25 0.6875,0 1.25,-0.5625 1.25,-1.25 v 4.375 C 26.25,44.15625 27.09375,45 28.125,45 29.15625,45 30,44.15625 30,43.125 V 37.5 34.375 33.75 C 30,33.0625 29.4375,32.5 28.75,32.5"
     inkscape:connector-curvature="0" /></svg>