<?xml version="1.0" encoding="UTF-8" standalone="no"?>
<svg
   xmlns:dc="http://purl.org/dc/elements/1.1/"
   xmlns:cc="http://creativecommons.org/ns#"
   xmlns:rdf="http://www.w3.org/1999/02/22-rdf-syntax-ns#"
   xmlns:svg="http://www.w3.org/2000/svg"
   xmlns="http://www.w3.org/2000/svg"
   xmlns:sodipodi="http://sodipodi.sourceforge.net/DTD/sodipodi-0.dtd"
   xmlns:inkscape="http://www.inkscape.org/namespaces/inkscape"
   viewBox="0 0 45 45"
   style="enable-background:new 0 0 45 45;"
   xml:space="preserve"
   version="1.1"
   id="svg2"
   sodipodi:docname="1f921.svg"
   inkscape:version="0.92.2 5c3e80d, 2017-08-06"><sodipodi:namedview
     pagecolor="#ffffff"
     bordercolor="#666666"
     borderopacity="1"
     objecttolerance="10"
     gridtolerance="10"
     guidetolerance="10"
     inkscape:pageopacity="0"
     inkscape:pageshadow="2"
     inkscape:window-width="1303"
     inkscape:window-height="1050"
     id="namedview44"
     showgrid="false"
     inkscape:zoom="7.4167645"
     inkscape:cx="28.914802"
     inkscape:cy="-1.7220027"
     inkscape:window-x="0"
     inkscape:window-y="28"
     inkscape:window-maximized="0"
     inkscape:current-layer="svg2" /><metadata
     id="metadata8"><rdf:RDF><cc:Work
         rdf:about=""><dc:format>image/svg+xml</dc:format><dc:type
           rdf:resource="http://purl.org/dc/dcmitype/StillImage" /></cc:Work></rdf:RDF></metadata><defs
     id="defs6"><clipPath
       id="clipPath16"
       clipPathUnits="userSpaceOnUse"><path
         id="path18"
         d="M 0,36 36,36 36,0 0,0 0,36 Z" /></clipPath></defs><g
     id="g20"
     transform="matrix(1.25,0,0,-1.25,38.75,3.75)"
     style="fill:#000000"><path
       inkscape:connector-curvature="0"
       d="m 0,0 c 0,-1.104 -0.895,-2 -2,-2 -1.104,0 -2,0.896 -2,2 0,1.105 0.896,2 2,2 1.105,0 2,-0.895 2,-2"
       style="fill:#000000;fill-opacity:1;fill-rule:nonzero;stroke:none"
       id="path22" /></g><g
     id="g24"
     transform="matrix(1.25,0,0,-1.25,45,10)"
     style="fill:#000000"><path
       inkscape:connector-curvature="0"
       d="m 0,0 c 0,-1.656 -1.343,-3 -3,-3 -1.657,0 -3,1.344 -3,3 0,1.656 1.343,3 3,3 1.657,0 3,-1.344 3,-3"
       style="fill:#000000;fill-opacity:1;fill-rule:nonzero;stroke:none"
       id="path26" /></g><g
     id="g28"
     transform="matrix(1.25,0,0,-1.25,45,5)"
     style="fill:#000000"><path
       inkscape:connector-curvature="0"
       d="m 0,0 c 0,-1.656 -1.343,-3 -3,-3 -1.657,0 -3,1.344 -3,3 0,1.656 1.343,3 3,3 1.657,0 3,-1.344 3,-3"
       style="fill:#000000;fill-opacity:1;fill-rule:nonzero;stroke:none"
       id="path30" /></g><g
     id="g32"
     transform="matrix(1.25,0,0,-1.25,6.25,3.75)"
     style="fill:#000000"><path
       inkscape:connector-curvature="0"
       d="M 0,0 C 0,-1.104 0.896,-2 2,-2 3.104,-2 4,-1.104 4,0 4,1.105 3.104,2 2,2 0.896,2 0,1.105 0,0"
       style="fill:#000000;fill-opacity:1;fill-rule:nonzero;stroke:none"
       id="path34" /></g><g
     id="g36"
     transform="matrix(1.25,0,0,-1.25,0,10)"
     style="fill:#000000"><path
       inkscape:connector-curvature="0"
       d="M 0,0 C 0,-1.656 1.343,-3 3,-3 4.657,-3 6,-1.656 6,0 6,1.656 4.657,3 3,3 1.343,3 0,1.656 0,0"
       style="fill:#000000;fill-opacity:1;fill-rule:nonzero;stroke:none"
       id="path38" /></g><g
     id="g40"
     transform="matrix(1.25,0,0,-1.25,0,5)"
     style="fill:#000000"><path
       inkscape:connector-curvature="0"
       d="M 0,0 C 0,-1.656 1.343,-3 3,-3 4.657,-3 6,-1.656 6,0 6,1.656 4.657,3 3,3 1.343,3 0,1.656 0,0"
       style="fill:#000000;fill-opacity:1;fill-rule:nonzero;stroke:none"
       id="path42" /></g><path
     style="color:#000000;font-style:normal;font-variant:normal;font-weight:normal;font-stretch:normal;font-size:medium;line-height:normal;font-family:sans-serif;font-variant-ligatures:normal;font-variant-position:normal;font-variant-caps:normal;font-variant-numeric:normal;font-variant-alternates:normal;font-feature-settings:normal;text-indent:0;text-align:start;text-decoration:none;text-decoration-line:none;text-decoration-style:solid;text-decoration-color:#000000;letter-spacing:normal;word-spacing:normal;text-transform:none;writing-mode:lr-tb;direction:ltr;text-orientation:mixed;dominant-baseline:auto;baseline-shift:baseline;text-anchor:start;white-space:normal;shape-padding:0;clip-rule:nonzero;display:inline;overflow:visible;visibility:visible;opacity:1;isolation:auto;mix-blend-mode:normal;color-interpolation:sRGB;color-interpolation-filters:linearRGB;solid-color:#000000;solid-opacity:1;vector-effect:none;fill:#000000;fill-opacity:1;fill-rule:nonzero;stroke:none;stroke-width:2;stroke-linecap:butt;stroke-linejoin:miter;stroke-miterlimit:4;stroke-dasharray:none;stroke-dashoffset:0;stroke-opacity:1;color-rendering:auto;image-rendering:auto;shape-rendering:auto;text-rendering:auto;enable-background:accumulate"
     d="M 22.5 0 C 10.07375 0 0 10.07375 0 22.5 C 0 34.92625 10.07375 45 22.5 45 C 34.92625 45 45 34.92625 45 22.5 C 45 10.07375 34.92625 0 22.5 0 z M 22.5 1 C 34.385795 1 44 10.614205 44 22.5 C 44 34.385795 34.385795 44 22.5 44 C 10.614205 44 1 34.385795 1 22.5 C 1 10.614205 10.614205 1 22.5 1 z "
     id="path46" /><g
     id="g48"
     transform="matrix(1.25,0,0,-1.25,41.25,5.625)"
     style="fill:#000000"><path
       inkscape:connector-curvature="0"
       d="M 0,0 C 0,-1.381 -1.12,-2.5 -2.5,-2.5 -3.88,-2.5 -5,-1.381 -5,0 -5,1.381 -3.88,2.5 -2.5,2.5 -1.12,2.5 0,1.381 0,0"
       style="fill:#000000;fill-opacity:1;fill-rule:nonzero;stroke:none"
       id="path50" /></g><g
     id="g52"
     transform="matrix(1.25,0,0,-1.25,42.5,8.75)"
     style="fill:#000000"><path
       inkscape:connector-curvature="0"
       d="m 0,0 c 0,-1.104 -0.896,-2 -2,-2 -1.104,0 -2,0.896 -2,2 0,1.105 0.896,2 2,2 1.104,0 2,-0.895 2,-2"
       style="fill:#000000;fill-opacity:1;fill-rule:nonzero;stroke:none"
       id="path54" /></g><g
     id="g56"
     transform="matrix(1.25,0,0,-1.25,3.75,5.625)"
     style="fill:#000000"><path
       inkscape:connector-curvature="0"
       d="M 0,0 C 0,-1.381 1.12,-2.5 2.5,-2.5 3.88,-2.5 5,-1.381 5,0 5,1.381 3.88,2.5 2.5,2.5 1.12,2.5 0,1.381 0,0"
       style="fill:#000000;fill-opacity:1;fill-rule:nonzero;stroke:none"
       id="path58" /></g><g
     id="g60"
     transform="matrix(1.25,0,0,-1.25,2.5,8.75)"
     style="fill:#000000"><path
       inkscape:connector-curvature="0"
       d="M 0,0 C 0,-1.104 0.896,-2 2,-2 3.104,-2 4,-1.104 4,0 4,1.105 3.104,2 2,2 0.896,2 0,1.105 0,0"
       style="fill:#000000;fill-opacity:1;fill-rule:nonzero;stroke:none"
       id="path62" /></g><g
     id="g64"
     transform="matrix(1.25,0,0,-1.25,13.662125,26.25)"
     style="fill:#000000"><path
       inkscape:connector-curvature="0"
       d="m 0,0 c 0,-2.209 -1.791,-4 -4,-4 -2.209,0 -4,1.791 -4,4 0,2.209 1.791,4 4,4 2.209,0 4,-1.791 4,-4"
       style="fill:#000000;fill-opacity:1;fill-rule:nonzero;stroke:none"
       id="path66" /></g><g
     id="g68"
     transform="matrix(1.25,0,0,-1.25,41.162125,26.25)"
     style="fill:#000000"><path
       inkscape:connector-curvature="0"
       d="m 0,0 c 0,-2.209 -1.791,-4 -4,-4 -2.209,0 -4,1.791 -4,4 0,2.209 1.791,4 4,4 2.209,0 4,-1.791 4,-4"
       style="fill:#000000;fill-opacity:1;fill-rule:nonzero;stroke:none"
       id="path70" /></g><g
     id="g72"
     transform="matrix(1.25,0,0,-1.25,34.16875,29.536125)"
     style="fill:#000000"><path
       inkscape:connector-curvature="0"
       d="m 0,0 c -0.178,0.161 -0.444,0.171 -0.635,0.029 -0.039,-0.029 -3.922,-2.9 -8.7,-2.9 -4.766,0 -8.662,2.871 -8.7,2.9 -0.191,0.142 -0.457,0.13 -0.635,-0.029 -0.177,-0.16 -0.217,-0.424 -0.094,-0.628 0.129,-0.215 3.217,-6.743 9.429,-6.743 6.212,0 9.301,6.528 9.429,6.743 C 0.217,-0.423 0.178,-0.16 0,0"
       style="fill:#000000;fill-opacity:1;fill-rule:nonzero;stroke:none"
       id="path74" /></g><g
     id="g76"
     transform="matrix(1.25,0,0,-1.25,17.5,14.375)"
     style="fill:#000000"><path
       inkscape:connector-curvature="0"
       d="M 0,0 C 0,-1.934 -1.119,-3.5 -2.5,-3.5 -3.881,-3.5 -5,-1.934 -5,0 -5,1.933 -3.881,3.5 -2.5,3.5 -1.119,3.5 0,1.933 0,0"
       style="fill:#000000;fill-opacity:1;fill-rule:nonzero;stroke:none"
       id="path78" /></g><g
     id="g80"
     transform="matrix(1.25,0,0,-1.25,35,14.375)"
     style="fill:#000000"><path
       inkscape:connector-curvature="0"
       d="M 0,0 C 0,-1.934 -1.119,-3.5 -2.5,-3.5 -3.881,-3.5 -5,-1.934 -5,0 -5,1.933 -3.881,3.5 -2.5,3.5 -1.119,3.5 0,1.933 0,0"
       style="fill:#000000;fill-opacity:1;fill-rule:nonzero;stroke:none"
       id="path82" /></g><g
     id="g84"
     transform="matrix(1.25,0,0,-1.25,27.5,24.375)"
     style="fill:#000000"><path
       inkscape:connector-curvature="0"
       d="M 0,0 C 0,-1.933 -1.566,-3.5 -3.5,-3.5 -5.433,-3.5 -7,-1.933 -7,0 -7,1.933 -5.433,3.5 -3.5,3.5 -1.566,3.5 0,1.933 0,0"
       style="fill:#000000;fill-opacity:1;fill-rule:nonzero;stroke:none"
       id="path86" /></g></svg>