<?xml version="1.0" encoding="UTF-8" standalone="no"?>
<svg
   xmlns:dc="http://purl.org/dc/elements/1.1/"
   xmlns:cc="http://creativecommons.org/ns#"
   xmlns:rdf="http://www.w3.org/1999/02/22-rdf-syntax-ns#"
   xmlns:svg="http://www.w3.org/2000/svg"
   xmlns="http://www.w3.org/2000/svg"
   xmlns:sodipodi="http://sodipodi.sourceforge.net/DTD/sodipodi-0.dtd"
   xmlns:inkscape="http://www.inkscape.org/namespaces/inkscape"
   viewBox="0 0 45 45"
   style="enable-background:new 0 0 45 45;"
   xml:space="preserve"
   version="1.1"
   id="svg2"
   sodipodi:docname="1f925.svg"
   inkscape:version="0.92.2 5c3e80d, 2017-08-06"><sodipodi:namedview
     pagecolor="#ffffff"
     bordercolor="#666666"
     borderopacity="1"
     objecttolerance="10"
     gridtolerance="10"
     guidetolerance="10"
     inkscape:pageopacity="0"
     inkscape:pageshadow="2"
     inkscape:window-width="1303"
     inkscape:window-height="1050"
     id="namedview20"
     showgrid="false"
     inkscape:zoom="10.488889"
     inkscape:cx="18.958868"
     inkscape:cy="26.137357"
     inkscape:window-x="0"
     inkscape:window-y="28"
     inkscape:window-maximized="0"
     inkscape:current-layer="svg2" /><metadata
     id="metadata8"><rdf:RDF><cc:Work
         rdf:about=""><dc:format>image/svg+xml</dc:format><dc:type
           rdf:resource="http://purl.org/dc/dcmitype/StillImage" /></cc:Work></rdf:RDF></metadata><defs
     id="defs6"><clipPath
       id="clipPath16"
       clipPathUnits="userSpaceOnUse"><path
         id="path18"
         d="M 0,36 36,36 36,0 0,0 0,36 Z" /></clipPath></defs><path
     style="color:#000000;font-style:normal;font-variant:normal;font-weight:normal;font-stretch:normal;font-size:medium;line-height:normal;font-family:sans-serif;font-variant-ligatures:normal;font-variant-position:normal;font-variant-caps:normal;font-variant-numeric:normal;font-variant-alternates:normal;font-feature-settings:normal;text-indent:0;text-align:start;text-decoration:none;text-decoration-line:none;text-decoration-style:solid;text-decoration-color:#000000;letter-spacing:normal;word-spacing:normal;text-transform:none;writing-mode:lr-tb;direction:ltr;text-orientation:mixed;dominant-baseline:auto;baseline-shift:baseline;text-anchor:start;white-space:normal;shape-padding:0;clip-rule:nonzero;display:inline;overflow:visible;visibility:visible;opacity:1;isolation:auto;mix-blend-mode:normal;color-interpolation:sRGB;color-interpolation-filters:linearRGB;solid-color:#000000;solid-opacity:1;vector-effect:none;fill:#000000;fill-opacity:1;fill-rule:nonzero;stroke:none;stroke-width:2;stroke-linecap:butt;stroke-linejoin:miter;stroke-miterlimit:4;stroke-dasharray:none;stroke-dashoffset:0;stroke-opacity:1;color-rendering:auto;image-rendering:auto;shape-rendering:auto;text-rendering:auto;enable-background:accumulate"
     d="M 20 2.5 C 8.955 2.5 0 11.455 0 22.5 C 0 33.545 8.955 42.5 20 42.5 C 31.045 42.5 40 33.545 40 22.5 C 40 11.455 31.045 2.5 20 2.5 z M 20 3.5 C 30.504484 3.5 39 11.995516 39 22.5 C 39 33.004484 30.504484 41.5 20 41.5 C 9.4955161 41.5 1 33.004484 1 22.5 C 1 11.995516 9.4955161 3.5 20 3.5 z "
     id="path22" /><g
     id="g24"
     transform="matrix(1.25,0,0,-1.25,14.338375,16.911625)"
     style="fill:#000000"><path
       inkscape:connector-curvature="0"
       d="m 0,0 c 0,-1.706 -0.987,-3.088 -2.206,-3.088 -1.218,0 -2.206,1.382 -2.206,3.088 0,1.705 0.988,3.088 2.206,3.088 C -0.987,3.088 0,1.705 0,0"
       style="fill:#000000;fill-opacity:1;fill-rule:nonzero;stroke:none"
       id="path26" /></g><g
     id="g28"
     transform="matrix(1.25,0,0,-1.25,28.75,16.911625)"
     style="fill:#000000"><path
       inkscape:connector-curvature="0"
       d="m 0,0 c 0,-1.706 -0.987,-3.088 -2.206,-3.088 -1.218,0 -2.206,1.382 -2.206,3.088 0,1.705 0.988,3.088 2.206,3.088 C -0.987,3.088 0,1.705 0,0"
       style="fill:#000000;fill-opacity:1;fill-rule:nonzero;stroke:none"
       id="path30" /></g><g
     id="g32"
     transform="matrix(1.25,0,0,-1.25,12.647125,36.727875)"
     style="fill:#000000"><path
       inkscape:connector-curvature="0"
       d="M 0,0 C 1.765,4.412 11.471,4.412 11.471,2.647 11.471,1.765 4.412,3.529 0,0"
       style="fill:#000000;fill-opacity:1;fill-rule:nonzero;stroke:none"
       id="path34" /></g><g
     id="g36"
     transform="matrix(1.25,0,0,-1.25,40.327125,21.875)"
     style="fill:#ffffff;stroke:#000000;stroke-opacity:1;fill-opacity:1"><path
       inkscape:connector-curvature="0"
       d="m 0,0 h -15.262 c -1.51,0 -2.734,-1.344 -2.734,-3 0,-1.657 1.224,-3 2.734,-3 H 0 c 1.513,0 2.738,1.343 2.738,3 0,1.656 -1.225,3 -2.738,3"
       style="fill:#ffffff;fill-opacity:1;fill-rule:nonzero;stroke:#000000;stroke-opacity:1"
       id="path38" /></g></svg>