<?xml version="1.0" encoding="UTF-8" standalone="no"?>
<svg
   xmlns:dc="http://purl.org/dc/elements/1.1/"
   xmlns:cc="http://creativecommons.org/ns#"
   xmlns:rdf="http://www.w3.org/1999/02/22-rdf-syntax-ns#"
   xmlns:svg="http://www.w3.org/2000/svg"
   xmlns="http://www.w3.org/2000/svg"
   xmlns:sodipodi="http://sodipodi.sourceforge.net/DTD/sodipodi-0.dtd"
   xmlns:inkscape="http://www.inkscape.org/namespaces/inkscape"
   viewBox="0 0 45 45"
   style="enable-background:new 0 0 45 45;"
   xml:space="preserve"
   version="1.1"
   id="svg2"
   sodipodi:docname="1f92a.svg"
   inkscape:version="0.92.2 5c3e80d, 2017-08-06"><sodipodi:namedview
     pagecolor="#ffffff"
     bordercolor="#666666"
     borderopacity="1"
     objecttolerance="10"
     gridtolerance="10"
     guidetolerance="10"
     inkscape:pageopacity="0"
     inkscape:pageshadow="2"
     inkscape:window-width="1418"
     inkscape:window-height="1050"
     id="namedview28"
     showgrid="false"
     inkscape:zoom="10.488889"
     inkscape:cx="13.927026"
     inkscape:cy="11.612236"
     inkscape:window-x="0"
     inkscape:window-y="28"
     inkscape:window-maximized="0"
     inkscape:current-layer="svg2" /><metadata
     id="metadata8"><rdf:RDF><cc:Work
         rdf:about=""><dc:format>image/svg+xml</dc:format><dc:type
           rdf:resource="http://purl.org/dc/dcmitype/StillImage" /></cc:Work></rdf:RDF></metadata><defs
     id="defs6"><clipPath
       id="clipPath16"
       clipPathUnits="userSpaceOnUse"><path
         id="path18"
         d="M 0,36 36,36 36,0 0,0 0,36 Z" /></clipPath><clipPath
       clipPathUnits="userSpaceOnUse"
       id="clipPath935"><path
         id="path937"
         style="fill:#e8596e;fill-opacity:1;fill-rule:nonzero;stroke:none;stroke-width:1.25"
         d="m 13.75,30.004875 v 7.5 c 0,3.75 2.5,7.5 7.5,7.5 5,0 7.5,-3.75 7.5,-7.5 v -7.5 z"
         inkscape:connector-curvature="0" /></clipPath></defs><path
     style="color:#000000;font-style:normal;font-variant:normal;font-weight:normal;font-stretch:normal;font-size:medium;line-height:normal;font-family:sans-serif;font-variant-ligatures:normal;font-variant-position:normal;font-variant-caps:normal;font-variant-numeric:normal;font-variant-alternates:normal;font-feature-settings:normal;text-indent:0;text-align:start;text-decoration:none;text-decoration-line:none;text-decoration-style:solid;text-decoration-color:#000000;letter-spacing:normal;word-spacing:normal;text-transform:none;writing-mode:lr-tb;direction:ltr;text-orientation:mixed;dominant-baseline:auto;baseline-shift:baseline;text-anchor:start;white-space:normal;shape-padding:0;clip-rule:nonzero;display:inline;overflow:visible;visibility:visible;opacity:1;isolation:auto;mix-blend-mode:normal;color-interpolation:sRGB;color-interpolation-filters:linearRGB;solid-color:#000000;solid-opacity:1;vector-effect:none;fill:#000000;fill-opacity:1;fill-rule:nonzero;stroke:none;stroke-width:2;stroke-linecap:butt;stroke-linejoin:miter;stroke-miterlimit:4;stroke-dasharray:none;stroke-dashoffset:0;stroke-opacity:1;color-rendering:auto;image-rendering:auto;shape-rendering:auto;text-rendering:auto;enable-background:accumulate"
     clip-path="none"
     d="M 22.308594 0.001953125 C 20.81353 0.015771492 19.298203 0.17843749 17.779297 0.50390625 C 5.6305469 3.1076562 -2.1096094 15.07 0.49414062 27.21875 C 3.0978906 39.37 15.060937 47.109609 27.210938 44.505859 C 39.360937 41.900859 47.099844 29.940312 44.496094 17.789062 C 42.217813 7.1589066 32.774038 -0.094775443 22.308594 0.001953125 z M 22.320312 1 C 32.325755 0.90434653 41.338411 7.8303427 43.517578 17.998047 C 46.008108 29.620919 38.623599 41.035625 27.001953 43.527344 C 15.380419 46.017843 3.9631564 38.632498 1.4726562 27.009766 C -1.0178049 15.389606 6.3681124 3.9728851 17.988281 1.4824219 C 19.441131 1.1711077 20.890964 1.0136648 22.320312 1 z "
     id="path22" /><path
     id="path26"
     style="fill:#ffffff;fill-opacity:1;fill-rule:nonzero;stroke:#000000;stroke-width:1;stroke-opacity:1;stroke-miterlimit:4;stroke-dasharray:none"
     d="m 36.60525,11.264625 c 0.97375,4.545 -1.92125,9.02 -6.4675,9.99375 -4.54625,0.97375 -9.02,-1.92125 -9.99375,-6.46625 -0.975,-4.545 1.92125,-9.02 6.46625,-9.99375 4.54625,-0.975 9.02125,1.92 9.995,6.46625"
     inkscape:connector-curvature="0" /><path
     id="path30"
     style="fill:#000000;fill-opacity:1;fill-rule:nonzero;stroke:none;stroke-width:1.25"
     d="m 30.372375,11.080875 c 0.295,1.375 -0.58125,2.72875 -1.955,3.0225 -1.37625,0.295 -2.72875,-0.58 -3.02375,-1.955 -0.295,-1.37625 0.58,-2.72875 1.95625,-3.02375 1.375,-0.295 2.72875,0.58125 3.0225,1.95625"
     inkscape:connector-curvature="0" /><path
     id="path34"
     style="fill:#ffffff;fill-opacity:1;fill-rule:nonzero;stroke:#000000;stroke-width:1;stroke-opacity:1;stroke-miterlimit:4;stroke-dasharray:none"
     d="m 17.609875,17.852125 c 0.57,2.6575 -1.12375,5.27375 -3.78125,5.84375 -2.6575,0.57 -5.275,-1.1225 -5.84375,-3.78125 -0.57,-2.6575 1.1225,-5.27375 3.78125,-5.84375 2.6575,-0.56875 5.27375,1.12375 5.84375,3.78125"
     inkscape:connector-curvature="0" /><path
     id="path38"
     style="fill:#000000;fill-opacity:1;fill-rule:nonzero;stroke:none;stroke-width:1.25"
     d="m 15.17025,19.31275 c 0.28125,1.31 -0.55375,2.60125 -1.865,2.88125 -1.31,0.28125 -2.6,-0.55375 -2.88125,-1.865 -0.28,-1.31 0.55375,-2.6 1.865,-2.88125 1.31,-0.28 2.6,0.55375 2.88125,1.865"
     inkscape:connector-curvature="0" /><path
     id="path42"
     style="fill:#000000;fill-opacity:1;fill-rule:nonzero;stroke:none;stroke-width:1.25"
     d="m 23.28125,26.171875 c -4.4275,0.94875 -7.47625,1.0625 -11.2625,1.135 -0.86375,0.0175 -2.44375,0.52375 -1.92,2.9675 1.0475,4.88875 7.97375,9.7975 15.8025,8.11875 7.82625,-1.67625 12.135,-8.9925 11.08625,-13.88125 -0.52375,-2.44375 -2.1725,-2.25875 -2.9675,-1.92 -3.4825,1.485 -6.31,2.63 -10.73875,3.58"
     inkscape:connector-curvature="0" /><path
     id="path46"
     style="fill:#ffffff;fill-opacity:1;fill-rule:nonzero;stroke:#000000;stroke-width:2;stroke-opacity:1;stroke-miterlimit:4;stroke-dasharray:none"
     d="m 13.75,30.004875 v 7.5 c 0,3.75 2.5,7.5 7.5,7.5 5,0 7.5,-3.75 7.5,-7.5 v -7.5 z"
     inkscape:connector-curvature="0"
     clip-path="url(#clipPath935)" /><path
     id="path50"
     style="fill:#000000;fill-opacity:1;fill-rule:nonzero;stroke:none;stroke-width:1.25"
     d="m 21.25,39.8535 c 0.37625,0 0.68125,-0.30375 0.68125,-0.68125 V 31.3035 h -1.3625 v 7.86875 c 0,0.3775 0.305,0.68125 0.68125,0.68125"
     inkscape:connector-curvature="0" /><path
     id="path54"
     style="fill:#ffffff;fill-opacity:1;fill-rule:nonzero;stroke:none;stroke-width:1.25"
     d="m 12.54275,29.751 c 0,0 3.92875,0.4375 11.2625,-1.135 C 31.139,27.04475 34.544,25.03725 34.544,25.03725 c 0,0 -1.3975,5.4125 -9.9525,7.245 C 16.03525,34.116 12.54275,29.751 12.54275,29.751"
     inkscape:connector-curvature="0" /></svg>