<?xml version="1.0" encoding="UTF-8" standalone="no"?>
<svg
   xmlns:dc="http://purl.org/dc/elements/1.1/"
   xmlns:cc="http://creativecommons.org/ns#"
   xmlns:rdf="http://www.w3.org/1999/02/22-rdf-syntax-ns#"
   xmlns:svg="http://www.w3.org/2000/svg"
   xmlns="http://www.w3.org/2000/svg"
   xmlns:sodipodi="http://sodipodi.sourceforge.net/DTD/sodipodi-0.dtd"
   xmlns:inkscape="http://www.inkscape.org/namespaces/inkscape"
   viewBox="0 0 45 45"
   style="enable-background:new 0 0 45 45;"
   xml:space="preserve"
   version="1.1"
   id="svg2"
   sodipodi:docname="1f927.svg"
   inkscape:version="0.92.2 5c3e80d, 2017-08-06"><sodipodi:namedview
     pagecolor="#ffffff"
     bordercolor="#666666"
     borderopacity="1"
     objecttolerance="10"
     gridtolerance="10"
     guidetolerance="10"
     inkscape:pageopacity="0"
     inkscape:pageshadow="2"
     inkscape:window-width="1303"
     inkscape:window-height="1050"
     id="namedview22"
     showgrid="false"
     inkscape:zoom="7.4167645"
     inkscape:cx="21.669678"
     inkscape:cy="36.717375"
     inkscape:window-x="0"
     inkscape:window-y="28"
     inkscape:window-maximized="0"
     inkscape:current-layer="svg2" /><metadata
     id="metadata8"><rdf:RDF><cc:Work
         rdf:about=""><dc:format>image/svg+xml</dc:format><dc:type
           rdf:resource="http://purl.org/dc/dcmitype/StillImage" /></cc:Work></rdf:RDF></metadata><defs
     id="defs6"><clipPath
       id="clipPath16"
       clipPathUnits="userSpaceOnUse"><path
         id="path18"
         d="M 0,36 36,36 36,0 0,0 0,36 Z" /></clipPath></defs><path
     style="color:#000000;font-style:normal;font-variant:normal;font-weight:normal;font-stretch:normal;font-size:medium;line-height:normal;font-family:sans-serif;font-variant-ligatures:normal;font-variant-position:normal;font-variant-caps:normal;font-variant-numeric:normal;font-variant-alternates:normal;font-feature-settings:normal;text-indent:0;text-align:start;text-decoration:none;text-decoration-line:none;text-decoration-style:solid;text-decoration-color:#000000;letter-spacing:normal;word-spacing:normal;text-transform:none;writing-mode:lr-tb;direction:ltr;text-orientation:mixed;dominant-baseline:auto;baseline-shift:baseline;text-anchor:start;white-space:normal;shape-padding:0;clip-rule:nonzero;display:inline;overflow:visible;visibility:visible;opacity:1;isolation:auto;mix-blend-mode:normal;color-interpolation:sRGB;color-interpolation-filters:linearRGB;solid-color:#000000;solid-opacity:1;vector-effect:none;fill:#000000;fill-opacity:1;fill-rule:nonzero;stroke:none;stroke-width:2;stroke-linecap:butt;stroke-linejoin:miter;stroke-miterlimit:4;stroke-dasharray:none;stroke-dashoffset:0;stroke-opacity:1;color-rendering:auto;image-rendering:auto;shape-rendering:auto;text-rendering:auto;enable-background:accumulate"
     clip-path="none"
     d="M 22.5 0 C 10.075 0 0 10.075 0 22.5 C 0 34.92625 10.075 45 22.5 45 C 34.92625 45 45 34.92625 45 22.5 C 45 10.075 34.92625 0 22.5 0 z M 22.5 1 C 34.385728 1 44 10.61551 44 22.5 C 44 34.385795 34.385795 44 22.5 44 C 10.61551 44 1 34.385728 1 22.5 C 1 10.615577 10.615577 1 22.5 1 z "
     id="path22" /><path
     id="path26"
     style="fill:#000000;fill-opacity:1;fill-rule:nonzero;stroke:none;stroke-width:1.25"
     d="m 38.2495,21.50025 c -0.1425,-0.10625 -2.41375,-1.7825 -5.8075,-2.93 0.03375,-0.14375 0.0575,-0.29125 0.0575,-0.445 0,-0.46125 -0.1725,-0.87875 -0.44875,-1.205 2.25375,-0.65125 4.1675,-0.67 4.20125,-0.67 0.68875,-0.0025 1.2475,-0.5625 1.24625,-1.2525 -0.0012,-0.68875 -0.55875,-1.2475 -1.24875,-1.2475 -0.275,0 -6.81375,0.04625 -10.88375,4.11625 -0.3575,0.3575 -0.465,0.895 -0.27,1.3625 0.1925,0.46625 0.64875,0.77125 1.15375,0.77125 5.7375,0 10.455,3.465 10.5025,3.50125 0.225,0.16625 0.48625,0.2475 0.74625,0.2475 0.38125,0 0.7575,-0.17375 1.0025,-0.50125 0.4125,-0.5525 0.3,-1.33375 -0.25125,-1.7475"
     inkscape:connector-curvature="0" /><path
     id="path30"
     style="fill:#000000;fill-opacity:1;fill-rule:nonzero;stroke:none;stroke-width:1.25"
     d="M 19.63375,17.86625 C 15.565,13.7975 9.02625,13.75 8.75,13.75 c -0.69,0 -1.24875,0.55875 -1.24875,1.24875 -0.00125,0.68875 0.5575,1.25 1.2475,1.25125 0.0325,0 1.9475,0.02 4.2,0.67 -0.275,0.32625 -0.44875,0.74375 -0.44875,1.205 0,0.15375 0.02375,0.30125 0.05875,0.445 -3.395,1.1475 -5.66625,2.82375 -5.80875,2.93 -0.5525,0.41375 -0.66375,1.1975 -0.25,1.75 0.245,0.3275 0.62125,0.5 1.00125,0.5 0.26,0 0.52375,-0.08125 0.74875,-0.25 0.04625,-0.035 4.73375,-3.5 10.5,-3.5 0.505,0 0.96125,-0.305 1.155,-0.77125 0.19375,-0.4675 0.08625,-1.005 -0.27125,-1.3625"
     inkscape:connector-curvature="0" /><path
     id="path34"
     style="fill:#000000;fill-opacity:1;fill-rule:nonzero;stroke:none;stroke-width:1.25"
     d="M 20,36.25 C 22.5,30 36.25,30 36.25,32.5 c 0,1.25 -10,-1.25 -16.25,3.75"
     inkscape:connector-curvature="0" /><path
     id="path38"
     style="fill:#000000;fill-opacity:1;fill-rule:nonzero;stroke:none;stroke-width:1.25"
     d="m 23.007375,22.541 c 3.3475,3.345 -4.9675,19.405 -6.5625,21 -1.3125,1.3125 -5.25,1.3125 -6.5625,-1.3125 -1.3125,-2.625 -5.25,0 -6.5625,-1.3125 -2.625,-2.625 1.3125,-3.9375 0,-6.5625 -1.3125,-2.625 -3.9375,-3.9375 -1.3125,-6.5625 2.625,-2.625 9.1875,-1.3125 13.125,-3.9375 3.9375,-2.625 6.56125,-2.625 7.875,-1.3125"
     inkscape:connector-curvature="0" /><path
     id="path42"
     style="fill:#f5f8fa;fill-opacity:1;fill-rule:nonzero;stroke:none;stroke-width:1.25"
     d="m 21.652125,24.84 c -0.02,-0.0775 -0.06625,-0.14125 -0.09875,-0.2125 -0.0375,-0.0825 -0.06375,-0.16875 -0.1175,-0.2425 -0.20125,-0.27125 -0.50625,-0.4675 -0.8675,-0.51875 0,0 -0.0012,0 -0.0012,0 -0.17125,-0.02375 -0.3425,-0.01375 -0.5075,0.0275 -0.1125,0.02875 -0.21125,0.09 -0.31125,0.14625 -0.0475,0.02625 -0.10125,0.0375 -0.145,0.07 -0.13875,0.1025 -0.2575,0.23125 -0.3475,0.38125 -3.6675,6.1125 -12.4275,9.93 -12.51625,9.96875 -0.665,0.28625 -0.9725,1.0575 -0.6875,1.72375 0.21375,0.4975 0.6975,0.795 1.20625,0.795 0.1725,0 0.34875,-0.03375 0.51625,-0.10625 0.28,-0.12 5.07,-2.21375 9.2825,-5.89125 -2.585,4.78125 -6.5375,7.495 -6.5925,7.53125 -0.60125,0.40375 -0.7625,1.2175 -0.36,1.82 0.25375,0.37875 0.66875,0.58375 1.0925,0.58375 0.25,0 0.5025,-0.0725 0.72625,-0.22125 0.34125,-0.2275 8.3775,-5.68625 9.7575,-15.34125 0.025,-0.17375 0.01375,-0.3475 -0.02875,-0.51375"
     inkscape:connector-curvature="0" /></svg>