<?xml version="1.0" encoding="UTF-8" standalone="no"?>
<svg
   xmlns:dc="http://purl.org/dc/elements/1.1/"
   xmlns:cc="http://creativecommons.org/ns#"
   xmlns:rdf="http://www.w3.org/1999/02/22-rdf-syntax-ns#"
   xmlns:svg="http://www.w3.org/2000/svg"
   xmlns="http://www.w3.org/2000/svg"
   xmlns:sodipodi="http://sodipodi.sourceforge.net/DTD/sodipodi-0.dtd"
   xmlns:inkscape="http://www.inkscape.org/namespaces/inkscape"
   viewBox="0 0 45 45"
   style="enable-background:new 0 0 45 45;"
   xml:space="preserve"
   version="1.1"
   id="svg2"
   sodipodi:docname="1f9d0.svg"
   inkscape:version="0.92.2 5c3e80d, 2017-08-06"><sodipodi:namedview
     pagecolor="#ffffff"
     bordercolor="#666666"
     borderopacity="1"
     objecttolerance="10"
     gridtolerance="10"
     guidetolerance="10"
     inkscape:pageopacity="0"
     inkscape:pageshadow="2"
     inkscape:window-width="1303"
     inkscape:window-height="1050"
     id="namedview28"
     showgrid="false"
     inkscape:zoom="3.7083822"
     inkscape:cx="-21.069913"
     inkscape:cy="45.392473"
     inkscape:window-x="0"
     inkscape:window-y="28"
     inkscape:window-maximized="0"
     inkscape:current-layer="svg2" /><metadata
     id="metadata8"><rdf:RDF><cc:Work
         rdf:about=""><dc:format>image/svg+xml</dc:format><dc:type
           rdf:resource="http://purl.org/dc/dcmitype/StillImage" /></cc:Work></rdf:RDF></metadata><defs
     id="defs6"><clipPath
       id="clipPath16"
       clipPathUnits="userSpaceOnUse"><path
         id="path18"
         d="M 0,36 36,36 36,0 0,0 0,36 Z" /></clipPath></defs><path
     style="color:#000000;font-style:normal;font-variant:normal;font-weight:normal;font-stretch:normal;font-size:medium;line-height:normal;font-family:sans-serif;font-variant-ligatures:normal;font-variant-position:normal;font-variant-caps:normal;font-variant-numeric:normal;font-variant-alternates:normal;font-feature-settings:normal;text-indent:0;text-align:start;text-decoration:none;text-decoration-line:none;text-decoration-style:solid;text-decoration-color:#000000;letter-spacing:normal;word-spacing:normal;text-transform:none;writing-mode:lr-tb;direction:ltr;text-orientation:mixed;dominant-baseline:auto;baseline-shift:baseline;text-anchor:start;white-space:normal;shape-padding:0;clip-rule:nonzero;display:inline;overflow:visible;visibility:visible;opacity:1;isolation:auto;mix-blend-mode:normal;color-interpolation:sRGB;color-interpolation-filters:linearRGB;solid-color:#000000;solid-opacity:1;vector-effect:none;fill:#000000;fill-opacity:1;fill-rule:nonzero;stroke:none;stroke-width:2;stroke-linecap:butt;stroke-linejoin:miter;stroke-miterlimit:4;stroke-dasharray:none;stroke-dashoffset:0;stroke-opacity:1;color-rendering:auto;image-rendering:auto;shape-rendering:auto;text-rendering:auto;enable-background:accumulate"
     d="M 22.5 0 C 10.075 0 0 10.075 0 22.5 C 0 34.92625 10.075 45 22.5 45 C 34.92625 45 45 34.92625 45 22.5 C 45 10.075 34.92625 0 22.5 0 z M 22.5 1 C 34.385728 1 44 10.61551 44 22.5 C 44 34.385795 34.385795 44 22.5 44 C 10.61551 44 1 34.385728 1 22.5 C 1 10.615577 10.615577 1 22.5 1 z "
     id="path22" /><g
     id="g24"
     transform="matrix(1.25,0,0,-1.25,18.529625,18.388)"
     style="fill:#000000"><path
       inkscape:connector-curvature="0"
       d="m 0,0 c 0,-2.047 -1.185,-3.706 -2.647,-3.706 -1.462,0 -2.647,1.659 -2.647,3.706 0,2.046 1.185,3.706 2.647,3.706 C -1.185,3.706 0,2.046 0,0"
       style="fill:#000000;fill-opacity:1;fill-rule:nonzero;stroke:none"
       id="path26" /></g><g
     id="g28"
     transform="matrix(1.25,0,0,-1.25,39.70575,17.867375)"
     style="fill:#ffffff"><path
       inkscape:connector-curvature="0"
       d="m 0,0 c 0,-3.801 -3.081,-6.883 -6.882,-6.883 -3.802,0 -6.883,3.082 -6.883,6.883 0,3.801 3.081,6.882 6.883,6.882 C -3.081,6.882 0,3.801 0,0"
       style="fill:#ffffff;fill-opacity:1;fill-rule:nonzero;stroke:none"
       id="path30" /></g><g
     id="g32"
     transform="matrix(1.25,0,0,-1.25,18.530875,12.43225)"
     style="fill:#000000"><path
       inkscape:connector-curvature="0"
       d="m 0,0 c -0.322,0 -0.64,0.146 -0.848,0.424 -0.99,1.321 -2.028,2.028 -3.083,2.103 -1.39,0.095 -2.523,-0.947 -2.734,-1.158 -0.413,-0.413 -1.083,-0.413 -1.497,0 -0.413,0.414 -0.413,1.084 0,1.498 0.457,0.456 2.129,1.935 4.381,1.772 C -2.086,4.519 -0.53,3.528 0.846,1.694 1.197,1.227 1.102,0.562 0.634,0.212 0.443,0.069 0.221,0 0,0"
       style="fill:#000000;fill-opacity:1;fill-rule:nonzero;stroke:none"
       id="path34" /></g><g
     id="g36"
     transform="matrix(1.25,0,0,-1.25,41.029,45)"
     style="fill:#000000"><path
       inkscape:connector-curvature="0"
       d="m 0,0 c -0.585,0 -1.059,0.474 -1.059,1.059 v 20.117 c 0,0.585 0.474,1.059 1.059,1.059 0.586,0 1.06,-0.474 1.06,-1.059 V 1.059 C 1.06,0.474 0.586,0 0,0"
       style="fill:#000000;fill-opacity:1;fill-rule:nonzero;stroke:none"
       id="path38" /></g><g
     id="g40"
     transform="matrix(1.25,0,0,-1.25,31.1035,25.1465)"
     style="fill:#000000"><path
       inkscape:connector-curvature="0"
       d="m 0,0 c -3.211,0 -5.824,2.612 -5.824,5.823 0,3.211 2.613,5.823 5.824,5.823 3.21,0 5.823,-2.612 5.823,-5.823 C 5.823,2.612 3.21,0 0,0 M 7.94,7.411 C 7.887,7.411 7.836,7.399 7.783,7.396 7.052,11.023 3.84,13.764 0,13.764 c -4.38,0 -7.941,-3.562 -7.941,-7.941 0,-4.379 3.561,-7.941 7.941,-7.941 3.468,0 6.416,2.238 7.495,5.343 0.144,-0.031 0.293,-0.049 0.445,-0.049 1.17,0 2.119,0.948 2.119,2.117 0,1.17 -0.949,2.118 -2.119,2.118"
       style="fill:#000000;fill-opacity:1;fill-rule:nonzero;stroke:none"
       id="path42" /></g><g
     id="g44"
     transform="matrix(1.25,0,0,-1.25,26.46975,35.734875)"
     style="fill:#000000"><path
       inkscape:connector-curvature="0"
       d="m 0,0 c -0.159,0 -0.321,0.036 -0.473,0.111 -1.819,0.91 -3.588,0.91 -5.406,0 -0.523,-0.26 -1.159,-0.049 -1.42,0.474 -0.262,0.523 -0.05,1.159 0.473,1.421 2.421,1.21 4.878,1.21 7.301,0 C 0.997,1.744 1.209,1.108 0.948,0.585 0.762,0.214 0.389,0 0,0"
       style="fill:#000000;fill-opacity:1;fill-rule:nonzero;stroke:none"
       id="path46" /></g><g
     id="g48"
     transform="matrix(1.25,0,0,-1.25,35.061,11.76325)"
     style="fill:#ffffff"><path
       inkscape:connector-curvature="0"
       d="m 0,0 c -0.912,0.592 -1.998,0.94 -3.166,0.94 -3.217,0 -5.824,-2.607 -5.824,-5.823 0,-1.169 0.347,-2.255 0.94,-3.167 z"
       style="fill:#ffffff;fill-opacity:1;fill-rule:nonzero;stroke:none"
       id="path50" /></g><g
     id="g52"
     transform="matrix(1.25,0,0,-1.25,27.996875,24.443375)"
     style="fill:#ffffff"><path
       inkscape:connector-curvature="0"
       d="m 0,0 c 0.754,-0.357 1.595,-0.562 2.485,-0.562 3.216,0 5.824,2.606 5.824,5.823 0,0.89 -0.206,1.73 -0.564,2.485 z"
       style="fill:#ffffff;fill-opacity:1;fill-rule:nonzero;stroke:none"
       id="path54" /></g></svg>