<?xml version="1.0" encoding="UTF-8" standalone="no"?>
<svg
   xmlns:dc="http://purl.org/dc/elements/1.1/"
   xmlns:cc="http://creativecommons.org/ns#"
   xmlns:rdf="http://www.w3.org/1999/02/22-rdf-syntax-ns#"
   xmlns:svg="http://www.w3.org/2000/svg"
   xmlns="http://www.w3.org/2000/svg"
   xmlns:sodipodi="http://sodipodi.sourceforge.net/DTD/sodipodi-0.dtd"
   xmlns:inkscape="http://www.inkscape.org/namespaces/inkscape"
   viewBox="0 0 45 45"
   style="enable-background:new 0 0 45 45;"
   xml:space="preserve"
   version="1.1"
   id="svg2"
   sodipodi:docname="2620.svg"
   inkscape:version="0.92.2 5c3e80d, 2017-08-06"><sodipodi:namedview
     pagecolor="#ffffff"
     bordercolor="#666666"
     borderopacity="1"
     objecttolerance="10"
     gridtolerance="10"
     guidetolerance="10"
     inkscape:pageopacity="0"
     inkscape:pageshadow="2"
     inkscape:window-width="1303"
     inkscape:window-height="1050"
     id="namedview26"
     showgrid="false"
     inkscape:zoom="5.2444444"
     inkscape:cx="43.060023"
     inkscape:cy="-10.284465"
     inkscape:window-x="0"
     inkscape:window-y="28"
     inkscape:window-maximized="0"
     inkscape:current-layer="svg2" /><metadata
     id="metadata8"><rdf:RDF><cc:Work
         rdf:about=""><dc:format>image/svg+xml</dc:format><dc:type
           rdf:resource="http://purl.org/dc/dcmitype/StillImage" /></cc:Work></rdf:RDF></metadata><defs
     id="defs6"><clipPath
       id="clipPath16"
       clipPathUnits="userSpaceOnUse"><path
         id="path18"
         d="M 0,36 36,36 36,0 0,0 0,36 Z" /></clipPath></defs><path
     style="color:#000000;font-style:normal;font-variant:normal;font-weight:normal;font-stretch:normal;font-size:medium;line-height:normal;font-family:sans-serif;font-variant-ligatures:normal;font-variant-position:normal;font-variant-caps:normal;font-variant-numeric:normal;font-variant-alternates:normal;font-feature-settings:normal;text-indent:0;text-align:start;text-decoration:none;text-decoration-line:none;text-decoration-style:solid;text-decoration-color:#000000;letter-spacing:normal;word-spacing:normal;text-transform:none;writing-mode:lr-tb;direction:ltr;text-orientation:mixed;dominant-baseline:auto;baseline-shift:baseline;text-anchor:start;white-space:normal;shape-padding:0;clip-rule:nonzero;display:inline;overflow:visible;visibility:visible;opacity:1;isolation:auto;mix-blend-mode:normal;color-interpolation:sRGB;color-interpolation-filters:linearRGB;solid-color:#000000;solid-opacity:1;vector-effect:none;fill:#000000;fill-opacity:1;fill-rule:nonzero;stroke:none;stroke-width:2;stroke-linecap:butt;stroke-linejoin:miter;stroke-miterlimit:4;stroke-dasharray:none;stroke-dashoffset:0;stroke-opacity:1;color-rendering:auto;image-rendering:auto;shape-rendering:auto;text-rendering:auto;enable-background:accumulate"
     clip-path="none"
     d="M 22.421875 8.4550781 C 15.526875 8.4550781 10.126953 13.136953 10.126953 20.939453 C 10.126953 25.289453 10 29.046484 15 30.802734 L 15 34.205078 C 15 35.497578 16.2075 36.544922 17.5 36.544922 C 18.79375 36.544922 20 35.497578 20 34.205078 C 20 35.497578 21.205547 36.544922 22.498047 36.544922 C 23.793047 36.544922 25 35.497578 25 34.205078 C 25 35.497578 26.2075 36.544922 27.5 36.544922 C 28.7925 36.544922 30 35.497578 30 34.205078 L 30 30.802734 C 35 29.046484 34.832031 25.289453 34.832031 20.939453 C 34.832031 13.136953 29.316875 8.4550781 22.421875 8.4550781 z M 22.421875 9.4550781 C 25.643003 9.4550781 28.482996 10.539573 30.521484 12.492188 C 32.559972 14.444802 33.832031 17.273758 33.832031 20.939453 C 33.832031 23.127384 33.844951 25.06127 33.345703 26.519531 C 32.846454 27.977792 31.954333 29.054337 29.667969 29.857422 L 29 30.09375 L 29 34.205078 C 29 34.874754 28.252203 35.544922 27.5 35.544922 C 26.747797 35.544922 26 34.874754 26 34.205078 L 26 31.742188 L 24 31.742188 L 24 31.796875 L 24 34.205078 C 24 34.875399 23.253793 35.544922 22.498047 35.544922 C 21.745843 35.544919 21 34.875399 21 34.205078 L 21 31.796875 L 21 31.742188 L 19 31.742188 L 19 31.796875 L 19 34.205078 C 19 34.875399 18.253975 35.544922 17.5 35.544922 C 16.747797 35.544922 16 34.874754 16 34.205078 L 16 30.09375 L 15.332031 29.857422 C 13.044856 29.054052 12.141146 27.97265 11.632812 26.513672 C 11.124481 25.054693 11.126953 23.124223 11.126953 20.939453 C 11.126953 17.268898 12.376707 14.438373 14.386719 12.488281 C 16.396731 10.538189 19.200747 9.4550781 22.421875 9.4550781 z "
     id="path22" /><g
     id="g24"
     transform="matrix(1.25,0,0,-1.25,20.9375,19.378625)"
     style="fill:#000000"
     clip-path="none"><path
       inkscape:connector-curvature="0"
       d="m 0,0 c 0,-1.724 0,-3.121 -3.121,-3.121 -3.121,0 -3.121,1.397 -3.121,3.121 0,1.724 1.397,3.121 3.121,3.121 C -1.398,3.121 0,1.724 0,0"
       style="fill:#000000;fill-opacity:1;fill-rule:nonzero;stroke:none"
       id="path26" /></g><g
     id="g28"
     transform="matrix(1.25,0,0,-1.25,31.860375,19.378625)"
     style="fill:#000000"
     clip-path="none"><path
       inkscape:connector-curvature="0"
       d="m 0,0 c 0,-1.724 0,-3.121 -3.121,-3.121 -3.12,0 -3.12,1.397 -3.12,3.121 0,1.724 1.396,3.121 3.12,3.121 C -1.396,3.121 0,1.724 0,0"
       style="fill:#000000;fill-opacity:1;fill-rule:nonzero;stroke:none"
       id="path30" /></g><g
     id="g32"
     transform="matrix(1.25,0,0,-1.25,23.983125,26.449)"
     style="fill:#000000"
     clip-path="none"><path
       inkscape:connector-curvature="0"
       d="M 0,0 C -0.157,0.382 -0.626,0.662 -1.189,0.662 -1.75,0.662 -2.22,0.382 -2.376,0 c -0.395,-0.11 -0.685,-0.469 -0.685,-0.898 0,-0.517 0.419,-0.936 0.936,-0.936 0.409,0 0.753,0.263 0.88,0.628 0.019,0 0.037,-0.004 0.056,-0.004 0.02,0 0.038,0.004 0.057,0.004 0.128,-0.365 0.472,-0.628 0.88,-0.628 0.517,0 0.937,0.419 0.937,0.936 C 0.685,-0.469 0.394,-0.111 0,0"
       style="fill:#000000;fill-opacity:1;fill-rule:nonzero;stroke:none"
       id="path34" /></g><path
     style="color:#000000;font-style:normal;font-variant:normal;font-weight:normal;font-stretch:normal;font-size:medium;line-height:normal;font-family:sans-serif;font-variant-ligatures:normal;font-variant-position:normal;font-variant-caps:normal;font-variant-numeric:normal;font-variant-alternates:normal;font-feature-settings:normal;text-indent:0;text-align:start;text-decoration:none;text-decoration-line:none;text-decoration-style:solid;text-decoration-color:#000000;letter-spacing:normal;word-spacing:normal;text-transform:none;writing-mode:lr-tb;direction:ltr;text-orientation:mixed;dominant-baseline:auto;baseline-shift:baseline;text-anchor:start;white-space:normal;shape-padding:0;clip-rule:nonzero;display:inline;overflow:visible;visibility:visible;opacity:1;isolation:auto;mix-blend-mode:normal;color-interpolation:sRGB;color-interpolation-filters:linearRGB;solid-color:#000000;solid-opacity:1;vector-effect:none;fill:#000000;fill-opacity:1;fill-rule:nonzero;stroke:none;stroke-width:2;stroke-linecap:butt;stroke-linejoin:miter;stroke-miterlimit:4;stroke-dasharray:none;stroke-dashoffset:0;stroke-opacity:1;color-rendering:auto;image-rendering:auto;shape-rendering:auto;text-rendering:auto;enable-background:accumulate"
     d="M 10.865234 29.990234 C 9.4814844 31.200234 8.1620313 32.334375 6.9570312 33.359375 C 6.2307812 32.825625 5.34375 32.5 4.375 32.5 C 1.9575 32.5 0 34.4575 0 36.875 C 0 39.0975 1.6616406 40.912109 3.8066406 41.193359 C 4.0878906 43.339609 5.9025 45 8.125 45 C 10.54125 45 12.5 43.0425 12.5 40.625 C 12.5 39.65625 12.175078 38.767969 11.642578 38.042969 C 12.392578 37.160469 13.198438 36.217969 14.054688 35.230469 C 13.858438 34.775469 13.75 34.27625 13.75 33.75 C 13.75 33.29125 13.842891 32.859375 13.994141 32.453125 C 12.762891 31.894375 11.705234 31.100234 10.865234 29.990234 z M 10.816406 31.351562 C 11.440496 31.992622 12.133386 32.529249 12.898438 32.953125 C 12.847777 33.220162 12.75 33.462032 12.75 33.75 C 12.75 34.169743 12.890806 34.545058 12.994141 34.933594 C 12.255192 35.788233 11.53551 36.623881 10.878906 37.396484 L 10.367188 37.998047 L 10.835938 38.634766 C 11.253308 39.203017 11.5 39.880766 11.5 40.625 C 11.5 42.502341 10.001157 44 8.125 44 C 6.4008127 44 5.0167003 42.725107 4.7988281 41.0625 L 4.6992188 40.300781 L 3.9375 40.201172 C 2.2759933 39.983317 1 38.599187 1 36.875 C 1 34.997314 2.4973139 33.5 4.375 33.5 C 5.1200941 33.5 5.7957153 33.7455 6.3652344 34.164062 L 7.0019531 34.632812 L 7.6054688 34.121094 C 8.5952634 33.279152 9.6992912 32.322657 10.816406 31.351562 z "
     id="path38" /><path
     style="color:#000000;font-style:normal;font-variant:normal;font-weight:normal;font-stretch:normal;font-size:medium;line-height:normal;font-family:sans-serif;font-variant-ligatures:normal;font-variant-position:normal;font-variant-caps:normal;font-variant-numeric:normal;font-variant-alternates:normal;font-feature-settings:normal;text-indent:0;text-align:start;text-decoration:none;text-decoration-line:none;text-decoration-style:solid;text-decoration-color:#000000;letter-spacing:normal;word-spacing:normal;text-transform:none;writing-mode:lr-tb;direction:ltr;text-orientation:mixed;dominant-baseline:auto;baseline-shift:baseline;text-anchor:start;white-space:normal;shape-padding:0;clip-rule:nonzero;display:inline;overflow:visible;visibility:visible;opacity:1;isolation:auto;mix-blend-mode:normal;color-interpolation:sRGB;color-interpolation-filters:linearRGB;solid-color:#000000;solid-opacity:1;vector-effect:none;fill:#000000;fill-opacity:1;fill-rule:nonzero;stroke:none;stroke-width:2;stroke-linecap:butt;stroke-linejoin:miter;stroke-miterlimit:4;stroke-dasharray:none;stroke-dashoffset:0;stroke-opacity:1;color-rendering:auto;image-rendering:auto;shape-rendering:auto;text-rendering:auto;enable-background:accumulate"
     d="M 36.875 0 C 34.45875 0 32.5 1.95875 32.5 4.375 C 32.5 5.34375 32.824922 6.2300781 33.357422 6.9550781 C 32.614922 7.8300781 31.81625 8.7627344 30.96875 9.7402344 C 32.595 10.828984 33.921094 12.357734 34.839844 14.396484 C 35.944844 13.435234 36.999922 12.529063 37.982422 11.695312 C 38.694922 12.199063 39.56 12.5 40.5 12.5 C 42.91625 12.5 44.875 10.54125 44.875 8.125 C 44.875 5.94625 43.280312 4.1540625 41.195312 3.8203125 C 40.919063 1.6690625 39.1025 -2.9605947e-16 36.875 0 z M 36.875 0.99804688 C 38.603061 0.99804688 39.989081 2.2804274 40.203125 3.9472656 L 40.298828 4.6875 L 41.035156 4.8066406 C 42.647015 5.064654 43.875 6.4346798 43.875 8.125 C 43.875 10.000812 42.377765 11.5 40.501953 11.5 C 39.775606 11.5 39.114976 11.270897 38.560547 10.878906 L 37.927734 10.429688 L 37.337891 10.933594 C 36.627437 11.536485 35.841891 12.214899 35.064453 12.886719 C 34.323169 11.606318 33.420707 10.526636 32.359375 9.65625 C 32.964723 8.9542209 33.573428 8.248913 34.121094 7.6035156 L 34.632812 7 L 34.164062 6.3652344 C 33.746693 5.7969834 33.5 5.1192339 33.5 4.375 C 33.5 2.499188 34.999188 0.99804688 36.875 0.99804688 z "
     id="path42" /><path
     style="color:#000000;font-style:normal;font-variant:normal;font-weight:normal;font-stretch:normal;font-size:medium;line-height:normal;font-family:sans-serif;font-variant-ligatures:normal;font-variant-position:normal;font-variant-caps:normal;font-variant-numeric:normal;font-variant-alternates:normal;font-feature-settings:normal;text-indent:0;text-align:start;text-decoration:none;text-decoration-line:none;text-decoration-style:solid;text-decoration-color:#000000;letter-spacing:normal;word-spacing:normal;text-transform:none;writing-mode:lr-tb;direction:ltr;text-orientation:mixed;dominant-baseline:auto;baseline-shift:baseline;text-anchor:start;white-space:normal;shape-padding:0;clip-rule:nonzero;display:inline;overflow:visible;visibility:visible;opacity:1;isolation:auto;mix-blend-mode:normal;color-interpolation:sRGB;color-interpolation-filters:linearRGB;solid-color:#000000;solid-opacity:1;vector-effect:none;fill:#000000;fill-opacity:1;fill-rule:nonzero;stroke:none;stroke-width:2;stroke-linecap:butt;stroke-linejoin:miter;stroke-miterlimit:4;stroke-dasharray:none;stroke-dashoffset:0;stroke-opacity:1;color-rendering:auto;image-rendering:auto;shape-rendering:auto;text-rendering:auto;enable-background:accumulate"
     d="M 8.125 0 C 5.9025 0 4.0878906 1.6616406 3.8066406 3.8066406 C 1.6616406 4.0878906 -5.9211895e-16 5.90375 0 8.125 C 0 10.54125 1.95875 12.5 4.375 12.5 C 5.34375 12.5 6.2320312 12.174375 6.9570312 11.640625 C 7.9545313 12.489375 9.0326562 13.415938 10.160156 14.398438 C 11.078906 12.359687 12.405 10.828984 14.03125 9.7402344 C 13.1825 8.7627344 12.384375 7.8307813 11.640625 6.9570312 C 12.174375 6.2320313 12.5 5.34375 12.5 4.375 C 12.5 1.95875 10.54125 0 8.125 0 z M 8.125 1 C 10.000812 1 11.5 2.499188 11.5 4.375 C 11.5 5.1200941 11.253588 5.795979 10.835938 6.3632812 L 10.367188 7.0019531 L 10.878906 7.6035156 C 11.426376 8.2466775 12.034933 8.9537614 12.640625 9.65625 C 11.579569 10.526376 10.67496 11.604721 9.9335938 12.884766 C 9.1346401 12.194038 8.3284775 11.49576 7.6035156 10.878906 L 7.0019531 10.367188 L 6.3632812 10.835938 C 5.795979 11.253588 5.1200941 11.5 4.375 11.5 C 2.499188 11.5 1 10.000812 1 8.125 C 1 6.4027183 2.2763223 5.0166399 3.9375 4.7988281 L 4.6992188 4.6992188 L 4.7988281 3.9375 C 5.0166895 2.2759436 6.4011877 1 8.125 1 z "
     id="path46" /><path
     style="color:#000000;font-style:normal;font-variant:normal;font-weight:normal;font-stretch:normal;font-size:medium;line-height:normal;font-family:sans-serif;font-variant-ligatures:normal;font-variant-position:normal;font-variant-caps:normal;font-variant-numeric:normal;font-variant-alternates:normal;font-feature-settings:normal;text-indent:0;text-align:start;text-decoration:none;text-decoration-line:none;text-decoration-style:solid;text-decoration-color:#000000;letter-spacing:normal;word-spacing:normal;text-transform:none;writing-mode:lr-tb;direction:ltr;text-orientation:mixed;dominant-baseline:auto;baseline-shift:baseline;text-anchor:start;white-space:normal;shape-padding:0;clip-rule:nonzero;display:inline;overflow:visible;visibility:visible;opacity:1;isolation:auto;mix-blend-mode:normal;color-interpolation:sRGB;color-interpolation-filters:linearRGB;solid-color:#000000;solid-opacity:1;vector-effect:none;fill:#000000;fill-opacity:1;fill-rule:nonzero;stroke:none;stroke-width:2;stroke-linecap:butt;stroke-linejoin:miter;stroke-miterlimit:4;stroke-dasharray:none;stroke-dashoffset:0;stroke-opacity:1;color-rendering:auto;image-rendering:auto;shape-rendering:auto;text-rendering:auto;enable-background:accumulate"
     d="M 34.134766 29.988281 C 33.294766 31.099531 32.235859 31.894375 31.005859 32.453125 C 31.155859 32.859375 31.25 33.29125 31.25 33.75 C 31.25 34.27625 31.138359 34.775469 30.943359 35.230469 C 31.799609 36.217969 32.607422 37.160469 33.357422 38.042969 C 32.824922 38.767969 32.5 39.65625 32.5 40.625 C 32.5 43.0425 34.4575 45 36.875 45 C 39.10125 45 40.918359 43.332188 41.193359 41.179688 C 43.278359 40.845937 44.875 39.055 44.875 36.875 C 44.875 34.4575 42.9175 32.5 40.5 32.5 C 39.56 32.5 38.694922 32.802891 37.982422 33.306641 C 36.792422 32.295391 35.496016 31.179531 34.134766 29.988281 z M 34.183594 31.351562 C 35.278487 32.303874 36.361437 33.240239 37.335938 34.068359 L 37.925781 34.570312 L 38.560547 34.123047 C 39.115613 33.730606 39.774539 33.5 40.5 33.5 C 42.377686 33.5 43.875 34.997314 43.875 36.875 C 43.875 38.56685 42.649353 39.935284 41.037109 40.193359 L 40.296875 40.310547 L 40.203125 41.052734 C 39.990089 42.720227 38.601905 44 36.875 44 C 34.997314 44 33.5 42.502686 33.5 40.625 C 33.5 39.879906 33.747135 39.202415 34.164062 38.634766 L 34.632812 37.998047 L 34.119141 37.396484 C 33.462569 36.623919 32.744768 35.788187 32.005859 34.933594 C 32.109238 34.545553 32.25 34.171162 32.25 33.75 C 32.25 33.460821 32.152451 33.220036 32.101562 32.953125 C 32.866348 32.529322 33.559045 31.993234 34.183594 31.351562 z "
     id="path50" /></svg>